G75*
%MOIN*%
%OFA0B0*%
%FSLAX25Y25*%
%IPPOS*%
%LPD*%
%AMOC8*
5,1,8,0,0,1.08239X$1,22.5*
%
%ADD10C,0.00000*%
%ADD11C,0.00500*%
%ADD12C,0.00600*%
%ADD13C,0.00800*%
%ADD14C,0.02100*%
D10*
X0009487Y0021562D02*
X0021674Y0021562D01*
X0022924Y0020313D01*
X0022924Y0006250D01*
X0024174Y0005000D01*
X0030424Y0005000D01*
X0031674Y0006250D01*
X0031674Y0007812D01*
X0032924Y0009063D01*
X0051362Y0009063D01*
X0052612Y0007812D01*
X0052612Y0006250D01*
X0053862Y0005000D01*
X0060112Y0005000D01*
X0061362Y0006250D01*
X0061362Y0020313D01*
X0062612Y0021562D01*
X0083549Y0021562D01*
X0084799Y0022812D01*
X0084799Y0122187D01*
X0083549Y0123437D01*
X0042299Y0123437D01*
X0041049Y0124687D01*
X0041049Y0125937D01*
X0039799Y0127187D01*
X0009487Y0127187D01*
X0008237Y0125937D01*
X0008237Y0022812D01*
X0009487Y0021562D01*
X0059774Y0124560D02*
X0059776Y0124672D01*
X0059782Y0124783D01*
X0059792Y0124895D01*
X0059806Y0125006D01*
X0059823Y0125116D01*
X0059845Y0125226D01*
X0059871Y0125335D01*
X0059900Y0125443D01*
X0059933Y0125549D01*
X0059970Y0125655D01*
X0060011Y0125759D01*
X0060056Y0125862D01*
X0060104Y0125963D01*
X0060155Y0126062D01*
X0060210Y0126159D01*
X0060269Y0126254D01*
X0060330Y0126348D01*
X0060395Y0126439D01*
X0060464Y0126527D01*
X0060535Y0126613D01*
X0060609Y0126697D01*
X0060687Y0126777D01*
X0060767Y0126855D01*
X0060850Y0126931D01*
X0060935Y0127003D01*
X0061023Y0127072D01*
X0061113Y0127138D01*
X0061206Y0127200D01*
X0061301Y0127260D01*
X0061398Y0127316D01*
X0061496Y0127368D01*
X0061597Y0127417D01*
X0061699Y0127462D01*
X0061803Y0127504D01*
X0061908Y0127542D01*
X0062015Y0127576D01*
X0062122Y0127606D01*
X0062231Y0127633D01*
X0062340Y0127655D01*
X0062451Y0127674D01*
X0062561Y0127689D01*
X0062673Y0127700D01*
X0062784Y0127707D01*
X0062896Y0127710D01*
X0063008Y0127709D01*
X0063120Y0127704D01*
X0063231Y0127695D01*
X0063342Y0127682D01*
X0063453Y0127665D01*
X0063563Y0127645D01*
X0063672Y0127620D01*
X0063780Y0127592D01*
X0063887Y0127559D01*
X0063993Y0127523D01*
X0064097Y0127483D01*
X0064200Y0127440D01*
X0064302Y0127393D01*
X0064401Y0127342D01*
X0064499Y0127288D01*
X0064595Y0127230D01*
X0064689Y0127169D01*
X0064780Y0127105D01*
X0064869Y0127038D01*
X0064956Y0126967D01*
X0065040Y0126893D01*
X0065122Y0126817D01*
X0065200Y0126737D01*
X0065276Y0126655D01*
X0065349Y0126570D01*
X0065419Y0126483D01*
X0065485Y0126393D01*
X0065549Y0126301D01*
X0065609Y0126207D01*
X0065666Y0126111D01*
X0065719Y0126012D01*
X0065769Y0125912D01*
X0065815Y0125811D01*
X0065858Y0125707D01*
X0065897Y0125602D01*
X0065932Y0125496D01*
X0065963Y0125389D01*
X0065991Y0125280D01*
X0066014Y0125171D01*
X0066034Y0125061D01*
X0066050Y0124950D01*
X0066062Y0124839D01*
X0066070Y0124728D01*
X0066074Y0124616D01*
X0066074Y0124504D01*
X0066070Y0124392D01*
X0066062Y0124281D01*
X0066050Y0124170D01*
X0066034Y0124059D01*
X0066014Y0123949D01*
X0065991Y0123840D01*
X0065963Y0123731D01*
X0065932Y0123624D01*
X0065897Y0123518D01*
X0065858Y0123413D01*
X0065815Y0123309D01*
X0065769Y0123208D01*
X0065719Y0123108D01*
X0065666Y0123009D01*
X0065609Y0122913D01*
X0065549Y0122819D01*
X0065485Y0122727D01*
X0065419Y0122637D01*
X0065349Y0122550D01*
X0065276Y0122465D01*
X0065200Y0122383D01*
X0065122Y0122303D01*
X0065040Y0122227D01*
X0064956Y0122153D01*
X0064869Y0122082D01*
X0064780Y0122015D01*
X0064689Y0121951D01*
X0064595Y0121890D01*
X0064499Y0121832D01*
X0064401Y0121778D01*
X0064302Y0121727D01*
X0064200Y0121680D01*
X0064097Y0121637D01*
X0063993Y0121597D01*
X0063887Y0121561D01*
X0063780Y0121528D01*
X0063672Y0121500D01*
X0063563Y0121475D01*
X0063453Y0121455D01*
X0063342Y0121438D01*
X0063231Y0121425D01*
X0063120Y0121416D01*
X0063008Y0121411D01*
X0062896Y0121410D01*
X0062784Y0121413D01*
X0062673Y0121420D01*
X0062561Y0121431D01*
X0062451Y0121446D01*
X0062340Y0121465D01*
X0062231Y0121487D01*
X0062122Y0121514D01*
X0062015Y0121544D01*
X0061908Y0121578D01*
X0061803Y0121616D01*
X0061699Y0121658D01*
X0061597Y0121703D01*
X0061496Y0121752D01*
X0061398Y0121804D01*
X0061301Y0121860D01*
X0061206Y0121920D01*
X0061113Y0121982D01*
X0061023Y0122048D01*
X0060935Y0122117D01*
X0060850Y0122189D01*
X0060767Y0122265D01*
X0060687Y0122343D01*
X0060609Y0122423D01*
X0060535Y0122507D01*
X0060464Y0122593D01*
X0060395Y0122681D01*
X0060330Y0122772D01*
X0060269Y0122866D01*
X0060210Y0122961D01*
X0060155Y0123058D01*
X0060104Y0123157D01*
X0060056Y0123258D01*
X0060011Y0123361D01*
X0059970Y0123465D01*
X0059933Y0123571D01*
X0059900Y0123677D01*
X0059871Y0123785D01*
X0059845Y0123894D01*
X0059823Y0124004D01*
X0059806Y0124114D01*
X0059792Y0124225D01*
X0059782Y0124337D01*
X0059776Y0124448D01*
X0059774Y0124560D01*
D11*
X0059793Y0118852D02*
X0058893Y0118852D01*
X0058442Y0118402D01*
X0058442Y0116600D01*
X0060244Y0118402D01*
X0060244Y0116600D01*
X0059793Y0116150D01*
X0058893Y0116150D01*
X0058442Y0116600D01*
X0057297Y0117501D02*
X0055496Y0117501D01*
X0054351Y0118852D02*
X0053450Y0118852D01*
X0053900Y0118852D02*
X0053900Y0116600D01*
X0053450Y0116150D01*
X0052999Y0116150D01*
X0052549Y0116600D01*
X0051404Y0116600D02*
X0050954Y0116150D01*
X0050053Y0116150D01*
X0049603Y0116600D01*
X0049603Y0118402D01*
X0050053Y0118852D01*
X0050954Y0118852D01*
X0051404Y0118402D01*
X0048458Y0118402D02*
X0048458Y0117501D01*
X0048007Y0117051D01*
X0046656Y0117051D01*
X0047557Y0117051D02*
X0048458Y0116150D01*
X0046656Y0116150D02*
X0046656Y0118852D01*
X0048007Y0118852D01*
X0048458Y0118402D01*
X0046851Y0110140D02*
X0045049Y0110140D01*
X0045950Y0110140D02*
X0045950Y0107437D01*
X0047996Y0107437D02*
X0049797Y0109239D01*
X0050942Y0108789D02*
X0052744Y0108789D01*
X0049797Y0107437D02*
X0047996Y0109239D01*
X0036271Y0110987D02*
X0034920Y0110987D01*
X0034470Y0111438D01*
X0034470Y0112339D01*
X0034920Y0112789D01*
X0036271Y0112789D01*
X0036271Y0113690D02*
X0036271Y0110987D01*
X0033325Y0111888D02*
X0031523Y0111888D01*
X0031523Y0111438D02*
X0031523Y0112339D01*
X0031973Y0112789D01*
X0032874Y0112789D01*
X0033325Y0112339D01*
X0033325Y0111888D01*
X0032874Y0110987D02*
X0031973Y0110987D01*
X0031523Y0111438D01*
X0030419Y0112789D02*
X0029968Y0112789D01*
X0029068Y0111888D01*
X0029068Y0110987D02*
X0029068Y0112789D01*
X0027554Y0112789D02*
X0027554Y0110987D01*
X0028004Y0110987D02*
X0027103Y0110987D01*
X0026941Y0108890D02*
X0025139Y0108890D01*
X0025139Y0106187D01*
X0025139Y0107539D02*
X0026040Y0107539D01*
X0024157Y0110087D02*
X0024157Y0112789D01*
X0025508Y0112789D01*
X0025958Y0112339D01*
X0025958Y0111438D01*
X0025508Y0110987D01*
X0024157Y0110987D01*
X0023012Y0111438D02*
X0022561Y0111888D01*
X0021661Y0111888D01*
X0021210Y0112339D01*
X0021661Y0112789D01*
X0023012Y0112789D01*
X0023012Y0111438D02*
X0022561Y0110987D01*
X0021210Y0110987D01*
X0020065Y0110987D02*
X0020065Y0112339D01*
X0019615Y0112789D01*
X0018264Y0112789D01*
X0018264Y0110987D01*
X0017200Y0110987D02*
X0016299Y0110987D01*
X0016750Y0110987D02*
X0016750Y0112789D01*
X0016299Y0112789D01*
X0016750Y0113690D02*
X0016750Y0114140D01*
X0016299Y0108890D02*
X0016299Y0106187D01*
X0017651Y0106187D01*
X0018101Y0106638D01*
X0018101Y0107539D01*
X0017651Y0107989D01*
X0016299Y0107989D01*
X0019246Y0107989D02*
X0019246Y0106638D01*
X0019696Y0106187D01*
X0021047Y0106187D01*
X0021047Y0105737D02*
X0020597Y0105287D01*
X0020147Y0105287D01*
X0021047Y0105737D02*
X0021047Y0107989D01*
X0021047Y0100140D02*
X0021047Y0097437D01*
X0019246Y0100140D01*
X0019246Y0097437D01*
X0018101Y0097888D02*
X0018101Y0098789D01*
X0017200Y0098789D01*
X0016299Y0099689D02*
X0016299Y0097888D01*
X0016750Y0097437D01*
X0017651Y0097437D01*
X0018101Y0097888D01*
X0018101Y0099689D02*
X0017651Y0100140D01*
X0016750Y0100140D01*
X0016299Y0099689D01*
X0022192Y0100140D02*
X0022192Y0097437D01*
X0023544Y0097437D01*
X0023994Y0097888D01*
X0023994Y0099689D01*
X0023544Y0100140D01*
X0022192Y0100140D01*
X0028085Y0106187D02*
X0028085Y0108890D01*
X0029437Y0108890D01*
X0029887Y0108439D01*
X0029887Y0107989D01*
X0029437Y0107539D01*
X0028085Y0107539D01*
X0028085Y0106187D02*
X0029437Y0106187D01*
X0029887Y0106638D01*
X0029887Y0107088D01*
X0029437Y0107539D01*
X0031032Y0108890D02*
X0032834Y0106187D01*
X0031032Y0106187D02*
X0032834Y0108890D01*
X0027554Y0112789D02*
X0027103Y0112789D01*
X0027554Y0113690D02*
X0027554Y0114140D01*
X0030812Y0093890D02*
X0030362Y0093439D01*
X0030362Y0091638D01*
X0030812Y0091187D01*
X0031713Y0091187D01*
X0032163Y0091638D01*
X0033308Y0091638D02*
X0033759Y0091187D01*
X0034660Y0091187D01*
X0035110Y0091638D01*
X0035110Y0092088D01*
X0034660Y0092539D01*
X0034209Y0092539D01*
X0034660Y0092539D02*
X0035110Y0092989D01*
X0035110Y0093439D01*
X0034660Y0093890D01*
X0033759Y0093890D01*
X0033308Y0093439D01*
X0032163Y0093439D02*
X0031713Y0093890D01*
X0030812Y0093890D01*
X0026397Y0087952D02*
X0026397Y0085250D01*
X0027297Y0085250D02*
X0025496Y0085250D01*
X0025496Y0087052D02*
X0026397Y0087952D01*
X0024351Y0087952D02*
X0023450Y0087952D01*
X0023901Y0087952D02*
X0023901Y0085700D01*
X0023450Y0085250D01*
X0023000Y0085250D01*
X0022549Y0085700D01*
X0012674Y0080623D02*
X0012674Y0078822D01*
X0010873Y0080623D01*
X0010422Y0080623D01*
X0009972Y0080173D01*
X0009972Y0079272D01*
X0010422Y0078822D01*
X0010422Y0077677D02*
X0009972Y0077226D01*
X0009972Y0075875D01*
X0012674Y0075875D01*
X0011774Y0075875D02*
X0011774Y0077226D01*
X0011323Y0077677D01*
X0010422Y0077677D01*
X0011774Y0076776D02*
X0012674Y0077677D01*
X0012674Y0068748D02*
X0012674Y0066947D01*
X0012674Y0067847D02*
X0009972Y0067847D01*
X0010873Y0066947D01*
X0010422Y0065802D02*
X0011323Y0065802D01*
X0011774Y0065351D01*
X0011774Y0064000D01*
X0012674Y0064000D02*
X0009972Y0064000D01*
X0009972Y0065351D01*
X0010422Y0065802D01*
X0011774Y0064901D02*
X0012674Y0065802D01*
X0012651Y0059202D02*
X0011750Y0059202D01*
X0011299Y0058752D01*
X0011299Y0056950D01*
X0011750Y0056500D01*
X0012651Y0056500D01*
X0013101Y0056950D01*
X0014246Y0056500D02*
X0016047Y0056500D01*
X0015147Y0056500D02*
X0015147Y0059202D01*
X0014246Y0058302D01*
X0013101Y0058752D02*
X0012651Y0059202D01*
X0017049Y0037186D02*
X0017049Y0035384D01*
X0017049Y0036285D02*
X0014347Y0036285D01*
X0015248Y0035384D01*
X0014347Y0034239D02*
X0016599Y0034239D01*
X0017049Y0033789D01*
X0017049Y0032888D01*
X0016599Y0032437D01*
X0014347Y0032437D01*
X0024875Y0012640D02*
X0024424Y0012189D01*
X0024424Y0010388D01*
X0024875Y0009938D01*
X0025776Y0009938D01*
X0026226Y0010388D01*
X0026226Y0011289D01*
X0025325Y0011289D01*
X0026226Y0012189D02*
X0025776Y0012640D01*
X0024875Y0012640D01*
X0027371Y0012640D02*
X0027371Y0009938D01*
X0029172Y0009938D02*
X0027371Y0012640D01*
X0029172Y0012640D02*
X0029172Y0009938D01*
X0030317Y0009938D02*
X0031669Y0009938D01*
X0032119Y0010388D01*
X0032119Y0012189D01*
X0031669Y0012640D01*
X0030317Y0012640D01*
X0030317Y0009938D01*
X0052237Y0010838D02*
X0053138Y0009938D01*
X0054038Y0010838D01*
X0054038Y0012640D01*
X0055183Y0011289D02*
X0055183Y0010388D01*
X0055634Y0009938D01*
X0056985Y0009938D01*
X0058130Y0010388D02*
X0058130Y0011289D01*
X0058580Y0011739D01*
X0059931Y0011739D01*
X0059931Y0009938D02*
X0058580Y0009938D01*
X0058130Y0010388D01*
X0056985Y0011739D02*
X0055634Y0011739D01*
X0055183Y0011289D01*
X0052237Y0010838D02*
X0052237Y0012640D01*
X0073487Y0024138D02*
X0073937Y0023687D01*
X0074838Y0023687D01*
X0075288Y0024138D01*
X0075288Y0025039D01*
X0074838Y0025489D01*
X0074388Y0025489D01*
X0073487Y0025039D01*
X0073487Y0026390D01*
X0075288Y0026390D01*
X0075151Y0028687D02*
X0075151Y0031390D01*
X0073799Y0030039D01*
X0075601Y0030039D01*
X0075151Y0033688D02*
X0074250Y0033688D01*
X0073799Y0034138D01*
X0074700Y0035039D02*
X0075151Y0035039D01*
X0075601Y0034588D01*
X0075601Y0034138D01*
X0075151Y0033688D01*
X0075151Y0035039D02*
X0075601Y0035489D01*
X0075601Y0035939D01*
X0075151Y0036390D01*
X0074250Y0036390D01*
X0073799Y0035939D01*
X0073799Y0038688D02*
X0075601Y0040489D01*
X0075601Y0040939D01*
X0075151Y0041390D01*
X0074250Y0041390D01*
X0073799Y0040939D01*
X0073799Y0038688D02*
X0075601Y0038688D01*
X0075601Y0043687D02*
X0073799Y0043687D01*
X0074700Y0043687D02*
X0074700Y0046390D01*
X0073799Y0045489D01*
X0073547Y0055875D02*
X0073547Y0058577D01*
X0074692Y0058577D02*
X0076044Y0058577D01*
X0076494Y0058127D01*
X0076494Y0056325D01*
X0076044Y0055875D01*
X0074692Y0055875D01*
X0074692Y0058577D01*
X0073547Y0055875D02*
X0071746Y0058577D01*
X0071746Y0055875D01*
X0070601Y0056325D02*
X0070151Y0055875D01*
X0069250Y0055875D01*
X0068799Y0056325D01*
X0068799Y0058127D01*
X0069250Y0058577D01*
X0070151Y0058577D01*
X0070601Y0058127D01*
X0070601Y0057226D02*
X0069700Y0057226D01*
X0070601Y0057226D02*
X0070601Y0056325D01*
X0067237Y0058687D02*
X0039237Y0058687D01*
X0039237Y0090687D01*
X0067237Y0090687D01*
X0067237Y0058687D01*
X0066535Y0053265D02*
X0065634Y0053265D01*
X0065183Y0052814D01*
X0066535Y0053265D02*
X0066985Y0052814D01*
X0066985Y0052364D01*
X0065183Y0050562D01*
X0066985Y0050562D01*
X0064038Y0051013D02*
X0063588Y0050562D01*
X0062687Y0050562D01*
X0062237Y0051013D01*
X0062237Y0052814D01*
X0062687Y0053265D01*
X0063588Y0053265D01*
X0064038Y0052814D01*
X0060853Y0070000D02*
X0060853Y0072702D01*
X0062655Y0072702D01*
X0061754Y0071351D02*
X0060853Y0071351D01*
X0059708Y0070000D02*
X0057907Y0070000D01*
X0057907Y0072702D01*
X0056762Y0072252D02*
X0056311Y0072702D01*
X0055411Y0072702D01*
X0054960Y0072252D01*
X0054960Y0071802D01*
X0055411Y0071351D01*
X0056311Y0071351D01*
X0056762Y0070901D01*
X0056762Y0070450D01*
X0056311Y0070000D01*
X0055411Y0070000D01*
X0054960Y0070450D01*
X0053815Y0070000D02*
X0053815Y0072702D01*
X0052014Y0072702D02*
X0053815Y0070000D01*
X0052014Y0070000D02*
X0052014Y0072702D01*
X0050869Y0070000D02*
X0049067Y0070000D01*
X0049968Y0070000D02*
X0049968Y0072702D01*
X0049067Y0071802D01*
X0047922Y0071802D02*
X0047922Y0070000D01*
X0047922Y0071351D02*
X0046121Y0071351D01*
X0046121Y0071802D02*
X0046121Y0070000D01*
X0044976Y0070450D02*
X0044976Y0072252D01*
X0044525Y0072702D01*
X0043174Y0072702D01*
X0043174Y0070000D01*
X0044525Y0070000D01*
X0044976Y0070450D01*
X0046121Y0071802D02*
X0047021Y0072702D01*
X0047922Y0071802D01*
X0047021Y0074800D02*
X0047021Y0077502D01*
X0046121Y0077502D02*
X0047922Y0077502D01*
X0049067Y0077052D02*
X0049067Y0075250D01*
X0049518Y0074800D01*
X0050418Y0074800D01*
X0050869Y0075250D01*
X0050869Y0076151D01*
X0049968Y0076151D01*
X0050869Y0077052D02*
X0050418Y0077502D01*
X0049518Y0077502D01*
X0049067Y0077052D01*
X0052014Y0076602D02*
X0052914Y0077502D01*
X0052914Y0074800D01*
X0052014Y0074800D02*
X0053815Y0074800D01*
X0054960Y0075250D02*
X0054960Y0077052D01*
X0055411Y0077502D01*
X0056311Y0077502D01*
X0056762Y0077052D01*
X0054960Y0075250D01*
X0055411Y0074800D01*
X0056311Y0074800D01*
X0056762Y0075250D01*
X0056762Y0077052D01*
X0057907Y0076151D02*
X0059708Y0076151D01*
X0078097Y0075027D02*
X0078998Y0075928D01*
X0079899Y0075928D01*
X0080799Y0075027D01*
X0081250Y0076991D02*
X0081250Y0078793D01*
X0081250Y0079938D02*
X0081250Y0081739D01*
X0080799Y0082884D02*
X0078097Y0084686D01*
X0078097Y0085831D02*
X0078998Y0086732D01*
X0079899Y0086732D01*
X0080799Y0085831D01*
X0081250Y0087795D02*
X0081250Y0089597D01*
X0078097Y0073882D02*
X0080799Y0072081D01*
X0081250Y0070936D02*
X0081250Y0069134D01*
X0081250Y0067989D02*
X0081250Y0066188D01*
X0066843Y0107888D02*
X0066843Y0109689D01*
X0065942Y0108789D02*
X0067744Y0108789D01*
X0064797Y0109239D02*
X0062996Y0107437D01*
X0064797Y0107437D02*
X0062996Y0109239D01*
X0061851Y0110140D02*
X0060049Y0110140D01*
X0060950Y0110140D02*
X0060950Y0107437D01*
X0061389Y0116150D02*
X0063190Y0116150D01*
X0062289Y0116150D02*
X0062289Y0118852D01*
X0061389Y0117952D01*
X0060244Y0118402D02*
X0059793Y0118852D01*
X0064335Y0118852D02*
X0066137Y0116150D01*
X0067282Y0117501D02*
X0069083Y0117501D01*
X0070228Y0117952D02*
X0070228Y0118402D01*
X0070679Y0118852D01*
X0071579Y0118852D01*
X0072030Y0118402D01*
X0071579Y0117501D02*
X0072030Y0117051D01*
X0072030Y0116600D01*
X0071579Y0116150D01*
X0070679Y0116150D01*
X0070228Y0116600D01*
X0070679Y0117501D02*
X0071579Y0117501D01*
X0070679Y0117501D02*
X0070228Y0117952D01*
X0073175Y0118852D02*
X0073175Y0116150D01*
X0074075Y0117952D02*
X0074976Y0118852D01*
X0074976Y0116150D01*
X0074075Y0117952D02*
X0073175Y0118852D01*
X0076121Y0118852D02*
X0077923Y0118852D01*
X0077022Y0118852D02*
X0077022Y0116150D01*
X0066137Y0118852D02*
X0064335Y0116150D01*
D12*
X0079263Y0125347D02*
X0079263Y0128674D01*
X0079263Y0125347D02*
X0082924Y0125347D01*
X0082924Y0119835D01*
X0082924Y0115898D02*
X0082924Y0110386D01*
X0082924Y0106449D02*
X0082924Y0100937D01*
X0079263Y0132611D02*
X0079263Y0135938D01*
X0046586Y0135938D02*
X0046586Y0132611D01*
X0046586Y0128674D02*
X0046586Y0125347D01*
X0042924Y0125347D01*
X0042924Y0119835D01*
X0042924Y0115898D02*
X0042924Y0110386D01*
X0042924Y0106449D02*
X0042924Y0100937D01*
X0039407Y0116737D02*
X0038273Y0116737D01*
X0037706Y0117305D01*
X0037706Y0117872D01*
X0038273Y0118439D01*
X0039407Y0118439D01*
X0039974Y0117872D01*
X0039974Y0117305D01*
X0039407Y0116737D01*
X0039407Y0118439D02*
X0039974Y0119006D01*
X0039974Y0119573D01*
X0039407Y0120140D01*
X0038273Y0120140D01*
X0037706Y0119573D01*
X0037706Y0119006D01*
X0038273Y0118439D01*
X0036291Y0119006D02*
X0035724Y0118439D01*
X0036291Y0117872D01*
X0036291Y0117305D01*
X0035724Y0116737D01*
X0034590Y0116737D01*
X0034023Y0117305D01*
X0032608Y0117305D02*
X0032608Y0119573D01*
X0032041Y0120140D01*
X0030907Y0120140D01*
X0030339Y0119573D01*
X0030339Y0119006D01*
X0030907Y0118439D01*
X0032608Y0118439D01*
X0032608Y0117305D02*
X0032041Y0116737D01*
X0030907Y0116737D01*
X0030339Y0117305D01*
X0028925Y0118439D02*
X0026656Y0118439D01*
X0028358Y0120140D01*
X0028358Y0116737D01*
X0025335Y0116737D02*
X0024201Y0116737D01*
X0024768Y0116737D02*
X0024768Y0119006D01*
X0024201Y0119006D01*
X0024768Y0120140D02*
X0024768Y0120708D01*
X0022880Y0119006D02*
X0021745Y0119006D01*
X0022313Y0119573D02*
X0022313Y0117305D01*
X0022880Y0116737D01*
X0020378Y0119006D02*
X0019810Y0119006D01*
X0018676Y0117872D01*
X0018676Y0119006D02*
X0018676Y0116737D01*
X0017262Y0117305D02*
X0017262Y0118439D01*
X0016694Y0119006D01*
X0015560Y0119006D01*
X0014993Y0118439D01*
X0014993Y0117305D01*
X0015560Y0116737D01*
X0016694Y0116737D01*
X0017262Y0117305D01*
X0013578Y0117305D02*
X0013578Y0118439D01*
X0013011Y0119006D01*
X0011310Y0119006D01*
X0011310Y0120140D02*
X0011310Y0116737D01*
X0013011Y0116737D01*
X0013578Y0117305D01*
X0021987Y0093750D02*
X0024487Y0093750D01*
X0024487Y0090625D02*
X0021987Y0090625D01*
X0021799Y0084188D02*
X0027799Y0084188D01*
X0027859Y0084186D01*
X0027920Y0084181D01*
X0027979Y0084172D01*
X0028038Y0084159D01*
X0028097Y0084143D01*
X0028154Y0084123D01*
X0028209Y0084100D01*
X0028264Y0084073D01*
X0028316Y0084044D01*
X0028367Y0084011D01*
X0028416Y0083975D01*
X0028462Y0083937D01*
X0028506Y0083895D01*
X0028548Y0083851D01*
X0028586Y0083805D01*
X0028622Y0083756D01*
X0028655Y0083705D01*
X0028684Y0083653D01*
X0028711Y0083598D01*
X0028734Y0083543D01*
X0028754Y0083486D01*
X0028770Y0083427D01*
X0028783Y0083368D01*
X0028792Y0083309D01*
X0028797Y0083248D01*
X0028799Y0083188D01*
X0028799Y0066188D01*
X0028797Y0066128D01*
X0028792Y0066067D01*
X0028783Y0066008D01*
X0028770Y0065949D01*
X0028754Y0065890D01*
X0028734Y0065833D01*
X0028711Y0065778D01*
X0028684Y0065723D01*
X0028655Y0065671D01*
X0028622Y0065620D01*
X0028586Y0065571D01*
X0028548Y0065525D01*
X0028506Y0065481D01*
X0028462Y0065439D01*
X0028416Y0065401D01*
X0028367Y0065365D01*
X0028316Y0065332D01*
X0028264Y0065303D01*
X0028209Y0065276D01*
X0028154Y0065253D01*
X0028097Y0065233D01*
X0028038Y0065217D01*
X0027979Y0065204D01*
X0027920Y0065195D01*
X0027859Y0065190D01*
X0027799Y0065188D01*
X0027799Y0065187D02*
X0021799Y0065187D01*
X0021799Y0065188D02*
X0021739Y0065190D01*
X0021678Y0065195D01*
X0021619Y0065204D01*
X0021560Y0065217D01*
X0021501Y0065233D01*
X0021444Y0065253D01*
X0021389Y0065276D01*
X0021334Y0065303D01*
X0021282Y0065332D01*
X0021231Y0065365D01*
X0021182Y0065401D01*
X0021136Y0065439D01*
X0021092Y0065481D01*
X0021050Y0065525D01*
X0021012Y0065571D01*
X0020976Y0065620D01*
X0020943Y0065671D01*
X0020914Y0065723D01*
X0020887Y0065778D01*
X0020864Y0065833D01*
X0020844Y0065890D01*
X0020828Y0065949D01*
X0020815Y0066008D01*
X0020806Y0066067D01*
X0020801Y0066128D01*
X0020799Y0066188D01*
X0020799Y0083188D01*
X0020801Y0083248D01*
X0020806Y0083309D01*
X0020815Y0083368D01*
X0020828Y0083427D01*
X0020844Y0083486D01*
X0020864Y0083543D01*
X0020887Y0083598D01*
X0020914Y0083653D01*
X0020943Y0083705D01*
X0020976Y0083756D01*
X0021012Y0083805D01*
X0021050Y0083851D01*
X0021092Y0083895D01*
X0021136Y0083937D01*
X0021182Y0083975D01*
X0021231Y0084011D01*
X0021282Y0084044D01*
X0021334Y0084073D01*
X0021389Y0084100D01*
X0021444Y0084123D01*
X0021501Y0084143D01*
X0021560Y0084159D01*
X0021619Y0084172D01*
X0021678Y0084181D01*
X0021739Y0084186D01*
X0021799Y0084188D01*
X0019799Y0082188D02*
X0019799Y0074688D01*
X0017299Y0076563D02*
X0017299Y0079063D01*
X0014174Y0079063D02*
X0014174Y0076563D01*
X0014174Y0067500D02*
X0014174Y0065000D01*
X0017299Y0065000D02*
X0017299Y0067500D01*
X0014799Y0050937D02*
X0014799Y0048437D01*
X0011674Y0048437D02*
X0011674Y0050937D01*
X0029799Y0074688D02*
X0029799Y0082188D01*
X0035157Y0118439D02*
X0035724Y0118439D01*
X0036291Y0119006D02*
X0036291Y0119573D01*
X0035724Y0120140D01*
X0034590Y0120140D01*
X0034023Y0119573D01*
X0063237Y0045000D02*
X0063237Y0042500D01*
X0066362Y0042500D02*
X0066362Y0045000D01*
X0053509Y0018890D02*
X0052374Y0018890D01*
X0051807Y0018323D01*
X0051807Y0017756D01*
X0052374Y0017189D01*
X0053509Y0017189D01*
X0054076Y0016622D01*
X0054076Y0016055D01*
X0053509Y0015487D01*
X0052374Y0015487D01*
X0051807Y0016055D01*
X0050393Y0015487D02*
X0048124Y0015487D01*
X0048124Y0018890D01*
X0050393Y0018890D01*
X0049258Y0017189D02*
X0048124Y0017189D01*
X0046710Y0018890D02*
X0046710Y0015487D01*
X0044441Y0018890D01*
X0044441Y0015487D01*
X0043026Y0016055D02*
X0043026Y0016622D01*
X0042459Y0017189D01*
X0041325Y0017189D01*
X0040758Y0017756D01*
X0040758Y0018323D01*
X0041325Y0018890D01*
X0042459Y0018890D01*
X0043026Y0018323D01*
X0043026Y0016055D02*
X0042459Y0015487D01*
X0041325Y0015487D01*
X0040758Y0016055D01*
X0039343Y0017189D02*
X0037075Y0017189D01*
X0038776Y0018890D01*
X0038776Y0015487D01*
X0035660Y0015487D02*
X0035660Y0017756D01*
X0034526Y0018890D01*
X0033392Y0017756D01*
X0033392Y0015487D01*
X0031977Y0016055D02*
X0031977Y0018323D01*
X0031410Y0018890D01*
X0029708Y0018890D01*
X0029708Y0015487D01*
X0031410Y0015487D01*
X0031977Y0016055D01*
X0033392Y0017189D02*
X0035660Y0017189D01*
X0030299Y0008000D02*
X0029299Y0008000D01*
X0030299Y0008000D02*
X0030299Y0007000D01*
X0030299Y0003000D02*
X0030299Y0002000D01*
X0029299Y0002000D01*
X0025299Y0002000D02*
X0024299Y0002000D01*
X0024299Y0003000D01*
X0024299Y0007000D02*
X0024299Y0008000D01*
X0025299Y0008000D01*
X0053509Y0018890D02*
X0054076Y0018323D01*
X0053987Y0008000D02*
X0053987Y0007000D01*
X0053987Y0008000D02*
X0054987Y0008000D01*
X0053987Y0003000D02*
X0053987Y0002000D01*
X0054987Y0002000D01*
X0058987Y0002000D02*
X0059987Y0002000D01*
X0059987Y0003000D01*
X0059987Y0007000D02*
X0059987Y0008000D01*
X0058987Y0008000D01*
D13*
X0058385Y0031223D02*
X0020589Y0031223D01*
X0020589Y0048152D01*
X0058385Y0048152D01*
X0058385Y0031223D01*
X0023148Y0034569D02*
X0023150Y0034640D01*
X0023156Y0034711D01*
X0023166Y0034782D01*
X0023180Y0034851D01*
X0023197Y0034920D01*
X0023219Y0034988D01*
X0023244Y0035055D01*
X0023273Y0035120D01*
X0023305Y0035183D01*
X0023341Y0035245D01*
X0023380Y0035304D01*
X0023423Y0035361D01*
X0023468Y0035416D01*
X0023517Y0035468D01*
X0023568Y0035517D01*
X0023622Y0035563D01*
X0023679Y0035607D01*
X0023737Y0035647D01*
X0023798Y0035683D01*
X0023861Y0035717D01*
X0023926Y0035746D01*
X0023992Y0035772D01*
X0024060Y0035795D01*
X0024128Y0035813D01*
X0024198Y0035828D01*
X0024268Y0035839D01*
X0024339Y0035846D01*
X0024410Y0035849D01*
X0024481Y0035848D01*
X0024552Y0035843D01*
X0024623Y0035834D01*
X0024693Y0035821D01*
X0024762Y0035805D01*
X0024830Y0035784D01*
X0024897Y0035760D01*
X0024963Y0035732D01*
X0025026Y0035700D01*
X0025088Y0035665D01*
X0025148Y0035627D01*
X0025206Y0035585D01*
X0025261Y0035541D01*
X0025314Y0035493D01*
X0025364Y0035442D01*
X0025411Y0035389D01*
X0025455Y0035333D01*
X0025496Y0035275D01*
X0025534Y0035214D01*
X0025568Y0035152D01*
X0025598Y0035087D01*
X0025625Y0035022D01*
X0025649Y0034954D01*
X0025668Y0034886D01*
X0025684Y0034817D01*
X0025696Y0034746D01*
X0025704Y0034676D01*
X0025708Y0034605D01*
X0025708Y0034533D01*
X0025704Y0034462D01*
X0025696Y0034392D01*
X0025684Y0034321D01*
X0025668Y0034252D01*
X0025649Y0034184D01*
X0025625Y0034116D01*
X0025598Y0034051D01*
X0025568Y0033986D01*
X0025534Y0033924D01*
X0025496Y0033863D01*
X0025455Y0033805D01*
X0025411Y0033749D01*
X0025364Y0033696D01*
X0025314Y0033645D01*
X0025261Y0033597D01*
X0025206Y0033553D01*
X0025148Y0033511D01*
X0025088Y0033473D01*
X0025026Y0033438D01*
X0024963Y0033406D01*
X0024897Y0033378D01*
X0024830Y0033354D01*
X0024762Y0033333D01*
X0024693Y0033317D01*
X0024623Y0033304D01*
X0024552Y0033295D01*
X0024481Y0033290D01*
X0024410Y0033289D01*
X0024339Y0033292D01*
X0024268Y0033299D01*
X0024198Y0033310D01*
X0024128Y0033325D01*
X0024060Y0033343D01*
X0023992Y0033366D01*
X0023926Y0033392D01*
X0023861Y0033421D01*
X0023798Y0033455D01*
X0023737Y0033491D01*
X0023679Y0033531D01*
X0023622Y0033575D01*
X0023568Y0033621D01*
X0023517Y0033670D01*
X0023468Y0033722D01*
X0023423Y0033777D01*
X0023380Y0033834D01*
X0023341Y0033893D01*
X0023305Y0033955D01*
X0023273Y0034018D01*
X0023244Y0034083D01*
X0023219Y0034150D01*
X0023197Y0034218D01*
X0023180Y0034287D01*
X0023166Y0034356D01*
X0023156Y0034427D01*
X0023150Y0034498D01*
X0023148Y0034569D01*
D14*
X0042637Y0086188D02*
X0042639Y0086254D01*
X0042645Y0086319D01*
X0042655Y0086384D01*
X0042668Y0086449D01*
X0042686Y0086512D01*
X0042707Y0086575D01*
X0042732Y0086635D01*
X0042761Y0086695D01*
X0042793Y0086752D01*
X0042828Y0086808D01*
X0042867Y0086861D01*
X0042909Y0086912D01*
X0042953Y0086960D01*
X0043001Y0087005D01*
X0043051Y0087048D01*
X0043104Y0087087D01*
X0043159Y0087124D01*
X0043216Y0087157D01*
X0043275Y0087186D01*
X0043335Y0087212D01*
X0043397Y0087234D01*
X0043460Y0087253D01*
X0043524Y0087267D01*
X0043589Y0087278D01*
X0043655Y0087285D01*
X0043721Y0087288D01*
X0043786Y0087287D01*
X0043852Y0087282D01*
X0043917Y0087273D01*
X0043982Y0087260D01*
X0044045Y0087244D01*
X0044108Y0087224D01*
X0044169Y0087199D01*
X0044229Y0087172D01*
X0044287Y0087141D01*
X0044343Y0087106D01*
X0044397Y0087068D01*
X0044448Y0087027D01*
X0044497Y0086983D01*
X0044543Y0086936D01*
X0044587Y0086887D01*
X0044627Y0086835D01*
X0044664Y0086780D01*
X0044698Y0086724D01*
X0044728Y0086665D01*
X0044755Y0086605D01*
X0044778Y0086544D01*
X0044797Y0086481D01*
X0044813Y0086417D01*
X0044825Y0086352D01*
X0044833Y0086287D01*
X0044837Y0086221D01*
X0044837Y0086155D01*
X0044833Y0086089D01*
X0044825Y0086024D01*
X0044813Y0085959D01*
X0044797Y0085895D01*
X0044778Y0085832D01*
X0044755Y0085771D01*
X0044728Y0085711D01*
X0044698Y0085652D01*
X0044664Y0085596D01*
X0044627Y0085541D01*
X0044587Y0085489D01*
X0044543Y0085440D01*
X0044497Y0085393D01*
X0044448Y0085349D01*
X0044397Y0085308D01*
X0044343Y0085270D01*
X0044287Y0085235D01*
X0044229Y0085204D01*
X0044169Y0085177D01*
X0044108Y0085152D01*
X0044045Y0085132D01*
X0043982Y0085116D01*
X0043917Y0085103D01*
X0043852Y0085094D01*
X0043786Y0085089D01*
X0043721Y0085088D01*
X0043655Y0085091D01*
X0043589Y0085098D01*
X0043524Y0085109D01*
X0043460Y0085123D01*
X0043397Y0085142D01*
X0043335Y0085164D01*
X0043275Y0085190D01*
X0043216Y0085219D01*
X0043159Y0085252D01*
X0043104Y0085289D01*
X0043051Y0085328D01*
X0043001Y0085371D01*
X0042953Y0085416D01*
X0042909Y0085464D01*
X0042867Y0085515D01*
X0042828Y0085568D01*
X0042793Y0085624D01*
X0042761Y0085681D01*
X0042732Y0085741D01*
X0042707Y0085801D01*
X0042686Y0085864D01*
X0042668Y0085927D01*
X0042655Y0085992D01*
X0042645Y0086057D01*
X0042639Y0086122D01*
X0042637Y0086188D01*
M02*
