G75*
%MOIN*%
%OFA0B0*%
%FSLAX25Y25*%
%IPPOS*%
%LPD*%
%AMOC8*
5,1,8,0,0,1.08239X$1,22.5*
%
%ADD10C,0.00000*%
%ADD11R,0.01975X0.05124*%
%ADD12R,0.04337X0.04731*%
%ADD13R,0.04731X0.04337*%
%ADD14R,0.06699X0.03550*%
%ADD15R,0.10400X0.12400*%
%ADD16C,0.06699*%
%ADD17R,0.07900X0.04400*%
%ADD18OC8,0.06700*%
%ADD19R,0.06700X0.05000*%
%ADD20C,0.13849*%
D10*
X0009487Y0021612D02*
X0021674Y0021612D01*
X0022924Y0020363D01*
X0022924Y0006300D01*
X0024174Y0005050D01*
X0030424Y0005050D01*
X0031674Y0006300D01*
X0031674Y0007862D01*
X0032924Y0009113D01*
X0051362Y0009113D01*
X0052612Y0007862D01*
X0052612Y0006300D01*
X0053862Y0005050D01*
X0060112Y0005050D01*
X0061362Y0006300D01*
X0061362Y0020363D01*
X0062612Y0021612D01*
X0083549Y0021612D01*
X0084799Y0022862D01*
X0084799Y0122237D01*
X0083549Y0123487D01*
X0042299Y0123487D01*
X0041049Y0124737D01*
X0041049Y0125987D01*
X0039799Y0127237D01*
X0009487Y0127237D01*
X0008237Y0125987D01*
X0008237Y0022862D01*
X0009487Y0021612D01*
X0059774Y0124610D02*
X0059776Y0124722D01*
X0059782Y0124833D01*
X0059792Y0124945D01*
X0059806Y0125056D01*
X0059823Y0125166D01*
X0059845Y0125276D01*
X0059871Y0125385D01*
X0059900Y0125493D01*
X0059933Y0125599D01*
X0059970Y0125705D01*
X0060011Y0125809D01*
X0060056Y0125912D01*
X0060104Y0126013D01*
X0060155Y0126112D01*
X0060210Y0126209D01*
X0060269Y0126304D01*
X0060330Y0126398D01*
X0060395Y0126489D01*
X0060464Y0126577D01*
X0060535Y0126663D01*
X0060609Y0126747D01*
X0060687Y0126827D01*
X0060767Y0126905D01*
X0060850Y0126981D01*
X0060935Y0127053D01*
X0061023Y0127122D01*
X0061113Y0127188D01*
X0061206Y0127250D01*
X0061301Y0127310D01*
X0061398Y0127366D01*
X0061496Y0127418D01*
X0061597Y0127467D01*
X0061699Y0127512D01*
X0061803Y0127554D01*
X0061908Y0127592D01*
X0062015Y0127626D01*
X0062122Y0127656D01*
X0062231Y0127683D01*
X0062340Y0127705D01*
X0062451Y0127724D01*
X0062561Y0127739D01*
X0062673Y0127750D01*
X0062784Y0127757D01*
X0062896Y0127760D01*
X0063008Y0127759D01*
X0063120Y0127754D01*
X0063231Y0127745D01*
X0063342Y0127732D01*
X0063453Y0127715D01*
X0063563Y0127695D01*
X0063672Y0127670D01*
X0063780Y0127642D01*
X0063887Y0127609D01*
X0063993Y0127573D01*
X0064097Y0127533D01*
X0064200Y0127490D01*
X0064302Y0127443D01*
X0064401Y0127392D01*
X0064499Y0127338D01*
X0064595Y0127280D01*
X0064689Y0127219D01*
X0064780Y0127155D01*
X0064869Y0127088D01*
X0064956Y0127017D01*
X0065040Y0126943D01*
X0065122Y0126867D01*
X0065200Y0126787D01*
X0065276Y0126705D01*
X0065349Y0126620D01*
X0065419Y0126533D01*
X0065485Y0126443D01*
X0065549Y0126351D01*
X0065609Y0126257D01*
X0065666Y0126161D01*
X0065719Y0126062D01*
X0065769Y0125962D01*
X0065815Y0125861D01*
X0065858Y0125757D01*
X0065897Y0125652D01*
X0065932Y0125546D01*
X0065963Y0125439D01*
X0065991Y0125330D01*
X0066014Y0125221D01*
X0066034Y0125111D01*
X0066050Y0125000D01*
X0066062Y0124889D01*
X0066070Y0124778D01*
X0066074Y0124666D01*
X0066074Y0124554D01*
X0066070Y0124442D01*
X0066062Y0124331D01*
X0066050Y0124220D01*
X0066034Y0124109D01*
X0066014Y0123999D01*
X0065991Y0123890D01*
X0065963Y0123781D01*
X0065932Y0123674D01*
X0065897Y0123568D01*
X0065858Y0123463D01*
X0065815Y0123359D01*
X0065769Y0123258D01*
X0065719Y0123158D01*
X0065666Y0123059D01*
X0065609Y0122963D01*
X0065549Y0122869D01*
X0065485Y0122777D01*
X0065419Y0122687D01*
X0065349Y0122600D01*
X0065276Y0122515D01*
X0065200Y0122433D01*
X0065122Y0122353D01*
X0065040Y0122277D01*
X0064956Y0122203D01*
X0064869Y0122132D01*
X0064780Y0122065D01*
X0064689Y0122001D01*
X0064595Y0121940D01*
X0064499Y0121882D01*
X0064401Y0121828D01*
X0064302Y0121777D01*
X0064200Y0121730D01*
X0064097Y0121687D01*
X0063993Y0121647D01*
X0063887Y0121611D01*
X0063780Y0121578D01*
X0063672Y0121550D01*
X0063563Y0121525D01*
X0063453Y0121505D01*
X0063342Y0121488D01*
X0063231Y0121475D01*
X0063120Y0121466D01*
X0063008Y0121461D01*
X0062896Y0121460D01*
X0062784Y0121463D01*
X0062673Y0121470D01*
X0062561Y0121481D01*
X0062451Y0121496D01*
X0062340Y0121515D01*
X0062231Y0121537D01*
X0062122Y0121564D01*
X0062015Y0121594D01*
X0061908Y0121628D01*
X0061803Y0121666D01*
X0061699Y0121708D01*
X0061597Y0121753D01*
X0061496Y0121802D01*
X0061398Y0121854D01*
X0061301Y0121910D01*
X0061206Y0121970D01*
X0061113Y0122032D01*
X0061023Y0122098D01*
X0060935Y0122167D01*
X0060850Y0122239D01*
X0060767Y0122315D01*
X0060687Y0122393D01*
X0060609Y0122473D01*
X0060535Y0122557D01*
X0060464Y0122643D01*
X0060395Y0122731D01*
X0060330Y0122822D01*
X0060269Y0122916D01*
X0060210Y0123011D01*
X0060155Y0123108D01*
X0060104Y0123207D01*
X0060056Y0123308D01*
X0060011Y0123411D01*
X0059970Y0123515D01*
X0059933Y0123621D01*
X0059900Y0123727D01*
X0059871Y0123835D01*
X0059845Y0123944D01*
X0059823Y0124054D01*
X0059806Y0124164D01*
X0059792Y0124275D01*
X0059782Y0124387D01*
X0059776Y0124498D01*
X0059774Y0124610D01*
D11*
X0056121Y0051155D03*
X0053562Y0051155D03*
X0051003Y0051155D03*
X0048444Y0051155D03*
X0045885Y0051155D03*
X0043325Y0051155D03*
X0040766Y0051155D03*
X0038207Y0051155D03*
X0035648Y0051155D03*
X0033089Y0051155D03*
X0030530Y0051155D03*
X0027971Y0051155D03*
X0025412Y0051155D03*
X0022853Y0051155D03*
X0022853Y0028320D03*
X0025412Y0028320D03*
X0027971Y0028320D03*
X0030530Y0028320D03*
X0033089Y0028320D03*
X0035648Y0028320D03*
X0038207Y0028320D03*
X0040766Y0028320D03*
X0043325Y0028320D03*
X0045885Y0028320D03*
X0048444Y0028320D03*
X0051003Y0028320D03*
X0053562Y0028320D03*
X0056121Y0028320D03*
D12*
X0064799Y0040454D03*
X0064799Y0047146D03*
X0013237Y0046391D03*
X0013237Y0053084D03*
D13*
X0015737Y0062954D03*
X0015737Y0069646D03*
X0015737Y0074516D03*
X0015737Y0081209D03*
X0019890Y0092237D03*
X0026583Y0092237D03*
D14*
X0080424Y0045050D03*
X0080424Y0040050D03*
X0080424Y0035050D03*
X0080424Y0030050D03*
X0080424Y0025050D03*
D15*
X0082924Y0099987D03*
X0062924Y0099987D03*
X0042924Y0099987D03*
D16*
X0062924Y0124610D03*
D17*
X0071237Y0084738D03*
X0071237Y0074738D03*
X0071237Y0064737D03*
X0035237Y0064737D03*
X0035237Y0074738D03*
X0035237Y0084738D03*
D18*
X0027299Y0005050D03*
X0056987Y0005050D03*
D19*
X0024799Y0068738D03*
X0024799Y0074738D03*
X0024799Y0080738D03*
D20*
X0007924Y0098487D03*
X0085112Y0057237D03*
M02*
