G75*
%MOIN*%
%OFA0B0*%
%FSLAX25Y25*%
%IPPOS*%
%LPD*%
%AMOC8*
5,1,8,0,0,1.08239X$1,22.5*
%
%ADD10C,0.00000*%
%ADD11C,0.00500*%
%ADD12C,0.00600*%
%ADD13C,0.00800*%
%ADD14C,0.02100*%
D10*
X0009487Y0021612D02*
X0021674Y0021612D01*
X0022924Y0020363D01*
X0022924Y0006300D01*
X0024174Y0005050D01*
X0030424Y0005050D01*
X0031674Y0006300D01*
X0031674Y0007862D01*
X0032924Y0009113D01*
X0051362Y0009113D01*
X0052612Y0007862D01*
X0052612Y0006300D01*
X0053862Y0005050D01*
X0060112Y0005050D01*
X0061362Y0006300D01*
X0061362Y0020363D01*
X0062612Y0021612D01*
X0083549Y0021612D01*
X0084799Y0022862D01*
X0084799Y0122237D01*
X0083549Y0123487D01*
X0042299Y0123487D01*
X0041049Y0124737D01*
X0041049Y0125987D01*
X0039799Y0127237D01*
X0009487Y0127237D01*
X0008237Y0125987D01*
X0008237Y0022862D01*
X0009487Y0021612D01*
X0059774Y0124610D02*
X0059776Y0124722D01*
X0059782Y0124833D01*
X0059792Y0124945D01*
X0059806Y0125056D01*
X0059823Y0125166D01*
X0059845Y0125276D01*
X0059871Y0125385D01*
X0059900Y0125493D01*
X0059933Y0125599D01*
X0059970Y0125705D01*
X0060011Y0125809D01*
X0060056Y0125912D01*
X0060104Y0126013D01*
X0060155Y0126112D01*
X0060210Y0126209D01*
X0060269Y0126304D01*
X0060330Y0126398D01*
X0060395Y0126489D01*
X0060464Y0126577D01*
X0060535Y0126663D01*
X0060609Y0126747D01*
X0060687Y0126827D01*
X0060767Y0126905D01*
X0060850Y0126981D01*
X0060935Y0127053D01*
X0061023Y0127122D01*
X0061113Y0127188D01*
X0061206Y0127250D01*
X0061301Y0127310D01*
X0061398Y0127366D01*
X0061496Y0127418D01*
X0061597Y0127467D01*
X0061699Y0127512D01*
X0061803Y0127554D01*
X0061908Y0127592D01*
X0062015Y0127626D01*
X0062122Y0127656D01*
X0062231Y0127683D01*
X0062340Y0127705D01*
X0062451Y0127724D01*
X0062561Y0127739D01*
X0062673Y0127750D01*
X0062784Y0127757D01*
X0062896Y0127760D01*
X0063008Y0127759D01*
X0063120Y0127754D01*
X0063231Y0127745D01*
X0063342Y0127732D01*
X0063453Y0127715D01*
X0063563Y0127695D01*
X0063672Y0127670D01*
X0063780Y0127642D01*
X0063887Y0127609D01*
X0063993Y0127573D01*
X0064097Y0127533D01*
X0064200Y0127490D01*
X0064302Y0127443D01*
X0064401Y0127392D01*
X0064499Y0127338D01*
X0064595Y0127280D01*
X0064689Y0127219D01*
X0064780Y0127155D01*
X0064869Y0127088D01*
X0064956Y0127017D01*
X0065040Y0126943D01*
X0065122Y0126867D01*
X0065200Y0126787D01*
X0065276Y0126705D01*
X0065349Y0126620D01*
X0065419Y0126533D01*
X0065485Y0126443D01*
X0065549Y0126351D01*
X0065609Y0126257D01*
X0065666Y0126161D01*
X0065719Y0126062D01*
X0065769Y0125962D01*
X0065815Y0125861D01*
X0065858Y0125757D01*
X0065897Y0125652D01*
X0065932Y0125546D01*
X0065963Y0125439D01*
X0065991Y0125330D01*
X0066014Y0125221D01*
X0066034Y0125111D01*
X0066050Y0125000D01*
X0066062Y0124889D01*
X0066070Y0124778D01*
X0066074Y0124666D01*
X0066074Y0124554D01*
X0066070Y0124442D01*
X0066062Y0124331D01*
X0066050Y0124220D01*
X0066034Y0124109D01*
X0066014Y0123999D01*
X0065991Y0123890D01*
X0065963Y0123781D01*
X0065932Y0123674D01*
X0065897Y0123568D01*
X0065858Y0123463D01*
X0065815Y0123359D01*
X0065769Y0123258D01*
X0065719Y0123158D01*
X0065666Y0123059D01*
X0065609Y0122963D01*
X0065549Y0122869D01*
X0065485Y0122777D01*
X0065419Y0122687D01*
X0065349Y0122600D01*
X0065276Y0122515D01*
X0065200Y0122433D01*
X0065122Y0122353D01*
X0065040Y0122277D01*
X0064956Y0122203D01*
X0064869Y0122132D01*
X0064780Y0122065D01*
X0064689Y0122001D01*
X0064595Y0121940D01*
X0064499Y0121882D01*
X0064401Y0121828D01*
X0064302Y0121777D01*
X0064200Y0121730D01*
X0064097Y0121687D01*
X0063993Y0121647D01*
X0063887Y0121611D01*
X0063780Y0121578D01*
X0063672Y0121550D01*
X0063563Y0121525D01*
X0063453Y0121505D01*
X0063342Y0121488D01*
X0063231Y0121475D01*
X0063120Y0121466D01*
X0063008Y0121461D01*
X0062896Y0121460D01*
X0062784Y0121463D01*
X0062673Y0121470D01*
X0062561Y0121481D01*
X0062451Y0121496D01*
X0062340Y0121515D01*
X0062231Y0121537D01*
X0062122Y0121564D01*
X0062015Y0121594D01*
X0061908Y0121628D01*
X0061803Y0121666D01*
X0061699Y0121708D01*
X0061597Y0121753D01*
X0061496Y0121802D01*
X0061398Y0121854D01*
X0061301Y0121910D01*
X0061206Y0121970D01*
X0061113Y0122032D01*
X0061023Y0122098D01*
X0060935Y0122167D01*
X0060850Y0122239D01*
X0060767Y0122315D01*
X0060687Y0122393D01*
X0060609Y0122473D01*
X0060535Y0122557D01*
X0060464Y0122643D01*
X0060395Y0122731D01*
X0060330Y0122822D01*
X0060269Y0122916D01*
X0060210Y0123011D01*
X0060155Y0123108D01*
X0060104Y0123207D01*
X0060056Y0123308D01*
X0060011Y0123411D01*
X0059970Y0123515D01*
X0059933Y0123621D01*
X0059900Y0123727D01*
X0059871Y0123835D01*
X0059845Y0123944D01*
X0059823Y0124054D01*
X0059806Y0124164D01*
X0059792Y0124275D01*
X0059782Y0124387D01*
X0059776Y0124498D01*
X0059774Y0124610D01*
D11*
X0059793Y0118902D02*
X0058893Y0118902D01*
X0058442Y0118452D01*
X0058442Y0116650D01*
X0060244Y0118452D01*
X0060244Y0116650D01*
X0059793Y0116200D01*
X0058893Y0116200D01*
X0058442Y0116650D01*
X0057297Y0117551D02*
X0055496Y0117551D01*
X0054351Y0118902D02*
X0053450Y0118902D01*
X0053900Y0118902D02*
X0053900Y0116650D01*
X0053450Y0116200D01*
X0052999Y0116200D01*
X0052549Y0116650D01*
X0051404Y0116650D02*
X0050954Y0116200D01*
X0050053Y0116200D01*
X0049603Y0116650D01*
X0049603Y0118452D01*
X0050053Y0118902D01*
X0050954Y0118902D01*
X0051404Y0118452D01*
X0048458Y0118452D02*
X0048458Y0117551D01*
X0048007Y0117101D01*
X0046656Y0117101D01*
X0047557Y0117101D02*
X0048458Y0116200D01*
X0046656Y0116200D02*
X0046656Y0118902D01*
X0048007Y0118902D01*
X0048458Y0118452D01*
X0046851Y0110190D02*
X0045049Y0110190D01*
X0045950Y0110190D02*
X0045950Y0107487D01*
X0047996Y0107487D02*
X0049797Y0109289D01*
X0050942Y0108839D02*
X0052744Y0108839D01*
X0049797Y0107487D02*
X0047996Y0109289D01*
X0036271Y0111037D02*
X0034920Y0111037D01*
X0034470Y0111488D01*
X0034470Y0112389D01*
X0034920Y0112839D01*
X0036271Y0112839D01*
X0036271Y0113740D02*
X0036271Y0111037D01*
X0033325Y0111938D02*
X0031523Y0111938D01*
X0031523Y0111488D02*
X0031523Y0112389D01*
X0031973Y0112839D01*
X0032874Y0112839D01*
X0033325Y0112389D01*
X0033325Y0111938D01*
X0032874Y0111037D02*
X0031973Y0111037D01*
X0031523Y0111488D01*
X0030419Y0112839D02*
X0029968Y0112839D01*
X0029068Y0111938D01*
X0029068Y0111037D02*
X0029068Y0112839D01*
X0027554Y0112839D02*
X0027554Y0111037D01*
X0028004Y0111037D02*
X0027103Y0111037D01*
X0026941Y0108940D02*
X0025139Y0108940D01*
X0025139Y0106237D01*
X0025139Y0107589D02*
X0026040Y0107589D01*
X0024157Y0110137D02*
X0024157Y0112839D01*
X0025508Y0112839D01*
X0025958Y0112389D01*
X0025958Y0111488D01*
X0025508Y0111037D01*
X0024157Y0111037D01*
X0023012Y0111488D02*
X0022561Y0111938D01*
X0021661Y0111938D01*
X0021210Y0112389D01*
X0021661Y0112839D01*
X0023012Y0112839D01*
X0023012Y0111488D02*
X0022561Y0111037D01*
X0021210Y0111037D01*
X0020065Y0111037D02*
X0020065Y0112389D01*
X0019615Y0112839D01*
X0018264Y0112839D01*
X0018264Y0111037D01*
X0017200Y0111037D02*
X0016299Y0111037D01*
X0016750Y0111037D02*
X0016750Y0112839D01*
X0016299Y0112839D01*
X0016750Y0113740D02*
X0016750Y0114190D01*
X0016299Y0108940D02*
X0016299Y0106237D01*
X0017651Y0106237D01*
X0018101Y0106688D01*
X0018101Y0107589D01*
X0017651Y0108039D01*
X0016299Y0108039D01*
X0019246Y0108039D02*
X0019246Y0106688D01*
X0019696Y0106237D01*
X0021047Y0106237D01*
X0021047Y0105787D02*
X0020597Y0105337D01*
X0020147Y0105337D01*
X0021047Y0105787D02*
X0021047Y0108039D01*
X0021047Y0100190D02*
X0021047Y0097487D01*
X0019246Y0100190D01*
X0019246Y0097487D01*
X0018101Y0097938D02*
X0018101Y0098839D01*
X0017200Y0098839D01*
X0016299Y0099739D02*
X0016299Y0097938D01*
X0016750Y0097487D01*
X0017651Y0097487D01*
X0018101Y0097938D01*
X0018101Y0099739D02*
X0017651Y0100190D01*
X0016750Y0100190D01*
X0016299Y0099739D01*
X0022192Y0100190D02*
X0022192Y0097487D01*
X0023544Y0097487D01*
X0023994Y0097938D01*
X0023994Y0099739D01*
X0023544Y0100190D01*
X0022192Y0100190D01*
X0028085Y0106237D02*
X0028085Y0108940D01*
X0029437Y0108940D01*
X0029887Y0108489D01*
X0029887Y0108039D01*
X0029437Y0107589D01*
X0028085Y0107589D01*
X0028085Y0106237D02*
X0029437Y0106237D01*
X0029887Y0106688D01*
X0029887Y0107138D01*
X0029437Y0107589D01*
X0031032Y0108940D02*
X0032834Y0106237D01*
X0031032Y0106237D02*
X0032834Y0108940D01*
X0027554Y0112839D02*
X0027103Y0112839D01*
X0027554Y0113740D02*
X0027554Y0114190D01*
X0030812Y0093940D02*
X0030362Y0093489D01*
X0030362Y0091688D01*
X0030812Y0091237D01*
X0031713Y0091237D01*
X0032163Y0091688D01*
X0033308Y0091688D02*
X0033759Y0091237D01*
X0034660Y0091237D01*
X0035110Y0091688D01*
X0035110Y0092138D01*
X0034660Y0092589D01*
X0034209Y0092589D01*
X0034660Y0092589D02*
X0035110Y0093039D01*
X0035110Y0093489D01*
X0034660Y0093940D01*
X0033759Y0093940D01*
X0033308Y0093489D01*
X0032163Y0093489D02*
X0031713Y0093940D01*
X0030812Y0093940D01*
X0026397Y0088002D02*
X0026397Y0085300D01*
X0027297Y0085300D02*
X0025496Y0085300D01*
X0025496Y0087102D02*
X0026397Y0088002D01*
X0024351Y0088002D02*
X0023450Y0088002D01*
X0023901Y0088002D02*
X0023901Y0085750D01*
X0023450Y0085300D01*
X0023000Y0085300D01*
X0022549Y0085750D01*
X0012674Y0080673D02*
X0012674Y0078872D01*
X0010873Y0080673D01*
X0010422Y0080673D01*
X0009972Y0080223D01*
X0009972Y0079322D01*
X0010422Y0078872D01*
X0010422Y0077727D02*
X0009972Y0077276D01*
X0009972Y0075925D01*
X0012674Y0075925D01*
X0011774Y0075925D02*
X0011774Y0077276D01*
X0011323Y0077727D01*
X0010422Y0077727D01*
X0011774Y0076826D02*
X0012674Y0077727D01*
X0012674Y0068798D02*
X0012674Y0066997D01*
X0012674Y0067897D02*
X0009972Y0067897D01*
X0010873Y0066997D01*
X0010422Y0065852D02*
X0011323Y0065852D01*
X0011774Y0065401D01*
X0011774Y0064050D01*
X0012674Y0064050D02*
X0009972Y0064050D01*
X0009972Y0065401D01*
X0010422Y0065852D01*
X0011774Y0064951D02*
X0012674Y0065852D01*
X0012651Y0059252D02*
X0011750Y0059252D01*
X0011299Y0058802D01*
X0011299Y0057000D01*
X0011750Y0056550D01*
X0012651Y0056550D01*
X0013101Y0057000D01*
X0014246Y0056550D02*
X0016047Y0056550D01*
X0015147Y0056550D02*
X0015147Y0059252D01*
X0014246Y0058352D01*
X0013101Y0058802D02*
X0012651Y0059252D01*
X0017049Y0037236D02*
X0017049Y0035434D01*
X0017049Y0036335D02*
X0014347Y0036335D01*
X0015248Y0035434D01*
X0014347Y0034289D02*
X0016599Y0034289D01*
X0017049Y0033839D01*
X0017049Y0032938D01*
X0016599Y0032487D01*
X0014347Y0032487D01*
X0024875Y0012690D02*
X0024424Y0012239D01*
X0024424Y0010438D01*
X0024875Y0009988D01*
X0025776Y0009988D01*
X0026226Y0010438D01*
X0026226Y0011339D01*
X0025325Y0011339D01*
X0026226Y0012239D02*
X0025776Y0012690D01*
X0024875Y0012690D01*
X0027371Y0012690D02*
X0027371Y0009988D01*
X0029172Y0009988D02*
X0027371Y0012690D01*
X0029172Y0012690D02*
X0029172Y0009988D01*
X0030317Y0009988D02*
X0031669Y0009988D01*
X0032119Y0010438D01*
X0032119Y0012239D01*
X0031669Y0012690D01*
X0030317Y0012690D01*
X0030317Y0009988D01*
X0052237Y0010888D02*
X0053138Y0009988D01*
X0054038Y0010888D01*
X0054038Y0012690D01*
X0055183Y0011339D02*
X0055183Y0010438D01*
X0055634Y0009988D01*
X0056985Y0009988D01*
X0058130Y0010438D02*
X0058130Y0011339D01*
X0058580Y0011789D01*
X0059931Y0011789D01*
X0059931Y0009988D02*
X0058580Y0009988D01*
X0058130Y0010438D01*
X0056985Y0011789D02*
X0055634Y0011789D01*
X0055183Y0011339D01*
X0052237Y0010888D02*
X0052237Y0012690D01*
X0073487Y0024188D02*
X0073937Y0023737D01*
X0074838Y0023737D01*
X0075288Y0024188D01*
X0075288Y0025089D01*
X0074838Y0025539D01*
X0074388Y0025539D01*
X0073487Y0025089D01*
X0073487Y0026440D01*
X0075288Y0026440D01*
X0075151Y0028737D02*
X0075151Y0031440D01*
X0073799Y0030089D01*
X0075601Y0030089D01*
X0075151Y0033738D02*
X0074250Y0033738D01*
X0073799Y0034188D01*
X0074700Y0035089D02*
X0075151Y0035089D01*
X0075601Y0034638D01*
X0075601Y0034188D01*
X0075151Y0033738D01*
X0075151Y0035089D02*
X0075601Y0035539D01*
X0075601Y0035989D01*
X0075151Y0036440D01*
X0074250Y0036440D01*
X0073799Y0035989D01*
X0073799Y0038738D02*
X0075601Y0040539D01*
X0075601Y0040989D01*
X0075151Y0041440D01*
X0074250Y0041440D01*
X0073799Y0040989D01*
X0073799Y0038738D02*
X0075601Y0038738D01*
X0075601Y0043737D02*
X0073799Y0043737D01*
X0074700Y0043737D02*
X0074700Y0046440D01*
X0073799Y0045539D01*
X0073547Y0055925D02*
X0073547Y0058627D01*
X0074692Y0058627D02*
X0076044Y0058627D01*
X0076494Y0058177D01*
X0076494Y0056375D01*
X0076044Y0055925D01*
X0074692Y0055925D01*
X0074692Y0058627D01*
X0073547Y0055925D02*
X0071746Y0058627D01*
X0071746Y0055925D01*
X0070601Y0056375D02*
X0070151Y0055925D01*
X0069250Y0055925D01*
X0068799Y0056375D01*
X0068799Y0058177D01*
X0069250Y0058627D01*
X0070151Y0058627D01*
X0070601Y0058177D01*
X0070601Y0057276D02*
X0069700Y0057276D01*
X0070601Y0057276D02*
X0070601Y0056375D01*
X0067237Y0058737D02*
X0039237Y0058737D01*
X0039237Y0090737D01*
X0067237Y0090737D01*
X0067237Y0058737D01*
X0066535Y0053315D02*
X0065634Y0053315D01*
X0065183Y0052864D01*
X0066535Y0053315D02*
X0066985Y0052864D01*
X0066985Y0052414D01*
X0065183Y0050612D01*
X0066985Y0050612D01*
X0064038Y0051063D02*
X0063588Y0050612D01*
X0062687Y0050612D01*
X0062237Y0051063D01*
X0062237Y0052864D01*
X0062687Y0053315D01*
X0063588Y0053315D01*
X0064038Y0052864D01*
X0060853Y0070050D02*
X0060853Y0072752D01*
X0062655Y0072752D01*
X0061754Y0071401D02*
X0060853Y0071401D01*
X0059708Y0070050D02*
X0057907Y0070050D01*
X0057907Y0072752D01*
X0056762Y0072302D02*
X0056311Y0072752D01*
X0055411Y0072752D01*
X0054960Y0072302D01*
X0054960Y0071852D01*
X0055411Y0071401D01*
X0056311Y0071401D01*
X0056762Y0070951D01*
X0056762Y0070500D01*
X0056311Y0070050D01*
X0055411Y0070050D01*
X0054960Y0070500D01*
X0053815Y0070050D02*
X0053815Y0072752D01*
X0052014Y0072752D02*
X0053815Y0070050D01*
X0052014Y0070050D02*
X0052014Y0072752D01*
X0050869Y0070050D02*
X0049067Y0070050D01*
X0049968Y0070050D02*
X0049968Y0072752D01*
X0049067Y0071852D01*
X0047922Y0071852D02*
X0047922Y0070050D01*
X0047922Y0071401D02*
X0046121Y0071401D01*
X0046121Y0071852D02*
X0047021Y0072752D01*
X0047922Y0071852D01*
X0046121Y0071852D02*
X0046121Y0070050D01*
X0044976Y0070500D02*
X0044976Y0072302D01*
X0044525Y0072752D01*
X0043174Y0072752D01*
X0043174Y0070050D01*
X0044525Y0070050D01*
X0044976Y0070500D01*
X0047021Y0074850D02*
X0047021Y0077552D01*
X0046121Y0077552D02*
X0047922Y0077552D01*
X0049067Y0077102D02*
X0049067Y0075300D01*
X0049518Y0074850D01*
X0050418Y0074850D01*
X0050869Y0075300D01*
X0050869Y0076201D01*
X0049968Y0076201D01*
X0050869Y0077102D02*
X0050418Y0077552D01*
X0049518Y0077552D01*
X0049067Y0077102D01*
X0052014Y0076652D02*
X0052914Y0077552D01*
X0052914Y0074850D01*
X0052014Y0074850D02*
X0053815Y0074850D01*
X0054960Y0075300D02*
X0054960Y0077102D01*
X0055411Y0077552D01*
X0056311Y0077552D01*
X0056762Y0077102D01*
X0054960Y0075300D01*
X0055411Y0074850D01*
X0056311Y0074850D01*
X0056762Y0075300D01*
X0056762Y0077102D01*
X0057907Y0076201D02*
X0059708Y0076201D01*
X0078097Y0075077D02*
X0078998Y0075978D01*
X0079899Y0075978D01*
X0080799Y0075077D01*
X0081250Y0077041D02*
X0081250Y0078843D01*
X0081250Y0079988D02*
X0081250Y0081789D01*
X0080799Y0082934D02*
X0078097Y0084736D01*
X0078097Y0085881D02*
X0078998Y0086782D01*
X0079899Y0086782D01*
X0080799Y0085881D01*
X0081250Y0087845D02*
X0081250Y0089647D01*
X0078097Y0073932D02*
X0080799Y0072131D01*
X0081250Y0070986D02*
X0081250Y0069184D01*
X0081250Y0068039D02*
X0081250Y0066238D01*
X0066843Y0107938D02*
X0066843Y0109739D01*
X0065942Y0108839D02*
X0067744Y0108839D01*
X0064797Y0109289D02*
X0062996Y0107487D01*
X0064797Y0107487D02*
X0062996Y0109289D01*
X0061851Y0110190D02*
X0060049Y0110190D01*
X0060950Y0110190D02*
X0060950Y0107487D01*
X0061389Y0116200D02*
X0063190Y0116200D01*
X0062289Y0116200D02*
X0062289Y0118902D01*
X0061389Y0118002D01*
X0060244Y0118452D02*
X0059793Y0118902D01*
X0064335Y0118902D02*
X0066137Y0116200D01*
X0067282Y0117551D02*
X0069083Y0117551D01*
X0070228Y0118002D02*
X0070228Y0118452D01*
X0070679Y0118902D01*
X0071579Y0118902D01*
X0072030Y0118452D01*
X0071579Y0117551D02*
X0072030Y0117101D01*
X0072030Y0116650D01*
X0071579Y0116200D01*
X0070679Y0116200D01*
X0070228Y0116650D01*
X0070679Y0117551D02*
X0071579Y0117551D01*
X0070679Y0117551D02*
X0070228Y0118002D01*
X0073175Y0118902D02*
X0073175Y0116200D01*
X0074075Y0118002D02*
X0074976Y0118902D01*
X0074976Y0116200D01*
X0074075Y0118002D02*
X0073175Y0118902D01*
X0076121Y0118902D02*
X0077923Y0118902D01*
X0077022Y0118902D02*
X0077022Y0116200D01*
X0066137Y0118902D02*
X0064335Y0116200D01*
D12*
X0079263Y0125397D02*
X0079263Y0128724D01*
X0079263Y0125397D02*
X0082924Y0125397D01*
X0082924Y0119885D01*
X0082924Y0115948D02*
X0082924Y0110436D01*
X0082924Y0106499D02*
X0082924Y0100987D01*
X0079263Y0132661D02*
X0079263Y0135988D01*
X0046586Y0135988D02*
X0046586Y0132661D01*
X0046586Y0128724D02*
X0046586Y0125397D01*
X0042924Y0125397D01*
X0042924Y0119885D01*
X0042924Y0115948D02*
X0042924Y0110436D01*
X0042924Y0106499D02*
X0042924Y0100987D01*
X0039407Y0116787D02*
X0038273Y0116787D01*
X0037706Y0117355D01*
X0037706Y0117922D01*
X0038273Y0118489D01*
X0039407Y0118489D01*
X0039974Y0117922D01*
X0039974Y0117355D01*
X0039407Y0116787D01*
X0039407Y0118489D02*
X0039974Y0119056D01*
X0039974Y0119623D01*
X0039407Y0120190D01*
X0038273Y0120190D01*
X0037706Y0119623D01*
X0037706Y0119056D01*
X0038273Y0118489D01*
X0036291Y0119056D02*
X0035724Y0118489D01*
X0036291Y0117922D01*
X0036291Y0117355D01*
X0035724Y0116787D01*
X0034590Y0116787D01*
X0034023Y0117355D01*
X0032608Y0117355D02*
X0032608Y0119623D01*
X0032041Y0120190D01*
X0030907Y0120190D01*
X0030339Y0119623D01*
X0030339Y0119056D01*
X0030907Y0118489D01*
X0032608Y0118489D01*
X0032608Y0117355D02*
X0032041Y0116787D01*
X0030907Y0116787D01*
X0030339Y0117355D01*
X0028925Y0118489D02*
X0026656Y0118489D01*
X0028358Y0120190D01*
X0028358Y0116787D01*
X0025335Y0116787D02*
X0024201Y0116787D01*
X0024768Y0116787D02*
X0024768Y0119056D01*
X0024201Y0119056D01*
X0024768Y0120190D02*
X0024768Y0120758D01*
X0022880Y0119056D02*
X0021745Y0119056D01*
X0022313Y0119623D02*
X0022313Y0117355D01*
X0022880Y0116787D01*
X0020378Y0119056D02*
X0019810Y0119056D01*
X0018676Y0117922D01*
X0018676Y0119056D02*
X0018676Y0116787D01*
X0017262Y0117355D02*
X0017262Y0118489D01*
X0016694Y0119056D01*
X0015560Y0119056D01*
X0014993Y0118489D01*
X0014993Y0117355D01*
X0015560Y0116787D01*
X0016694Y0116787D01*
X0017262Y0117355D01*
X0013578Y0117355D02*
X0013578Y0118489D01*
X0013011Y0119056D01*
X0011310Y0119056D01*
X0011310Y0120190D02*
X0011310Y0116787D01*
X0013011Y0116787D01*
X0013578Y0117355D01*
X0021987Y0093800D02*
X0024487Y0093800D01*
X0024487Y0090675D02*
X0021987Y0090675D01*
X0021799Y0084238D02*
X0027799Y0084238D01*
X0027859Y0084236D01*
X0027920Y0084231D01*
X0027979Y0084222D01*
X0028038Y0084209D01*
X0028097Y0084193D01*
X0028154Y0084173D01*
X0028209Y0084150D01*
X0028264Y0084123D01*
X0028316Y0084094D01*
X0028367Y0084061D01*
X0028416Y0084025D01*
X0028462Y0083987D01*
X0028506Y0083945D01*
X0028548Y0083901D01*
X0028586Y0083855D01*
X0028622Y0083806D01*
X0028655Y0083755D01*
X0028684Y0083703D01*
X0028711Y0083648D01*
X0028734Y0083593D01*
X0028754Y0083536D01*
X0028770Y0083477D01*
X0028783Y0083418D01*
X0028792Y0083359D01*
X0028797Y0083298D01*
X0028799Y0083238D01*
X0028799Y0066238D01*
X0028797Y0066178D01*
X0028792Y0066117D01*
X0028783Y0066058D01*
X0028770Y0065999D01*
X0028754Y0065940D01*
X0028734Y0065883D01*
X0028711Y0065828D01*
X0028684Y0065773D01*
X0028655Y0065721D01*
X0028622Y0065670D01*
X0028586Y0065621D01*
X0028548Y0065575D01*
X0028506Y0065531D01*
X0028462Y0065489D01*
X0028416Y0065451D01*
X0028367Y0065415D01*
X0028316Y0065382D01*
X0028264Y0065353D01*
X0028209Y0065326D01*
X0028154Y0065303D01*
X0028097Y0065283D01*
X0028038Y0065267D01*
X0027979Y0065254D01*
X0027920Y0065245D01*
X0027859Y0065240D01*
X0027799Y0065238D01*
X0027799Y0065237D02*
X0021799Y0065237D01*
X0021799Y0065238D02*
X0021739Y0065240D01*
X0021678Y0065245D01*
X0021619Y0065254D01*
X0021560Y0065267D01*
X0021501Y0065283D01*
X0021444Y0065303D01*
X0021389Y0065326D01*
X0021334Y0065353D01*
X0021282Y0065382D01*
X0021231Y0065415D01*
X0021182Y0065451D01*
X0021136Y0065489D01*
X0021092Y0065531D01*
X0021050Y0065575D01*
X0021012Y0065621D01*
X0020976Y0065670D01*
X0020943Y0065721D01*
X0020914Y0065773D01*
X0020887Y0065828D01*
X0020864Y0065883D01*
X0020844Y0065940D01*
X0020828Y0065999D01*
X0020815Y0066058D01*
X0020806Y0066117D01*
X0020801Y0066178D01*
X0020799Y0066238D01*
X0020799Y0083238D01*
X0020801Y0083298D01*
X0020806Y0083359D01*
X0020815Y0083418D01*
X0020828Y0083477D01*
X0020844Y0083536D01*
X0020864Y0083593D01*
X0020887Y0083648D01*
X0020914Y0083703D01*
X0020943Y0083755D01*
X0020976Y0083806D01*
X0021012Y0083855D01*
X0021050Y0083901D01*
X0021092Y0083945D01*
X0021136Y0083987D01*
X0021182Y0084025D01*
X0021231Y0084061D01*
X0021282Y0084094D01*
X0021334Y0084123D01*
X0021389Y0084150D01*
X0021444Y0084173D01*
X0021501Y0084193D01*
X0021560Y0084209D01*
X0021619Y0084222D01*
X0021678Y0084231D01*
X0021739Y0084236D01*
X0021799Y0084238D01*
X0019799Y0082238D02*
X0019799Y0074738D01*
X0017299Y0076613D02*
X0017299Y0079113D01*
X0014174Y0079113D02*
X0014174Y0076613D01*
X0014174Y0067550D02*
X0014174Y0065050D01*
X0017299Y0065050D02*
X0017299Y0067550D01*
X0014799Y0050987D02*
X0014799Y0048487D01*
X0011674Y0048487D02*
X0011674Y0050987D01*
X0029799Y0074738D02*
X0029799Y0082238D01*
X0035157Y0118489D02*
X0035724Y0118489D01*
X0036291Y0119056D02*
X0036291Y0119623D01*
X0035724Y0120190D01*
X0034590Y0120190D01*
X0034023Y0119623D01*
X0063237Y0045050D02*
X0063237Y0042550D01*
X0066362Y0042550D02*
X0066362Y0045050D01*
X0053509Y0018940D02*
X0052374Y0018940D01*
X0051807Y0018373D01*
X0051807Y0017806D01*
X0052374Y0017239D01*
X0053509Y0017239D01*
X0054076Y0016672D01*
X0054076Y0016105D01*
X0053509Y0015537D01*
X0052374Y0015537D01*
X0051807Y0016105D01*
X0050393Y0015537D02*
X0048124Y0015537D01*
X0048124Y0018940D01*
X0050393Y0018940D01*
X0049258Y0017239D02*
X0048124Y0017239D01*
X0046710Y0018940D02*
X0046710Y0015537D01*
X0044441Y0018940D01*
X0044441Y0015537D01*
X0043026Y0016105D02*
X0043026Y0016672D01*
X0042459Y0017239D01*
X0041325Y0017239D01*
X0040758Y0017806D01*
X0040758Y0018373D01*
X0041325Y0018940D01*
X0042459Y0018940D01*
X0043026Y0018373D01*
X0043026Y0016105D02*
X0042459Y0015537D01*
X0041325Y0015537D01*
X0040758Y0016105D01*
X0039343Y0017239D02*
X0037075Y0017239D01*
X0038776Y0018940D01*
X0038776Y0015537D01*
X0035660Y0015537D02*
X0035660Y0017806D01*
X0034526Y0018940D01*
X0033392Y0017806D01*
X0033392Y0015537D01*
X0031977Y0016105D02*
X0031977Y0018373D01*
X0031410Y0018940D01*
X0029708Y0018940D01*
X0029708Y0015537D01*
X0031410Y0015537D01*
X0031977Y0016105D01*
X0033392Y0017239D02*
X0035660Y0017239D01*
X0030299Y0008050D02*
X0029299Y0008050D01*
X0030299Y0008050D02*
X0030299Y0007050D01*
X0030299Y0003050D02*
X0030299Y0002050D01*
X0029299Y0002050D01*
X0025299Y0002050D02*
X0024299Y0002050D01*
X0024299Y0003050D01*
X0024299Y0007050D02*
X0024299Y0008050D01*
X0025299Y0008050D01*
X0053509Y0018940D02*
X0054076Y0018373D01*
X0053987Y0008050D02*
X0053987Y0007050D01*
X0053987Y0008050D02*
X0054987Y0008050D01*
X0053987Y0003050D02*
X0053987Y0002050D01*
X0054987Y0002050D01*
X0058987Y0002050D02*
X0059987Y0002050D01*
X0059987Y0003050D01*
X0059987Y0007050D02*
X0059987Y0008050D01*
X0058987Y0008050D01*
D13*
X0058385Y0031273D02*
X0020589Y0031273D01*
X0020589Y0048202D01*
X0058385Y0048202D01*
X0058385Y0031273D01*
X0023148Y0034619D02*
X0023150Y0034690D01*
X0023156Y0034761D01*
X0023166Y0034832D01*
X0023180Y0034901D01*
X0023197Y0034970D01*
X0023219Y0035038D01*
X0023244Y0035105D01*
X0023273Y0035170D01*
X0023305Y0035233D01*
X0023341Y0035295D01*
X0023380Y0035354D01*
X0023423Y0035411D01*
X0023468Y0035466D01*
X0023517Y0035518D01*
X0023568Y0035567D01*
X0023622Y0035613D01*
X0023679Y0035657D01*
X0023737Y0035697D01*
X0023798Y0035733D01*
X0023861Y0035767D01*
X0023926Y0035796D01*
X0023992Y0035822D01*
X0024060Y0035845D01*
X0024128Y0035863D01*
X0024198Y0035878D01*
X0024268Y0035889D01*
X0024339Y0035896D01*
X0024410Y0035899D01*
X0024481Y0035898D01*
X0024552Y0035893D01*
X0024623Y0035884D01*
X0024693Y0035871D01*
X0024762Y0035855D01*
X0024830Y0035834D01*
X0024897Y0035810D01*
X0024963Y0035782D01*
X0025026Y0035750D01*
X0025088Y0035715D01*
X0025148Y0035677D01*
X0025206Y0035635D01*
X0025261Y0035591D01*
X0025314Y0035543D01*
X0025364Y0035492D01*
X0025411Y0035439D01*
X0025455Y0035383D01*
X0025496Y0035325D01*
X0025534Y0035264D01*
X0025568Y0035202D01*
X0025598Y0035137D01*
X0025625Y0035072D01*
X0025649Y0035004D01*
X0025668Y0034936D01*
X0025684Y0034867D01*
X0025696Y0034796D01*
X0025704Y0034726D01*
X0025708Y0034655D01*
X0025708Y0034583D01*
X0025704Y0034512D01*
X0025696Y0034442D01*
X0025684Y0034371D01*
X0025668Y0034302D01*
X0025649Y0034234D01*
X0025625Y0034166D01*
X0025598Y0034101D01*
X0025568Y0034036D01*
X0025534Y0033974D01*
X0025496Y0033913D01*
X0025455Y0033855D01*
X0025411Y0033799D01*
X0025364Y0033746D01*
X0025314Y0033695D01*
X0025261Y0033647D01*
X0025206Y0033603D01*
X0025148Y0033561D01*
X0025088Y0033523D01*
X0025026Y0033488D01*
X0024963Y0033456D01*
X0024897Y0033428D01*
X0024830Y0033404D01*
X0024762Y0033383D01*
X0024693Y0033367D01*
X0024623Y0033354D01*
X0024552Y0033345D01*
X0024481Y0033340D01*
X0024410Y0033339D01*
X0024339Y0033342D01*
X0024268Y0033349D01*
X0024198Y0033360D01*
X0024128Y0033375D01*
X0024060Y0033393D01*
X0023992Y0033416D01*
X0023926Y0033442D01*
X0023861Y0033471D01*
X0023798Y0033505D01*
X0023737Y0033541D01*
X0023679Y0033581D01*
X0023622Y0033625D01*
X0023568Y0033671D01*
X0023517Y0033720D01*
X0023468Y0033772D01*
X0023423Y0033827D01*
X0023380Y0033884D01*
X0023341Y0033943D01*
X0023305Y0034005D01*
X0023273Y0034068D01*
X0023244Y0034133D01*
X0023219Y0034200D01*
X0023197Y0034268D01*
X0023180Y0034337D01*
X0023166Y0034406D01*
X0023156Y0034477D01*
X0023150Y0034548D01*
X0023148Y0034619D01*
D14*
X0042637Y0086237D02*
X0042639Y0086303D01*
X0042645Y0086368D01*
X0042655Y0086433D01*
X0042668Y0086498D01*
X0042686Y0086561D01*
X0042707Y0086624D01*
X0042732Y0086684D01*
X0042761Y0086744D01*
X0042793Y0086801D01*
X0042828Y0086857D01*
X0042867Y0086910D01*
X0042909Y0086961D01*
X0042953Y0087009D01*
X0043001Y0087054D01*
X0043051Y0087097D01*
X0043104Y0087136D01*
X0043159Y0087173D01*
X0043216Y0087206D01*
X0043275Y0087235D01*
X0043335Y0087261D01*
X0043397Y0087283D01*
X0043460Y0087302D01*
X0043524Y0087316D01*
X0043589Y0087327D01*
X0043655Y0087334D01*
X0043721Y0087337D01*
X0043786Y0087336D01*
X0043852Y0087331D01*
X0043917Y0087322D01*
X0043982Y0087309D01*
X0044045Y0087293D01*
X0044108Y0087273D01*
X0044169Y0087248D01*
X0044229Y0087221D01*
X0044287Y0087190D01*
X0044343Y0087155D01*
X0044397Y0087117D01*
X0044448Y0087076D01*
X0044497Y0087032D01*
X0044543Y0086985D01*
X0044587Y0086936D01*
X0044627Y0086884D01*
X0044664Y0086829D01*
X0044698Y0086773D01*
X0044728Y0086714D01*
X0044755Y0086654D01*
X0044778Y0086593D01*
X0044797Y0086530D01*
X0044813Y0086466D01*
X0044825Y0086401D01*
X0044833Y0086336D01*
X0044837Y0086270D01*
X0044837Y0086204D01*
X0044833Y0086138D01*
X0044825Y0086073D01*
X0044813Y0086008D01*
X0044797Y0085944D01*
X0044778Y0085881D01*
X0044755Y0085820D01*
X0044728Y0085760D01*
X0044698Y0085701D01*
X0044664Y0085645D01*
X0044627Y0085590D01*
X0044587Y0085538D01*
X0044543Y0085489D01*
X0044497Y0085442D01*
X0044448Y0085398D01*
X0044397Y0085357D01*
X0044343Y0085319D01*
X0044287Y0085284D01*
X0044229Y0085253D01*
X0044169Y0085226D01*
X0044108Y0085201D01*
X0044045Y0085181D01*
X0043982Y0085165D01*
X0043917Y0085152D01*
X0043852Y0085143D01*
X0043786Y0085138D01*
X0043721Y0085137D01*
X0043655Y0085140D01*
X0043589Y0085147D01*
X0043524Y0085158D01*
X0043460Y0085172D01*
X0043397Y0085191D01*
X0043335Y0085213D01*
X0043275Y0085239D01*
X0043216Y0085268D01*
X0043159Y0085301D01*
X0043104Y0085338D01*
X0043051Y0085377D01*
X0043001Y0085420D01*
X0042953Y0085465D01*
X0042909Y0085513D01*
X0042867Y0085564D01*
X0042828Y0085617D01*
X0042793Y0085673D01*
X0042761Y0085730D01*
X0042732Y0085790D01*
X0042707Y0085850D01*
X0042686Y0085913D01*
X0042668Y0085976D01*
X0042655Y0086041D01*
X0042645Y0086106D01*
X0042639Y0086171D01*
X0042637Y0086237D01*
M02*
