G75*
%MOIN*%
%OFA0B0*%
%FSLAX25Y25*%
%IPPOS*%
%LPD*%
%AMOC8*
5,1,8,0,0,1.08239X$1,22.5*
%
%ADD10C,0.00000*%
%ADD11R,0.10000X0.05000*%
%ADD12R,0.01575X0.04724*%
%ADD13R,0.04331X0.03937*%
%ADD14R,0.03937X0.04331*%
%ADD15R,0.06299X0.03150*%
%ADD16R,0.05150X0.05150*%
%ADD17C,0.05150*%
%ADD18C,0.06496*%
%ADD19C,0.00800*%
%ADD20C,0.21654*%
%ADD21C,0.01200*%
%ADD22C,0.02775*%
%ADD23C,0.03200*%
D10*
X0004100Y0003487D02*
X0005350Y0002238D01*
X0076913Y0002238D01*
X0078163Y0003487D01*
X0078163Y0060675D01*
X0076913Y0061925D01*
X0050350Y0061925D01*
X0049100Y0063175D01*
X0049100Y0061925D01*
X0049100Y0063175D02*
X0049100Y0076925D01*
X0047850Y0078175D01*
X0005350Y0078175D01*
X0004100Y0076925D01*
X0004100Y0003487D01*
D11*
X0010350Y0006300D03*
X0010350Y0016300D03*
D12*
X0021216Y0015508D03*
X0023775Y0015508D03*
X0026334Y0015508D03*
X0028893Y0015508D03*
X0031452Y0015508D03*
X0034011Y0015508D03*
X0036570Y0015508D03*
X0039130Y0015508D03*
X0041689Y0015508D03*
X0044248Y0015508D03*
X0046807Y0015508D03*
X0049366Y0015508D03*
X0051925Y0015508D03*
X0054484Y0015508D03*
X0054484Y0038342D03*
X0051925Y0038342D03*
X0049366Y0038342D03*
X0046807Y0038342D03*
X0044248Y0038342D03*
X0041689Y0038342D03*
X0039130Y0038342D03*
X0036570Y0038342D03*
X0034011Y0038342D03*
X0031452Y0038342D03*
X0028893Y0038342D03*
X0026334Y0038342D03*
X0023775Y0038342D03*
X0021216Y0038342D03*
D13*
X0030754Y0006925D03*
X0037446Y0006925D03*
D14*
X0011600Y0028579D03*
X0011600Y0035271D03*
X0044725Y0046079D03*
X0044725Y0052771D03*
D15*
X0073788Y0031925D03*
X0073788Y0026925D03*
X0073788Y0021925D03*
X0073788Y0016925D03*
X0073788Y0011925D03*
D16*
X0036600Y0051925D03*
D17*
X0026600Y0051925D03*
X0016600Y0051925D03*
D18*
X0016600Y0062279D03*
X0036600Y0062279D03*
D19*
X0046600Y0056925D02*
X0048475Y0055050D01*
X0048475Y0043800D01*
X0046807Y0042132D01*
X0046807Y0038342D01*
X0054484Y0038342D02*
X0054484Y0032791D01*
X0051600Y0025675D02*
X0060975Y0025675D01*
X0068475Y0031925D01*
X0073788Y0031925D01*
X0073788Y0026925D02*
X0067225Y0026925D01*
X0062850Y0023800D01*
X0052225Y0023800D01*
X0046807Y0018382D01*
X0046807Y0015508D01*
X0049366Y0015508D02*
X0049366Y0012284D01*
X0050350Y0011300D01*
X0056287Y0011300D01*
X0061912Y0016925D01*
X0073788Y0016925D01*
X0073788Y0021925D02*
X0054725Y0021925D01*
X0051925Y0019125D01*
X0051925Y0015508D01*
X0049725Y0023800D02*
X0051600Y0025675D01*
X0049725Y0023800D02*
X0035975Y0023800D01*
X0034011Y0021836D01*
X0034011Y0015508D01*
X0031452Y0015508D02*
X0031452Y0022073D01*
X0029725Y0023800D01*
X0025350Y0023800D01*
X0023775Y0022225D01*
X0023775Y0015508D01*
X0023775Y0010350D01*
X0023944Y0010519D01*
X0024881Y0010519D01*
X0022850Y0008488D01*
X0022850Y0009425D02*
X0023775Y0010350D01*
X0024881Y0010519D02*
X0026334Y0011972D01*
X0026334Y0015508D01*
X0023775Y0015508D01*
X0021216Y0029425D02*
X0021216Y0038342D01*
X0027850Y0029425D02*
X0031600Y0029425D01*
X0032850Y0030675D01*
X0034100Y0029425D01*
X0032850Y0029425D02*
X0032850Y0030675D01*
X0032850Y0033800D01*
X0034011Y0034961D01*
X0034011Y0038342D01*
X0031452Y0038342D01*
X0031600Y0038195D01*
X0031600Y0035050D01*
X0032850Y0033800D01*
X0016600Y0051925D02*
X0021600Y0056925D01*
X0046600Y0056925D01*
X0044248Y0015508D02*
X0041689Y0015508D01*
X0041689Y0011836D01*
X0042225Y0011300D01*
X0043475Y0011300D01*
X0042850Y0010675D01*
X0042850Y0006925D01*
X0042850Y0010675D02*
X0042225Y0011300D01*
X0043475Y0011300D02*
X0044248Y0012073D01*
X0044248Y0015508D01*
X0061912Y0011925D02*
X0073788Y0011925D01*
D20*
X0066167Y0047555D03*
D21*
X0056471Y0041202D02*
X0055768Y0041905D01*
X0053775Y0041905D01*
X0053695Y0041985D01*
X0053330Y0042195D01*
X0052923Y0042305D01*
X0051925Y0042305D01*
X0051925Y0038342D01*
X0051925Y0034380D01*
X0052414Y0034380D01*
X0052290Y0034257D01*
X0051896Y0033306D01*
X0051896Y0032276D01*
X0052290Y0031325D01*
X0053018Y0030598D01*
X0053969Y0030204D01*
X0054999Y0030204D01*
X0055949Y0030598D01*
X0056677Y0031325D01*
X0057071Y0032276D01*
X0057071Y0033306D01*
X0056677Y0034257D01*
X0056084Y0034850D01*
X0056084Y0035096D01*
X0056471Y0035483D01*
X0056471Y0041202D01*
X0056197Y0041476D02*
X0076563Y0041476D01*
X0076563Y0040277D02*
X0056471Y0040277D01*
X0056471Y0039079D02*
X0076563Y0039079D01*
X0076563Y0037880D02*
X0056471Y0037880D01*
X0056471Y0036682D02*
X0076563Y0036682D01*
X0076563Y0035483D02*
X0056471Y0035483D01*
X0056649Y0034285D02*
X0069726Y0034285D01*
X0069438Y0033997D02*
X0069438Y0033525D01*
X0068548Y0033525D01*
X0067960Y0033578D01*
X0067896Y0033525D01*
X0067812Y0033525D01*
X0067395Y0033108D01*
X0060396Y0027275D01*
X0050937Y0027275D01*
X0050000Y0026338D01*
X0049062Y0025400D01*
X0035312Y0025400D01*
X0034375Y0024463D01*
X0033349Y0023436D01*
X0032850Y0022938D01*
X0030388Y0025400D01*
X0024687Y0025400D01*
X0023750Y0024463D01*
X0022175Y0022888D01*
X0022175Y0019470D01*
X0021216Y0019470D01*
X0020218Y0019470D01*
X0019811Y0019361D01*
X0019446Y0019150D01*
X0019148Y0018852D01*
X0018938Y0018487D01*
X0018829Y0018081D01*
X0018829Y0015508D01*
X0021216Y0015508D01*
X0021216Y0019470D01*
X0021216Y0015508D01*
X0021216Y0015508D01*
X0021216Y0015508D01*
X0018829Y0015508D01*
X0018829Y0012935D01*
X0018938Y0012528D01*
X0019148Y0012163D01*
X0019446Y0011865D01*
X0019811Y0011655D01*
X0020218Y0011545D01*
X0021216Y0011545D01*
X0021216Y0015508D01*
X0021216Y0015508D01*
X0021216Y0011545D01*
X0021538Y0011545D01*
X0021538Y0011287D01*
X0017293Y0011287D01*
X0016264Y0010861D01*
X0015403Y0010000D01*
X0009787Y0010000D01*
X0009787Y0013902D01*
X0009750Y0013939D01*
X0009750Y0015700D01*
X0010950Y0015700D01*
X0010950Y0016900D01*
X0009750Y0016900D01*
X0009750Y0020400D01*
X0005700Y0020400D01*
X0005700Y0076262D01*
X0006013Y0076575D01*
X0047187Y0076575D01*
X0047500Y0076262D01*
X0047500Y0061262D01*
X0048437Y0060325D01*
X0076250Y0060325D01*
X0076563Y0060012D01*
X0076563Y0034700D01*
X0070141Y0034700D01*
X0069438Y0033997D01*
X0067369Y0033086D02*
X0057071Y0033086D01*
X0056910Y0031888D02*
X0065931Y0031888D01*
X0064493Y0030689D02*
X0056041Y0030689D01*
X0052927Y0030689D02*
X0046035Y0030689D01*
X0046048Y0030702D02*
X0046048Y0034780D01*
X0050075Y0034780D01*
X0050155Y0034700D01*
X0050520Y0034489D01*
X0050927Y0034380D01*
X0051925Y0034380D01*
X0051925Y0038342D01*
X0051925Y0038342D01*
X0051925Y0038342D01*
X0051925Y0042305D01*
X0050927Y0042305D01*
X0050520Y0042195D01*
X0050155Y0041985D01*
X0050075Y0041905D01*
X0048842Y0041905D01*
X0050075Y0043137D01*
X0050075Y0055713D01*
X0049138Y0056650D01*
X0047263Y0058525D01*
X0039136Y0058525D01*
X0040371Y0059760D01*
X0041048Y0061395D01*
X0041048Y0063164D01*
X0040371Y0064799D01*
X0039120Y0066050D01*
X0037485Y0066727D01*
X0035715Y0066727D01*
X0034080Y0066050D01*
X0032829Y0064799D01*
X0032152Y0063164D01*
X0032152Y0061395D01*
X0032829Y0059760D01*
X0034064Y0058525D01*
X0020937Y0058525D01*
X0017889Y0055477D01*
X0017351Y0055700D01*
X0015849Y0055700D01*
X0014462Y0055125D01*
X0013400Y0054063D01*
X0012825Y0052676D01*
X0012825Y0051174D01*
X0013400Y0049787D01*
X0014462Y0048725D01*
X0015849Y0048150D01*
X0017351Y0048150D01*
X0018738Y0048725D01*
X0019800Y0049787D01*
X0020375Y0051174D01*
X0020375Y0052676D01*
X0020152Y0053214D01*
X0022263Y0055325D01*
X0024944Y0055325D01*
X0024462Y0055125D01*
X0023400Y0054063D01*
X0022825Y0052676D01*
X0022825Y0051174D01*
X0023400Y0049787D01*
X0024221Y0048966D01*
X0022729Y0047475D01*
X0014604Y0047475D01*
X0010854Y0043725D01*
X0009800Y0042671D01*
X0009800Y0038637D01*
X0009134Y0038637D01*
X0008431Y0037934D01*
X0008431Y0032609D01*
X0008882Y0032159D01*
X0008649Y0032024D01*
X0008351Y0031726D01*
X0008141Y0031361D01*
X0008031Y0030955D01*
X0008031Y0028963D01*
X0011216Y0028963D01*
X0011216Y0028194D01*
X0011984Y0028194D01*
X0011984Y0024813D01*
X0013779Y0024813D01*
X0014186Y0024922D01*
X0014551Y0025133D01*
X0014849Y0025431D01*
X0015059Y0025796D01*
X0015168Y0026203D01*
X0015168Y0028194D01*
X0011984Y0028194D01*
X0011984Y0028963D01*
X0015168Y0028963D01*
X0015168Y0030955D01*
X0015059Y0031361D01*
X0014849Y0031726D01*
X0014551Y0032024D01*
X0014318Y0032159D01*
X0014694Y0032535D01*
X0018848Y0028382D01*
X0019023Y0027959D01*
X0019750Y0027232D01*
X0020701Y0026838D01*
X0021731Y0026838D01*
X0022682Y0027232D01*
X0023075Y0027625D01*
X0028596Y0027625D01*
X0033596Y0027625D01*
X0042971Y0027625D01*
X0046048Y0030702D01*
X0046048Y0031888D02*
X0052057Y0031888D01*
X0051896Y0033086D02*
X0046048Y0033086D01*
X0046048Y0034285D02*
X0052318Y0034285D01*
X0051925Y0035483D02*
X0051925Y0035483D01*
X0051925Y0036682D02*
X0051925Y0036682D01*
X0051925Y0037880D02*
X0051925Y0037880D01*
X0051925Y0039079D02*
X0051925Y0039079D01*
X0051925Y0040277D02*
X0051925Y0040277D01*
X0051925Y0041476D02*
X0051925Y0041476D01*
X0049612Y0042674D02*
X0076563Y0042674D01*
X0076563Y0043873D02*
X0050075Y0043873D01*
X0050075Y0045071D02*
X0076563Y0045071D01*
X0076563Y0046270D02*
X0050075Y0046270D01*
X0050075Y0047468D02*
X0076563Y0047468D01*
X0076563Y0048667D02*
X0050075Y0048667D01*
X0050075Y0049865D02*
X0076563Y0049865D01*
X0076563Y0051064D02*
X0050075Y0051064D01*
X0050075Y0052262D02*
X0076563Y0052262D01*
X0076563Y0053461D02*
X0050075Y0053461D01*
X0050075Y0054659D02*
X0076563Y0054659D01*
X0076563Y0055858D02*
X0049930Y0055858D01*
X0048731Y0057057D02*
X0076563Y0057057D01*
X0076563Y0058255D02*
X0047533Y0058255D01*
X0048110Y0060652D02*
X0040740Y0060652D01*
X0041048Y0061851D02*
X0047500Y0061851D01*
X0047500Y0063049D02*
X0041048Y0063049D01*
X0040599Y0064248D02*
X0047500Y0064248D01*
X0047500Y0065446D02*
X0039724Y0065446D01*
X0037685Y0066645D02*
X0047500Y0066645D01*
X0047500Y0067843D02*
X0005700Y0067843D01*
X0005700Y0066645D02*
X0015515Y0066645D01*
X0015715Y0066727D02*
X0014080Y0066050D01*
X0012829Y0064799D01*
X0012152Y0063164D01*
X0012152Y0061395D01*
X0012829Y0059760D01*
X0014080Y0058508D01*
X0015715Y0057831D01*
X0017485Y0057831D01*
X0019120Y0058508D01*
X0020371Y0059760D01*
X0021048Y0061395D01*
X0021048Y0063164D01*
X0020371Y0064799D01*
X0019120Y0066050D01*
X0017485Y0066727D01*
X0015715Y0066727D01*
X0017685Y0066645D02*
X0035515Y0066645D01*
X0033476Y0065446D02*
X0019724Y0065446D01*
X0020599Y0064248D02*
X0032601Y0064248D01*
X0032152Y0063049D02*
X0021048Y0063049D01*
X0021048Y0061851D02*
X0032152Y0061851D01*
X0032460Y0060652D02*
X0020740Y0060652D01*
X0020065Y0059454D02*
X0033135Y0059454D01*
X0032654Y0055325D02*
X0032534Y0055117D01*
X0032425Y0054710D01*
X0032425Y0052112D01*
X0036413Y0052112D01*
X0036413Y0051738D01*
X0036787Y0051738D01*
X0036787Y0047750D01*
X0039385Y0047750D01*
X0039792Y0047859D01*
X0040157Y0048070D01*
X0040455Y0048368D01*
X0040666Y0048733D01*
X0040775Y0049140D01*
X0040775Y0051738D01*
X0036787Y0051738D01*
X0036787Y0052112D01*
X0040775Y0052112D01*
X0040775Y0053425D01*
X0041156Y0053425D01*
X0041156Y0053156D01*
X0044341Y0053156D01*
X0044341Y0052387D01*
X0041156Y0052387D01*
X0041156Y0050395D01*
X0041266Y0049989D01*
X0041476Y0049624D01*
X0041774Y0049326D01*
X0042007Y0049191D01*
X0041556Y0048741D01*
X0041556Y0043416D01*
X0042259Y0042713D01*
X0042448Y0042713D01*
X0042448Y0042305D01*
X0041689Y0042305D01*
X0041689Y0038342D01*
X0041689Y0034380D01*
X0042448Y0034380D01*
X0042448Y0032193D01*
X0041479Y0031225D01*
X0034846Y0031225D01*
X0034563Y0031225D01*
X0034450Y0031338D01*
X0034450Y0033137D01*
X0035611Y0034299D01*
X0035611Y0034380D01*
X0036570Y0034380D01*
X0036570Y0038342D01*
X0036571Y0038342D01*
X0036571Y0038342D01*
X0039129Y0038342D01*
X0039129Y0038342D01*
X0039130Y0038342D01*
X0039130Y0038342D01*
X0041688Y0038342D01*
X0041688Y0038342D01*
X0041689Y0038342D02*
X0041689Y0038342D01*
X0041689Y0034380D01*
X0040691Y0034380D01*
X0040409Y0034456D01*
X0040128Y0034380D01*
X0039130Y0034380D01*
X0039130Y0038342D01*
X0041517Y0038342D01*
X0041688Y0038342D01*
X0041689Y0038342D02*
X0041689Y0042305D01*
X0040691Y0042305D01*
X0040409Y0042229D01*
X0040128Y0042305D01*
X0039130Y0042305D01*
X0039130Y0038342D01*
X0039129Y0038342D02*
X0039129Y0034380D01*
X0038131Y0034380D01*
X0037850Y0034456D01*
X0037569Y0034380D01*
X0036571Y0034380D01*
X0036571Y0038342D01*
X0038958Y0038342D01*
X0039129Y0038342D01*
X0039129Y0042305D01*
X0038131Y0042305D01*
X0037850Y0042229D01*
X0037569Y0042305D01*
X0036571Y0042305D01*
X0036571Y0038342D01*
X0036570Y0038342D01*
X0036570Y0042305D01*
X0035572Y0042305D01*
X0035165Y0042195D01*
X0034801Y0041985D01*
X0034720Y0041905D01*
X0028184Y0041905D01*
X0028104Y0041985D01*
X0027739Y0042195D01*
X0027332Y0042305D01*
X0026334Y0042305D01*
X0025336Y0042305D01*
X0025055Y0042229D01*
X0024773Y0042305D01*
X0023775Y0042305D01*
X0022777Y0042305D01*
X0022370Y0042195D01*
X0022005Y0041985D01*
X0021925Y0041905D01*
X0019932Y0041905D01*
X0019229Y0041202D01*
X0019229Y0035483D01*
X0019616Y0035096D01*
X0019616Y0032704D01*
X0015249Y0037071D01*
X0014768Y0037071D01*
X0014768Y0037934D01*
X0014066Y0038637D01*
X0013400Y0038637D01*
X0013400Y0041179D01*
X0016096Y0043875D01*
X0024221Y0043875D01*
X0025275Y0044929D01*
X0028400Y0048054D01*
X0028400Y0048585D01*
X0028738Y0048725D01*
X0029800Y0049787D01*
X0030375Y0051174D01*
X0030375Y0052676D01*
X0029800Y0054063D01*
X0028738Y0055125D01*
X0028256Y0055325D01*
X0032654Y0055325D01*
X0032425Y0054659D02*
X0029204Y0054659D01*
X0030050Y0053461D02*
X0032425Y0053461D01*
X0032425Y0052262D02*
X0030375Y0052262D01*
X0030329Y0051064D02*
X0032425Y0051064D01*
X0032425Y0051738D02*
X0032425Y0049140D01*
X0032534Y0048733D01*
X0032745Y0048368D01*
X0033043Y0048070D01*
X0033408Y0047859D01*
X0033815Y0047750D01*
X0036413Y0047750D01*
X0036413Y0051738D01*
X0032425Y0051738D01*
X0032425Y0049865D02*
X0029833Y0049865D01*
X0028598Y0048667D02*
X0032572Y0048667D01*
X0036413Y0048667D02*
X0036787Y0048667D01*
X0036787Y0049865D02*
X0036413Y0049865D01*
X0036413Y0051064D02*
X0036787Y0051064D01*
X0040775Y0051064D02*
X0041156Y0051064D01*
X0041337Y0049865D02*
X0040775Y0049865D01*
X0040628Y0048667D02*
X0041556Y0048667D01*
X0041556Y0047468D02*
X0027814Y0047468D01*
X0026616Y0046270D02*
X0041556Y0046270D01*
X0041556Y0045071D02*
X0025417Y0045071D01*
X0023475Y0045675D02*
X0015350Y0045675D01*
X0011600Y0041925D01*
X0011600Y0035271D01*
X0014504Y0035271D01*
X0020350Y0029425D01*
X0021216Y0029425D01*
X0027850Y0029425D01*
X0032850Y0029425D01*
X0034100Y0029425D01*
X0042225Y0029425D01*
X0044248Y0031448D01*
X0044248Y0038342D01*
X0044248Y0043948D01*
X0044100Y0045675D01*
X0044321Y0045675D01*
X0044725Y0046079D01*
X0041556Y0043873D02*
X0016093Y0043873D01*
X0014895Y0042674D02*
X0042448Y0042674D01*
X0041689Y0041476D02*
X0041689Y0041476D01*
X0041689Y0040277D02*
X0041689Y0040277D01*
X0041689Y0039079D02*
X0041689Y0039079D01*
X0041689Y0038342D02*
X0041689Y0038342D01*
X0041689Y0037880D02*
X0041689Y0037880D01*
X0041689Y0036682D02*
X0041689Y0036682D01*
X0041689Y0035483D02*
X0041689Y0035483D01*
X0042448Y0034285D02*
X0035598Y0034285D01*
X0036570Y0035483D02*
X0036571Y0035483D01*
X0036570Y0036682D02*
X0036571Y0036682D01*
X0036570Y0037880D02*
X0036571Y0037880D01*
X0036570Y0039079D02*
X0036571Y0039079D01*
X0036570Y0040277D02*
X0036571Y0040277D01*
X0036570Y0041476D02*
X0036571Y0041476D01*
X0039129Y0041476D02*
X0039130Y0041476D01*
X0039129Y0040277D02*
X0039130Y0040277D01*
X0039129Y0039079D02*
X0039130Y0039079D01*
X0039130Y0038342D02*
X0039129Y0038342D01*
X0039129Y0037880D02*
X0039130Y0037880D01*
X0039129Y0036682D02*
X0039130Y0036682D01*
X0039129Y0035483D02*
X0039130Y0035483D01*
X0042448Y0033086D02*
X0034450Y0033086D01*
X0034450Y0031888D02*
X0042142Y0031888D01*
X0044836Y0029491D02*
X0063055Y0029491D01*
X0061616Y0028292D02*
X0043638Y0028292D01*
X0048362Y0022200D02*
X0045232Y0019070D01*
X0042963Y0019070D01*
X0040980Y0019070D01*
X0040899Y0019150D01*
X0040534Y0019361D01*
X0040128Y0019470D01*
X0039130Y0019470D01*
X0039130Y0015508D01*
X0039129Y0015508D01*
X0039129Y0019470D01*
X0038131Y0019470D01*
X0037725Y0019361D01*
X0037360Y0019150D01*
X0037279Y0019070D01*
X0035611Y0019070D01*
X0035611Y0021174D01*
X0036638Y0022200D01*
X0048362Y0022200D01*
X0047263Y0021101D02*
X0035611Y0021101D01*
X0035611Y0019903D02*
X0046065Y0019903D01*
X0049557Y0025895D02*
X0015086Y0025895D01*
X0015168Y0027094D02*
X0020083Y0027094D01*
X0018885Y0028292D02*
X0011984Y0028292D01*
X0011216Y0028292D02*
X0005700Y0028292D01*
X0005700Y0027094D02*
X0008031Y0027094D01*
X0008031Y0026203D02*
X0008141Y0025796D01*
X0008351Y0025431D01*
X0008649Y0025133D01*
X0009014Y0024922D01*
X0009421Y0024813D01*
X0011216Y0024813D01*
X0011216Y0028194D01*
X0008031Y0028194D01*
X0008031Y0026203D01*
X0008114Y0025895D02*
X0005700Y0025895D01*
X0005700Y0024697D02*
X0023984Y0024697D01*
X0022785Y0023498D02*
X0005700Y0023498D01*
X0005700Y0022300D02*
X0022175Y0022300D01*
X0022175Y0021101D02*
X0005700Y0021101D01*
X0009750Y0019903D02*
X0010950Y0019903D01*
X0010950Y0020400D02*
X0010950Y0016900D01*
X0016950Y0016900D01*
X0016950Y0019011D01*
X0016841Y0019418D01*
X0016630Y0019782D01*
X0016332Y0020080D01*
X0015968Y0020291D01*
X0015561Y0020400D01*
X0010950Y0020400D01*
X0010950Y0018704D02*
X0009750Y0018704D01*
X0009750Y0017506D02*
X0010950Y0017506D01*
X0010950Y0016307D02*
X0018829Y0016307D01*
X0018829Y0015109D02*
X0016950Y0015109D01*
X0016950Y0015700D02*
X0016950Y0013589D01*
X0016841Y0013182D01*
X0016630Y0012818D01*
X0016332Y0012520D01*
X0015968Y0012309D01*
X0015561Y0012200D01*
X0010950Y0012200D01*
X0010950Y0015700D01*
X0016950Y0015700D01*
X0016950Y0013910D02*
X0018829Y0013910D01*
X0018889Y0012712D02*
X0016524Y0012712D01*
X0015717Y0010315D02*
X0009787Y0010315D01*
X0009787Y0011513D02*
X0021538Y0011513D01*
X0021216Y0012712D02*
X0021216Y0012712D01*
X0021216Y0013910D02*
X0021216Y0013910D01*
X0021216Y0015109D02*
X0021216Y0015109D01*
X0021216Y0016307D02*
X0021216Y0016307D01*
X0021216Y0017506D02*
X0021216Y0017506D01*
X0021216Y0018704D02*
X0021216Y0018704D01*
X0022175Y0019903D02*
X0016510Y0019903D01*
X0016950Y0018704D02*
X0019063Y0018704D01*
X0018829Y0017506D02*
X0016950Y0017506D01*
X0010950Y0015109D02*
X0009750Y0015109D01*
X0009779Y0013910D02*
X0010950Y0013910D01*
X0010950Y0012712D02*
X0009787Y0012712D01*
X0011216Y0025895D02*
X0011984Y0025895D01*
X0011984Y0027094D02*
X0011216Y0027094D01*
X0008031Y0029491D02*
X0005700Y0029491D01*
X0005700Y0030689D02*
X0008031Y0030689D01*
X0008513Y0031888D02*
X0005700Y0031888D01*
X0005700Y0033086D02*
X0008431Y0033086D01*
X0008431Y0034285D02*
X0005700Y0034285D01*
X0005700Y0035483D02*
X0008431Y0035483D01*
X0008431Y0036682D02*
X0005700Y0036682D01*
X0005700Y0037880D02*
X0008431Y0037880D01*
X0009800Y0039079D02*
X0005700Y0039079D01*
X0005700Y0040277D02*
X0009800Y0040277D01*
X0009800Y0041476D02*
X0005700Y0041476D01*
X0005700Y0042674D02*
X0009804Y0042674D01*
X0011002Y0043873D02*
X0005700Y0043873D01*
X0005700Y0045071D02*
X0012201Y0045071D01*
X0013399Y0046270D02*
X0005700Y0046270D01*
X0005700Y0047468D02*
X0014598Y0047468D01*
X0014602Y0048667D02*
X0005700Y0048667D01*
X0005700Y0049865D02*
X0013367Y0049865D01*
X0012871Y0051064D02*
X0005700Y0051064D01*
X0005700Y0052262D02*
X0012825Y0052262D01*
X0013150Y0053461D02*
X0005700Y0053461D01*
X0005700Y0054659D02*
X0013996Y0054659D01*
X0014692Y0058255D02*
X0005700Y0058255D01*
X0005700Y0057057D02*
X0019469Y0057057D01*
X0018508Y0058255D02*
X0020667Y0058255D01*
X0018270Y0055858D02*
X0005700Y0055858D01*
X0005700Y0059454D02*
X0013135Y0059454D01*
X0012460Y0060652D02*
X0005700Y0060652D01*
X0005700Y0061851D02*
X0012152Y0061851D01*
X0012152Y0063049D02*
X0005700Y0063049D01*
X0005700Y0064248D02*
X0012601Y0064248D01*
X0013476Y0065446D02*
X0005700Y0065446D01*
X0005700Y0069042D02*
X0047500Y0069042D01*
X0047500Y0070240D02*
X0005700Y0070240D01*
X0005700Y0071439D02*
X0047500Y0071439D01*
X0047500Y0072637D02*
X0005700Y0072637D01*
X0005700Y0073836D02*
X0047500Y0073836D01*
X0047500Y0075034D02*
X0005700Y0075034D01*
X0005700Y0076233D02*
X0047500Y0076233D01*
X0040065Y0059454D02*
X0076563Y0059454D01*
X0050756Y0027094D02*
X0022349Y0027094D01*
X0023075Y0031225D02*
X0022816Y0031484D01*
X0022816Y0034380D01*
X0023775Y0034380D01*
X0023775Y0038342D01*
X0023775Y0038342D01*
X0023775Y0034380D01*
X0024773Y0034380D01*
X0025055Y0034456D01*
X0025336Y0034380D01*
X0026334Y0034380D01*
X0026334Y0038342D01*
X0026334Y0038342D01*
X0023775Y0038342D01*
X0023775Y0038342D01*
X0023775Y0042305D01*
X0023775Y0038342D01*
X0023775Y0038342D01*
X0026163Y0038342D01*
X0026334Y0038342D01*
X0026334Y0038342D01*
X0026334Y0034380D01*
X0027332Y0034380D01*
X0027739Y0034489D01*
X0028104Y0034700D01*
X0028184Y0034780D01*
X0030000Y0034780D01*
X0030000Y0034387D01*
X0030937Y0033450D01*
X0031250Y0033137D01*
X0031250Y0031338D01*
X0031137Y0031225D01*
X0023075Y0031225D01*
X0022816Y0031888D02*
X0031250Y0031888D01*
X0031250Y0033086D02*
X0022816Y0033086D01*
X0022816Y0034285D02*
X0030102Y0034285D01*
X0026334Y0035483D02*
X0026334Y0035483D01*
X0026334Y0036682D02*
X0026334Y0036682D01*
X0026334Y0037880D02*
X0026334Y0037880D01*
X0026334Y0038342D02*
X0026334Y0042305D01*
X0026334Y0038342D01*
X0026334Y0038342D01*
X0026334Y0039079D02*
X0026334Y0039079D01*
X0026334Y0040277D02*
X0026334Y0040277D01*
X0026334Y0041476D02*
X0026334Y0041476D01*
X0023775Y0041476D02*
X0023775Y0041476D01*
X0023775Y0040277D02*
X0023775Y0040277D01*
X0023775Y0039079D02*
X0023775Y0039079D01*
X0023775Y0037880D02*
X0023775Y0037880D01*
X0023775Y0036682D02*
X0023775Y0036682D01*
X0023775Y0035483D02*
X0023775Y0035483D01*
X0019616Y0034285D02*
X0018036Y0034285D01*
X0019234Y0033086D02*
X0019616Y0033086D01*
X0019229Y0035483D02*
X0016837Y0035483D01*
X0015639Y0036682D02*
X0019229Y0036682D01*
X0019229Y0037880D02*
X0014768Y0037880D01*
X0013400Y0039079D02*
X0019229Y0039079D01*
X0019229Y0040277D02*
X0013400Y0040277D01*
X0013696Y0041476D02*
X0019503Y0041476D01*
X0023475Y0045675D02*
X0026600Y0048800D01*
X0026600Y0051925D01*
X0023996Y0054659D02*
X0021597Y0054659D01*
X0020399Y0053461D02*
X0023150Y0053461D01*
X0022825Y0052262D02*
X0020375Y0052262D01*
X0020329Y0051064D02*
X0022871Y0051064D01*
X0023367Y0049865D02*
X0019833Y0049865D01*
X0018598Y0048667D02*
X0023921Y0048667D01*
X0015342Y0031888D02*
X0014687Y0031888D01*
X0015168Y0030689D02*
X0016540Y0030689D01*
X0017739Y0029491D02*
X0015168Y0029491D01*
X0025375Y0021562D02*
X0025375Y0019070D01*
X0027043Y0019070D01*
X0027123Y0019150D01*
X0027488Y0019361D01*
X0027895Y0019470D01*
X0028893Y0019470D01*
X0028893Y0015508D01*
X0028893Y0015508D01*
X0028893Y0019470D01*
X0029852Y0019470D01*
X0029852Y0021410D01*
X0029062Y0022200D01*
X0026013Y0022200D01*
X0025375Y0021562D01*
X0025375Y0021101D02*
X0029852Y0021101D01*
X0029852Y0019903D02*
X0025375Y0019903D01*
X0028893Y0018704D02*
X0028893Y0018704D01*
X0028893Y0017506D02*
X0028893Y0017506D01*
X0028893Y0016307D02*
X0028893Y0016307D01*
X0028893Y0015508D02*
X0028893Y0011545D01*
X0027934Y0011545D01*
X0027934Y0011309D01*
X0026997Y0010372D01*
X0026997Y0010372D01*
X0026481Y0009856D01*
X0026481Y0009856D01*
X0025650Y0009025D01*
X0025650Y0007931D01*
X0025224Y0006901D01*
X0024436Y0006114D01*
X0024436Y0006114D01*
X0022249Y0003926D01*
X0022034Y0003837D01*
X0027444Y0003837D01*
X0027308Y0003974D01*
X0027097Y0004339D01*
X0026988Y0004746D01*
X0026988Y0006541D01*
X0030369Y0006541D01*
X0030369Y0007309D01*
X0026988Y0007309D01*
X0026988Y0009104D01*
X0027097Y0009511D01*
X0027308Y0009876D01*
X0027606Y0010174D01*
X0027971Y0010384D01*
X0028378Y0010493D01*
X0030369Y0010493D01*
X0030369Y0007309D01*
X0031138Y0007309D01*
X0031138Y0010493D01*
X0031225Y0010493D01*
X0031225Y0011945D01*
X0030743Y0011945D01*
X0030663Y0011865D01*
X0030298Y0011655D01*
X0029891Y0011545D01*
X0028893Y0011545D01*
X0028893Y0015508D01*
X0028893Y0015508D01*
X0028893Y0015109D02*
X0028893Y0015109D01*
X0028893Y0013910D02*
X0028893Y0013910D01*
X0028893Y0012712D02*
X0028893Y0012712D01*
X0027934Y0011513D02*
X0031225Y0011513D01*
X0031138Y0010315D02*
X0030369Y0010315D01*
X0030369Y0009116D02*
X0031138Y0009116D01*
X0031138Y0007918D02*
X0030369Y0007918D01*
X0030369Y0006719D02*
X0025041Y0006719D01*
X0025645Y0007918D02*
X0026988Y0007918D01*
X0026991Y0009116D02*
X0025741Y0009116D01*
X0026940Y0010315D02*
X0027850Y0010315D01*
X0026988Y0005521D02*
X0023843Y0005521D01*
X0022644Y0004322D02*
X0027107Y0004322D01*
X0036570Y0007299D02*
X0037446Y0006925D01*
X0042850Y0006925D01*
X0036570Y0007299D02*
X0036570Y0015508D01*
X0039129Y0016307D02*
X0039130Y0016307D01*
X0039129Y0017506D02*
X0039130Y0017506D01*
X0039129Y0018704D02*
X0039130Y0018704D01*
X0034609Y0024697D02*
X0031091Y0024697D01*
X0032290Y0023498D02*
X0033410Y0023498D01*
X0040775Y0052262D02*
X0041156Y0052262D01*
D22*
X0054484Y0032791D03*
X0047850Y0029425D03*
X0039100Y0020675D03*
X0027850Y0020675D03*
X0021216Y0029425D03*
X0017850Y0038175D03*
X0009100Y0049425D03*
X0012225Y0021300D03*
X0017850Y0008488D03*
X0022850Y0008488D03*
X0025975Y0005050D03*
X0042850Y0006925D03*
X0061912Y0011925D03*
D23*
X0022850Y0008488D02*
X0020663Y0006300D01*
X0010350Y0006300D01*
X0015662Y0006300D01*
X0017850Y0008488D01*
X0022850Y0008488D01*
X0010975Y0006925D02*
X0010350Y0006300D01*
M02*
