G75*
%MOIN*%
%OFA0B0*%
%FSLAX25Y25*%
%IPPOS*%
%LPD*%
%AMOC8*
5,1,8,0,0,1.08239X$1,22.5*
%
%ADD10C,0.00000*%
%ADD11C,0.00500*%
%ADD12C,0.00600*%
D10*
X0004100Y0003487D02*
X0005350Y0002238D01*
X0076913Y0002238D01*
X0078163Y0003487D01*
X0078163Y0060675D01*
X0076913Y0061925D01*
X0050350Y0061925D01*
X0049100Y0063175D01*
X0049100Y0061925D01*
X0049100Y0063175D02*
X0049100Y0076925D01*
X0047850Y0078175D01*
X0005350Y0078175D01*
X0004100Y0076925D01*
X0004100Y0003487D01*
D11*
X0008198Y0015612D02*
X0010534Y0015612D01*
X0008198Y0017948D01*
X0008198Y0018532D01*
X0008782Y0019115D01*
X0009950Y0019115D01*
X0010534Y0018532D01*
X0011881Y0019115D02*
X0014217Y0019115D01*
X0014217Y0017364D01*
X0013049Y0017948D01*
X0012465Y0017948D01*
X0011881Y0017364D01*
X0011881Y0016196D01*
X0012465Y0015612D01*
X0013633Y0015612D01*
X0014217Y0016196D01*
X0015444Y0015612D02*
X0015444Y0019115D01*
X0016792Y0018532D02*
X0017376Y0019115D01*
X0018544Y0019115D01*
X0019128Y0018532D01*
X0020475Y0018532D02*
X0020475Y0016196D01*
X0021059Y0015612D01*
X0022227Y0015612D01*
X0022811Y0016196D01*
X0022227Y0017364D02*
X0020475Y0017364D01*
X0020475Y0018532D02*
X0021059Y0019115D01*
X0022227Y0019115D01*
X0022811Y0018532D01*
X0022811Y0017948D01*
X0022227Y0017364D01*
X0024038Y0019115D02*
X0024038Y0015612D01*
X0025386Y0016196D02*
X0025970Y0015612D01*
X0027138Y0015612D01*
X0027722Y0016196D01*
X0029069Y0016196D02*
X0029069Y0018532D01*
X0029653Y0019115D01*
X0030821Y0019115D01*
X0031405Y0018532D01*
X0031405Y0017948D01*
X0030821Y0017364D01*
X0029069Y0017364D01*
X0029069Y0016196D02*
X0029653Y0015612D01*
X0030821Y0015612D01*
X0031405Y0016196D01*
X0032632Y0015612D02*
X0032632Y0019115D01*
X0034564Y0019115D02*
X0036316Y0017364D01*
X0033980Y0017364D01*
X0034564Y0019115D02*
X0034564Y0015612D01*
X0037663Y0016196D02*
X0037663Y0018532D01*
X0038247Y0019115D01*
X0039415Y0019115D01*
X0039999Y0018532D01*
X0039999Y0017948D01*
X0039415Y0017364D01*
X0037663Y0017364D01*
X0037663Y0016196D02*
X0038247Y0015612D01*
X0039415Y0015612D01*
X0039999Y0016196D01*
X0041226Y0015612D02*
X0041226Y0019115D01*
X0042574Y0019115D02*
X0043742Y0018532D01*
X0044910Y0017364D01*
X0043158Y0017364D01*
X0042574Y0016780D01*
X0042574Y0016196D01*
X0043158Y0015612D01*
X0044326Y0015612D01*
X0044910Y0016196D01*
X0044910Y0017364D01*
X0046257Y0015612D02*
X0048593Y0015612D01*
X0049850Y0015612D02*
X0049850Y0016196D01*
X0050434Y0016196D01*
X0050434Y0015612D01*
X0049850Y0015612D01*
X0049850Y0017364D02*
X0050434Y0017364D01*
X0050434Y0017948D01*
X0049850Y0017948D01*
X0049850Y0017364D01*
X0048593Y0017948D02*
X0047425Y0019115D01*
X0047425Y0015612D01*
X0051782Y0016196D02*
X0052366Y0015612D01*
X0053534Y0015612D01*
X0054117Y0016196D01*
X0054117Y0019115D01*
X0055465Y0018532D02*
X0055465Y0017364D01*
X0056049Y0016780D01*
X0057801Y0016780D01*
X0057801Y0015612D02*
X0057801Y0019115D01*
X0056049Y0019115D01*
X0055465Y0018532D01*
X0056049Y0021612D02*
X0057217Y0021612D01*
X0057801Y0022196D01*
X0057217Y0023364D02*
X0056049Y0023364D01*
X0055465Y0022780D01*
X0055465Y0022196D01*
X0056049Y0021612D01*
X0054117Y0021612D02*
X0054117Y0025115D01*
X0052366Y0025115D01*
X0051782Y0024532D01*
X0051782Y0023364D01*
X0052366Y0022780D01*
X0054117Y0022780D01*
X0055465Y0024532D02*
X0056049Y0025115D01*
X0057217Y0025115D01*
X0057801Y0024532D01*
X0057801Y0023948D01*
X0057217Y0023364D01*
X0059148Y0022196D02*
X0059148Y0024532D01*
X0059732Y0025115D01*
X0061484Y0025115D01*
X0061484Y0021612D01*
X0059732Y0021612D01*
X0059148Y0022196D01*
X0060316Y0019115D02*
X0059148Y0017948D01*
X0059148Y0015612D01*
X0059148Y0017364D02*
X0061484Y0017364D01*
X0061484Y0017948D02*
X0060316Y0019115D01*
X0061484Y0017948D02*
X0061484Y0015612D01*
X0062832Y0017364D02*
X0065167Y0017364D01*
X0066515Y0016780D02*
X0066515Y0016196D01*
X0067099Y0015612D01*
X0068266Y0015612D01*
X0068850Y0016196D01*
X0068266Y0017364D02*
X0067099Y0017364D01*
X0066515Y0016780D01*
X0066515Y0018532D02*
X0067099Y0019115D01*
X0068266Y0019115D01*
X0068850Y0018532D01*
X0068850Y0017948D01*
X0068266Y0017364D01*
X0068266Y0021612D02*
X0067099Y0021612D01*
X0066515Y0022196D01*
X0066515Y0022780D01*
X0067099Y0023364D01*
X0068266Y0023364D01*
X0068850Y0023948D01*
X0068850Y0024532D01*
X0068266Y0025115D01*
X0067099Y0025115D01*
X0066515Y0024532D01*
X0065167Y0023364D02*
X0062832Y0023364D01*
X0061484Y0027612D02*
X0061484Y0031115D01*
X0059732Y0031115D01*
X0059148Y0030532D01*
X0059148Y0029364D01*
X0059732Y0028780D01*
X0061484Y0028780D01*
X0057801Y0028196D02*
X0057217Y0028780D01*
X0055465Y0028780D01*
X0055465Y0029364D02*
X0055465Y0027612D01*
X0057217Y0027612D01*
X0057801Y0028196D01*
X0057217Y0029948D02*
X0056049Y0029948D01*
X0055465Y0029364D01*
X0054117Y0029364D02*
X0053534Y0029948D01*
X0051782Y0029948D01*
X0051782Y0031115D02*
X0051782Y0027612D01*
X0053534Y0027612D01*
X0054117Y0028196D01*
X0054117Y0029364D01*
X0050434Y0029364D02*
X0050434Y0029948D01*
X0049850Y0029948D01*
X0049850Y0029364D01*
X0050434Y0029364D01*
X0050434Y0028196D02*
X0049850Y0028196D01*
X0049850Y0027612D01*
X0050434Y0027612D01*
X0050434Y0028196D01*
X0050434Y0023948D02*
X0049850Y0023948D01*
X0049850Y0023364D01*
X0050434Y0023364D01*
X0050434Y0023948D01*
X0050434Y0022196D02*
X0049850Y0022196D01*
X0049850Y0021612D01*
X0050434Y0021612D01*
X0050434Y0022196D01*
X0048593Y0023364D02*
X0046257Y0023364D01*
X0044910Y0022196D02*
X0044910Y0021612D01*
X0044910Y0022196D02*
X0042574Y0024532D01*
X0042574Y0025115D01*
X0044910Y0025115D01*
X0046841Y0025115D02*
X0048593Y0023364D01*
X0046841Y0025115D02*
X0046841Y0021612D01*
X0051782Y0019115D02*
X0051782Y0016196D01*
X0041226Y0021612D02*
X0041226Y0025115D01*
X0039999Y0023364D02*
X0037663Y0023364D01*
X0036316Y0024532D02*
X0035732Y0025115D01*
X0034564Y0025115D01*
X0033980Y0024532D01*
X0033980Y0023948D01*
X0034564Y0023364D01*
X0033980Y0022780D01*
X0033980Y0022196D01*
X0034564Y0021612D01*
X0035732Y0021612D01*
X0036316Y0022196D01*
X0035148Y0023364D02*
X0034564Y0023364D01*
X0032632Y0025115D02*
X0032632Y0021612D01*
X0031405Y0023364D02*
X0029069Y0023364D01*
X0027722Y0023364D02*
X0025386Y0023364D01*
X0025970Y0025115D02*
X0025970Y0021612D01*
X0027722Y0023364D02*
X0025970Y0025115D01*
X0024038Y0025115D02*
X0024038Y0021612D01*
X0022811Y0023364D02*
X0020475Y0023364D01*
X0019128Y0024532D02*
X0018544Y0025115D01*
X0017376Y0025115D01*
X0016792Y0024532D01*
X0016792Y0023948D01*
X0019128Y0021612D01*
X0016792Y0021612D01*
X0015444Y0021612D02*
X0015444Y0025115D01*
X0014217Y0025115D02*
X0011881Y0025115D01*
X0011881Y0024532D01*
X0014217Y0022196D01*
X0014217Y0021612D01*
X0010534Y0022196D02*
X0010534Y0022780D01*
X0009950Y0023364D01*
X0008782Y0023364D01*
X0008198Y0022780D01*
X0008198Y0022196D01*
X0008782Y0021612D01*
X0009950Y0021612D01*
X0010534Y0022196D01*
X0009950Y0023364D02*
X0010534Y0023948D01*
X0010534Y0024532D01*
X0009950Y0025115D01*
X0008782Y0025115D01*
X0008198Y0024532D01*
X0008198Y0023948D01*
X0008782Y0023364D01*
X0008782Y0027612D02*
X0009950Y0027612D01*
X0010534Y0028196D01*
X0010534Y0029364D02*
X0009366Y0029948D01*
X0008782Y0029948D01*
X0008198Y0029364D01*
X0008198Y0028196D01*
X0008782Y0027612D01*
X0010534Y0029364D02*
X0010534Y0031115D01*
X0008198Y0031115D01*
X0015444Y0031115D02*
X0015444Y0027612D01*
X0017376Y0027612D02*
X0017376Y0031115D01*
X0019128Y0029364D01*
X0016792Y0029364D01*
X0021059Y0025115D02*
X0022811Y0023364D01*
X0021059Y0025115D02*
X0021059Y0021612D01*
X0025386Y0018532D02*
X0025386Y0017948D01*
X0025970Y0017364D01*
X0025386Y0016780D01*
X0025386Y0016196D01*
X0025970Y0017364D02*
X0026554Y0017364D01*
X0025386Y0018532D02*
X0025970Y0019115D01*
X0027138Y0019115D01*
X0027722Y0018532D01*
X0029653Y0021612D02*
X0029653Y0025115D01*
X0031405Y0023364D01*
X0032632Y0027612D02*
X0032632Y0031115D01*
X0033980Y0030532D02*
X0033980Y0029948D01*
X0036316Y0027612D01*
X0033980Y0027612D01*
X0033980Y0030532D02*
X0034564Y0031115D01*
X0035732Y0031115D01*
X0036316Y0030532D01*
X0037801Y0034445D02*
X0037801Y0037948D01*
X0036049Y0037948D01*
X0035465Y0037364D01*
X0035465Y0036196D01*
X0036049Y0035613D01*
X0037801Y0035613D01*
X0039148Y0036196D02*
X0039148Y0037364D01*
X0039732Y0037948D01*
X0041484Y0037948D01*
X0041484Y0034445D01*
X0041484Y0035613D02*
X0039732Y0035613D01*
X0039148Y0036196D01*
X0042832Y0035613D02*
X0044583Y0035613D01*
X0045167Y0036196D01*
X0044583Y0036780D01*
X0042832Y0036780D01*
X0042832Y0037364D02*
X0042832Y0035613D01*
X0042832Y0037364D02*
X0043415Y0037948D01*
X0044583Y0037948D01*
X0046515Y0039115D02*
X0046515Y0035613D01*
X0047682Y0037948D02*
X0046515Y0039115D01*
X0047682Y0037948D02*
X0048850Y0039115D01*
X0048850Y0035613D01*
X0043742Y0031115D02*
X0043742Y0027612D01*
X0044910Y0027612D02*
X0042574Y0027612D01*
X0041226Y0027612D02*
X0041226Y0031115D01*
X0043742Y0031115D02*
X0044910Y0029948D01*
X0039999Y0023364D02*
X0038247Y0025115D01*
X0038247Y0021612D01*
X0027722Y0028196D02*
X0027138Y0027612D01*
X0025970Y0027612D01*
X0025386Y0028196D01*
X0025386Y0028780D01*
X0025970Y0029364D01*
X0026554Y0029364D01*
X0025970Y0029364D02*
X0025386Y0029948D01*
X0025386Y0030532D01*
X0025970Y0031115D01*
X0027138Y0031115D01*
X0027722Y0030532D01*
X0026811Y0034445D02*
X0026227Y0034445D01*
X0025644Y0035029D01*
X0025644Y0037948D01*
X0027395Y0037948D01*
X0027979Y0037364D01*
X0027979Y0036196D01*
X0027395Y0035613D01*
X0025644Y0035613D01*
X0024296Y0035613D02*
X0024296Y0036196D01*
X0023712Y0036196D01*
X0023712Y0035613D01*
X0024296Y0035613D01*
X0024296Y0037364D02*
X0023712Y0037364D01*
X0023712Y0037948D01*
X0024296Y0037948D01*
X0024296Y0037364D01*
X0029327Y0037364D02*
X0029327Y0035613D01*
X0029327Y0037364D02*
X0029911Y0037948D01*
X0031662Y0037948D01*
X0031662Y0035613D01*
X0032950Y0035613D02*
X0034117Y0035613D01*
X0033534Y0035613D02*
X0033534Y0037948D01*
X0034117Y0037948D01*
X0033534Y0039115D02*
X0033534Y0039699D01*
X0033209Y0044675D02*
X0033209Y0046026D01*
X0033659Y0046477D01*
X0035010Y0046477D01*
X0035010Y0044675D01*
X0036155Y0044675D02*
X0036155Y0046477D01*
X0036155Y0044675D02*
X0037507Y0044675D01*
X0037957Y0045125D01*
X0037957Y0046477D01*
X0039102Y0046026D02*
X0039552Y0046477D01*
X0040453Y0046477D01*
X0040903Y0046026D01*
X0040903Y0045125D01*
X0040453Y0044675D01*
X0039552Y0044675D01*
X0039102Y0045125D01*
X0039102Y0046026D01*
X0042048Y0046026D02*
X0042048Y0044675D01*
X0042949Y0044675D02*
X0042949Y0046026D01*
X0042499Y0046477D01*
X0042048Y0046026D01*
X0042949Y0046026D02*
X0043400Y0046477D01*
X0043850Y0046477D01*
X0043850Y0044675D01*
X0032064Y0046477D02*
X0031163Y0046477D01*
X0031614Y0046927D02*
X0031614Y0045125D01*
X0031163Y0044675D01*
X0030100Y0044675D02*
X0029199Y0044675D01*
X0029649Y0044675D02*
X0029649Y0046477D01*
X0030100Y0046477D01*
X0029649Y0047377D02*
X0029649Y0047828D01*
X0028135Y0046477D02*
X0026784Y0046477D01*
X0026334Y0046026D01*
X0026334Y0044675D01*
X0025189Y0045125D02*
X0025189Y0046026D01*
X0024738Y0046477D01*
X0023387Y0046477D01*
X0023387Y0044225D01*
X0023838Y0043774D01*
X0024288Y0043774D01*
X0024738Y0044675D02*
X0023387Y0044675D01*
X0022242Y0046026D02*
X0020441Y0046026D01*
X0019296Y0046026D02*
X0018845Y0046477D01*
X0017494Y0046477D01*
X0017945Y0045576D02*
X0018845Y0045576D01*
X0019296Y0046026D01*
X0019296Y0044675D02*
X0017945Y0044675D01*
X0017494Y0045125D01*
X0017945Y0045576D01*
X0016349Y0046477D02*
X0015899Y0046477D01*
X0015899Y0044675D01*
X0016349Y0044675D02*
X0015448Y0044675D01*
X0014385Y0045125D02*
X0014385Y0046026D01*
X0013934Y0046477D01*
X0012583Y0046477D01*
X0012583Y0047377D02*
X0012583Y0044675D01*
X0013934Y0044675D01*
X0014385Y0045125D01*
X0015899Y0047377D02*
X0015899Y0047828D01*
X0011438Y0046026D02*
X0011438Y0045125D01*
X0010988Y0044675D01*
X0010087Y0044675D01*
X0009637Y0045576D02*
X0011438Y0045576D01*
X0011438Y0046026D02*
X0010988Y0046477D01*
X0010087Y0046477D01*
X0009637Y0046026D01*
X0009637Y0045576D01*
X0024038Y0031115D02*
X0024038Y0027612D01*
X0016792Y0018532D02*
X0016792Y0017948D01*
X0019128Y0015612D01*
X0016792Y0015612D01*
X0024738Y0044675D02*
X0025189Y0045125D01*
X0028135Y0044675D02*
X0028135Y0046477D01*
X0068266Y0021612D02*
X0068850Y0022196D01*
D12*
X0070350Y0026612D02*
X0007850Y0026612D01*
X0009100Y0041925D02*
X0014897Y0041925D01*
X0018834Y0041925D02*
X0024631Y0041925D01*
X0028569Y0041925D02*
X0034366Y0041925D01*
X0038303Y0041925D02*
X0044100Y0041925D01*
X0050037Y0033800D02*
X0023162Y0033800D01*
X0022933Y0067225D02*
X0022933Y0070628D01*
X0024067Y0069494D01*
X0025482Y0070628D02*
X0027751Y0070628D01*
X0026616Y0070628D02*
X0026616Y0067225D01*
X0024067Y0067225D02*
X0021799Y0067225D01*
X0020384Y0067792D02*
X0018116Y0070061D01*
X0018116Y0067792D01*
X0018683Y0067225D01*
X0019817Y0067225D01*
X0020384Y0067792D01*
X0020384Y0070061D01*
X0019817Y0070628D01*
X0018683Y0070628D01*
X0018116Y0070061D01*
X0016701Y0070628D02*
X0016701Y0067225D01*
X0015567Y0068359D01*
X0014433Y0067225D01*
X0014433Y0070628D01*
X0016701Y0073225D02*
X0014433Y0076628D01*
X0018116Y0076061D02*
X0018116Y0075494D01*
X0018683Y0074926D01*
X0018116Y0074359D01*
X0018116Y0073792D01*
X0018683Y0073225D01*
X0019817Y0073225D01*
X0020384Y0073792D01*
X0021799Y0073792D02*
X0022366Y0073225D01*
X0023500Y0073225D01*
X0024067Y0073792D01*
X0022933Y0074926D02*
X0022366Y0074926D01*
X0021799Y0074359D01*
X0021799Y0073792D01*
X0022366Y0074926D02*
X0021799Y0075494D01*
X0021799Y0076061D01*
X0022366Y0076628D01*
X0023500Y0076628D01*
X0024067Y0076061D01*
X0026616Y0076628D02*
X0026616Y0073225D01*
X0025482Y0073225D02*
X0027751Y0073225D01*
X0027751Y0075494D02*
X0026616Y0076628D01*
X0029165Y0076628D02*
X0031434Y0076628D01*
X0030299Y0076628D02*
X0030299Y0073225D01*
X0032848Y0073225D02*
X0035117Y0073225D01*
X0035117Y0076628D01*
X0036531Y0076061D02*
X0036531Y0074926D01*
X0037099Y0074359D01*
X0038800Y0074359D01*
X0038800Y0073225D02*
X0038800Y0076628D01*
X0037099Y0076628D01*
X0036531Y0076061D01*
X0020384Y0076061D02*
X0019817Y0076628D01*
X0018683Y0076628D01*
X0018116Y0076061D01*
X0018683Y0074926D02*
X0019250Y0074926D01*
M02*
