G75*
%MOIN*%
%OFA0B0*%
%FSLAX25Y25*%
%IPPOS*%
%LPD*%
%AMOC8*
5,1,8,0,0,1.08239X$1,22.5*
%
%ADD10C,0.00000*%
%ADD11R,0.05150X0.05150*%
%ADD12C,0.05150*%
%ADD13C,0.06496*%
%ADD14C,0.01200*%
%ADD15C,0.21654*%
%ADD16C,0.02775*%
%ADD17C,0.03200*%
%ADD18C,0.01600*%
%ADD19C,0.00800*%
D10*
X0004100Y0003487D02*
X0005350Y0002238D01*
X0076913Y0002238D01*
X0078163Y0003487D01*
X0078163Y0060675D01*
X0076913Y0061925D01*
X0050350Y0061925D01*
X0049100Y0063175D01*
X0049100Y0061925D01*
X0049100Y0063175D02*
X0049100Y0076925D01*
X0047850Y0078175D01*
X0005350Y0078175D01*
X0004100Y0076925D01*
X0004100Y0003487D01*
D11*
X0036600Y0051925D03*
D12*
X0026600Y0051925D03*
X0016600Y0051925D03*
D13*
X0016600Y0062279D03*
X0036600Y0062279D03*
D14*
X0039724Y0065446D02*
X0047500Y0065446D01*
X0047500Y0064248D02*
X0040599Y0064248D01*
X0040371Y0064799D02*
X0041048Y0063164D01*
X0041048Y0061395D01*
X0040371Y0059760D01*
X0039120Y0058508D01*
X0037485Y0057831D01*
X0035715Y0057831D01*
X0034080Y0058508D01*
X0032829Y0059760D01*
X0032152Y0061395D01*
X0032152Y0063164D01*
X0032829Y0064799D01*
X0034080Y0066050D01*
X0035715Y0066727D01*
X0037485Y0066727D01*
X0039120Y0066050D01*
X0040371Y0064799D01*
X0041048Y0063049D02*
X0047500Y0063049D01*
X0047500Y0063838D02*
X0047500Y0076262D01*
X0047187Y0076575D01*
X0006013Y0076575D01*
X0005700Y0076262D01*
X0005700Y0004150D01*
X0006013Y0003837D01*
X0076250Y0003837D01*
X0076563Y0004150D01*
X0076563Y0060012D01*
X0076250Y0060325D01*
X0048437Y0060325D01*
X0047500Y0061262D01*
X0047500Y0063838D01*
X0047500Y0061851D02*
X0041048Y0061851D01*
X0040740Y0060652D02*
X0048110Y0060652D01*
X0047500Y0066645D02*
X0037685Y0066645D01*
X0035515Y0066645D02*
X0017685Y0066645D01*
X0017485Y0066727D02*
X0015715Y0066727D01*
X0014080Y0066050D01*
X0012829Y0064799D01*
X0012152Y0063164D01*
X0012152Y0061395D01*
X0012829Y0059760D01*
X0014080Y0058508D01*
X0015715Y0057831D01*
X0017485Y0057831D01*
X0019120Y0058508D01*
X0020371Y0059760D01*
X0021048Y0061395D01*
X0021048Y0063164D01*
X0020371Y0064799D01*
X0019120Y0066050D01*
X0017485Y0066727D01*
X0015515Y0066645D02*
X0005700Y0066645D01*
X0005700Y0067843D02*
X0047500Y0067843D01*
X0047500Y0069042D02*
X0005700Y0069042D01*
X0005700Y0070240D02*
X0047500Y0070240D01*
X0047500Y0071439D02*
X0005700Y0071439D01*
X0005700Y0072637D02*
X0047500Y0072637D01*
X0047500Y0073836D02*
X0005700Y0073836D01*
X0005700Y0075034D02*
X0047500Y0075034D01*
X0047500Y0076233D02*
X0005700Y0076233D01*
X0005700Y0065446D02*
X0013476Y0065446D01*
X0012601Y0064248D02*
X0005700Y0064248D01*
X0005700Y0063049D02*
X0012152Y0063049D01*
X0012152Y0061851D02*
X0005700Y0061851D01*
X0005700Y0060652D02*
X0012460Y0060652D01*
X0013135Y0059454D02*
X0005700Y0059454D01*
X0005700Y0058255D02*
X0014692Y0058255D01*
X0015849Y0055700D02*
X0014462Y0055125D01*
X0013400Y0054063D01*
X0012825Y0052676D01*
X0012825Y0051174D01*
X0013400Y0049787D01*
X0014462Y0048725D01*
X0015849Y0048150D01*
X0017351Y0048150D01*
X0018738Y0048725D01*
X0019800Y0049787D01*
X0020375Y0051174D01*
X0020375Y0052676D01*
X0019800Y0054063D01*
X0018738Y0055125D01*
X0017351Y0055700D01*
X0015849Y0055700D01*
X0013996Y0054659D02*
X0005700Y0054659D01*
X0005700Y0053461D02*
X0013150Y0053461D01*
X0012825Y0052262D02*
X0005700Y0052262D01*
X0005700Y0051064D02*
X0012871Y0051064D01*
X0013367Y0049865D02*
X0005700Y0049865D01*
X0005700Y0048667D02*
X0014602Y0048667D01*
X0018598Y0048667D02*
X0024602Y0048667D01*
X0024462Y0048725D02*
X0025849Y0048150D01*
X0027351Y0048150D01*
X0028738Y0048725D01*
X0029800Y0049787D01*
X0030375Y0051174D01*
X0030375Y0052676D01*
X0029800Y0054063D01*
X0028738Y0055125D01*
X0027351Y0055700D01*
X0025849Y0055700D01*
X0024462Y0055125D01*
X0023400Y0054063D01*
X0022825Y0052676D01*
X0022825Y0051174D01*
X0023400Y0049787D01*
X0024462Y0048725D01*
X0023367Y0049865D02*
X0019833Y0049865D01*
X0020329Y0051064D02*
X0022871Y0051064D01*
X0022825Y0052262D02*
X0020375Y0052262D01*
X0020050Y0053461D02*
X0023150Y0053461D01*
X0023996Y0054659D02*
X0019204Y0054659D01*
X0018508Y0058255D02*
X0034692Y0058255D01*
X0033135Y0059454D02*
X0020065Y0059454D01*
X0020740Y0060652D02*
X0032460Y0060652D01*
X0032152Y0061851D02*
X0021048Y0061851D01*
X0021048Y0063049D02*
X0032152Y0063049D01*
X0032601Y0064248D02*
X0020599Y0064248D01*
X0019724Y0065446D02*
X0033476Y0065446D01*
X0038508Y0058255D02*
X0076563Y0058255D01*
X0076563Y0057057D02*
X0005700Y0057057D01*
X0005700Y0055858D02*
X0033178Y0055858D01*
X0033043Y0055780D02*
X0033408Y0055991D01*
X0033815Y0056100D01*
X0036413Y0056100D01*
X0036413Y0052112D01*
X0036413Y0051738D01*
X0036787Y0051738D01*
X0036787Y0047750D01*
X0039385Y0047750D01*
X0039792Y0047859D01*
X0040157Y0048070D01*
X0040455Y0048368D01*
X0040666Y0048733D01*
X0040775Y0049140D01*
X0040775Y0051738D01*
X0036787Y0051738D01*
X0036787Y0052112D01*
X0040775Y0052112D01*
X0040775Y0054710D01*
X0040666Y0055117D01*
X0040455Y0055482D01*
X0040157Y0055780D01*
X0039792Y0055991D01*
X0039385Y0056100D01*
X0036787Y0056100D01*
X0036787Y0052112D01*
X0036413Y0052112D01*
X0032425Y0052112D01*
X0032425Y0054710D01*
X0032534Y0055117D01*
X0032745Y0055482D01*
X0033043Y0055780D01*
X0032425Y0054659D02*
X0029204Y0054659D01*
X0030050Y0053461D02*
X0032425Y0053461D01*
X0032425Y0052262D02*
X0030375Y0052262D01*
X0030329Y0051064D02*
X0032425Y0051064D01*
X0032425Y0051738D02*
X0032425Y0049140D01*
X0032534Y0048733D01*
X0032745Y0048368D01*
X0033043Y0048070D01*
X0033408Y0047859D01*
X0033815Y0047750D01*
X0036413Y0047750D01*
X0036413Y0051738D01*
X0032425Y0051738D01*
X0032425Y0049865D02*
X0029833Y0049865D01*
X0028598Y0048667D02*
X0032572Y0048667D01*
X0036413Y0048667D02*
X0036787Y0048667D01*
X0036787Y0049865D02*
X0036413Y0049865D01*
X0036413Y0051064D02*
X0036787Y0051064D01*
X0036787Y0052262D02*
X0036413Y0052262D01*
X0036413Y0053461D02*
X0036787Y0053461D01*
X0036787Y0054659D02*
X0036413Y0054659D01*
X0036413Y0055858D02*
X0036787Y0055858D01*
X0040022Y0055858D02*
X0076563Y0055858D01*
X0076563Y0054659D02*
X0040775Y0054659D01*
X0040775Y0053461D02*
X0076563Y0053461D01*
X0076563Y0052262D02*
X0040775Y0052262D01*
X0040775Y0051064D02*
X0076563Y0051064D01*
X0076563Y0049865D02*
X0040775Y0049865D01*
X0040628Y0048667D02*
X0076563Y0048667D01*
X0076563Y0047468D02*
X0005700Y0047468D01*
X0005700Y0046270D02*
X0076563Y0046270D01*
X0076563Y0045071D02*
X0005700Y0045071D01*
X0005700Y0043873D02*
X0076563Y0043873D01*
X0076563Y0042674D02*
X0005700Y0042674D01*
X0005700Y0041476D02*
X0076563Y0041476D01*
X0076563Y0040277D02*
X0005700Y0040277D01*
X0005700Y0039079D02*
X0076563Y0039079D01*
X0076563Y0037880D02*
X0005700Y0037880D01*
X0005700Y0036682D02*
X0076563Y0036682D01*
X0076563Y0035483D02*
X0005700Y0035483D01*
X0005700Y0034285D02*
X0052318Y0034285D01*
X0052290Y0034257D02*
X0051896Y0033306D01*
X0051896Y0032276D01*
X0052290Y0031325D01*
X0053018Y0030598D01*
X0053969Y0030204D01*
X0054809Y0030204D01*
X0060312Y0024700D01*
X0060312Y0013984D01*
X0059719Y0013391D01*
X0059325Y0012440D01*
X0059325Y0011410D01*
X0059719Y0010459D01*
X0060447Y0009732D01*
X0061398Y0009338D01*
X0062427Y0009338D01*
X0063378Y0009732D01*
X0064106Y0010459D01*
X0064500Y0011410D01*
X0064500Y0012440D01*
X0064106Y0013391D01*
X0063512Y0013984D01*
X0063512Y0026025D01*
X0057071Y0032466D01*
X0057071Y0033306D01*
X0056677Y0034257D01*
X0055949Y0034985D01*
X0054999Y0035379D01*
X0053969Y0035379D01*
X0053018Y0034985D01*
X0052290Y0034257D01*
X0051896Y0033086D02*
X0005700Y0033086D01*
X0005700Y0031888D02*
X0020401Y0031888D01*
X0020701Y0032012D02*
X0019750Y0031618D01*
X0019023Y0030891D01*
X0018629Y0029940D01*
X0018629Y0028910D01*
X0019023Y0027959D01*
X0019216Y0027766D01*
X0019216Y0014245D01*
X0014912Y0009941D01*
X0014912Y0007347D01*
X0016084Y0006175D01*
X0016084Y0006175D01*
X0016709Y0005550D01*
X0024928Y0005550D01*
X0026491Y0007112D01*
X0039834Y0007112D01*
X0040263Y0006684D01*
X0040263Y0006410D01*
X0040657Y0005459D01*
X0041384Y0004732D01*
X0042335Y0004338D01*
X0043365Y0004338D01*
X0044316Y0004732D01*
X0045043Y0005459D01*
X0045437Y0006410D01*
X0045437Y0007440D01*
X0045043Y0008391D01*
X0044316Y0009118D01*
X0043365Y0009512D01*
X0043091Y0009512D01*
X0042662Y0009941D01*
X0041491Y0011112D01*
X0026491Y0011112D01*
X0023216Y0014387D01*
X0023216Y0027766D01*
X0023410Y0027959D01*
X0023804Y0028910D01*
X0023804Y0029940D01*
X0023410Y0030891D01*
X0022682Y0031618D01*
X0021731Y0032012D01*
X0020701Y0032012D01*
X0022032Y0031888D02*
X0052057Y0031888D01*
X0052927Y0030689D02*
X0023493Y0030689D01*
X0023804Y0029491D02*
X0055521Y0029491D01*
X0056720Y0028292D02*
X0023548Y0028292D01*
X0023216Y0027094D02*
X0057919Y0027094D01*
X0059117Y0025895D02*
X0023216Y0025895D01*
X0023216Y0024697D02*
X0060312Y0024697D01*
X0060312Y0023498D02*
X0023216Y0023498D01*
X0023216Y0022300D02*
X0060312Y0022300D01*
X0060312Y0021101D02*
X0023216Y0021101D01*
X0023216Y0019903D02*
X0060312Y0019903D01*
X0060312Y0018704D02*
X0023216Y0018704D01*
X0023216Y0017506D02*
X0060312Y0017506D01*
X0060312Y0016307D02*
X0023216Y0016307D01*
X0023216Y0015109D02*
X0060312Y0015109D01*
X0060238Y0013910D02*
X0023693Y0013910D01*
X0024892Y0012712D02*
X0059438Y0012712D01*
X0059325Y0011513D02*
X0026090Y0011513D01*
X0026097Y0006719D02*
X0040228Y0006719D01*
X0040631Y0005521D02*
X0005700Y0005521D01*
X0005700Y0006719D02*
X0015540Y0006719D01*
X0014912Y0007918D02*
X0005700Y0007918D01*
X0005700Y0009116D02*
X0014912Y0009116D01*
X0015286Y0010315D02*
X0005700Y0010315D01*
X0005700Y0011513D02*
X0016485Y0011513D01*
X0017683Y0012712D02*
X0005700Y0012712D01*
X0005700Y0013910D02*
X0018882Y0013910D01*
X0019216Y0015109D02*
X0005700Y0015109D01*
X0005700Y0016307D02*
X0019216Y0016307D01*
X0019216Y0017506D02*
X0005700Y0017506D01*
X0005700Y0018704D02*
X0019216Y0018704D01*
X0019216Y0019903D02*
X0005700Y0019903D01*
X0005700Y0021101D02*
X0019216Y0021101D01*
X0019216Y0022300D02*
X0005700Y0022300D01*
X0005700Y0023498D02*
X0019216Y0023498D01*
X0019216Y0024697D02*
X0005700Y0024697D01*
X0005700Y0025895D02*
X0019216Y0025895D01*
X0019216Y0027094D02*
X0005700Y0027094D01*
X0005700Y0028292D02*
X0018885Y0028292D01*
X0018629Y0029491D02*
X0005700Y0029491D01*
X0005700Y0030689D02*
X0018939Y0030689D01*
X0042289Y0010315D02*
X0059864Y0010315D01*
X0063587Y0013910D02*
X0076563Y0013910D01*
X0076563Y0012712D02*
X0064387Y0012712D01*
X0064500Y0011513D02*
X0076563Y0011513D01*
X0076563Y0010315D02*
X0063961Y0010315D01*
X0063512Y0015109D02*
X0076563Y0015109D01*
X0076563Y0016307D02*
X0063512Y0016307D01*
X0063512Y0017506D02*
X0076563Y0017506D01*
X0076563Y0018704D02*
X0063512Y0018704D01*
X0063512Y0019903D02*
X0076563Y0019903D01*
X0076563Y0021101D02*
X0063512Y0021101D01*
X0063512Y0022300D02*
X0076563Y0022300D01*
X0076563Y0023498D02*
X0063512Y0023498D01*
X0063512Y0024697D02*
X0076563Y0024697D01*
X0076563Y0025895D02*
X0063512Y0025895D01*
X0062444Y0027094D02*
X0076563Y0027094D01*
X0076563Y0028292D02*
X0061245Y0028292D01*
X0060047Y0029491D02*
X0076563Y0029491D01*
X0076563Y0030689D02*
X0058848Y0030689D01*
X0057650Y0031888D02*
X0076563Y0031888D01*
X0076563Y0033086D02*
X0057071Y0033086D01*
X0056649Y0034285D02*
X0076563Y0034285D01*
X0076563Y0009116D02*
X0044318Y0009116D01*
X0045239Y0007918D02*
X0076563Y0007918D01*
X0076563Y0006719D02*
X0045437Y0006719D01*
X0045069Y0005521D02*
X0076563Y0005521D01*
X0076563Y0004322D02*
X0005700Y0004322D01*
X0040065Y0059454D02*
X0076563Y0059454D01*
D15*
X0066167Y0047555D03*
D16*
X0054484Y0032791D03*
X0047850Y0029425D03*
X0039100Y0020675D03*
X0027850Y0020675D03*
X0021216Y0029425D03*
X0017850Y0038175D03*
X0009100Y0049425D03*
X0012225Y0021300D03*
X0017850Y0008488D03*
X0022850Y0008488D03*
X0025975Y0005050D03*
X0042850Y0006925D03*
X0061912Y0011925D03*
D17*
X0022850Y0008488D02*
X0020975Y0008488D01*
X0017850Y0008488D01*
D18*
X0016913Y0008175D02*
X0017538Y0007550D01*
X0024100Y0007550D01*
X0025662Y0009113D01*
X0021288Y0013487D01*
X0016913Y0009113D01*
X0016913Y0008175D01*
X0016913Y0008319D02*
X0024869Y0008319D01*
X0023475Y0009113D02*
X0040663Y0009113D01*
X0042850Y0006925D01*
X0024857Y0009918D02*
X0017718Y0009918D01*
X0019316Y0011516D02*
X0023259Y0011516D01*
X0021660Y0013115D02*
X0020915Y0013115D01*
X0023475Y0009113D02*
X0022850Y0008488D01*
X0021216Y0008729D02*
X0021216Y0029425D01*
X0021216Y0008729D02*
X0020975Y0008488D01*
D19*
X0054484Y0032791D02*
X0061912Y0025362D01*
X0061912Y0011925D01*
M02*
