G75*
%MOIN*%
%OFA0B0*%
%FSLAX25Y25*%
%IPPOS*%
%LPD*%
%AMOC8*
5,1,8,0,0,1.08239X$1,22.5*
%
%ADD10C,0.00000*%
%ADD11C,0.00500*%
%ADD12C,0.00700*%
%ADD13C,0.00800*%
%ADD14C,0.00600*%
D10*
X0004100Y0003487D02*
X0005350Y0002238D01*
X0076913Y0002238D01*
X0078163Y0003487D01*
X0078163Y0060675D01*
X0076913Y0061925D01*
X0050350Y0061925D01*
X0049100Y0063175D01*
X0049100Y0061925D01*
X0049100Y0063175D02*
X0049100Y0076925D01*
X0047850Y0078175D01*
X0005350Y0078175D01*
X0004100Y0076925D01*
X0004100Y0003487D01*
D11*
X0006813Y0009675D02*
X0007714Y0010576D01*
X0007714Y0012377D01*
X0008859Y0011026D02*
X0008859Y0010125D01*
X0009309Y0009675D01*
X0010661Y0009675D01*
X0011806Y0010125D02*
X0012256Y0009675D01*
X0013607Y0009675D01*
X0013607Y0011477D02*
X0012256Y0011477D01*
X0011806Y0011026D01*
X0011806Y0010125D01*
X0010661Y0011477D02*
X0009309Y0011477D01*
X0008859Y0011026D01*
X0006813Y0009675D02*
X0005912Y0010576D01*
X0005912Y0012377D01*
X0005973Y0019988D02*
X0007775Y0019988D01*
X0008225Y0020438D01*
X0008225Y0021339D01*
X0007775Y0021789D01*
X0006874Y0021789D01*
X0006874Y0020888D01*
X0005973Y0019988D02*
X0005523Y0020438D01*
X0005523Y0021339D01*
X0005973Y0021789D01*
X0005523Y0022934D02*
X0008225Y0024736D01*
X0005523Y0024736D01*
X0005523Y0025881D02*
X0005523Y0027232D01*
X0005973Y0027682D01*
X0007775Y0027682D01*
X0008225Y0027232D01*
X0008225Y0025881D01*
X0005523Y0025881D01*
X0005523Y0022934D02*
X0008225Y0022934D01*
X0014585Y0022175D02*
X0016837Y0022175D01*
X0017288Y0022625D01*
X0017288Y0023526D01*
X0016837Y0023977D01*
X0014585Y0023977D01*
X0015486Y0025122D02*
X0014585Y0026022D01*
X0017288Y0026022D01*
X0017288Y0025122D02*
X0017288Y0026923D01*
X0013648Y0039050D02*
X0012747Y0039050D01*
X0012297Y0039500D01*
X0013197Y0040401D02*
X0013648Y0040401D01*
X0014098Y0039951D01*
X0014098Y0039500D01*
X0013648Y0039050D01*
X0013648Y0040401D02*
X0014098Y0040852D01*
X0014098Y0041302D01*
X0013648Y0041752D01*
X0012747Y0041752D01*
X0012297Y0041302D01*
X0011152Y0041302D02*
X0010701Y0041752D01*
X0009800Y0041752D01*
X0009350Y0041302D01*
X0009350Y0039500D01*
X0009800Y0039050D01*
X0010701Y0039050D01*
X0011152Y0039500D01*
X0012126Y0055612D02*
X0013027Y0056513D01*
X0013027Y0058315D01*
X0014172Y0057414D02*
X0014622Y0057414D01*
X0014622Y0055612D01*
X0014172Y0055612D02*
X0015072Y0055612D01*
X0016136Y0055612D02*
X0016136Y0057414D01*
X0017487Y0057414D01*
X0017937Y0056964D01*
X0017937Y0055612D01*
X0014622Y0058315D02*
X0014622Y0058765D01*
X0012126Y0055612D02*
X0011225Y0056513D01*
X0011225Y0058315D01*
X0022787Y0058315D02*
X0022787Y0056513D01*
X0023688Y0055612D01*
X0024589Y0056513D01*
X0024589Y0058315D01*
X0025734Y0056964D02*
X0025734Y0056063D01*
X0026184Y0055612D01*
X0027536Y0055612D01*
X0028681Y0056063D02*
X0029131Y0055612D01*
X0030482Y0055612D01*
X0030482Y0057414D02*
X0029131Y0057414D01*
X0028681Y0056964D01*
X0028681Y0056063D01*
X0027536Y0057414D02*
X0026184Y0057414D01*
X0025734Y0056964D01*
X0032475Y0057552D02*
X0032475Y0055750D01*
X0032925Y0055300D01*
X0033826Y0055300D01*
X0034277Y0055750D01*
X0034277Y0056651D01*
X0033376Y0056651D01*
X0034277Y0057552D02*
X0033826Y0058002D01*
X0032925Y0058002D01*
X0032475Y0057552D01*
X0035422Y0058002D02*
X0035422Y0055300D01*
X0037223Y0055300D02*
X0035422Y0058002D01*
X0037223Y0058002D02*
X0037223Y0055300D01*
X0038368Y0055300D02*
X0039719Y0055300D01*
X0040170Y0055750D01*
X0040170Y0057552D01*
X0039719Y0058002D01*
X0038368Y0058002D01*
X0038368Y0055300D01*
X0047398Y0051785D02*
X0047398Y0050884D01*
X0047848Y0050434D01*
X0047848Y0049289D02*
X0047398Y0048839D01*
X0047398Y0047938D01*
X0047848Y0047487D01*
X0049650Y0047487D01*
X0050100Y0047938D01*
X0050100Y0048839D01*
X0049650Y0049289D01*
X0050100Y0050434D02*
X0048298Y0052236D01*
X0047848Y0052236D01*
X0047398Y0051785D01*
X0050100Y0052236D02*
X0050100Y0050434D01*
X0065600Y0033315D02*
X0065600Y0031964D01*
X0066501Y0032414D01*
X0066951Y0032414D01*
X0067402Y0031964D01*
X0067402Y0031063D01*
X0066951Y0030612D01*
X0066050Y0030612D01*
X0065600Y0031063D01*
X0065600Y0033315D02*
X0067402Y0033315D01*
X0066951Y0028315D02*
X0065600Y0026964D01*
X0067402Y0026964D01*
X0066951Y0028315D02*
X0066951Y0025612D01*
X0066951Y0023315D02*
X0066050Y0023315D01*
X0065600Y0022864D01*
X0066501Y0021964D02*
X0066951Y0021964D01*
X0067402Y0021513D01*
X0067402Y0021063D01*
X0066951Y0020613D01*
X0066050Y0020613D01*
X0065600Y0021063D01*
X0066951Y0021964D02*
X0067402Y0022414D01*
X0067402Y0022864D01*
X0066951Y0023315D01*
X0066951Y0018315D02*
X0066050Y0018315D01*
X0065600Y0017864D01*
X0066951Y0018315D02*
X0067402Y0017864D01*
X0067402Y0017414D01*
X0065600Y0015612D01*
X0067402Y0015612D01*
X0066501Y0013315D02*
X0066501Y0010613D01*
X0065600Y0010613D02*
X0067402Y0010613D01*
X0065600Y0012414D02*
X0066501Y0013315D01*
X0066203Y0007240D02*
X0066203Y0003737D01*
X0068539Y0003737D01*
X0069886Y0004321D02*
X0070470Y0003737D01*
X0071638Y0003737D01*
X0072222Y0004321D01*
X0072222Y0004905D01*
X0071638Y0005489D01*
X0070470Y0005489D01*
X0069886Y0006073D01*
X0069886Y0006657D01*
X0070470Y0007240D01*
X0071638Y0007240D01*
X0072222Y0006657D01*
X0068539Y0007240D02*
X0066203Y0007240D01*
X0064855Y0007240D02*
X0064855Y0003737D01*
X0062520Y0007240D01*
X0062520Y0003737D01*
X0061172Y0004321D02*
X0060588Y0003737D01*
X0059421Y0003737D01*
X0058837Y0004321D01*
X0059421Y0005489D02*
X0058837Y0006073D01*
X0058837Y0006657D01*
X0059421Y0007240D01*
X0060588Y0007240D01*
X0061172Y0006657D01*
X0060588Y0005489D02*
X0061172Y0004905D01*
X0061172Y0004321D01*
X0060588Y0005489D02*
X0059421Y0005489D01*
X0057489Y0005489D02*
X0055154Y0005489D01*
X0056905Y0007240D01*
X0056905Y0003737D01*
X0053806Y0003737D02*
X0053806Y0006073D01*
X0052638Y0007240D01*
X0051471Y0006073D01*
X0051471Y0003737D01*
X0050123Y0004321D02*
X0050123Y0006657D01*
X0049539Y0007240D01*
X0047787Y0007240D01*
X0047787Y0003737D01*
X0049539Y0003737D01*
X0050123Y0004321D01*
X0051471Y0005489D02*
X0053806Y0005489D01*
X0045348Y0009050D02*
X0043547Y0009050D01*
X0042402Y0009500D02*
X0041951Y0009050D01*
X0041050Y0009050D01*
X0040600Y0009500D01*
X0040600Y0011302D01*
X0041050Y0011752D01*
X0041951Y0011752D01*
X0042402Y0011302D01*
X0043547Y0010852D02*
X0044447Y0011752D01*
X0044447Y0009050D01*
X0066203Y0005489D02*
X0067371Y0005489D01*
D12*
X0041162Y0071412D02*
X0038960Y0071412D01*
X0037605Y0073063D02*
X0037605Y0074164D01*
X0036504Y0075265D01*
X0035023Y0075265D02*
X0032821Y0071963D01*
X0031340Y0071412D02*
X0029138Y0071412D01*
X0027657Y0071412D02*
X0025455Y0071412D01*
X0024100Y0073063D02*
X0024100Y0074164D01*
X0022999Y0075265D01*
X0021518Y0075265D02*
X0019316Y0071963D01*
X0017835Y0071412D02*
X0015633Y0071412D01*
X0014152Y0071412D02*
X0011950Y0071412D01*
X0022999Y0071963D02*
X0024100Y0073063D01*
X0036504Y0071963D02*
X0037605Y0073063D01*
D13*
X0018952Y0035390D02*
X0018952Y0018460D01*
X0056748Y0018460D01*
X0056748Y0035390D01*
X0018952Y0035390D01*
X0021511Y0021807D02*
X0021513Y0021878D01*
X0021519Y0021949D01*
X0021529Y0022020D01*
X0021543Y0022089D01*
X0021560Y0022158D01*
X0021582Y0022226D01*
X0021607Y0022293D01*
X0021636Y0022358D01*
X0021668Y0022421D01*
X0021704Y0022483D01*
X0021743Y0022542D01*
X0021786Y0022599D01*
X0021831Y0022654D01*
X0021880Y0022706D01*
X0021931Y0022755D01*
X0021985Y0022801D01*
X0022042Y0022845D01*
X0022100Y0022885D01*
X0022161Y0022921D01*
X0022224Y0022955D01*
X0022289Y0022984D01*
X0022355Y0023010D01*
X0022423Y0023033D01*
X0022491Y0023051D01*
X0022561Y0023066D01*
X0022631Y0023077D01*
X0022702Y0023084D01*
X0022773Y0023087D01*
X0022844Y0023086D01*
X0022915Y0023081D01*
X0022986Y0023072D01*
X0023056Y0023059D01*
X0023125Y0023043D01*
X0023193Y0023022D01*
X0023260Y0022998D01*
X0023326Y0022970D01*
X0023389Y0022938D01*
X0023451Y0022903D01*
X0023511Y0022865D01*
X0023569Y0022823D01*
X0023624Y0022779D01*
X0023677Y0022731D01*
X0023727Y0022680D01*
X0023774Y0022627D01*
X0023818Y0022571D01*
X0023859Y0022513D01*
X0023897Y0022452D01*
X0023931Y0022390D01*
X0023961Y0022325D01*
X0023988Y0022260D01*
X0024012Y0022192D01*
X0024031Y0022124D01*
X0024047Y0022055D01*
X0024059Y0021984D01*
X0024067Y0021914D01*
X0024071Y0021843D01*
X0024071Y0021771D01*
X0024067Y0021700D01*
X0024059Y0021630D01*
X0024047Y0021559D01*
X0024031Y0021490D01*
X0024012Y0021422D01*
X0023988Y0021354D01*
X0023961Y0021289D01*
X0023931Y0021224D01*
X0023897Y0021162D01*
X0023859Y0021101D01*
X0023818Y0021043D01*
X0023774Y0020987D01*
X0023727Y0020934D01*
X0023677Y0020883D01*
X0023624Y0020835D01*
X0023569Y0020791D01*
X0023511Y0020749D01*
X0023451Y0020711D01*
X0023389Y0020676D01*
X0023326Y0020644D01*
X0023260Y0020616D01*
X0023193Y0020592D01*
X0023125Y0020571D01*
X0023056Y0020555D01*
X0022986Y0020542D01*
X0022915Y0020533D01*
X0022844Y0020528D01*
X0022773Y0020527D01*
X0022702Y0020530D01*
X0022631Y0020537D01*
X0022561Y0020548D01*
X0022491Y0020563D01*
X0022423Y0020581D01*
X0022355Y0020604D01*
X0022289Y0020630D01*
X0022224Y0020659D01*
X0022161Y0020693D01*
X0022100Y0020729D01*
X0022042Y0020769D01*
X0021985Y0020813D01*
X0021931Y0020859D01*
X0021880Y0020908D01*
X0021831Y0020960D01*
X0021786Y0021015D01*
X0021743Y0021072D01*
X0021704Y0021131D01*
X0021668Y0021193D01*
X0021636Y0021256D01*
X0021607Y0021321D01*
X0021582Y0021388D01*
X0021560Y0021456D01*
X0021543Y0021525D01*
X0021529Y0021594D01*
X0021519Y0021665D01*
X0021513Y0021736D01*
X0021511Y0021807D01*
D14*
X0013162Y0030675D02*
X0013162Y0033175D01*
X0010038Y0033175D02*
X0010038Y0030675D01*
X0032850Y0008488D02*
X0035350Y0008488D01*
X0035350Y0005363D02*
X0032850Y0005363D01*
X0043162Y0048175D02*
X0043162Y0050675D01*
X0046287Y0050675D02*
X0046287Y0048175D01*
M02*
