G75*
%MOIN*%
%OFA0B0*%
%FSLAX25Y25*%
%IPPOS*%
%LPD*%
%AMOC8*
5,1,8,0,0,1.08239X$1,22.5*
%
%ADD10C,0.00000*%
%ADD11C,0.00500*%
%ADD12C,0.00600*%
D10*
X0004100Y0003487D02*
X0005350Y0002238D01*
X0076913Y0002238D01*
X0078163Y0003487D01*
X0078163Y0060675D01*
X0076913Y0061925D01*
X0050350Y0061925D01*
X0049100Y0063175D01*
X0049100Y0061925D01*
X0049100Y0063175D02*
X0049100Y0084425D01*
X0047850Y0085675D01*
X0005350Y0085675D01*
X0004100Y0084425D01*
X0004100Y0003487D01*
X0012230Y0072555D02*
X0012232Y0072670D01*
X0012238Y0072786D01*
X0012248Y0072901D01*
X0012262Y0073016D01*
X0012280Y0073130D01*
X0012302Y0073243D01*
X0012327Y0073356D01*
X0012357Y0073467D01*
X0012390Y0073578D01*
X0012427Y0073687D01*
X0012468Y0073795D01*
X0012513Y0073902D01*
X0012561Y0074007D01*
X0012613Y0074110D01*
X0012669Y0074211D01*
X0012728Y0074311D01*
X0012790Y0074408D01*
X0012856Y0074503D01*
X0012924Y0074596D01*
X0012996Y0074686D01*
X0013071Y0074774D01*
X0013150Y0074859D01*
X0013231Y0074941D01*
X0013314Y0075021D01*
X0013401Y0075097D01*
X0013490Y0075171D01*
X0013581Y0075241D01*
X0013675Y0075309D01*
X0013771Y0075373D01*
X0013870Y0075433D01*
X0013970Y0075490D01*
X0014072Y0075544D01*
X0014176Y0075594D01*
X0014282Y0075641D01*
X0014389Y0075684D01*
X0014498Y0075723D01*
X0014608Y0075758D01*
X0014719Y0075789D01*
X0014831Y0075817D01*
X0014944Y0075841D01*
X0015058Y0075861D01*
X0015173Y0075877D01*
X0015288Y0075889D01*
X0015403Y0075897D01*
X0015518Y0075901D01*
X0015634Y0075901D01*
X0015749Y0075897D01*
X0015864Y0075889D01*
X0015979Y0075877D01*
X0016094Y0075861D01*
X0016208Y0075841D01*
X0016321Y0075817D01*
X0016433Y0075789D01*
X0016544Y0075758D01*
X0016654Y0075723D01*
X0016763Y0075684D01*
X0016870Y0075641D01*
X0016976Y0075594D01*
X0017080Y0075544D01*
X0017182Y0075490D01*
X0017282Y0075433D01*
X0017381Y0075373D01*
X0017477Y0075309D01*
X0017571Y0075241D01*
X0017662Y0075171D01*
X0017751Y0075097D01*
X0017838Y0075021D01*
X0017921Y0074941D01*
X0018002Y0074859D01*
X0018081Y0074774D01*
X0018156Y0074686D01*
X0018228Y0074596D01*
X0018296Y0074503D01*
X0018362Y0074408D01*
X0018424Y0074311D01*
X0018483Y0074211D01*
X0018539Y0074110D01*
X0018591Y0074007D01*
X0018639Y0073902D01*
X0018684Y0073795D01*
X0018725Y0073687D01*
X0018762Y0073578D01*
X0018795Y0073467D01*
X0018825Y0073356D01*
X0018850Y0073243D01*
X0018872Y0073130D01*
X0018890Y0073016D01*
X0018904Y0072901D01*
X0018914Y0072786D01*
X0018920Y0072670D01*
X0018922Y0072555D01*
X0018920Y0072440D01*
X0018914Y0072324D01*
X0018904Y0072209D01*
X0018890Y0072094D01*
X0018872Y0071980D01*
X0018850Y0071867D01*
X0018825Y0071754D01*
X0018795Y0071643D01*
X0018762Y0071532D01*
X0018725Y0071423D01*
X0018684Y0071315D01*
X0018639Y0071208D01*
X0018591Y0071103D01*
X0018539Y0071000D01*
X0018483Y0070899D01*
X0018424Y0070799D01*
X0018362Y0070702D01*
X0018296Y0070607D01*
X0018228Y0070514D01*
X0018156Y0070424D01*
X0018081Y0070336D01*
X0018002Y0070251D01*
X0017921Y0070169D01*
X0017838Y0070089D01*
X0017751Y0070013D01*
X0017662Y0069939D01*
X0017571Y0069869D01*
X0017477Y0069801D01*
X0017381Y0069737D01*
X0017282Y0069677D01*
X0017182Y0069620D01*
X0017080Y0069566D01*
X0016976Y0069516D01*
X0016870Y0069469D01*
X0016763Y0069426D01*
X0016654Y0069387D01*
X0016544Y0069352D01*
X0016433Y0069321D01*
X0016321Y0069293D01*
X0016208Y0069269D01*
X0016094Y0069249D01*
X0015979Y0069233D01*
X0015864Y0069221D01*
X0015749Y0069213D01*
X0015634Y0069209D01*
X0015518Y0069209D01*
X0015403Y0069213D01*
X0015288Y0069221D01*
X0015173Y0069233D01*
X0015058Y0069249D01*
X0014944Y0069269D01*
X0014831Y0069293D01*
X0014719Y0069321D01*
X0014608Y0069352D01*
X0014498Y0069387D01*
X0014389Y0069426D01*
X0014282Y0069469D01*
X0014176Y0069516D01*
X0014072Y0069566D01*
X0013970Y0069620D01*
X0013870Y0069677D01*
X0013771Y0069737D01*
X0013675Y0069801D01*
X0013581Y0069869D01*
X0013490Y0069939D01*
X0013401Y0070013D01*
X0013314Y0070089D01*
X0013231Y0070169D01*
X0013150Y0070251D01*
X0013071Y0070336D01*
X0012996Y0070424D01*
X0012924Y0070514D01*
X0012856Y0070607D01*
X0012790Y0070702D01*
X0012728Y0070799D01*
X0012669Y0070899D01*
X0012613Y0071000D01*
X0012561Y0071103D01*
X0012513Y0071208D01*
X0012468Y0071315D01*
X0012427Y0071423D01*
X0012390Y0071532D01*
X0012357Y0071643D01*
X0012327Y0071754D01*
X0012302Y0071867D01*
X0012280Y0071980D01*
X0012262Y0072094D01*
X0012248Y0072209D01*
X0012238Y0072324D01*
X0012232Y0072440D01*
X0012230Y0072555D01*
X0034278Y0072555D02*
X0034280Y0072670D01*
X0034286Y0072786D01*
X0034296Y0072901D01*
X0034310Y0073016D01*
X0034328Y0073130D01*
X0034350Y0073243D01*
X0034375Y0073356D01*
X0034405Y0073467D01*
X0034438Y0073578D01*
X0034475Y0073687D01*
X0034516Y0073795D01*
X0034561Y0073902D01*
X0034609Y0074007D01*
X0034661Y0074110D01*
X0034717Y0074211D01*
X0034776Y0074311D01*
X0034838Y0074408D01*
X0034904Y0074503D01*
X0034972Y0074596D01*
X0035044Y0074686D01*
X0035119Y0074774D01*
X0035198Y0074859D01*
X0035279Y0074941D01*
X0035362Y0075021D01*
X0035449Y0075097D01*
X0035538Y0075171D01*
X0035629Y0075241D01*
X0035723Y0075309D01*
X0035819Y0075373D01*
X0035918Y0075433D01*
X0036018Y0075490D01*
X0036120Y0075544D01*
X0036224Y0075594D01*
X0036330Y0075641D01*
X0036437Y0075684D01*
X0036546Y0075723D01*
X0036656Y0075758D01*
X0036767Y0075789D01*
X0036879Y0075817D01*
X0036992Y0075841D01*
X0037106Y0075861D01*
X0037221Y0075877D01*
X0037336Y0075889D01*
X0037451Y0075897D01*
X0037566Y0075901D01*
X0037682Y0075901D01*
X0037797Y0075897D01*
X0037912Y0075889D01*
X0038027Y0075877D01*
X0038142Y0075861D01*
X0038256Y0075841D01*
X0038369Y0075817D01*
X0038481Y0075789D01*
X0038592Y0075758D01*
X0038702Y0075723D01*
X0038811Y0075684D01*
X0038918Y0075641D01*
X0039024Y0075594D01*
X0039128Y0075544D01*
X0039230Y0075490D01*
X0039330Y0075433D01*
X0039429Y0075373D01*
X0039525Y0075309D01*
X0039619Y0075241D01*
X0039710Y0075171D01*
X0039799Y0075097D01*
X0039886Y0075021D01*
X0039969Y0074941D01*
X0040050Y0074859D01*
X0040129Y0074774D01*
X0040204Y0074686D01*
X0040276Y0074596D01*
X0040344Y0074503D01*
X0040410Y0074408D01*
X0040472Y0074311D01*
X0040531Y0074211D01*
X0040587Y0074110D01*
X0040639Y0074007D01*
X0040687Y0073902D01*
X0040732Y0073795D01*
X0040773Y0073687D01*
X0040810Y0073578D01*
X0040843Y0073467D01*
X0040873Y0073356D01*
X0040898Y0073243D01*
X0040920Y0073130D01*
X0040938Y0073016D01*
X0040952Y0072901D01*
X0040962Y0072786D01*
X0040968Y0072670D01*
X0040970Y0072555D01*
X0040968Y0072440D01*
X0040962Y0072324D01*
X0040952Y0072209D01*
X0040938Y0072094D01*
X0040920Y0071980D01*
X0040898Y0071867D01*
X0040873Y0071754D01*
X0040843Y0071643D01*
X0040810Y0071532D01*
X0040773Y0071423D01*
X0040732Y0071315D01*
X0040687Y0071208D01*
X0040639Y0071103D01*
X0040587Y0071000D01*
X0040531Y0070899D01*
X0040472Y0070799D01*
X0040410Y0070702D01*
X0040344Y0070607D01*
X0040276Y0070514D01*
X0040204Y0070424D01*
X0040129Y0070336D01*
X0040050Y0070251D01*
X0039969Y0070169D01*
X0039886Y0070089D01*
X0039799Y0070013D01*
X0039710Y0069939D01*
X0039619Y0069869D01*
X0039525Y0069801D01*
X0039429Y0069737D01*
X0039330Y0069677D01*
X0039230Y0069620D01*
X0039128Y0069566D01*
X0039024Y0069516D01*
X0038918Y0069469D01*
X0038811Y0069426D01*
X0038702Y0069387D01*
X0038592Y0069352D01*
X0038481Y0069321D01*
X0038369Y0069293D01*
X0038256Y0069269D01*
X0038142Y0069249D01*
X0038027Y0069233D01*
X0037912Y0069221D01*
X0037797Y0069213D01*
X0037682Y0069209D01*
X0037566Y0069209D01*
X0037451Y0069213D01*
X0037336Y0069221D01*
X0037221Y0069233D01*
X0037106Y0069249D01*
X0036992Y0069269D01*
X0036879Y0069293D01*
X0036767Y0069321D01*
X0036656Y0069352D01*
X0036546Y0069387D01*
X0036437Y0069426D01*
X0036330Y0069469D01*
X0036224Y0069516D01*
X0036120Y0069566D01*
X0036018Y0069620D01*
X0035918Y0069677D01*
X0035819Y0069737D01*
X0035723Y0069801D01*
X0035629Y0069869D01*
X0035538Y0069939D01*
X0035449Y0070013D01*
X0035362Y0070089D01*
X0035279Y0070169D01*
X0035198Y0070251D01*
X0035119Y0070336D01*
X0035044Y0070424D01*
X0034972Y0070514D01*
X0034904Y0070607D01*
X0034838Y0070702D01*
X0034776Y0070799D01*
X0034717Y0070899D01*
X0034661Y0071000D01*
X0034609Y0071103D01*
X0034561Y0071208D01*
X0034516Y0071315D01*
X0034475Y0071423D01*
X0034438Y0071532D01*
X0034405Y0071643D01*
X0034375Y0071754D01*
X0034350Y0071867D01*
X0034328Y0071980D01*
X0034310Y0072094D01*
X0034296Y0072209D01*
X0034286Y0072324D01*
X0034280Y0072440D01*
X0034278Y0072555D01*
D11*
X0029649Y0049078D02*
X0029649Y0048627D01*
X0029649Y0047727D02*
X0029649Y0045925D01*
X0029199Y0045925D02*
X0030100Y0045925D01*
X0031163Y0045925D02*
X0031614Y0046375D01*
X0031614Y0048177D01*
X0032064Y0047727D02*
X0031163Y0047727D01*
X0030100Y0047727D02*
X0029649Y0047727D01*
X0028135Y0047727D02*
X0028135Y0045925D01*
X0026334Y0045925D02*
X0026334Y0047276D01*
X0026784Y0047727D01*
X0028135Y0047727D01*
X0025189Y0047276D02*
X0025189Y0046375D01*
X0024738Y0045925D01*
X0023387Y0045925D01*
X0023387Y0045475D02*
X0023387Y0047727D01*
X0024738Y0047727D01*
X0025189Y0047276D01*
X0024288Y0045024D02*
X0023838Y0045024D01*
X0023387Y0045475D01*
X0022242Y0047276D02*
X0020441Y0047276D01*
X0019296Y0047276D02*
X0018845Y0046826D01*
X0017945Y0046826D01*
X0017494Y0046375D01*
X0017945Y0045925D01*
X0019296Y0045925D01*
X0019296Y0047276D02*
X0018845Y0047727D01*
X0017494Y0047727D01*
X0016349Y0047727D02*
X0015899Y0047727D01*
X0015899Y0045925D01*
X0016349Y0045925D02*
X0015448Y0045925D01*
X0014385Y0046375D02*
X0014385Y0047276D01*
X0013934Y0047727D01*
X0012583Y0047727D01*
X0012583Y0048627D02*
X0012583Y0045925D01*
X0013934Y0045925D01*
X0014385Y0046375D01*
X0015899Y0048627D02*
X0015899Y0049078D01*
X0011438Y0047276D02*
X0011438Y0046375D01*
X0010988Y0045925D01*
X0010087Y0045925D01*
X0009637Y0046826D02*
X0011438Y0046826D01*
X0011438Y0047276D02*
X0010988Y0047727D01*
X0010087Y0047727D01*
X0009637Y0047276D01*
X0009637Y0046826D01*
X0010534Y0031115D02*
X0008198Y0031115D01*
X0008782Y0029948D02*
X0008198Y0029364D01*
X0008198Y0028196D01*
X0008782Y0027612D01*
X0009950Y0027612D01*
X0010534Y0028196D01*
X0010534Y0029364D02*
X0009366Y0029948D01*
X0008782Y0029948D01*
X0010534Y0029364D02*
X0010534Y0031115D01*
X0015444Y0031115D02*
X0015444Y0027612D01*
X0017376Y0027612D02*
X0017376Y0031115D01*
X0019128Y0029364D01*
X0016792Y0029364D01*
X0017376Y0025115D02*
X0018544Y0025115D01*
X0019128Y0024532D01*
X0020475Y0023364D02*
X0022811Y0023364D01*
X0021059Y0025115D01*
X0021059Y0021612D01*
X0019128Y0021612D02*
X0016792Y0023948D01*
X0016792Y0024532D01*
X0017376Y0025115D01*
X0015444Y0025115D02*
X0015444Y0021612D01*
X0016792Y0021612D02*
X0019128Y0021612D01*
X0018544Y0019115D02*
X0017376Y0019115D01*
X0016792Y0018532D01*
X0016792Y0017948D01*
X0019128Y0015612D01*
X0016792Y0015612D01*
X0015444Y0015612D02*
X0015444Y0019115D01*
X0014217Y0019115D02*
X0014217Y0017364D01*
X0013049Y0017948D01*
X0012465Y0017948D01*
X0011881Y0017364D01*
X0011881Y0016196D01*
X0012465Y0015612D01*
X0013633Y0015612D01*
X0014217Y0016196D01*
X0014217Y0019115D02*
X0011881Y0019115D01*
X0010534Y0018532D02*
X0009950Y0019115D01*
X0008782Y0019115D01*
X0008198Y0018532D01*
X0008198Y0017948D01*
X0010534Y0015612D01*
X0008198Y0015612D01*
X0008782Y0021612D02*
X0009950Y0021612D01*
X0010534Y0022196D01*
X0010534Y0022780D01*
X0009950Y0023364D01*
X0008782Y0023364D01*
X0008198Y0022780D01*
X0008198Y0022196D01*
X0008782Y0021612D01*
X0008782Y0023364D02*
X0008198Y0023948D01*
X0008198Y0024532D01*
X0008782Y0025115D01*
X0009950Y0025115D01*
X0010534Y0024532D01*
X0010534Y0023948D01*
X0009950Y0023364D01*
X0011881Y0024532D02*
X0011881Y0025115D01*
X0014217Y0025115D01*
X0011881Y0024532D02*
X0014217Y0022196D01*
X0014217Y0021612D01*
X0018544Y0019115D02*
X0019128Y0018532D01*
X0020475Y0018532D02*
X0020475Y0016196D01*
X0021059Y0015612D01*
X0022227Y0015612D01*
X0022811Y0016196D01*
X0022227Y0017364D02*
X0020475Y0017364D01*
X0020475Y0018532D02*
X0021059Y0019115D01*
X0022227Y0019115D01*
X0022811Y0018532D01*
X0022811Y0017948D01*
X0022227Y0017364D01*
X0024038Y0019115D02*
X0024038Y0015612D01*
X0025386Y0016196D02*
X0025970Y0015612D01*
X0027138Y0015612D01*
X0027722Y0016196D01*
X0029069Y0016196D02*
X0029069Y0018532D01*
X0029653Y0019115D01*
X0030821Y0019115D01*
X0031405Y0018532D01*
X0031405Y0017948D01*
X0030821Y0017364D01*
X0029069Y0017364D01*
X0029069Y0016196D02*
X0029653Y0015612D01*
X0030821Y0015612D01*
X0031405Y0016196D01*
X0032632Y0015612D02*
X0032632Y0019115D01*
X0034564Y0019115D02*
X0036316Y0017364D01*
X0033980Y0017364D01*
X0034564Y0019115D02*
X0034564Y0015612D01*
X0037663Y0016196D02*
X0037663Y0018532D01*
X0038247Y0019115D01*
X0039415Y0019115D01*
X0039999Y0018532D01*
X0039999Y0017948D01*
X0039415Y0017364D01*
X0037663Y0017364D01*
X0037663Y0016196D02*
X0038247Y0015612D01*
X0039415Y0015612D01*
X0039999Y0016196D01*
X0041226Y0015612D02*
X0041226Y0019115D01*
X0042574Y0019115D02*
X0043742Y0018532D01*
X0044910Y0017364D01*
X0043158Y0017364D01*
X0042574Y0016780D01*
X0042574Y0016196D01*
X0043158Y0015612D01*
X0044326Y0015612D01*
X0044910Y0016196D01*
X0044910Y0017364D01*
X0046257Y0015612D02*
X0048593Y0015612D01*
X0049850Y0015612D02*
X0049850Y0016196D01*
X0050434Y0016196D01*
X0050434Y0015612D01*
X0049850Y0015612D01*
X0049850Y0017364D02*
X0050434Y0017364D01*
X0050434Y0017948D01*
X0049850Y0017948D01*
X0049850Y0017364D01*
X0048593Y0017948D02*
X0047425Y0019115D01*
X0047425Y0015612D01*
X0051782Y0016196D02*
X0052366Y0015612D01*
X0053534Y0015612D01*
X0054117Y0016196D01*
X0054117Y0019115D01*
X0055465Y0018532D02*
X0055465Y0017364D01*
X0056049Y0016780D01*
X0057801Y0016780D01*
X0057801Y0015612D02*
X0057801Y0019115D01*
X0056049Y0019115D01*
X0055465Y0018532D01*
X0056049Y0021612D02*
X0057217Y0021612D01*
X0057801Y0022196D01*
X0057217Y0023364D02*
X0056049Y0023364D01*
X0055465Y0022780D01*
X0055465Y0022196D01*
X0056049Y0021612D01*
X0054117Y0021612D02*
X0054117Y0025115D01*
X0052366Y0025115D01*
X0051782Y0024532D01*
X0051782Y0023364D01*
X0052366Y0022780D01*
X0054117Y0022780D01*
X0055465Y0024532D02*
X0056049Y0025115D01*
X0057217Y0025115D01*
X0057801Y0024532D01*
X0057801Y0023948D01*
X0057217Y0023364D01*
X0059148Y0022196D02*
X0059148Y0024532D01*
X0059732Y0025115D01*
X0061484Y0025115D01*
X0061484Y0021612D01*
X0059732Y0021612D01*
X0059148Y0022196D01*
X0060316Y0019115D02*
X0059148Y0017948D01*
X0059148Y0015612D01*
X0059148Y0017364D02*
X0061484Y0017364D01*
X0061484Y0017948D02*
X0060316Y0019115D01*
X0061484Y0017948D02*
X0061484Y0015612D01*
X0062832Y0017364D02*
X0065167Y0017364D01*
X0066515Y0016780D02*
X0066515Y0016196D01*
X0067099Y0015612D01*
X0068266Y0015612D01*
X0068850Y0016196D01*
X0068266Y0017364D02*
X0067099Y0017364D01*
X0066515Y0016780D01*
X0066515Y0018532D02*
X0067099Y0019115D01*
X0068266Y0019115D01*
X0068850Y0018532D01*
X0068850Y0017948D01*
X0068266Y0017364D01*
X0068266Y0021612D02*
X0067099Y0021612D01*
X0066515Y0022196D01*
X0066515Y0022780D01*
X0067099Y0023364D01*
X0068266Y0023364D01*
X0068850Y0023948D01*
X0068850Y0024532D01*
X0068266Y0025115D01*
X0067099Y0025115D01*
X0066515Y0024532D01*
X0065167Y0023364D02*
X0062832Y0023364D01*
X0061484Y0027612D02*
X0061484Y0031115D01*
X0059732Y0031115D01*
X0059148Y0030532D01*
X0059148Y0029364D01*
X0059732Y0028780D01*
X0061484Y0028780D01*
X0057801Y0028196D02*
X0057217Y0028780D01*
X0055465Y0028780D01*
X0055465Y0029364D02*
X0055465Y0027612D01*
X0057217Y0027612D01*
X0057801Y0028196D01*
X0057217Y0029948D02*
X0056049Y0029948D01*
X0055465Y0029364D01*
X0054117Y0029364D02*
X0053534Y0029948D01*
X0051782Y0029948D01*
X0051782Y0031115D02*
X0051782Y0027612D01*
X0053534Y0027612D01*
X0054117Y0028196D01*
X0054117Y0029364D01*
X0050434Y0029364D02*
X0050434Y0029948D01*
X0049850Y0029948D01*
X0049850Y0029364D01*
X0050434Y0029364D01*
X0050434Y0028196D02*
X0049850Y0028196D01*
X0049850Y0027612D01*
X0050434Y0027612D01*
X0050434Y0028196D01*
X0050434Y0023948D02*
X0049850Y0023948D01*
X0049850Y0023364D01*
X0050434Y0023364D01*
X0050434Y0023948D01*
X0050434Y0022196D02*
X0049850Y0022196D01*
X0049850Y0021612D01*
X0050434Y0021612D01*
X0050434Y0022196D01*
X0048593Y0023364D02*
X0046257Y0023364D01*
X0044910Y0022196D02*
X0044910Y0021612D01*
X0044910Y0022196D02*
X0042574Y0024532D01*
X0042574Y0025115D01*
X0044910Y0025115D01*
X0046841Y0025115D02*
X0048593Y0023364D01*
X0046841Y0025115D02*
X0046841Y0021612D01*
X0051782Y0019115D02*
X0051782Y0016196D01*
X0041226Y0021612D02*
X0041226Y0025115D01*
X0039999Y0023364D02*
X0037663Y0023364D01*
X0036316Y0024532D02*
X0035732Y0025115D01*
X0034564Y0025115D01*
X0033980Y0024532D01*
X0033980Y0023948D01*
X0034564Y0023364D01*
X0033980Y0022780D01*
X0033980Y0022196D01*
X0034564Y0021612D01*
X0035732Y0021612D01*
X0036316Y0022196D01*
X0035148Y0023364D02*
X0034564Y0023364D01*
X0032632Y0025115D02*
X0032632Y0021612D01*
X0031405Y0023364D02*
X0029069Y0023364D01*
X0027722Y0023364D02*
X0025386Y0023364D01*
X0025970Y0025115D02*
X0025970Y0021612D01*
X0027722Y0023364D02*
X0025970Y0025115D01*
X0024038Y0025115D02*
X0024038Y0021612D01*
X0025970Y0019115D02*
X0025386Y0018532D01*
X0025386Y0017948D01*
X0025970Y0017364D01*
X0025386Y0016780D01*
X0025386Y0016196D01*
X0025970Y0017364D02*
X0026554Y0017364D01*
X0027722Y0018532D02*
X0027138Y0019115D01*
X0025970Y0019115D01*
X0029653Y0021612D02*
X0029653Y0025115D01*
X0031405Y0023364D01*
X0032632Y0027612D02*
X0032632Y0031115D01*
X0033980Y0030532D02*
X0033980Y0029948D01*
X0036316Y0027612D01*
X0033980Y0027612D01*
X0033980Y0030532D02*
X0034564Y0031115D01*
X0035732Y0031115D01*
X0036316Y0030532D01*
X0037801Y0034445D02*
X0037801Y0037948D01*
X0036049Y0037948D01*
X0035465Y0037364D01*
X0035465Y0036196D01*
X0036049Y0035613D01*
X0037801Y0035613D01*
X0039148Y0036196D02*
X0039148Y0037364D01*
X0039732Y0037948D01*
X0041484Y0037948D01*
X0041484Y0034445D01*
X0041484Y0035613D02*
X0039732Y0035613D01*
X0039148Y0036196D01*
X0042832Y0035613D02*
X0044583Y0035613D01*
X0045167Y0036196D01*
X0044583Y0036780D01*
X0042832Y0036780D01*
X0042832Y0037364D02*
X0042832Y0035613D01*
X0042832Y0037364D02*
X0043415Y0037948D01*
X0044583Y0037948D01*
X0046515Y0039115D02*
X0046515Y0035613D01*
X0047682Y0037948D02*
X0046515Y0039115D01*
X0047682Y0037948D02*
X0048850Y0039115D01*
X0048850Y0035613D01*
X0043742Y0031115D02*
X0043742Y0027612D01*
X0044910Y0027612D02*
X0042574Y0027612D01*
X0041226Y0027612D02*
X0041226Y0031115D01*
X0043742Y0031115D02*
X0044910Y0029948D01*
X0039999Y0023364D02*
X0038247Y0025115D01*
X0038247Y0021612D01*
X0027722Y0028196D02*
X0027138Y0027612D01*
X0025970Y0027612D01*
X0025386Y0028196D01*
X0025386Y0028780D01*
X0025970Y0029364D01*
X0026554Y0029364D01*
X0025970Y0029364D02*
X0025386Y0029948D01*
X0025386Y0030532D01*
X0025970Y0031115D01*
X0027138Y0031115D01*
X0027722Y0030532D01*
X0026811Y0034445D02*
X0026227Y0034445D01*
X0025644Y0035029D01*
X0025644Y0037948D01*
X0027395Y0037948D01*
X0027979Y0037364D01*
X0027979Y0036196D01*
X0027395Y0035613D01*
X0025644Y0035613D01*
X0024296Y0035613D02*
X0024296Y0036196D01*
X0023712Y0036196D01*
X0023712Y0035613D01*
X0024296Y0035613D01*
X0024296Y0037364D02*
X0023712Y0037364D01*
X0023712Y0037948D01*
X0024296Y0037948D01*
X0024296Y0037364D01*
X0029327Y0037364D02*
X0029327Y0035613D01*
X0029327Y0037364D02*
X0029911Y0037948D01*
X0031662Y0037948D01*
X0031662Y0035613D01*
X0032950Y0035613D02*
X0034117Y0035613D01*
X0033534Y0035613D02*
X0033534Y0037948D01*
X0034117Y0037948D01*
X0033534Y0039115D02*
X0033534Y0039699D01*
X0033209Y0045925D02*
X0033209Y0047276D01*
X0033659Y0047727D01*
X0035010Y0047727D01*
X0035010Y0045925D01*
X0036155Y0045925D02*
X0036155Y0047727D01*
X0036155Y0045925D02*
X0037507Y0045925D01*
X0037957Y0046375D01*
X0037957Y0047727D01*
X0039102Y0047276D02*
X0039102Y0046375D01*
X0039552Y0045925D01*
X0040453Y0045925D01*
X0040903Y0046375D01*
X0040903Y0047276D01*
X0040453Y0047727D01*
X0039552Y0047727D01*
X0039102Y0047276D01*
X0042048Y0047276D02*
X0042048Y0045925D01*
X0042949Y0045925D02*
X0042949Y0047276D01*
X0042499Y0047727D01*
X0042048Y0047276D01*
X0042949Y0047276D02*
X0043400Y0047727D01*
X0043850Y0047727D01*
X0043850Y0045925D01*
X0024038Y0031115D02*
X0024038Y0027612D01*
X0068266Y0021612D02*
X0068850Y0022196D01*
D12*
X0070350Y0026612D02*
X0007850Y0026612D01*
X0023162Y0033800D02*
X0050037Y0033800D01*
X0044100Y0044838D02*
X0038303Y0044838D01*
X0034366Y0044838D02*
X0028569Y0044838D01*
X0024631Y0044838D02*
X0018834Y0044838D01*
X0014897Y0044838D02*
X0009100Y0044838D01*
X0011708Y0080225D02*
X0012842Y0080225D01*
X0013409Y0080792D01*
X0013409Y0081359D01*
X0012842Y0081926D01*
X0011708Y0081926D01*
X0011140Y0081359D01*
X0011140Y0080792D01*
X0011708Y0080225D01*
X0011708Y0081926D02*
X0011140Y0082494D01*
X0011140Y0083061D01*
X0011708Y0083628D01*
X0012842Y0083628D01*
X0013409Y0083061D01*
X0013409Y0082494D01*
X0012842Y0081926D01*
X0014824Y0080792D02*
X0015391Y0080225D01*
X0016525Y0080225D01*
X0017092Y0080792D01*
X0014824Y0083061D01*
X0014824Y0080792D01*
X0014824Y0083061D02*
X0015391Y0083628D01*
X0016525Y0083628D01*
X0017092Y0083061D01*
X0017092Y0080792D01*
X0018507Y0080792D02*
X0019074Y0080225D01*
X0020208Y0080225D01*
X0020775Y0080792D01*
X0020775Y0081359D01*
X0020208Y0081926D01*
X0019074Y0081926D01*
X0018507Y0081359D01*
X0018507Y0080792D01*
X0019074Y0081926D02*
X0018507Y0082494D01*
X0018507Y0083061D01*
X0019074Y0083628D01*
X0020208Y0083628D01*
X0020775Y0083061D01*
X0020775Y0082494D01*
X0020208Y0081926D01*
X0022190Y0080792D02*
X0022757Y0080225D01*
X0023891Y0080225D01*
X0024458Y0080792D01*
X0022190Y0083061D01*
X0022190Y0080792D01*
X0022190Y0083061D02*
X0022757Y0083628D01*
X0023891Y0083628D01*
X0024458Y0083061D01*
X0024458Y0080792D01*
X0025873Y0080792D02*
X0026440Y0080225D01*
X0027574Y0080225D01*
X0028142Y0080792D01*
X0028142Y0083061D01*
X0027574Y0083628D01*
X0026440Y0083628D01*
X0025873Y0083061D01*
X0029556Y0083061D02*
X0029556Y0080792D01*
X0030123Y0080225D01*
X0031258Y0080225D01*
X0031825Y0080792D01*
X0031825Y0083061D01*
X0031258Y0083628D01*
X0030123Y0083628D01*
X0029556Y0083061D01*
X0028569Y0087358D02*
X0034366Y0087358D01*
X0036922Y0083628D02*
X0039191Y0083628D01*
X0038057Y0083628D02*
X0038057Y0080225D01*
X0041173Y0080792D02*
X0041173Y0083628D01*
X0041740Y0083628D02*
X0040606Y0083628D01*
X0041173Y0080792D02*
X0041740Y0080225D01*
X0042307Y0080225D01*
X0042874Y0080792D01*
X0044100Y0087358D02*
X0038303Y0087358D01*
X0024631Y0087358D02*
X0018834Y0087358D01*
X0014897Y0087358D02*
X0009100Y0087358D01*
M02*
