G75*
%MOIN*%
%OFA0B0*%
%FSLAX25Y25*%
%IPPOS*%
%LPD*%
%AMOC8*
5,1,8,0,0,1.08239X$1,22.5*
%
%ADD10C,0.00000*%
%ADD11R,0.10400X0.05400*%
%ADD12R,0.01975X0.05124*%
%ADD13R,0.04731X0.04337*%
%ADD14R,0.04337X0.04731*%
%ADD15R,0.06699X0.03550*%
%ADD16R,0.05550X0.05550*%
%ADD17C,0.05550*%
%ADD18C,0.06896*%
%ADD19C,0.07093*%
%ADD20C,0.22054*%
D10*
X0004100Y0003487D02*
X0005350Y0002238D01*
X0076913Y0002238D01*
X0078163Y0003487D01*
X0078163Y0060675D01*
X0076913Y0061925D01*
X0050350Y0061925D01*
X0049100Y0063175D01*
X0049100Y0061925D01*
X0049100Y0063175D02*
X0049100Y0084425D01*
X0047850Y0085675D01*
X0005350Y0085675D01*
X0004100Y0084425D01*
X0004100Y0003487D01*
X0012230Y0072555D02*
X0012232Y0072670D01*
X0012238Y0072786D01*
X0012248Y0072901D01*
X0012262Y0073016D01*
X0012280Y0073130D01*
X0012302Y0073243D01*
X0012327Y0073356D01*
X0012357Y0073467D01*
X0012390Y0073578D01*
X0012427Y0073687D01*
X0012468Y0073795D01*
X0012513Y0073902D01*
X0012561Y0074007D01*
X0012613Y0074110D01*
X0012669Y0074211D01*
X0012728Y0074311D01*
X0012790Y0074408D01*
X0012856Y0074503D01*
X0012924Y0074596D01*
X0012996Y0074686D01*
X0013071Y0074774D01*
X0013150Y0074859D01*
X0013231Y0074941D01*
X0013314Y0075021D01*
X0013401Y0075097D01*
X0013490Y0075171D01*
X0013581Y0075241D01*
X0013675Y0075309D01*
X0013771Y0075373D01*
X0013870Y0075433D01*
X0013970Y0075490D01*
X0014072Y0075544D01*
X0014176Y0075594D01*
X0014282Y0075641D01*
X0014389Y0075684D01*
X0014498Y0075723D01*
X0014608Y0075758D01*
X0014719Y0075789D01*
X0014831Y0075817D01*
X0014944Y0075841D01*
X0015058Y0075861D01*
X0015173Y0075877D01*
X0015288Y0075889D01*
X0015403Y0075897D01*
X0015518Y0075901D01*
X0015634Y0075901D01*
X0015749Y0075897D01*
X0015864Y0075889D01*
X0015979Y0075877D01*
X0016094Y0075861D01*
X0016208Y0075841D01*
X0016321Y0075817D01*
X0016433Y0075789D01*
X0016544Y0075758D01*
X0016654Y0075723D01*
X0016763Y0075684D01*
X0016870Y0075641D01*
X0016976Y0075594D01*
X0017080Y0075544D01*
X0017182Y0075490D01*
X0017282Y0075433D01*
X0017381Y0075373D01*
X0017477Y0075309D01*
X0017571Y0075241D01*
X0017662Y0075171D01*
X0017751Y0075097D01*
X0017838Y0075021D01*
X0017921Y0074941D01*
X0018002Y0074859D01*
X0018081Y0074774D01*
X0018156Y0074686D01*
X0018228Y0074596D01*
X0018296Y0074503D01*
X0018362Y0074408D01*
X0018424Y0074311D01*
X0018483Y0074211D01*
X0018539Y0074110D01*
X0018591Y0074007D01*
X0018639Y0073902D01*
X0018684Y0073795D01*
X0018725Y0073687D01*
X0018762Y0073578D01*
X0018795Y0073467D01*
X0018825Y0073356D01*
X0018850Y0073243D01*
X0018872Y0073130D01*
X0018890Y0073016D01*
X0018904Y0072901D01*
X0018914Y0072786D01*
X0018920Y0072670D01*
X0018922Y0072555D01*
X0018920Y0072440D01*
X0018914Y0072324D01*
X0018904Y0072209D01*
X0018890Y0072094D01*
X0018872Y0071980D01*
X0018850Y0071867D01*
X0018825Y0071754D01*
X0018795Y0071643D01*
X0018762Y0071532D01*
X0018725Y0071423D01*
X0018684Y0071315D01*
X0018639Y0071208D01*
X0018591Y0071103D01*
X0018539Y0071000D01*
X0018483Y0070899D01*
X0018424Y0070799D01*
X0018362Y0070702D01*
X0018296Y0070607D01*
X0018228Y0070514D01*
X0018156Y0070424D01*
X0018081Y0070336D01*
X0018002Y0070251D01*
X0017921Y0070169D01*
X0017838Y0070089D01*
X0017751Y0070013D01*
X0017662Y0069939D01*
X0017571Y0069869D01*
X0017477Y0069801D01*
X0017381Y0069737D01*
X0017282Y0069677D01*
X0017182Y0069620D01*
X0017080Y0069566D01*
X0016976Y0069516D01*
X0016870Y0069469D01*
X0016763Y0069426D01*
X0016654Y0069387D01*
X0016544Y0069352D01*
X0016433Y0069321D01*
X0016321Y0069293D01*
X0016208Y0069269D01*
X0016094Y0069249D01*
X0015979Y0069233D01*
X0015864Y0069221D01*
X0015749Y0069213D01*
X0015634Y0069209D01*
X0015518Y0069209D01*
X0015403Y0069213D01*
X0015288Y0069221D01*
X0015173Y0069233D01*
X0015058Y0069249D01*
X0014944Y0069269D01*
X0014831Y0069293D01*
X0014719Y0069321D01*
X0014608Y0069352D01*
X0014498Y0069387D01*
X0014389Y0069426D01*
X0014282Y0069469D01*
X0014176Y0069516D01*
X0014072Y0069566D01*
X0013970Y0069620D01*
X0013870Y0069677D01*
X0013771Y0069737D01*
X0013675Y0069801D01*
X0013581Y0069869D01*
X0013490Y0069939D01*
X0013401Y0070013D01*
X0013314Y0070089D01*
X0013231Y0070169D01*
X0013150Y0070251D01*
X0013071Y0070336D01*
X0012996Y0070424D01*
X0012924Y0070514D01*
X0012856Y0070607D01*
X0012790Y0070702D01*
X0012728Y0070799D01*
X0012669Y0070899D01*
X0012613Y0071000D01*
X0012561Y0071103D01*
X0012513Y0071208D01*
X0012468Y0071315D01*
X0012427Y0071423D01*
X0012390Y0071532D01*
X0012357Y0071643D01*
X0012327Y0071754D01*
X0012302Y0071867D01*
X0012280Y0071980D01*
X0012262Y0072094D01*
X0012248Y0072209D01*
X0012238Y0072324D01*
X0012232Y0072440D01*
X0012230Y0072555D01*
X0034278Y0072555D02*
X0034280Y0072670D01*
X0034286Y0072786D01*
X0034296Y0072901D01*
X0034310Y0073016D01*
X0034328Y0073130D01*
X0034350Y0073243D01*
X0034375Y0073356D01*
X0034405Y0073467D01*
X0034438Y0073578D01*
X0034475Y0073687D01*
X0034516Y0073795D01*
X0034561Y0073902D01*
X0034609Y0074007D01*
X0034661Y0074110D01*
X0034717Y0074211D01*
X0034776Y0074311D01*
X0034838Y0074408D01*
X0034904Y0074503D01*
X0034972Y0074596D01*
X0035044Y0074686D01*
X0035119Y0074774D01*
X0035198Y0074859D01*
X0035279Y0074941D01*
X0035362Y0075021D01*
X0035449Y0075097D01*
X0035538Y0075171D01*
X0035629Y0075241D01*
X0035723Y0075309D01*
X0035819Y0075373D01*
X0035918Y0075433D01*
X0036018Y0075490D01*
X0036120Y0075544D01*
X0036224Y0075594D01*
X0036330Y0075641D01*
X0036437Y0075684D01*
X0036546Y0075723D01*
X0036656Y0075758D01*
X0036767Y0075789D01*
X0036879Y0075817D01*
X0036992Y0075841D01*
X0037106Y0075861D01*
X0037221Y0075877D01*
X0037336Y0075889D01*
X0037451Y0075897D01*
X0037566Y0075901D01*
X0037682Y0075901D01*
X0037797Y0075897D01*
X0037912Y0075889D01*
X0038027Y0075877D01*
X0038142Y0075861D01*
X0038256Y0075841D01*
X0038369Y0075817D01*
X0038481Y0075789D01*
X0038592Y0075758D01*
X0038702Y0075723D01*
X0038811Y0075684D01*
X0038918Y0075641D01*
X0039024Y0075594D01*
X0039128Y0075544D01*
X0039230Y0075490D01*
X0039330Y0075433D01*
X0039429Y0075373D01*
X0039525Y0075309D01*
X0039619Y0075241D01*
X0039710Y0075171D01*
X0039799Y0075097D01*
X0039886Y0075021D01*
X0039969Y0074941D01*
X0040050Y0074859D01*
X0040129Y0074774D01*
X0040204Y0074686D01*
X0040276Y0074596D01*
X0040344Y0074503D01*
X0040410Y0074408D01*
X0040472Y0074311D01*
X0040531Y0074211D01*
X0040587Y0074110D01*
X0040639Y0074007D01*
X0040687Y0073902D01*
X0040732Y0073795D01*
X0040773Y0073687D01*
X0040810Y0073578D01*
X0040843Y0073467D01*
X0040873Y0073356D01*
X0040898Y0073243D01*
X0040920Y0073130D01*
X0040938Y0073016D01*
X0040952Y0072901D01*
X0040962Y0072786D01*
X0040968Y0072670D01*
X0040970Y0072555D01*
X0040968Y0072440D01*
X0040962Y0072324D01*
X0040952Y0072209D01*
X0040938Y0072094D01*
X0040920Y0071980D01*
X0040898Y0071867D01*
X0040873Y0071754D01*
X0040843Y0071643D01*
X0040810Y0071532D01*
X0040773Y0071423D01*
X0040732Y0071315D01*
X0040687Y0071208D01*
X0040639Y0071103D01*
X0040587Y0071000D01*
X0040531Y0070899D01*
X0040472Y0070799D01*
X0040410Y0070702D01*
X0040344Y0070607D01*
X0040276Y0070514D01*
X0040204Y0070424D01*
X0040129Y0070336D01*
X0040050Y0070251D01*
X0039969Y0070169D01*
X0039886Y0070089D01*
X0039799Y0070013D01*
X0039710Y0069939D01*
X0039619Y0069869D01*
X0039525Y0069801D01*
X0039429Y0069737D01*
X0039330Y0069677D01*
X0039230Y0069620D01*
X0039128Y0069566D01*
X0039024Y0069516D01*
X0038918Y0069469D01*
X0038811Y0069426D01*
X0038702Y0069387D01*
X0038592Y0069352D01*
X0038481Y0069321D01*
X0038369Y0069293D01*
X0038256Y0069269D01*
X0038142Y0069249D01*
X0038027Y0069233D01*
X0037912Y0069221D01*
X0037797Y0069213D01*
X0037682Y0069209D01*
X0037566Y0069209D01*
X0037451Y0069213D01*
X0037336Y0069221D01*
X0037221Y0069233D01*
X0037106Y0069249D01*
X0036992Y0069269D01*
X0036879Y0069293D01*
X0036767Y0069321D01*
X0036656Y0069352D01*
X0036546Y0069387D01*
X0036437Y0069426D01*
X0036330Y0069469D01*
X0036224Y0069516D01*
X0036120Y0069566D01*
X0036018Y0069620D01*
X0035918Y0069677D01*
X0035819Y0069737D01*
X0035723Y0069801D01*
X0035629Y0069869D01*
X0035538Y0069939D01*
X0035449Y0070013D01*
X0035362Y0070089D01*
X0035279Y0070169D01*
X0035198Y0070251D01*
X0035119Y0070336D01*
X0035044Y0070424D01*
X0034972Y0070514D01*
X0034904Y0070607D01*
X0034838Y0070702D01*
X0034776Y0070799D01*
X0034717Y0070899D01*
X0034661Y0071000D01*
X0034609Y0071103D01*
X0034561Y0071208D01*
X0034516Y0071315D01*
X0034475Y0071423D01*
X0034438Y0071532D01*
X0034405Y0071643D01*
X0034375Y0071754D01*
X0034350Y0071867D01*
X0034328Y0071980D01*
X0034310Y0072094D01*
X0034296Y0072209D01*
X0034286Y0072324D01*
X0034280Y0072440D01*
X0034278Y0072555D01*
D11*
X0010350Y0016300D03*
X0010350Y0006300D03*
D12*
X0021216Y0015508D03*
X0023775Y0015508D03*
X0026334Y0015508D03*
X0028893Y0015508D03*
X0031452Y0015508D03*
X0034011Y0015508D03*
X0036570Y0015508D03*
X0039130Y0015508D03*
X0041689Y0015508D03*
X0044248Y0015508D03*
X0046807Y0015508D03*
X0049366Y0015508D03*
X0051925Y0015508D03*
X0054484Y0015508D03*
X0054484Y0038342D03*
X0051925Y0038342D03*
X0049366Y0038342D03*
X0046807Y0038342D03*
X0044248Y0038342D03*
X0041689Y0038342D03*
X0039130Y0038342D03*
X0036570Y0038342D03*
X0034011Y0038342D03*
X0031452Y0038342D03*
X0028893Y0038342D03*
X0026334Y0038342D03*
X0023775Y0038342D03*
X0021216Y0038342D03*
D13*
X0030754Y0006925D03*
X0037446Y0006925D03*
D14*
X0011600Y0028579D03*
X0011600Y0035271D03*
X0044725Y0046079D03*
X0044725Y0052771D03*
D15*
X0073788Y0031925D03*
X0073788Y0026925D03*
X0073788Y0021925D03*
X0073788Y0016925D03*
X0073788Y0011925D03*
D16*
X0016600Y0051925D03*
D17*
X0026600Y0051925D03*
X0036600Y0051925D03*
D18*
X0036600Y0062279D03*
X0016600Y0062279D03*
D19*
X0015576Y0072555D03*
X0037624Y0072555D03*
D20*
X0066167Y0047555D03*
M02*
