G75*
%MOIN*%
%OFA0B0*%
%FSLAX25Y25*%
%IPPOS*%
%LPD*%
%AMOC8*
5,1,8,0,0,1.08239X$1,22.5*
%
%ADD10C,0.00000*%
%ADD11C,0.00500*%
%ADD12C,0.00700*%
%ADD13C,0.00800*%
%ADD14C,0.00600*%
D10*
X0004100Y0003487D02*
X0005350Y0002238D01*
X0076913Y0002238D01*
X0078163Y0003487D01*
X0078163Y0060675D01*
X0076913Y0061925D01*
X0050350Y0061925D01*
X0049100Y0063175D01*
X0049100Y0061925D01*
X0049100Y0063175D02*
X0049100Y0085675D01*
X0047850Y0086925D01*
X0005350Y0086925D01*
X0004100Y0085675D01*
X0004100Y0003487D01*
X0012230Y0075055D02*
X0012232Y0075170D01*
X0012238Y0075286D01*
X0012248Y0075401D01*
X0012262Y0075516D01*
X0012280Y0075630D01*
X0012302Y0075743D01*
X0012327Y0075856D01*
X0012357Y0075967D01*
X0012390Y0076078D01*
X0012427Y0076187D01*
X0012468Y0076295D01*
X0012513Y0076402D01*
X0012561Y0076507D01*
X0012613Y0076610D01*
X0012669Y0076711D01*
X0012728Y0076811D01*
X0012790Y0076908D01*
X0012856Y0077003D01*
X0012924Y0077096D01*
X0012996Y0077186D01*
X0013071Y0077274D01*
X0013150Y0077359D01*
X0013231Y0077441D01*
X0013314Y0077521D01*
X0013401Y0077597D01*
X0013490Y0077671D01*
X0013581Y0077741D01*
X0013675Y0077809D01*
X0013771Y0077873D01*
X0013870Y0077933D01*
X0013970Y0077990D01*
X0014072Y0078044D01*
X0014176Y0078094D01*
X0014282Y0078141D01*
X0014389Y0078184D01*
X0014498Y0078223D01*
X0014608Y0078258D01*
X0014719Y0078289D01*
X0014831Y0078317D01*
X0014944Y0078341D01*
X0015058Y0078361D01*
X0015173Y0078377D01*
X0015288Y0078389D01*
X0015403Y0078397D01*
X0015518Y0078401D01*
X0015634Y0078401D01*
X0015749Y0078397D01*
X0015864Y0078389D01*
X0015979Y0078377D01*
X0016094Y0078361D01*
X0016208Y0078341D01*
X0016321Y0078317D01*
X0016433Y0078289D01*
X0016544Y0078258D01*
X0016654Y0078223D01*
X0016763Y0078184D01*
X0016870Y0078141D01*
X0016976Y0078094D01*
X0017080Y0078044D01*
X0017182Y0077990D01*
X0017282Y0077933D01*
X0017381Y0077873D01*
X0017477Y0077809D01*
X0017571Y0077741D01*
X0017662Y0077671D01*
X0017751Y0077597D01*
X0017838Y0077521D01*
X0017921Y0077441D01*
X0018002Y0077359D01*
X0018081Y0077274D01*
X0018156Y0077186D01*
X0018228Y0077096D01*
X0018296Y0077003D01*
X0018362Y0076908D01*
X0018424Y0076811D01*
X0018483Y0076711D01*
X0018539Y0076610D01*
X0018591Y0076507D01*
X0018639Y0076402D01*
X0018684Y0076295D01*
X0018725Y0076187D01*
X0018762Y0076078D01*
X0018795Y0075967D01*
X0018825Y0075856D01*
X0018850Y0075743D01*
X0018872Y0075630D01*
X0018890Y0075516D01*
X0018904Y0075401D01*
X0018914Y0075286D01*
X0018920Y0075170D01*
X0018922Y0075055D01*
X0018920Y0074940D01*
X0018914Y0074824D01*
X0018904Y0074709D01*
X0018890Y0074594D01*
X0018872Y0074480D01*
X0018850Y0074367D01*
X0018825Y0074254D01*
X0018795Y0074143D01*
X0018762Y0074032D01*
X0018725Y0073923D01*
X0018684Y0073815D01*
X0018639Y0073708D01*
X0018591Y0073603D01*
X0018539Y0073500D01*
X0018483Y0073399D01*
X0018424Y0073299D01*
X0018362Y0073202D01*
X0018296Y0073107D01*
X0018228Y0073014D01*
X0018156Y0072924D01*
X0018081Y0072836D01*
X0018002Y0072751D01*
X0017921Y0072669D01*
X0017838Y0072589D01*
X0017751Y0072513D01*
X0017662Y0072439D01*
X0017571Y0072369D01*
X0017477Y0072301D01*
X0017381Y0072237D01*
X0017282Y0072177D01*
X0017182Y0072120D01*
X0017080Y0072066D01*
X0016976Y0072016D01*
X0016870Y0071969D01*
X0016763Y0071926D01*
X0016654Y0071887D01*
X0016544Y0071852D01*
X0016433Y0071821D01*
X0016321Y0071793D01*
X0016208Y0071769D01*
X0016094Y0071749D01*
X0015979Y0071733D01*
X0015864Y0071721D01*
X0015749Y0071713D01*
X0015634Y0071709D01*
X0015518Y0071709D01*
X0015403Y0071713D01*
X0015288Y0071721D01*
X0015173Y0071733D01*
X0015058Y0071749D01*
X0014944Y0071769D01*
X0014831Y0071793D01*
X0014719Y0071821D01*
X0014608Y0071852D01*
X0014498Y0071887D01*
X0014389Y0071926D01*
X0014282Y0071969D01*
X0014176Y0072016D01*
X0014072Y0072066D01*
X0013970Y0072120D01*
X0013870Y0072177D01*
X0013771Y0072237D01*
X0013675Y0072301D01*
X0013581Y0072369D01*
X0013490Y0072439D01*
X0013401Y0072513D01*
X0013314Y0072589D01*
X0013231Y0072669D01*
X0013150Y0072751D01*
X0013071Y0072836D01*
X0012996Y0072924D01*
X0012924Y0073014D01*
X0012856Y0073107D01*
X0012790Y0073202D01*
X0012728Y0073299D01*
X0012669Y0073399D01*
X0012613Y0073500D01*
X0012561Y0073603D01*
X0012513Y0073708D01*
X0012468Y0073815D01*
X0012427Y0073923D01*
X0012390Y0074032D01*
X0012357Y0074143D01*
X0012327Y0074254D01*
X0012302Y0074367D01*
X0012280Y0074480D01*
X0012262Y0074594D01*
X0012248Y0074709D01*
X0012238Y0074824D01*
X0012232Y0074940D01*
X0012230Y0075055D01*
X0034278Y0075055D02*
X0034280Y0075170D01*
X0034286Y0075286D01*
X0034296Y0075401D01*
X0034310Y0075516D01*
X0034328Y0075630D01*
X0034350Y0075743D01*
X0034375Y0075856D01*
X0034405Y0075967D01*
X0034438Y0076078D01*
X0034475Y0076187D01*
X0034516Y0076295D01*
X0034561Y0076402D01*
X0034609Y0076507D01*
X0034661Y0076610D01*
X0034717Y0076711D01*
X0034776Y0076811D01*
X0034838Y0076908D01*
X0034904Y0077003D01*
X0034972Y0077096D01*
X0035044Y0077186D01*
X0035119Y0077274D01*
X0035198Y0077359D01*
X0035279Y0077441D01*
X0035362Y0077521D01*
X0035449Y0077597D01*
X0035538Y0077671D01*
X0035629Y0077741D01*
X0035723Y0077809D01*
X0035819Y0077873D01*
X0035918Y0077933D01*
X0036018Y0077990D01*
X0036120Y0078044D01*
X0036224Y0078094D01*
X0036330Y0078141D01*
X0036437Y0078184D01*
X0036546Y0078223D01*
X0036656Y0078258D01*
X0036767Y0078289D01*
X0036879Y0078317D01*
X0036992Y0078341D01*
X0037106Y0078361D01*
X0037221Y0078377D01*
X0037336Y0078389D01*
X0037451Y0078397D01*
X0037566Y0078401D01*
X0037682Y0078401D01*
X0037797Y0078397D01*
X0037912Y0078389D01*
X0038027Y0078377D01*
X0038142Y0078361D01*
X0038256Y0078341D01*
X0038369Y0078317D01*
X0038481Y0078289D01*
X0038592Y0078258D01*
X0038702Y0078223D01*
X0038811Y0078184D01*
X0038918Y0078141D01*
X0039024Y0078094D01*
X0039128Y0078044D01*
X0039230Y0077990D01*
X0039330Y0077933D01*
X0039429Y0077873D01*
X0039525Y0077809D01*
X0039619Y0077741D01*
X0039710Y0077671D01*
X0039799Y0077597D01*
X0039886Y0077521D01*
X0039969Y0077441D01*
X0040050Y0077359D01*
X0040129Y0077274D01*
X0040204Y0077186D01*
X0040276Y0077096D01*
X0040344Y0077003D01*
X0040410Y0076908D01*
X0040472Y0076811D01*
X0040531Y0076711D01*
X0040587Y0076610D01*
X0040639Y0076507D01*
X0040687Y0076402D01*
X0040732Y0076295D01*
X0040773Y0076187D01*
X0040810Y0076078D01*
X0040843Y0075967D01*
X0040873Y0075856D01*
X0040898Y0075743D01*
X0040920Y0075630D01*
X0040938Y0075516D01*
X0040952Y0075401D01*
X0040962Y0075286D01*
X0040968Y0075170D01*
X0040970Y0075055D01*
X0040968Y0074940D01*
X0040962Y0074824D01*
X0040952Y0074709D01*
X0040938Y0074594D01*
X0040920Y0074480D01*
X0040898Y0074367D01*
X0040873Y0074254D01*
X0040843Y0074143D01*
X0040810Y0074032D01*
X0040773Y0073923D01*
X0040732Y0073815D01*
X0040687Y0073708D01*
X0040639Y0073603D01*
X0040587Y0073500D01*
X0040531Y0073399D01*
X0040472Y0073299D01*
X0040410Y0073202D01*
X0040344Y0073107D01*
X0040276Y0073014D01*
X0040204Y0072924D01*
X0040129Y0072836D01*
X0040050Y0072751D01*
X0039969Y0072669D01*
X0039886Y0072589D01*
X0039799Y0072513D01*
X0039710Y0072439D01*
X0039619Y0072369D01*
X0039525Y0072301D01*
X0039429Y0072237D01*
X0039330Y0072177D01*
X0039230Y0072120D01*
X0039128Y0072066D01*
X0039024Y0072016D01*
X0038918Y0071969D01*
X0038811Y0071926D01*
X0038702Y0071887D01*
X0038592Y0071852D01*
X0038481Y0071821D01*
X0038369Y0071793D01*
X0038256Y0071769D01*
X0038142Y0071749D01*
X0038027Y0071733D01*
X0037912Y0071721D01*
X0037797Y0071713D01*
X0037682Y0071709D01*
X0037566Y0071709D01*
X0037451Y0071713D01*
X0037336Y0071721D01*
X0037221Y0071733D01*
X0037106Y0071749D01*
X0036992Y0071769D01*
X0036879Y0071793D01*
X0036767Y0071821D01*
X0036656Y0071852D01*
X0036546Y0071887D01*
X0036437Y0071926D01*
X0036330Y0071969D01*
X0036224Y0072016D01*
X0036120Y0072066D01*
X0036018Y0072120D01*
X0035918Y0072177D01*
X0035819Y0072237D01*
X0035723Y0072301D01*
X0035629Y0072369D01*
X0035538Y0072439D01*
X0035449Y0072513D01*
X0035362Y0072589D01*
X0035279Y0072669D01*
X0035198Y0072751D01*
X0035119Y0072836D01*
X0035044Y0072924D01*
X0034972Y0073014D01*
X0034904Y0073107D01*
X0034838Y0073202D01*
X0034776Y0073299D01*
X0034717Y0073399D01*
X0034661Y0073500D01*
X0034609Y0073603D01*
X0034561Y0073708D01*
X0034516Y0073815D01*
X0034475Y0073923D01*
X0034438Y0074032D01*
X0034405Y0074143D01*
X0034375Y0074254D01*
X0034350Y0074367D01*
X0034328Y0074480D01*
X0034310Y0074594D01*
X0034296Y0074709D01*
X0034286Y0074824D01*
X0034280Y0074940D01*
X0034278Y0075055D01*
D11*
X0035425Y0060502D02*
X0034975Y0060052D01*
X0034975Y0058250D01*
X0035425Y0057800D01*
X0036326Y0057800D01*
X0036777Y0058250D01*
X0036777Y0059151D01*
X0035876Y0059151D01*
X0036777Y0060052D02*
X0036326Y0060502D01*
X0035425Y0060502D01*
X0037922Y0060502D02*
X0037922Y0057800D01*
X0039723Y0057800D02*
X0037922Y0060502D01*
X0039723Y0060502D02*
X0039723Y0057800D01*
X0040868Y0057800D02*
X0042219Y0057800D01*
X0042670Y0058250D01*
X0042670Y0060052D01*
X0042219Y0060502D01*
X0040868Y0060502D01*
X0040868Y0057800D01*
X0047398Y0051785D02*
X0047398Y0050884D01*
X0047848Y0050434D01*
X0047848Y0049289D02*
X0047398Y0048839D01*
X0047398Y0047938D01*
X0047848Y0047487D01*
X0049650Y0047487D01*
X0050100Y0047938D01*
X0050100Y0048839D01*
X0049650Y0049289D01*
X0050100Y0050434D02*
X0048298Y0052236D01*
X0047848Y0052236D01*
X0047398Y0051785D01*
X0050100Y0052236D02*
X0050100Y0050434D01*
X0065600Y0033315D02*
X0065600Y0031964D01*
X0066501Y0032414D01*
X0066951Y0032414D01*
X0067402Y0031964D01*
X0067402Y0031063D01*
X0066951Y0030612D01*
X0066050Y0030612D01*
X0065600Y0031063D01*
X0065600Y0033315D02*
X0067402Y0033315D01*
X0066951Y0028315D02*
X0065600Y0026964D01*
X0067402Y0026964D01*
X0066951Y0028315D02*
X0066951Y0025612D01*
X0066951Y0023315D02*
X0066050Y0023315D01*
X0065600Y0022864D01*
X0066501Y0021964D02*
X0066951Y0021964D01*
X0067402Y0021513D01*
X0067402Y0021063D01*
X0066951Y0020613D01*
X0066050Y0020613D01*
X0065600Y0021063D01*
X0066951Y0021964D02*
X0067402Y0022414D01*
X0067402Y0022864D01*
X0066951Y0023315D01*
X0066951Y0018315D02*
X0066050Y0018315D01*
X0065600Y0017864D01*
X0066951Y0018315D02*
X0067402Y0017864D01*
X0067402Y0017414D01*
X0065600Y0015612D01*
X0067402Y0015612D01*
X0066501Y0013315D02*
X0066501Y0010613D01*
X0065600Y0010613D02*
X0067402Y0010613D01*
X0065600Y0012414D02*
X0066501Y0013315D01*
X0066203Y0007240D02*
X0066203Y0003737D01*
X0068539Y0003737D01*
X0069886Y0004321D02*
X0070470Y0003737D01*
X0071638Y0003737D01*
X0072222Y0004321D01*
X0072222Y0004905D01*
X0071638Y0005489D01*
X0070470Y0005489D01*
X0069886Y0006073D01*
X0069886Y0006657D01*
X0070470Y0007240D01*
X0071638Y0007240D01*
X0072222Y0006657D01*
X0068539Y0007240D02*
X0066203Y0007240D01*
X0066203Y0005489D02*
X0067371Y0005489D01*
X0064855Y0003737D02*
X0064855Y0007240D01*
X0062520Y0007240D02*
X0062520Y0003737D01*
X0061172Y0004321D02*
X0060588Y0003737D01*
X0059421Y0003737D01*
X0058837Y0004321D01*
X0059421Y0005489D02*
X0058837Y0006073D01*
X0058837Y0006657D01*
X0059421Y0007240D01*
X0060588Y0007240D01*
X0061172Y0006657D01*
X0060588Y0005489D02*
X0061172Y0004905D01*
X0061172Y0004321D01*
X0060588Y0005489D02*
X0059421Y0005489D01*
X0057489Y0005489D02*
X0055154Y0005489D01*
X0056905Y0007240D01*
X0056905Y0003737D01*
X0053806Y0003737D02*
X0053806Y0006073D01*
X0052638Y0007240D01*
X0051471Y0006073D01*
X0051471Y0003737D01*
X0050123Y0004321D02*
X0050123Y0006657D01*
X0049539Y0007240D01*
X0047787Y0007240D01*
X0047787Y0003737D01*
X0049539Y0003737D01*
X0050123Y0004321D01*
X0051471Y0005489D02*
X0053806Y0005489D01*
X0045348Y0009050D02*
X0043547Y0009050D01*
X0042402Y0009500D02*
X0041951Y0009050D01*
X0041050Y0009050D01*
X0040600Y0009500D01*
X0040600Y0011302D01*
X0041050Y0011752D01*
X0041951Y0011752D01*
X0042402Y0011302D01*
X0043547Y0010852D02*
X0044447Y0011752D01*
X0044447Y0009050D01*
X0062520Y0007240D02*
X0064855Y0003737D01*
X0017288Y0022625D02*
X0017288Y0023526D01*
X0016837Y0023977D01*
X0014585Y0023977D01*
X0015486Y0025122D02*
X0014585Y0026022D01*
X0017288Y0026022D01*
X0017288Y0025122D02*
X0017288Y0026923D01*
X0017288Y0022625D02*
X0016837Y0022175D01*
X0014585Y0022175D01*
X0008225Y0022934D02*
X0005523Y0022934D01*
X0008225Y0024736D01*
X0005523Y0024736D01*
X0005523Y0025881D02*
X0005523Y0027232D01*
X0005973Y0027682D01*
X0007775Y0027682D01*
X0008225Y0027232D01*
X0008225Y0025881D01*
X0005523Y0025881D01*
X0005973Y0021789D02*
X0005523Y0021339D01*
X0005523Y0020438D01*
X0005973Y0019988D01*
X0007775Y0019988D01*
X0008225Y0020438D01*
X0008225Y0021339D01*
X0007775Y0021789D01*
X0006874Y0021789D01*
X0006874Y0020888D01*
X0007714Y0012377D02*
X0007714Y0010576D01*
X0006813Y0009675D01*
X0005912Y0010576D01*
X0005912Y0012377D01*
X0008859Y0011026D02*
X0008859Y0010125D01*
X0009309Y0009675D01*
X0010661Y0009675D01*
X0011806Y0010125D02*
X0012256Y0009675D01*
X0013607Y0009675D01*
X0013607Y0011477D02*
X0012256Y0011477D01*
X0011806Y0011026D01*
X0011806Y0010125D01*
X0010661Y0011477D02*
X0009309Y0011477D01*
X0008859Y0011026D01*
X0009800Y0039050D02*
X0010701Y0039050D01*
X0011152Y0039500D01*
X0009800Y0039050D02*
X0009350Y0039500D01*
X0009350Y0041302D01*
X0009800Y0041752D01*
X0010701Y0041752D01*
X0011152Y0041302D01*
X0012297Y0041302D02*
X0012747Y0041752D01*
X0013648Y0041752D01*
X0014098Y0041302D01*
X0014098Y0040852D01*
X0013648Y0040401D01*
X0014098Y0039951D01*
X0014098Y0039500D01*
X0013648Y0039050D01*
X0012747Y0039050D01*
X0012297Y0039500D01*
X0013197Y0040401D02*
X0013648Y0040401D01*
X0014172Y0058112D02*
X0015072Y0058112D01*
X0014622Y0058112D02*
X0014622Y0059914D01*
X0014172Y0059914D01*
X0014622Y0060815D02*
X0014622Y0061265D01*
X0013027Y0060815D02*
X0013027Y0059013D01*
X0012126Y0058112D01*
X0011225Y0059013D01*
X0011225Y0060815D01*
X0016136Y0059914D02*
X0016136Y0058112D01*
X0016136Y0059914D02*
X0017487Y0059914D01*
X0017937Y0059464D01*
X0017937Y0058112D01*
X0022787Y0059013D02*
X0023688Y0058112D01*
X0024589Y0059013D01*
X0024589Y0060815D01*
X0025734Y0059464D02*
X0025734Y0058563D01*
X0026184Y0058112D01*
X0027536Y0058112D01*
X0028681Y0058563D02*
X0029131Y0058112D01*
X0030482Y0058112D01*
X0030482Y0059914D02*
X0029131Y0059914D01*
X0028681Y0059464D01*
X0028681Y0058563D01*
X0027536Y0059914D02*
X0026184Y0059914D01*
X0025734Y0059464D01*
X0022787Y0059013D02*
X0022787Y0060815D01*
D12*
X0025455Y0081100D02*
X0027657Y0081100D01*
X0029138Y0081100D02*
X0031340Y0081100D01*
X0032821Y0081650D02*
X0035023Y0084953D01*
X0036504Y0084953D02*
X0037605Y0083852D01*
X0037605Y0082751D01*
X0036504Y0081650D01*
X0038960Y0081100D02*
X0041162Y0081100D01*
X0024100Y0082751D02*
X0024100Y0083852D01*
X0022999Y0084953D01*
X0021518Y0084953D02*
X0019316Y0081650D01*
X0017835Y0081100D02*
X0015633Y0081100D01*
X0014152Y0081100D02*
X0011950Y0081100D01*
X0022999Y0081650D02*
X0024100Y0082751D01*
D13*
X0018952Y0035390D02*
X0018952Y0018460D01*
X0056748Y0018460D01*
X0056748Y0035390D01*
X0018952Y0035390D01*
X0021511Y0021807D02*
X0021513Y0021878D01*
X0021519Y0021949D01*
X0021529Y0022020D01*
X0021543Y0022089D01*
X0021560Y0022158D01*
X0021582Y0022226D01*
X0021607Y0022293D01*
X0021636Y0022358D01*
X0021668Y0022421D01*
X0021704Y0022483D01*
X0021743Y0022542D01*
X0021786Y0022599D01*
X0021831Y0022654D01*
X0021880Y0022706D01*
X0021931Y0022755D01*
X0021985Y0022801D01*
X0022042Y0022845D01*
X0022100Y0022885D01*
X0022161Y0022921D01*
X0022224Y0022955D01*
X0022289Y0022984D01*
X0022355Y0023010D01*
X0022423Y0023033D01*
X0022491Y0023051D01*
X0022561Y0023066D01*
X0022631Y0023077D01*
X0022702Y0023084D01*
X0022773Y0023087D01*
X0022844Y0023086D01*
X0022915Y0023081D01*
X0022986Y0023072D01*
X0023056Y0023059D01*
X0023125Y0023043D01*
X0023193Y0023022D01*
X0023260Y0022998D01*
X0023326Y0022970D01*
X0023389Y0022938D01*
X0023451Y0022903D01*
X0023511Y0022865D01*
X0023569Y0022823D01*
X0023624Y0022779D01*
X0023677Y0022731D01*
X0023727Y0022680D01*
X0023774Y0022627D01*
X0023818Y0022571D01*
X0023859Y0022513D01*
X0023897Y0022452D01*
X0023931Y0022390D01*
X0023961Y0022325D01*
X0023988Y0022260D01*
X0024012Y0022192D01*
X0024031Y0022124D01*
X0024047Y0022055D01*
X0024059Y0021984D01*
X0024067Y0021914D01*
X0024071Y0021843D01*
X0024071Y0021771D01*
X0024067Y0021700D01*
X0024059Y0021630D01*
X0024047Y0021559D01*
X0024031Y0021490D01*
X0024012Y0021422D01*
X0023988Y0021354D01*
X0023961Y0021289D01*
X0023931Y0021224D01*
X0023897Y0021162D01*
X0023859Y0021101D01*
X0023818Y0021043D01*
X0023774Y0020987D01*
X0023727Y0020934D01*
X0023677Y0020883D01*
X0023624Y0020835D01*
X0023569Y0020791D01*
X0023511Y0020749D01*
X0023451Y0020711D01*
X0023389Y0020676D01*
X0023326Y0020644D01*
X0023260Y0020616D01*
X0023193Y0020592D01*
X0023125Y0020571D01*
X0023056Y0020555D01*
X0022986Y0020542D01*
X0022915Y0020533D01*
X0022844Y0020528D01*
X0022773Y0020527D01*
X0022702Y0020530D01*
X0022631Y0020537D01*
X0022561Y0020548D01*
X0022491Y0020563D01*
X0022423Y0020581D01*
X0022355Y0020604D01*
X0022289Y0020630D01*
X0022224Y0020659D01*
X0022161Y0020693D01*
X0022100Y0020729D01*
X0022042Y0020769D01*
X0021985Y0020813D01*
X0021931Y0020859D01*
X0021880Y0020908D01*
X0021831Y0020960D01*
X0021786Y0021015D01*
X0021743Y0021072D01*
X0021704Y0021131D01*
X0021668Y0021193D01*
X0021636Y0021256D01*
X0021607Y0021321D01*
X0021582Y0021388D01*
X0021560Y0021456D01*
X0021543Y0021525D01*
X0021529Y0021594D01*
X0021519Y0021665D01*
X0021513Y0021736D01*
X0021511Y0021807D01*
D14*
X0013162Y0030675D02*
X0013162Y0033175D01*
X0010038Y0033175D02*
X0010038Y0030675D01*
X0032850Y0008488D02*
X0035350Y0008488D01*
X0035350Y0005363D02*
X0032850Y0005363D01*
X0043162Y0048175D02*
X0043162Y0050675D01*
X0046287Y0050675D02*
X0046287Y0048175D01*
M02*
