G75*
%MOIN*%
%OFA0B0*%
%FSLAX25Y25*%
%IPPOS*%
%LPD*%
%AMOC8*
5,1,8,0,0,1.08239X$1,22.5*
%
%ADD10C,0.00000*%
%ADD11R,0.05150X0.05150*%
%ADD12C,0.05150*%
%ADD13C,0.06496*%
%ADD14C,0.01200*%
%ADD15C,0.21654*%
%ADD16C,0.02775*%
%ADD17C,0.03200*%
%ADD18C,0.01600*%
%ADD19C,0.00800*%
D10*
X0004100Y0003487D02*
X0005350Y0002238D01*
X0076913Y0002238D01*
X0078163Y0003487D01*
X0078163Y0060675D01*
X0076913Y0061925D01*
X0050350Y0061925D01*
X0049100Y0063175D01*
X0049100Y0061925D01*
X0049100Y0063175D02*
X0049100Y0084425D01*
X0047850Y0085675D01*
X0005350Y0085675D01*
X0004100Y0084425D01*
X0004100Y0003487D01*
X0012230Y0072555D02*
X0012232Y0072670D01*
X0012238Y0072786D01*
X0012248Y0072901D01*
X0012262Y0073016D01*
X0012280Y0073130D01*
X0012302Y0073243D01*
X0012327Y0073356D01*
X0012357Y0073467D01*
X0012390Y0073578D01*
X0012427Y0073687D01*
X0012468Y0073795D01*
X0012513Y0073902D01*
X0012561Y0074007D01*
X0012613Y0074110D01*
X0012669Y0074211D01*
X0012728Y0074311D01*
X0012790Y0074408D01*
X0012856Y0074503D01*
X0012924Y0074596D01*
X0012996Y0074686D01*
X0013071Y0074774D01*
X0013150Y0074859D01*
X0013231Y0074941D01*
X0013314Y0075021D01*
X0013401Y0075097D01*
X0013490Y0075171D01*
X0013581Y0075241D01*
X0013675Y0075309D01*
X0013771Y0075373D01*
X0013870Y0075433D01*
X0013970Y0075490D01*
X0014072Y0075544D01*
X0014176Y0075594D01*
X0014282Y0075641D01*
X0014389Y0075684D01*
X0014498Y0075723D01*
X0014608Y0075758D01*
X0014719Y0075789D01*
X0014831Y0075817D01*
X0014944Y0075841D01*
X0015058Y0075861D01*
X0015173Y0075877D01*
X0015288Y0075889D01*
X0015403Y0075897D01*
X0015518Y0075901D01*
X0015634Y0075901D01*
X0015749Y0075897D01*
X0015864Y0075889D01*
X0015979Y0075877D01*
X0016094Y0075861D01*
X0016208Y0075841D01*
X0016321Y0075817D01*
X0016433Y0075789D01*
X0016544Y0075758D01*
X0016654Y0075723D01*
X0016763Y0075684D01*
X0016870Y0075641D01*
X0016976Y0075594D01*
X0017080Y0075544D01*
X0017182Y0075490D01*
X0017282Y0075433D01*
X0017381Y0075373D01*
X0017477Y0075309D01*
X0017571Y0075241D01*
X0017662Y0075171D01*
X0017751Y0075097D01*
X0017838Y0075021D01*
X0017921Y0074941D01*
X0018002Y0074859D01*
X0018081Y0074774D01*
X0018156Y0074686D01*
X0018228Y0074596D01*
X0018296Y0074503D01*
X0018362Y0074408D01*
X0018424Y0074311D01*
X0018483Y0074211D01*
X0018539Y0074110D01*
X0018591Y0074007D01*
X0018639Y0073902D01*
X0018684Y0073795D01*
X0018725Y0073687D01*
X0018762Y0073578D01*
X0018795Y0073467D01*
X0018825Y0073356D01*
X0018850Y0073243D01*
X0018872Y0073130D01*
X0018890Y0073016D01*
X0018904Y0072901D01*
X0018914Y0072786D01*
X0018920Y0072670D01*
X0018922Y0072555D01*
X0018920Y0072440D01*
X0018914Y0072324D01*
X0018904Y0072209D01*
X0018890Y0072094D01*
X0018872Y0071980D01*
X0018850Y0071867D01*
X0018825Y0071754D01*
X0018795Y0071643D01*
X0018762Y0071532D01*
X0018725Y0071423D01*
X0018684Y0071315D01*
X0018639Y0071208D01*
X0018591Y0071103D01*
X0018539Y0071000D01*
X0018483Y0070899D01*
X0018424Y0070799D01*
X0018362Y0070702D01*
X0018296Y0070607D01*
X0018228Y0070514D01*
X0018156Y0070424D01*
X0018081Y0070336D01*
X0018002Y0070251D01*
X0017921Y0070169D01*
X0017838Y0070089D01*
X0017751Y0070013D01*
X0017662Y0069939D01*
X0017571Y0069869D01*
X0017477Y0069801D01*
X0017381Y0069737D01*
X0017282Y0069677D01*
X0017182Y0069620D01*
X0017080Y0069566D01*
X0016976Y0069516D01*
X0016870Y0069469D01*
X0016763Y0069426D01*
X0016654Y0069387D01*
X0016544Y0069352D01*
X0016433Y0069321D01*
X0016321Y0069293D01*
X0016208Y0069269D01*
X0016094Y0069249D01*
X0015979Y0069233D01*
X0015864Y0069221D01*
X0015749Y0069213D01*
X0015634Y0069209D01*
X0015518Y0069209D01*
X0015403Y0069213D01*
X0015288Y0069221D01*
X0015173Y0069233D01*
X0015058Y0069249D01*
X0014944Y0069269D01*
X0014831Y0069293D01*
X0014719Y0069321D01*
X0014608Y0069352D01*
X0014498Y0069387D01*
X0014389Y0069426D01*
X0014282Y0069469D01*
X0014176Y0069516D01*
X0014072Y0069566D01*
X0013970Y0069620D01*
X0013870Y0069677D01*
X0013771Y0069737D01*
X0013675Y0069801D01*
X0013581Y0069869D01*
X0013490Y0069939D01*
X0013401Y0070013D01*
X0013314Y0070089D01*
X0013231Y0070169D01*
X0013150Y0070251D01*
X0013071Y0070336D01*
X0012996Y0070424D01*
X0012924Y0070514D01*
X0012856Y0070607D01*
X0012790Y0070702D01*
X0012728Y0070799D01*
X0012669Y0070899D01*
X0012613Y0071000D01*
X0012561Y0071103D01*
X0012513Y0071208D01*
X0012468Y0071315D01*
X0012427Y0071423D01*
X0012390Y0071532D01*
X0012357Y0071643D01*
X0012327Y0071754D01*
X0012302Y0071867D01*
X0012280Y0071980D01*
X0012262Y0072094D01*
X0012248Y0072209D01*
X0012238Y0072324D01*
X0012232Y0072440D01*
X0012230Y0072555D01*
X0034278Y0072555D02*
X0034280Y0072670D01*
X0034286Y0072786D01*
X0034296Y0072901D01*
X0034310Y0073016D01*
X0034328Y0073130D01*
X0034350Y0073243D01*
X0034375Y0073356D01*
X0034405Y0073467D01*
X0034438Y0073578D01*
X0034475Y0073687D01*
X0034516Y0073795D01*
X0034561Y0073902D01*
X0034609Y0074007D01*
X0034661Y0074110D01*
X0034717Y0074211D01*
X0034776Y0074311D01*
X0034838Y0074408D01*
X0034904Y0074503D01*
X0034972Y0074596D01*
X0035044Y0074686D01*
X0035119Y0074774D01*
X0035198Y0074859D01*
X0035279Y0074941D01*
X0035362Y0075021D01*
X0035449Y0075097D01*
X0035538Y0075171D01*
X0035629Y0075241D01*
X0035723Y0075309D01*
X0035819Y0075373D01*
X0035918Y0075433D01*
X0036018Y0075490D01*
X0036120Y0075544D01*
X0036224Y0075594D01*
X0036330Y0075641D01*
X0036437Y0075684D01*
X0036546Y0075723D01*
X0036656Y0075758D01*
X0036767Y0075789D01*
X0036879Y0075817D01*
X0036992Y0075841D01*
X0037106Y0075861D01*
X0037221Y0075877D01*
X0037336Y0075889D01*
X0037451Y0075897D01*
X0037566Y0075901D01*
X0037682Y0075901D01*
X0037797Y0075897D01*
X0037912Y0075889D01*
X0038027Y0075877D01*
X0038142Y0075861D01*
X0038256Y0075841D01*
X0038369Y0075817D01*
X0038481Y0075789D01*
X0038592Y0075758D01*
X0038702Y0075723D01*
X0038811Y0075684D01*
X0038918Y0075641D01*
X0039024Y0075594D01*
X0039128Y0075544D01*
X0039230Y0075490D01*
X0039330Y0075433D01*
X0039429Y0075373D01*
X0039525Y0075309D01*
X0039619Y0075241D01*
X0039710Y0075171D01*
X0039799Y0075097D01*
X0039886Y0075021D01*
X0039969Y0074941D01*
X0040050Y0074859D01*
X0040129Y0074774D01*
X0040204Y0074686D01*
X0040276Y0074596D01*
X0040344Y0074503D01*
X0040410Y0074408D01*
X0040472Y0074311D01*
X0040531Y0074211D01*
X0040587Y0074110D01*
X0040639Y0074007D01*
X0040687Y0073902D01*
X0040732Y0073795D01*
X0040773Y0073687D01*
X0040810Y0073578D01*
X0040843Y0073467D01*
X0040873Y0073356D01*
X0040898Y0073243D01*
X0040920Y0073130D01*
X0040938Y0073016D01*
X0040952Y0072901D01*
X0040962Y0072786D01*
X0040968Y0072670D01*
X0040970Y0072555D01*
X0040968Y0072440D01*
X0040962Y0072324D01*
X0040952Y0072209D01*
X0040938Y0072094D01*
X0040920Y0071980D01*
X0040898Y0071867D01*
X0040873Y0071754D01*
X0040843Y0071643D01*
X0040810Y0071532D01*
X0040773Y0071423D01*
X0040732Y0071315D01*
X0040687Y0071208D01*
X0040639Y0071103D01*
X0040587Y0071000D01*
X0040531Y0070899D01*
X0040472Y0070799D01*
X0040410Y0070702D01*
X0040344Y0070607D01*
X0040276Y0070514D01*
X0040204Y0070424D01*
X0040129Y0070336D01*
X0040050Y0070251D01*
X0039969Y0070169D01*
X0039886Y0070089D01*
X0039799Y0070013D01*
X0039710Y0069939D01*
X0039619Y0069869D01*
X0039525Y0069801D01*
X0039429Y0069737D01*
X0039330Y0069677D01*
X0039230Y0069620D01*
X0039128Y0069566D01*
X0039024Y0069516D01*
X0038918Y0069469D01*
X0038811Y0069426D01*
X0038702Y0069387D01*
X0038592Y0069352D01*
X0038481Y0069321D01*
X0038369Y0069293D01*
X0038256Y0069269D01*
X0038142Y0069249D01*
X0038027Y0069233D01*
X0037912Y0069221D01*
X0037797Y0069213D01*
X0037682Y0069209D01*
X0037566Y0069209D01*
X0037451Y0069213D01*
X0037336Y0069221D01*
X0037221Y0069233D01*
X0037106Y0069249D01*
X0036992Y0069269D01*
X0036879Y0069293D01*
X0036767Y0069321D01*
X0036656Y0069352D01*
X0036546Y0069387D01*
X0036437Y0069426D01*
X0036330Y0069469D01*
X0036224Y0069516D01*
X0036120Y0069566D01*
X0036018Y0069620D01*
X0035918Y0069677D01*
X0035819Y0069737D01*
X0035723Y0069801D01*
X0035629Y0069869D01*
X0035538Y0069939D01*
X0035449Y0070013D01*
X0035362Y0070089D01*
X0035279Y0070169D01*
X0035198Y0070251D01*
X0035119Y0070336D01*
X0035044Y0070424D01*
X0034972Y0070514D01*
X0034904Y0070607D01*
X0034838Y0070702D01*
X0034776Y0070799D01*
X0034717Y0070899D01*
X0034661Y0071000D01*
X0034609Y0071103D01*
X0034561Y0071208D01*
X0034516Y0071315D01*
X0034475Y0071423D01*
X0034438Y0071532D01*
X0034405Y0071643D01*
X0034375Y0071754D01*
X0034350Y0071867D01*
X0034328Y0071980D01*
X0034310Y0072094D01*
X0034296Y0072209D01*
X0034286Y0072324D01*
X0034280Y0072440D01*
X0034278Y0072555D01*
D11*
X0016600Y0051925D03*
D12*
X0026600Y0051925D03*
X0036600Y0051925D03*
D13*
X0036600Y0062279D03*
X0016600Y0062279D03*
D14*
X0019724Y0065446D02*
X0033476Y0065446D01*
X0034080Y0066050D02*
X0032829Y0064799D01*
X0032152Y0063164D01*
X0032152Y0061395D01*
X0032829Y0059760D01*
X0034080Y0058508D01*
X0035715Y0057831D01*
X0037485Y0057831D01*
X0039120Y0058508D01*
X0040371Y0059760D01*
X0041048Y0061395D01*
X0041048Y0063164D01*
X0040371Y0064799D01*
X0039120Y0066050D01*
X0037485Y0066727D01*
X0035715Y0066727D01*
X0034080Y0066050D01*
X0035515Y0066645D02*
X0017685Y0066645D01*
X0017485Y0066727D02*
X0015715Y0066727D01*
X0014080Y0066050D01*
X0012829Y0064799D01*
X0012152Y0063164D01*
X0012152Y0061395D01*
X0012829Y0059760D01*
X0014080Y0058508D01*
X0015715Y0057831D01*
X0017485Y0057831D01*
X0019120Y0058508D01*
X0020371Y0059760D01*
X0021048Y0061395D01*
X0021048Y0063164D01*
X0020371Y0064799D01*
X0019120Y0066050D01*
X0017485Y0066727D01*
X0017127Y0067843D02*
X0036073Y0067843D01*
X0036640Y0067608D02*
X0034822Y0068362D01*
X0033430Y0069753D01*
X0032677Y0071571D01*
X0032677Y0073539D01*
X0033430Y0075357D01*
X0034822Y0076748D01*
X0036640Y0077501D01*
X0038608Y0077501D01*
X0040426Y0076748D01*
X0041817Y0075357D01*
X0042570Y0073539D01*
X0042570Y0071571D01*
X0041817Y0069753D01*
X0040426Y0068362D01*
X0038608Y0067608D01*
X0036640Y0067608D01*
X0037685Y0066645D02*
X0047500Y0066645D01*
X0047500Y0067843D02*
X0039174Y0067843D01*
X0041106Y0069042D02*
X0047500Y0069042D01*
X0047500Y0070240D02*
X0042019Y0070240D01*
X0042515Y0071439D02*
X0047500Y0071439D01*
X0047500Y0072637D02*
X0042570Y0072637D01*
X0042447Y0073836D02*
X0047500Y0073836D01*
X0047500Y0075034D02*
X0041951Y0075034D01*
X0040941Y0076233D02*
X0047500Y0076233D01*
X0047500Y0077431D02*
X0038777Y0077431D01*
X0036470Y0077431D02*
X0016730Y0077431D01*
X0016560Y0077501D02*
X0014592Y0077501D01*
X0012774Y0076748D01*
X0011383Y0075357D01*
X0010630Y0073539D01*
X0010630Y0071571D01*
X0011383Y0069753D01*
X0012774Y0068362D01*
X0014592Y0067608D01*
X0016560Y0067608D01*
X0018378Y0068362D01*
X0019770Y0069753D01*
X0020523Y0071571D01*
X0020523Y0073539D01*
X0019770Y0075357D01*
X0018378Y0076748D01*
X0016560Y0077501D01*
X0014423Y0077431D02*
X0005700Y0077431D01*
X0005700Y0078630D02*
X0047500Y0078630D01*
X0047500Y0079828D02*
X0005700Y0079828D01*
X0005700Y0081027D02*
X0047500Y0081027D01*
X0047500Y0082225D02*
X0005700Y0082225D01*
X0005700Y0083424D02*
X0047500Y0083424D01*
X0047500Y0083762D02*
X0047500Y0061262D01*
X0048437Y0060325D01*
X0076250Y0060325D01*
X0076563Y0060012D01*
X0076563Y0004150D01*
X0076250Y0003837D01*
X0006013Y0003837D01*
X0005700Y0004150D01*
X0005700Y0083762D01*
X0006013Y0084075D01*
X0047187Y0084075D01*
X0047500Y0083762D01*
X0034306Y0076233D02*
X0018894Y0076233D01*
X0019903Y0075034D02*
X0033297Y0075034D01*
X0032800Y0073836D02*
X0020400Y0073836D01*
X0020523Y0072637D02*
X0032677Y0072637D01*
X0032732Y0071439D02*
X0020468Y0071439D01*
X0019972Y0070240D02*
X0033228Y0070240D01*
X0034142Y0069042D02*
X0019058Y0069042D01*
X0015515Y0066645D02*
X0005700Y0066645D01*
X0005700Y0067843D02*
X0014026Y0067843D01*
X0012094Y0069042D02*
X0005700Y0069042D01*
X0005700Y0070240D02*
X0011181Y0070240D01*
X0010685Y0071439D02*
X0005700Y0071439D01*
X0005700Y0072637D02*
X0010630Y0072637D01*
X0010753Y0073836D02*
X0005700Y0073836D01*
X0005700Y0075034D02*
X0011249Y0075034D01*
X0012259Y0076233D02*
X0005700Y0076233D01*
X0005700Y0065446D02*
X0013476Y0065446D01*
X0012601Y0064248D02*
X0005700Y0064248D01*
X0005700Y0063049D02*
X0012152Y0063049D01*
X0012152Y0061851D02*
X0005700Y0061851D01*
X0005700Y0060652D02*
X0012460Y0060652D01*
X0013135Y0059454D02*
X0005700Y0059454D01*
X0005700Y0058255D02*
X0014692Y0058255D01*
X0013528Y0055700D02*
X0012825Y0054997D01*
X0012825Y0048853D01*
X0013528Y0048150D01*
X0019672Y0048150D01*
X0020375Y0048853D01*
X0020375Y0054997D01*
X0019672Y0055700D01*
X0013528Y0055700D01*
X0012825Y0054659D02*
X0005700Y0054659D01*
X0005700Y0053461D02*
X0012825Y0053461D01*
X0012825Y0052262D02*
X0005700Y0052262D01*
X0005700Y0051064D02*
X0012825Y0051064D01*
X0012825Y0049865D02*
X0005700Y0049865D01*
X0005700Y0048667D02*
X0013011Y0048667D01*
X0020189Y0048667D02*
X0024602Y0048667D01*
X0024462Y0048725D02*
X0025849Y0048150D01*
X0027351Y0048150D01*
X0028738Y0048725D01*
X0029800Y0049787D01*
X0030375Y0051174D01*
X0030375Y0052676D01*
X0029800Y0054063D01*
X0028738Y0055125D01*
X0027351Y0055700D01*
X0025849Y0055700D01*
X0024462Y0055125D01*
X0023400Y0054063D01*
X0022825Y0052676D01*
X0022825Y0051174D01*
X0023400Y0049787D01*
X0024462Y0048725D01*
X0023367Y0049865D02*
X0020375Y0049865D01*
X0020375Y0051064D02*
X0022871Y0051064D01*
X0022825Y0052262D02*
X0020375Y0052262D01*
X0020375Y0053461D02*
X0023150Y0053461D01*
X0023996Y0054659D02*
X0020375Y0054659D01*
X0018508Y0058255D02*
X0034692Y0058255D01*
X0033135Y0059454D02*
X0020065Y0059454D01*
X0020740Y0060652D02*
X0032460Y0060652D01*
X0032152Y0061851D02*
X0021048Y0061851D01*
X0021048Y0063049D02*
X0032152Y0063049D01*
X0032601Y0064248D02*
X0020599Y0064248D01*
X0029204Y0054659D02*
X0033430Y0054659D01*
X0033416Y0054645D02*
X0033029Y0054113D01*
X0032731Y0053528D01*
X0032528Y0052903D01*
X0032425Y0052254D01*
X0032425Y0052112D01*
X0036413Y0052112D01*
X0036413Y0051738D01*
X0036787Y0051738D01*
X0036787Y0047750D01*
X0036929Y0047750D01*
X0037578Y0047853D01*
X0038203Y0048056D01*
X0038788Y0048354D01*
X0039320Y0048741D01*
X0039784Y0049205D01*
X0040171Y0049737D01*
X0040469Y0050322D01*
X0040672Y0050947D01*
X0040775Y0051596D01*
X0040775Y0051738D01*
X0036787Y0051738D01*
X0036787Y0052112D01*
X0040775Y0052112D01*
X0040775Y0052254D01*
X0040672Y0052903D01*
X0040469Y0053528D01*
X0040171Y0054113D01*
X0039784Y0054645D01*
X0039320Y0055109D01*
X0038788Y0055496D01*
X0038203Y0055794D01*
X0037578Y0055997D01*
X0036929Y0056100D01*
X0036787Y0056100D01*
X0036787Y0052112D01*
X0036413Y0052112D01*
X0036413Y0056100D01*
X0036271Y0056100D01*
X0035622Y0055997D01*
X0034997Y0055794D01*
X0034412Y0055496D01*
X0033880Y0055109D01*
X0033416Y0054645D01*
X0032709Y0053461D02*
X0030050Y0053461D01*
X0030375Y0052262D02*
X0032427Y0052262D01*
X0032425Y0051738D02*
X0032425Y0051596D01*
X0032528Y0050947D01*
X0032731Y0050322D01*
X0033029Y0049737D01*
X0033416Y0049205D01*
X0033880Y0048741D01*
X0034412Y0048354D01*
X0034997Y0048056D01*
X0035622Y0047853D01*
X0036271Y0047750D01*
X0036413Y0047750D01*
X0036413Y0051738D01*
X0032425Y0051738D01*
X0032510Y0051064D02*
X0030329Y0051064D01*
X0029833Y0049865D02*
X0032964Y0049865D01*
X0033982Y0048667D02*
X0028598Y0048667D01*
X0035195Y0055858D02*
X0005700Y0055858D01*
X0005700Y0057057D02*
X0076563Y0057057D01*
X0076563Y0058255D02*
X0038508Y0058255D01*
X0040065Y0059454D02*
X0076563Y0059454D01*
X0076563Y0055858D02*
X0038005Y0055858D01*
X0036787Y0055858D02*
X0036413Y0055858D01*
X0036413Y0054659D02*
X0036787Y0054659D01*
X0036787Y0053461D02*
X0036413Y0053461D01*
X0036413Y0052262D02*
X0036787Y0052262D01*
X0036787Y0051064D02*
X0036413Y0051064D01*
X0036413Y0049865D02*
X0036787Y0049865D01*
X0036787Y0048667D02*
X0036413Y0048667D01*
X0039218Y0048667D02*
X0076563Y0048667D01*
X0076563Y0047468D02*
X0005700Y0047468D01*
X0005700Y0046270D02*
X0076563Y0046270D01*
X0076563Y0045071D02*
X0005700Y0045071D01*
X0005700Y0043873D02*
X0076563Y0043873D01*
X0076563Y0042674D02*
X0005700Y0042674D01*
X0005700Y0041476D02*
X0076563Y0041476D01*
X0076563Y0040277D02*
X0005700Y0040277D01*
X0005700Y0039079D02*
X0076563Y0039079D01*
X0076563Y0037880D02*
X0005700Y0037880D01*
X0005700Y0036682D02*
X0076563Y0036682D01*
X0076563Y0035483D02*
X0005700Y0035483D01*
X0005700Y0034285D02*
X0052318Y0034285D01*
X0052290Y0034257D02*
X0051896Y0033306D01*
X0051896Y0032276D01*
X0052290Y0031325D01*
X0053018Y0030598D01*
X0053969Y0030204D01*
X0054809Y0030204D01*
X0060312Y0024700D01*
X0060312Y0013984D01*
X0059719Y0013391D01*
X0059325Y0012440D01*
X0059325Y0011410D01*
X0059719Y0010459D01*
X0060447Y0009732D01*
X0061398Y0009338D01*
X0062427Y0009338D01*
X0063378Y0009732D01*
X0064106Y0010459D01*
X0064500Y0011410D01*
X0064500Y0012440D01*
X0064106Y0013391D01*
X0063512Y0013984D01*
X0063512Y0026025D01*
X0057071Y0032466D01*
X0057071Y0033306D01*
X0056677Y0034257D01*
X0055949Y0034985D01*
X0054999Y0035379D01*
X0053969Y0035379D01*
X0053018Y0034985D01*
X0052290Y0034257D01*
X0051896Y0033086D02*
X0005700Y0033086D01*
X0005700Y0031888D02*
X0020401Y0031888D01*
X0020701Y0032012D02*
X0019750Y0031618D01*
X0019023Y0030891D01*
X0018629Y0029940D01*
X0018629Y0028910D01*
X0019023Y0027959D01*
X0019216Y0027766D01*
X0019216Y0014245D01*
X0014912Y0009941D01*
X0014912Y0007347D01*
X0016084Y0006175D01*
X0016709Y0005550D01*
X0024928Y0005550D01*
X0026100Y0006722D01*
X0026491Y0007112D01*
X0039834Y0007112D01*
X0040263Y0006684D01*
X0040263Y0006410D01*
X0040657Y0005459D01*
X0041384Y0004732D01*
X0042335Y0004338D01*
X0043365Y0004338D01*
X0044316Y0004732D01*
X0045043Y0005459D01*
X0045437Y0006410D01*
X0045437Y0007440D01*
X0045043Y0008391D01*
X0044316Y0009118D01*
X0043365Y0009512D01*
X0043091Y0009512D01*
X0042662Y0009941D01*
X0041491Y0011112D01*
X0026491Y0011112D01*
X0023287Y0014316D01*
X0023216Y0014387D01*
X0023216Y0027766D01*
X0023410Y0027959D01*
X0023804Y0028910D01*
X0023804Y0029940D01*
X0023410Y0030891D01*
X0022682Y0031618D01*
X0021731Y0032012D01*
X0020701Y0032012D01*
X0022032Y0031888D02*
X0052057Y0031888D01*
X0052927Y0030689D02*
X0023493Y0030689D01*
X0023804Y0029491D02*
X0055521Y0029491D01*
X0056720Y0028292D02*
X0023548Y0028292D01*
X0023216Y0027094D02*
X0057919Y0027094D01*
X0059117Y0025895D02*
X0023216Y0025895D01*
X0023216Y0024697D02*
X0060312Y0024697D01*
X0060312Y0023498D02*
X0023216Y0023498D01*
X0023216Y0022300D02*
X0060312Y0022300D01*
X0060312Y0021101D02*
X0023216Y0021101D01*
X0023216Y0019903D02*
X0060312Y0019903D01*
X0060312Y0018704D02*
X0023216Y0018704D01*
X0023216Y0017506D02*
X0060312Y0017506D01*
X0060312Y0016307D02*
X0023216Y0016307D01*
X0023216Y0015109D02*
X0060312Y0015109D01*
X0060238Y0013910D02*
X0023693Y0013910D01*
X0023287Y0014316D02*
X0023287Y0014316D01*
X0024892Y0012712D02*
X0059438Y0012712D01*
X0059325Y0011513D02*
X0026090Y0011513D01*
X0026100Y0006722D02*
X0026100Y0006722D01*
X0026097Y0006719D02*
X0040228Y0006719D01*
X0040631Y0005521D02*
X0005700Y0005521D01*
X0005700Y0006719D02*
X0015540Y0006719D01*
X0014912Y0007918D02*
X0005700Y0007918D01*
X0005700Y0009116D02*
X0014912Y0009116D01*
X0015286Y0010315D02*
X0005700Y0010315D01*
X0005700Y0011513D02*
X0016485Y0011513D01*
X0017683Y0012712D02*
X0005700Y0012712D01*
X0005700Y0013910D02*
X0018882Y0013910D01*
X0019216Y0015109D02*
X0005700Y0015109D01*
X0005700Y0016307D02*
X0019216Y0016307D01*
X0019216Y0017506D02*
X0005700Y0017506D01*
X0005700Y0018704D02*
X0019216Y0018704D01*
X0019216Y0019903D02*
X0005700Y0019903D01*
X0005700Y0021101D02*
X0019216Y0021101D01*
X0019216Y0022300D02*
X0005700Y0022300D01*
X0005700Y0023498D02*
X0019216Y0023498D01*
X0019216Y0024697D02*
X0005700Y0024697D01*
X0005700Y0025895D02*
X0019216Y0025895D01*
X0019216Y0027094D02*
X0005700Y0027094D01*
X0005700Y0028292D02*
X0018885Y0028292D01*
X0018629Y0029491D02*
X0005700Y0029491D01*
X0005700Y0030689D02*
X0018939Y0030689D01*
X0040236Y0049865D02*
X0076563Y0049865D01*
X0076563Y0051064D02*
X0040690Y0051064D01*
X0040773Y0052262D02*
X0076563Y0052262D01*
X0076563Y0053461D02*
X0040491Y0053461D01*
X0039770Y0054659D02*
X0076563Y0054659D01*
X0076563Y0034285D02*
X0056649Y0034285D01*
X0057071Y0033086D02*
X0076563Y0033086D01*
X0076563Y0031888D02*
X0057650Y0031888D01*
X0058848Y0030689D02*
X0076563Y0030689D01*
X0076563Y0029491D02*
X0060047Y0029491D01*
X0061245Y0028292D02*
X0076563Y0028292D01*
X0076563Y0027094D02*
X0062444Y0027094D01*
X0063512Y0025895D02*
X0076563Y0025895D01*
X0076563Y0024697D02*
X0063512Y0024697D01*
X0063512Y0023498D02*
X0076563Y0023498D01*
X0076563Y0022300D02*
X0063512Y0022300D01*
X0063512Y0021101D02*
X0076563Y0021101D01*
X0076563Y0019903D02*
X0063512Y0019903D01*
X0063512Y0018704D02*
X0076563Y0018704D01*
X0076563Y0017506D02*
X0063512Y0017506D01*
X0063512Y0016307D02*
X0076563Y0016307D01*
X0076563Y0015109D02*
X0063512Y0015109D01*
X0063587Y0013910D02*
X0076563Y0013910D01*
X0076563Y0012712D02*
X0064387Y0012712D01*
X0064500Y0011513D02*
X0076563Y0011513D01*
X0076563Y0010315D02*
X0063961Y0010315D01*
X0059864Y0010315D02*
X0042289Y0010315D01*
X0044318Y0009116D02*
X0076563Y0009116D01*
X0076563Y0007918D02*
X0045239Y0007918D01*
X0045437Y0006719D02*
X0076563Y0006719D01*
X0076563Y0005521D02*
X0045069Y0005521D01*
X0076563Y0004322D02*
X0005700Y0004322D01*
X0040740Y0060652D02*
X0048110Y0060652D01*
X0047500Y0061851D02*
X0041048Y0061851D01*
X0041048Y0063049D02*
X0047500Y0063049D01*
X0047500Y0064248D02*
X0040599Y0064248D01*
X0039724Y0065446D02*
X0047500Y0065446D01*
D15*
X0066167Y0047555D03*
D16*
X0054484Y0032791D03*
X0047850Y0029112D03*
X0039100Y0020675D03*
X0027850Y0020675D03*
X0021216Y0029425D03*
X0017850Y0038175D03*
X0009100Y0049425D03*
X0012225Y0021300D03*
X0017850Y0008488D03*
X0022850Y0008488D03*
X0025975Y0005050D03*
X0042850Y0006925D03*
X0061912Y0011925D03*
D17*
X0022850Y0008488D02*
X0020975Y0008488D01*
X0017850Y0008488D01*
D18*
X0016913Y0008175D02*
X0017538Y0007550D01*
X0024100Y0007550D01*
X0025662Y0009113D01*
X0021288Y0013487D01*
X0016913Y0009113D01*
X0016913Y0008175D01*
X0016913Y0008319D02*
X0024869Y0008319D01*
X0023475Y0009113D02*
X0040663Y0009113D01*
X0042850Y0006925D01*
X0024857Y0009918D02*
X0017718Y0009918D01*
X0019316Y0011516D02*
X0023259Y0011516D01*
X0021660Y0013115D02*
X0020915Y0013115D01*
X0023475Y0009113D02*
X0022850Y0008488D01*
X0021216Y0008729D02*
X0021216Y0029425D01*
X0021216Y0008729D02*
X0020975Y0008488D01*
D19*
X0054484Y0032791D02*
X0061912Y0025362D01*
X0061912Y0011925D01*
M02*
