G75*
%MOIN*%
%OFA0B0*%
%FSLAX25Y25*%
%IPPOS*%
%LPD*%
%AMOC8*
5,1,8,0,0,1.08239X$1,22.5*
%
%ADD10C,0.00500*%
%ADD11C,0.00600*%
%ADD12C,0.00000*%
D10*
X0017648Y0029675D02*
X0019983Y0029675D01*
X0017648Y0032010D01*
X0017648Y0032594D01*
X0018231Y0033178D01*
X0019399Y0033178D01*
X0019983Y0032594D01*
X0021331Y0033178D02*
X0023666Y0033178D01*
X0023666Y0031426D01*
X0022498Y0032010D01*
X0021915Y0032010D01*
X0021331Y0031426D01*
X0021331Y0030259D01*
X0021915Y0029675D01*
X0023082Y0029675D01*
X0023666Y0030259D01*
X0024894Y0029675D02*
X0024894Y0033178D01*
X0024894Y0035675D02*
X0024894Y0039178D01*
X0023666Y0039178D02*
X0021331Y0039178D01*
X0021331Y0038594D01*
X0023666Y0036259D01*
X0023666Y0035675D01*
X0026242Y0035675D02*
X0028577Y0035675D01*
X0026242Y0038010D01*
X0026242Y0038594D01*
X0026825Y0039178D01*
X0027993Y0039178D01*
X0028577Y0038594D01*
X0029925Y0037426D02*
X0032260Y0037426D01*
X0030509Y0039178D01*
X0030509Y0035675D01*
X0030509Y0033178D02*
X0031676Y0033178D01*
X0032260Y0032594D01*
X0032260Y0032010D01*
X0031676Y0031426D01*
X0029925Y0031426D01*
X0029925Y0030259D02*
X0029925Y0032594D01*
X0030509Y0033178D01*
X0028577Y0032594D02*
X0027993Y0033178D01*
X0026825Y0033178D01*
X0026242Y0032594D01*
X0026242Y0032010D01*
X0028577Y0029675D01*
X0026242Y0029675D01*
X0029925Y0030259D02*
X0030509Y0029675D01*
X0031676Y0029675D01*
X0032260Y0030259D01*
X0033488Y0029675D02*
X0033488Y0033178D01*
X0033488Y0035675D02*
X0033488Y0039178D01*
X0034836Y0037426D02*
X0037171Y0037426D01*
X0035419Y0039178D01*
X0035419Y0035675D01*
X0035419Y0033178D02*
X0034836Y0032594D01*
X0034836Y0032010D01*
X0035419Y0031426D01*
X0034836Y0030843D01*
X0034836Y0030259D01*
X0035419Y0029675D01*
X0036587Y0029675D01*
X0037171Y0030259D01*
X0036003Y0031426D02*
X0035419Y0031426D01*
X0037171Y0032594D02*
X0036587Y0033178D01*
X0035419Y0033178D01*
X0038519Y0032594D02*
X0038519Y0030259D01*
X0039103Y0029675D01*
X0040270Y0029675D01*
X0040854Y0030259D01*
X0040270Y0031426D02*
X0038519Y0031426D01*
X0038519Y0032594D02*
X0039103Y0033178D01*
X0040270Y0033178D01*
X0040854Y0032594D01*
X0040854Y0032010D01*
X0040270Y0031426D01*
X0042082Y0029675D02*
X0042082Y0033178D01*
X0042082Y0035675D02*
X0042082Y0039178D01*
X0043430Y0038594D02*
X0043430Y0038010D01*
X0044013Y0037426D01*
X0043430Y0036843D01*
X0043430Y0036259D01*
X0044013Y0035675D01*
X0045181Y0035675D01*
X0045765Y0036259D01*
X0047113Y0037426D02*
X0049448Y0037426D01*
X0047697Y0039178D01*
X0047697Y0035675D01*
X0047697Y0033178D02*
X0048864Y0033178D01*
X0049448Y0032594D01*
X0049448Y0032010D01*
X0048864Y0031426D01*
X0047113Y0031426D01*
X0047113Y0030259D02*
X0047113Y0032594D01*
X0047697Y0033178D01*
X0045765Y0031426D02*
X0043430Y0031426D01*
X0044013Y0029675D02*
X0044013Y0033178D01*
X0045765Y0031426D01*
X0047113Y0030259D02*
X0047697Y0029675D01*
X0048864Y0029675D01*
X0049448Y0030259D01*
X0050676Y0029675D02*
X0050676Y0033178D01*
X0052024Y0033178D02*
X0053191Y0032594D01*
X0054359Y0031426D01*
X0052607Y0031426D01*
X0052024Y0030843D01*
X0052024Y0030259D01*
X0052607Y0029675D01*
X0053775Y0029675D01*
X0054359Y0030259D01*
X0054359Y0031426D01*
X0055707Y0029675D02*
X0058042Y0029675D01*
X0056874Y0029675D02*
X0056874Y0033178D01*
X0058042Y0032010D01*
X0059300Y0032010D02*
X0059300Y0031426D01*
X0059884Y0031426D01*
X0059884Y0032010D01*
X0059300Y0032010D01*
X0059300Y0030259D02*
X0059300Y0029675D01*
X0059884Y0029675D01*
X0059884Y0030259D01*
X0059300Y0030259D01*
X0061232Y0030259D02*
X0061232Y0033178D01*
X0059884Y0035675D02*
X0059884Y0036259D01*
X0059300Y0036259D01*
X0059300Y0035675D01*
X0059884Y0035675D01*
X0059884Y0037426D02*
X0059300Y0037426D01*
X0059300Y0038010D01*
X0059884Y0038010D01*
X0059884Y0037426D01*
X0061232Y0037426D02*
X0061232Y0038594D01*
X0061815Y0039178D01*
X0063567Y0039178D01*
X0063567Y0035675D01*
X0063567Y0036843D02*
X0061815Y0036843D01*
X0061232Y0037426D01*
X0058042Y0037426D02*
X0055707Y0037426D01*
X0054359Y0036259D02*
X0054359Y0035675D01*
X0054359Y0036259D02*
X0052024Y0038594D01*
X0052024Y0039178D01*
X0054359Y0039178D01*
X0056291Y0039178D02*
X0058042Y0037426D01*
X0056291Y0035675D02*
X0056291Y0039178D01*
X0054359Y0041675D02*
X0052024Y0041675D01*
X0050676Y0041675D02*
X0050676Y0045178D01*
X0053191Y0045178D02*
X0053191Y0041675D01*
X0054359Y0044010D02*
X0053191Y0045178D01*
X0055677Y0049132D02*
X0055093Y0049716D01*
X0055093Y0052635D01*
X0056844Y0052635D01*
X0057428Y0052051D01*
X0057428Y0050884D01*
X0056844Y0050300D01*
X0055093Y0050300D01*
X0055677Y0049132D02*
X0056261Y0049132D01*
X0058776Y0050300D02*
X0058776Y0052051D01*
X0059360Y0052635D01*
X0061111Y0052635D01*
X0061111Y0050300D01*
X0062399Y0050300D02*
X0063567Y0050300D01*
X0062983Y0050300D02*
X0062983Y0052635D01*
X0063567Y0052635D01*
X0062983Y0053803D02*
X0062983Y0054387D01*
X0064915Y0052051D02*
X0064915Y0050884D01*
X0065498Y0050300D01*
X0067250Y0050300D01*
X0067250Y0049132D02*
X0067250Y0052635D01*
X0065498Y0052635D01*
X0064915Y0052051D01*
X0068598Y0052051D02*
X0068598Y0050884D01*
X0069182Y0050300D01*
X0070933Y0050300D01*
X0070933Y0049132D02*
X0070933Y0052635D01*
X0069182Y0052635D01*
X0068598Y0052051D01*
X0072281Y0052051D02*
X0072281Y0050300D01*
X0074032Y0050300D01*
X0074616Y0050884D01*
X0074032Y0051468D01*
X0072281Y0051468D01*
X0072281Y0052051D02*
X0072865Y0052635D01*
X0074032Y0052635D01*
X0075964Y0053803D02*
X0075964Y0050300D01*
X0077132Y0052635D02*
X0075964Y0053803D01*
X0077132Y0052635D02*
X0078299Y0053803D01*
X0078299Y0050300D01*
X0070933Y0045178D02*
X0070933Y0041675D01*
X0070933Y0042843D02*
X0069182Y0042843D01*
X0068598Y0043426D01*
X0068598Y0044594D01*
X0069182Y0045178D01*
X0070933Y0045178D01*
X0067250Y0042259D02*
X0066666Y0042843D01*
X0064915Y0042843D01*
X0064915Y0043426D02*
X0064915Y0041675D01*
X0066666Y0041675D01*
X0067250Y0042259D01*
X0066666Y0044010D02*
X0065498Y0044010D01*
X0064915Y0043426D01*
X0063567Y0043426D02*
X0063567Y0042259D01*
X0062983Y0041675D01*
X0061232Y0041675D01*
X0061232Y0045178D01*
X0061232Y0044010D02*
X0062983Y0044010D01*
X0063567Y0043426D01*
X0065498Y0039178D02*
X0064915Y0038594D01*
X0065498Y0039178D02*
X0066666Y0039178D01*
X0067250Y0038594D01*
X0067250Y0038010D01*
X0066666Y0037426D01*
X0065498Y0037426D01*
X0064915Y0036843D01*
X0064915Y0036259D01*
X0065498Y0035675D01*
X0066666Y0035675D01*
X0067250Y0036259D01*
X0068598Y0036259D02*
X0068598Y0038594D01*
X0069182Y0039178D01*
X0070933Y0039178D01*
X0070933Y0035675D01*
X0069182Y0035675D01*
X0068598Y0036259D01*
X0069765Y0033178D02*
X0068598Y0032010D01*
X0068598Y0029675D01*
X0067250Y0029675D02*
X0067250Y0033178D01*
X0065498Y0033178D01*
X0064915Y0032594D01*
X0064915Y0031426D01*
X0065498Y0030843D01*
X0067250Y0030843D01*
X0068598Y0031426D02*
X0070933Y0031426D01*
X0070933Y0032010D02*
X0070933Y0029675D01*
X0072281Y0031426D02*
X0074616Y0031426D01*
X0075964Y0030843D02*
X0075964Y0030259D01*
X0076548Y0029675D01*
X0077716Y0029675D01*
X0078299Y0030259D01*
X0077716Y0031426D02*
X0078299Y0032010D01*
X0078299Y0032594D01*
X0077716Y0033178D01*
X0076548Y0033178D01*
X0075964Y0032594D01*
X0076548Y0031426D02*
X0075964Y0030843D01*
X0076548Y0031426D02*
X0077716Y0031426D01*
X0077716Y0035675D02*
X0076548Y0035675D01*
X0075964Y0036259D01*
X0075964Y0036843D01*
X0076548Y0037426D01*
X0077716Y0037426D01*
X0078299Y0038010D01*
X0078299Y0038594D01*
X0077716Y0039178D01*
X0076548Y0039178D01*
X0075964Y0038594D01*
X0074616Y0037426D02*
X0072281Y0037426D01*
X0069765Y0033178D02*
X0070933Y0032010D01*
X0077716Y0035675D02*
X0078299Y0036259D01*
X0063567Y0033178D02*
X0063567Y0030259D01*
X0062983Y0029675D01*
X0061815Y0029675D01*
X0061232Y0030259D01*
X0059884Y0041675D02*
X0059300Y0041675D01*
X0059300Y0042259D01*
X0059884Y0042259D01*
X0059884Y0041675D01*
X0059884Y0043426D02*
X0059300Y0043426D01*
X0059300Y0044010D01*
X0059884Y0044010D01*
X0059884Y0043426D01*
X0053745Y0050300D02*
X0053745Y0050884D01*
X0053161Y0050884D01*
X0053161Y0050300D01*
X0053745Y0050300D01*
X0053745Y0052051D02*
X0053745Y0052635D01*
X0053161Y0052635D01*
X0053161Y0052051D01*
X0053745Y0052051D01*
X0045765Y0044594D02*
X0045181Y0045178D01*
X0044013Y0045178D01*
X0043430Y0044594D01*
X0043430Y0044010D01*
X0045765Y0041675D01*
X0043430Y0041675D01*
X0042082Y0041675D02*
X0042082Y0045178D01*
X0044013Y0039178D02*
X0043430Y0038594D01*
X0044013Y0039178D02*
X0045181Y0039178D01*
X0045765Y0038594D01*
X0044597Y0037426D02*
X0044013Y0037426D01*
X0040854Y0037426D02*
X0038519Y0037426D01*
X0039103Y0035675D02*
X0039103Y0039178D01*
X0040854Y0037426D01*
X0036587Y0041675D02*
X0037171Y0042259D01*
X0036587Y0041675D02*
X0035419Y0041675D01*
X0034836Y0042259D01*
X0034836Y0042843D01*
X0035419Y0043426D01*
X0036003Y0043426D01*
X0035419Y0043426D02*
X0034836Y0044010D01*
X0034836Y0044594D01*
X0035419Y0045178D01*
X0036587Y0045178D01*
X0037171Y0044594D01*
X0033488Y0045178D02*
X0033488Y0041675D01*
X0028577Y0043426D02*
X0026242Y0043426D01*
X0026825Y0041675D02*
X0026825Y0045178D01*
X0028577Y0043426D01*
X0024894Y0045178D02*
X0024894Y0041675D01*
X0019983Y0042259D02*
X0019399Y0041675D01*
X0018231Y0041675D01*
X0017648Y0042259D01*
X0017648Y0043426D01*
X0018231Y0044010D01*
X0018815Y0044010D01*
X0019983Y0043426D01*
X0019983Y0045178D01*
X0017648Y0045178D01*
X0018231Y0039178D02*
X0017648Y0038594D01*
X0017648Y0038010D01*
X0018231Y0037426D01*
X0019399Y0037426D01*
X0019983Y0038010D01*
X0019983Y0038594D01*
X0019399Y0039178D01*
X0018231Y0039178D01*
X0018231Y0037426D02*
X0017648Y0036843D01*
X0017648Y0036259D01*
X0018231Y0035675D01*
X0019399Y0035675D01*
X0019983Y0036259D01*
X0019983Y0036843D01*
X0019399Y0037426D01*
X0019983Y0066238D02*
X0019983Y0068573D01*
X0018231Y0068573D01*
X0017648Y0067989D01*
X0017648Y0066238D01*
X0021331Y0066821D02*
X0021331Y0067989D01*
X0021915Y0068573D01*
X0023082Y0068573D01*
X0023666Y0067989D01*
X0023666Y0066821D01*
X0023082Y0066238D01*
X0021915Y0066238D01*
X0021331Y0066821D01*
X0024954Y0066238D02*
X0026122Y0066238D01*
X0025538Y0066238D02*
X0025538Y0068573D01*
X0026122Y0068573D01*
X0025538Y0069740D02*
X0025538Y0070324D01*
X0027469Y0068573D02*
X0029221Y0068573D01*
X0029805Y0067989D01*
X0029221Y0067405D01*
X0028053Y0067405D01*
X0027469Y0066821D01*
X0028053Y0066238D01*
X0029805Y0066238D01*
X0031122Y0068573D02*
X0031706Y0068573D01*
X0032874Y0067405D01*
X0032874Y0066238D02*
X0032874Y0068573D01*
X0034222Y0067989D02*
X0034222Y0067405D01*
X0036557Y0067405D01*
X0036557Y0066821D02*
X0036557Y0067989D01*
X0035973Y0068573D01*
X0034806Y0068573D01*
X0034222Y0067989D01*
X0034806Y0066238D02*
X0035973Y0066238D01*
X0036557Y0066821D01*
X0037905Y0068573D02*
X0039073Y0066238D01*
X0040240Y0068573D01*
X0045211Y0068573D02*
X0046379Y0068573D01*
X0045795Y0069157D02*
X0045795Y0066821D01*
X0045211Y0066238D01*
X0047727Y0066238D02*
X0047727Y0068573D01*
X0047727Y0066238D02*
X0049478Y0066238D01*
X0050062Y0066821D01*
X0050062Y0068573D01*
X0051410Y0067989D02*
X0051410Y0066821D01*
X0051994Y0066238D01*
X0053745Y0066238D01*
X0053745Y0065070D02*
X0053745Y0068573D01*
X0051994Y0068573D01*
X0051410Y0067989D01*
X0052607Y0072238D02*
X0053775Y0072238D01*
X0054359Y0072821D01*
X0053775Y0073989D02*
X0054359Y0074573D01*
X0054359Y0075157D01*
X0053775Y0075740D01*
X0052607Y0075740D01*
X0052024Y0075157D01*
X0052607Y0073989D02*
X0052024Y0073405D01*
X0052024Y0072821D01*
X0052607Y0072238D01*
X0052607Y0073989D02*
X0053775Y0073989D01*
X0055707Y0075740D02*
X0058042Y0075740D01*
X0058042Y0072238D01*
X0055707Y0072238D01*
X0056874Y0073989D02*
X0058042Y0073989D01*
X0059390Y0072238D02*
X0059390Y0075740D01*
X0059300Y0078238D02*
X0059300Y0081740D01*
X0059884Y0081740D01*
X0061232Y0079989D02*
X0061232Y0078238D01*
X0062983Y0078238D01*
X0063567Y0078821D01*
X0062983Y0079405D01*
X0061232Y0079405D01*
X0061232Y0079989D02*
X0061815Y0080573D01*
X0062983Y0080573D01*
X0064855Y0080573D02*
X0066022Y0080573D01*
X0065438Y0081157D02*
X0065438Y0078821D01*
X0064855Y0078238D01*
X0064825Y0075740D02*
X0063657Y0075740D01*
X0063073Y0075157D01*
X0063657Y0073989D02*
X0063073Y0073405D01*
X0063073Y0072821D01*
X0063657Y0072238D01*
X0064825Y0072238D01*
X0065408Y0072821D01*
X0064825Y0073989D02*
X0065408Y0074573D01*
X0065408Y0075157D01*
X0064825Y0075740D01*
X0064825Y0073989D02*
X0063657Y0073989D01*
X0061725Y0075740D02*
X0059390Y0072238D01*
X0061725Y0072238D02*
X0061725Y0075740D01*
X0059884Y0078238D02*
X0058716Y0078238D01*
X0053745Y0078238D02*
X0053745Y0080573D01*
X0052577Y0081740D01*
X0051410Y0080573D01*
X0051410Y0078238D01*
X0050062Y0078821D02*
X0050062Y0080573D01*
X0050062Y0078821D02*
X0049478Y0078238D01*
X0047727Y0078238D01*
X0047727Y0080573D01*
X0046379Y0079989D02*
X0046379Y0078821D01*
X0045795Y0078238D01*
X0044044Y0078238D01*
X0044044Y0081740D01*
X0044044Y0080573D02*
X0045795Y0080573D01*
X0046379Y0079989D01*
X0042696Y0080573D02*
X0042112Y0080573D01*
X0042112Y0078238D01*
X0042696Y0078238D02*
X0041528Y0078238D01*
X0040240Y0078821D02*
X0039656Y0078238D01*
X0038489Y0078238D01*
X0037905Y0078821D01*
X0037905Y0079989D01*
X0038489Y0080573D01*
X0039656Y0080573D01*
X0040240Y0079989D01*
X0040240Y0078821D01*
X0042112Y0081740D02*
X0042112Y0082324D01*
X0051410Y0079989D02*
X0053745Y0079989D01*
X0055617Y0069157D02*
X0055617Y0066821D01*
X0055033Y0066238D01*
X0055033Y0068573D02*
X0056201Y0068573D01*
X0057548Y0068573D02*
X0057548Y0066238D01*
X0059300Y0066238D01*
X0059884Y0066821D01*
X0059884Y0068573D01*
X0061232Y0067989D02*
X0061232Y0066821D01*
X0061815Y0066238D01*
X0062983Y0066238D01*
X0063567Y0066821D01*
X0063567Y0067989D01*
X0062983Y0068573D01*
X0061815Y0068573D01*
X0061232Y0067989D01*
X0064915Y0067989D02*
X0067250Y0067989D01*
X0068598Y0067989D02*
X0070933Y0067989D01*
X0070933Y0068573D02*
X0069765Y0069740D01*
X0068598Y0068573D01*
X0068598Y0066238D01*
X0070933Y0066238D02*
X0070933Y0068573D01*
X0072281Y0069157D02*
X0072865Y0069740D01*
X0074032Y0069740D01*
X0074616Y0069157D01*
X0074616Y0066821D01*
X0074032Y0066238D01*
X0072865Y0066238D01*
X0072281Y0066821D01*
X0075964Y0066238D02*
X0077132Y0067405D01*
X0076548Y0067405D02*
X0078299Y0067405D01*
X0078299Y0066238D02*
X0078299Y0069740D01*
X0076548Y0069740D01*
X0075964Y0069157D01*
X0075964Y0067989D01*
X0076548Y0067405D01*
X0077716Y0072238D02*
X0077716Y0075157D01*
X0077132Y0075740D01*
X0076548Y0078238D02*
X0075964Y0078821D01*
X0075964Y0081157D01*
X0076548Y0081740D01*
X0078299Y0081740D01*
X0078299Y0078238D01*
X0076548Y0078238D01*
X0074616Y0078238D02*
X0073449Y0078238D01*
X0074032Y0078238D02*
X0074032Y0080573D01*
X0074616Y0080573D01*
X0074032Y0081740D02*
X0074032Y0082324D01*
X0072161Y0079989D02*
X0072161Y0078821D01*
X0071577Y0078238D01*
X0069826Y0078238D01*
X0069826Y0077654D02*
X0069826Y0080573D01*
X0071577Y0080573D01*
X0072161Y0079989D01*
X0070993Y0077070D02*
X0070409Y0077070D01*
X0069826Y0077654D01*
X0068478Y0078238D02*
X0067310Y0078238D01*
X0067894Y0078238D02*
X0067894Y0080573D01*
X0068478Y0080573D01*
X0067894Y0081740D02*
X0067894Y0082324D01*
X0070409Y0074573D02*
X0070993Y0074573D01*
X0072161Y0073405D01*
X0072161Y0072238D02*
X0072161Y0074573D01*
X0073509Y0073989D02*
X0074092Y0074573D01*
X0075260Y0074573D01*
X0075844Y0073989D01*
X0075844Y0072821D01*
X0075260Y0072238D01*
X0074092Y0072238D01*
X0073509Y0072821D01*
X0073509Y0073989D01*
X0077132Y0073989D02*
X0078299Y0073989D01*
X0050676Y0039178D02*
X0050676Y0035675D01*
D11*
X0051674Y0049112D02*
X0078549Y0049112D01*
X0078549Y0040675D02*
X0016049Y0040675D01*
D12*
X0021674Y0021612D02*
X0009487Y0021612D01*
X0008237Y0022862D01*
X0008237Y0125987D01*
X0009487Y0127237D01*
X0039799Y0127237D01*
X0041049Y0125987D01*
X0041049Y0124737D01*
X0042299Y0123487D01*
X0083549Y0123487D01*
X0084799Y0122237D01*
X0084799Y0022862D01*
X0083549Y0021612D01*
X0062612Y0021612D01*
X0061362Y0020363D01*
X0061362Y0006300D01*
X0060112Y0005050D01*
X0053862Y0005050D01*
X0052612Y0006300D01*
X0052612Y0007862D01*
X0051362Y0009113D01*
X0032924Y0009113D01*
X0031674Y0007862D01*
X0031674Y0006300D01*
X0030424Y0005050D01*
X0024174Y0005050D01*
X0022924Y0006300D01*
X0022924Y0020363D01*
X0021674Y0021612D01*
X0059774Y0124610D02*
X0059776Y0124722D01*
X0059782Y0124833D01*
X0059792Y0124945D01*
X0059806Y0125056D01*
X0059823Y0125166D01*
X0059845Y0125276D01*
X0059871Y0125385D01*
X0059900Y0125493D01*
X0059933Y0125599D01*
X0059970Y0125705D01*
X0060011Y0125809D01*
X0060056Y0125912D01*
X0060104Y0126013D01*
X0060155Y0126112D01*
X0060210Y0126209D01*
X0060269Y0126304D01*
X0060330Y0126398D01*
X0060395Y0126489D01*
X0060464Y0126577D01*
X0060535Y0126663D01*
X0060609Y0126747D01*
X0060687Y0126827D01*
X0060767Y0126905D01*
X0060850Y0126981D01*
X0060935Y0127053D01*
X0061023Y0127122D01*
X0061113Y0127188D01*
X0061206Y0127250D01*
X0061301Y0127310D01*
X0061398Y0127366D01*
X0061496Y0127418D01*
X0061597Y0127467D01*
X0061699Y0127512D01*
X0061803Y0127554D01*
X0061908Y0127592D01*
X0062015Y0127626D01*
X0062122Y0127656D01*
X0062231Y0127683D01*
X0062340Y0127705D01*
X0062451Y0127724D01*
X0062561Y0127739D01*
X0062673Y0127750D01*
X0062784Y0127757D01*
X0062896Y0127760D01*
X0063008Y0127759D01*
X0063120Y0127754D01*
X0063231Y0127745D01*
X0063342Y0127732D01*
X0063453Y0127715D01*
X0063563Y0127695D01*
X0063672Y0127670D01*
X0063780Y0127642D01*
X0063887Y0127609D01*
X0063993Y0127573D01*
X0064097Y0127533D01*
X0064200Y0127490D01*
X0064302Y0127443D01*
X0064401Y0127392D01*
X0064499Y0127338D01*
X0064595Y0127280D01*
X0064689Y0127219D01*
X0064780Y0127155D01*
X0064869Y0127088D01*
X0064956Y0127017D01*
X0065040Y0126943D01*
X0065122Y0126867D01*
X0065200Y0126787D01*
X0065276Y0126705D01*
X0065349Y0126620D01*
X0065419Y0126533D01*
X0065485Y0126443D01*
X0065549Y0126351D01*
X0065609Y0126257D01*
X0065666Y0126161D01*
X0065719Y0126062D01*
X0065769Y0125962D01*
X0065815Y0125861D01*
X0065858Y0125757D01*
X0065897Y0125652D01*
X0065932Y0125546D01*
X0065963Y0125439D01*
X0065991Y0125330D01*
X0066014Y0125221D01*
X0066034Y0125111D01*
X0066050Y0125000D01*
X0066062Y0124889D01*
X0066070Y0124778D01*
X0066074Y0124666D01*
X0066074Y0124554D01*
X0066070Y0124442D01*
X0066062Y0124331D01*
X0066050Y0124220D01*
X0066034Y0124109D01*
X0066014Y0123999D01*
X0065991Y0123890D01*
X0065963Y0123781D01*
X0065932Y0123674D01*
X0065897Y0123568D01*
X0065858Y0123463D01*
X0065815Y0123359D01*
X0065769Y0123258D01*
X0065719Y0123158D01*
X0065666Y0123059D01*
X0065609Y0122963D01*
X0065549Y0122869D01*
X0065485Y0122777D01*
X0065419Y0122687D01*
X0065349Y0122600D01*
X0065276Y0122515D01*
X0065200Y0122433D01*
X0065122Y0122353D01*
X0065040Y0122277D01*
X0064956Y0122203D01*
X0064869Y0122132D01*
X0064780Y0122065D01*
X0064689Y0122001D01*
X0064595Y0121940D01*
X0064499Y0121882D01*
X0064401Y0121828D01*
X0064302Y0121777D01*
X0064200Y0121730D01*
X0064097Y0121687D01*
X0063993Y0121647D01*
X0063887Y0121611D01*
X0063780Y0121578D01*
X0063672Y0121550D01*
X0063563Y0121525D01*
X0063453Y0121505D01*
X0063342Y0121488D01*
X0063231Y0121475D01*
X0063120Y0121466D01*
X0063008Y0121461D01*
X0062896Y0121460D01*
X0062784Y0121463D01*
X0062673Y0121470D01*
X0062561Y0121481D01*
X0062451Y0121496D01*
X0062340Y0121515D01*
X0062231Y0121537D01*
X0062122Y0121564D01*
X0062015Y0121594D01*
X0061908Y0121628D01*
X0061803Y0121666D01*
X0061699Y0121708D01*
X0061597Y0121753D01*
X0061496Y0121802D01*
X0061398Y0121854D01*
X0061301Y0121910D01*
X0061206Y0121970D01*
X0061113Y0122032D01*
X0061023Y0122098D01*
X0060935Y0122167D01*
X0060850Y0122239D01*
X0060767Y0122315D01*
X0060687Y0122393D01*
X0060609Y0122473D01*
X0060535Y0122557D01*
X0060464Y0122643D01*
X0060395Y0122731D01*
X0060330Y0122822D01*
X0060269Y0122916D01*
X0060210Y0123011D01*
X0060155Y0123108D01*
X0060104Y0123207D01*
X0060056Y0123308D01*
X0060011Y0123411D01*
X0059970Y0123515D01*
X0059933Y0123621D01*
X0059900Y0123727D01*
X0059871Y0123835D01*
X0059845Y0123944D01*
X0059823Y0124054D01*
X0059806Y0124164D01*
X0059792Y0124275D01*
X0059782Y0124387D01*
X0059776Y0124498D01*
X0059774Y0124610D01*
M02*
