G75*
%MOIN*%
%OFA0B0*%
%FSLAX25Y25*%
%IPPOS*%
%LPD*%
%AMOC8*
5,1,8,0,0,1.08239X$1,22.5*
%
%ADD10C,0.00000*%
%ADD11R,0.01575X0.04724*%
%ADD12R,0.03937X0.04331*%
%ADD13R,0.04331X0.03937*%
%ADD14R,0.06299X0.03150*%
%ADD15R,0.10000X0.12000*%
%ADD16R,0.06000X0.04000*%
%ADD17OC8,0.06300*%
%ADD18R,0.06300X0.04600*%
%ADD19C,0.01200*%
%ADD20C,0.13449*%
%ADD21C,0.02775*%
%ADD22C,0.02400*%
%ADD23C,0.01600*%
%ADD24C,0.00800*%
%ADD25C,0.00600*%
D10*
X0009487Y0021612D02*
X0021674Y0021612D01*
X0022924Y0020363D01*
X0022924Y0006300D01*
X0024174Y0005050D01*
X0030424Y0005050D01*
X0031674Y0006300D01*
X0031674Y0007862D01*
X0032924Y0009113D01*
X0051362Y0009113D01*
X0052612Y0007862D01*
X0052612Y0006300D01*
X0053862Y0005050D01*
X0060112Y0005050D01*
X0061362Y0006300D01*
X0061362Y0020363D01*
X0062612Y0021612D01*
X0083549Y0021612D01*
X0084799Y0022862D01*
X0084799Y0122237D01*
X0083549Y0123487D01*
X0042299Y0123487D01*
X0041049Y0124737D01*
X0041049Y0125987D01*
X0039799Y0127237D01*
X0009487Y0127237D01*
X0008237Y0125987D01*
X0008237Y0022862D01*
X0009487Y0021612D01*
X0059774Y0124610D02*
X0059776Y0124722D01*
X0059782Y0124833D01*
X0059792Y0124945D01*
X0059806Y0125056D01*
X0059823Y0125166D01*
X0059845Y0125276D01*
X0059871Y0125385D01*
X0059900Y0125493D01*
X0059933Y0125599D01*
X0059970Y0125705D01*
X0060011Y0125809D01*
X0060056Y0125912D01*
X0060104Y0126013D01*
X0060155Y0126112D01*
X0060210Y0126209D01*
X0060269Y0126304D01*
X0060330Y0126398D01*
X0060395Y0126489D01*
X0060464Y0126577D01*
X0060535Y0126663D01*
X0060609Y0126747D01*
X0060687Y0126827D01*
X0060767Y0126905D01*
X0060850Y0126981D01*
X0060935Y0127053D01*
X0061023Y0127122D01*
X0061113Y0127188D01*
X0061206Y0127250D01*
X0061301Y0127310D01*
X0061398Y0127366D01*
X0061496Y0127418D01*
X0061597Y0127467D01*
X0061699Y0127512D01*
X0061803Y0127554D01*
X0061908Y0127592D01*
X0062015Y0127626D01*
X0062122Y0127656D01*
X0062231Y0127683D01*
X0062340Y0127705D01*
X0062451Y0127724D01*
X0062561Y0127739D01*
X0062673Y0127750D01*
X0062784Y0127757D01*
X0062896Y0127760D01*
X0063008Y0127759D01*
X0063120Y0127754D01*
X0063231Y0127745D01*
X0063342Y0127732D01*
X0063453Y0127715D01*
X0063563Y0127695D01*
X0063672Y0127670D01*
X0063780Y0127642D01*
X0063887Y0127609D01*
X0063993Y0127573D01*
X0064097Y0127533D01*
X0064200Y0127490D01*
X0064302Y0127443D01*
X0064401Y0127392D01*
X0064499Y0127338D01*
X0064595Y0127280D01*
X0064689Y0127219D01*
X0064780Y0127155D01*
X0064869Y0127088D01*
X0064956Y0127017D01*
X0065040Y0126943D01*
X0065122Y0126867D01*
X0065200Y0126787D01*
X0065276Y0126705D01*
X0065349Y0126620D01*
X0065419Y0126533D01*
X0065485Y0126443D01*
X0065549Y0126351D01*
X0065609Y0126257D01*
X0065666Y0126161D01*
X0065719Y0126062D01*
X0065769Y0125962D01*
X0065815Y0125861D01*
X0065858Y0125757D01*
X0065897Y0125652D01*
X0065932Y0125546D01*
X0065963Y0125439D01*
X0065991Y0125330D01*
X0066014Y0125221D01*
X0066034Y0125111D01*
X0066050Y0125000D01*
X0066062Y0124889D01*
X0066070Y0124778D01*
X0066074Y0124666D01*
X0066074Y0124554D01*
X0066070Y0124442D01*
X0066062Y0124331D01*
X0066050Y0124220D01*
X0066034Y0124109D01*
X0066014Y0123999D01*
X0065991Y0123890D01*
X0065963Y0123781D01*
X0065932Y0123674D01*
X0065897Y0123568D01*
X0065858Y0123463D01*
X0065815Y0123359D01*
X0065769Y0123258D01*
X0065719Y0123158D01*
X0065666Y0123059D01*
X0065609Y0122963D01*
X0065549Y0122869D01*
X0065485Y0122777D01*
X0065419Y0122687D01*
X0065349Y0122600D01*
X0065276Y0122515D01*
X0065200Y0122433D01*
X0065122Y0122353D01*
X0065040Y0122277D01*
X0064956Y0122203D01*
X0064869Y0122132D01*
X0064780Y0122065D01*
X0064689Y0122001D01*
X0064595Y0121940D01*
X0064499Y0121882D01*
X0064401Y0121828D01*
X0064302Y0121777D01*
X0064200Y0121730D01*
X0064097Y0121687D01*
X0063993Y0121647D01*
X0063887Y0121611D01*
X0063780Y0121578D01*
X0063672Y0121550D01*
X0063563Y0121525D01*
X0063453Y0121505D01*
X0063342Y0121488D01*
X0063231Y0121475D01*
X0063120Y0121466D01*
X0063008Y0121461D01*
X0062896Y0121460D01*
X0062784Y0121463D01*
X0062673Y0121470D01*
X0062561Y0121481D01*
X0062451Y0121496D01*
X0062340Y0121515D01*
X0062231Y0121537D01*
X0062122Y0121564D01*
X0062015Y0121594D01*
X0061908Y0121628D01*
X0061803Y0121666D01*
X0061699Y0121708D01*
X0061597Y0121753D01*
X0061496Y0121802D01*
X0061398Y0121854D01*
X0061301Y0121910D01*
X0061206Y0121970D01*
X0061113Y0122032D01*
X0061023Y0122098D01*
X0060935Y0122167D01*
X0060850Y0122239D01*
X0060767Y0122315D01*
X0060687Y0122393D01*
X0060609Y0122473D01*
X0060535Y0122557D01*
X0060464Y0122643D01*
X0060395Y0122731D01*
X0060330Y0122822D01*
X0060269Y0122916D01*
X0060210Y0123011D01*
X0060155Y0123108D01*
X0060104Y0123207D01*
X0060056Y0123308D01*
X0060011Y0123411D01*
X0059970Y0123515D01*
X0059933Y0123621D01*
X0059900Y0123727D01*
X0059871Y0123835D01*
X0059845Y0123944D01*
X0059823Y0124054D01*
X0059806Y0124164D01*
X0059792Y0124275D01*
X0059782Y0124387D01*
X0059776Y0124498D01*
X0059774Y0124610D01*
D11*
X0056121Y0051155D03*
X0053562Y0051155D03*
X0051003Y0051155D03*
X0048444Y0051155D03*
X0045885Y0051155D03*
X0043325Y0051155D03*
X0040766Y0051155D03*
X0038207Y0051155D03*
X0035648Y0051155D03*
X0033089Y0051155D03*
X0030530Y0051155D03*
X0027971Y0051155D03*
X0025412Y0051155D03*
X0022853Y0051155D03*
X0022853Y0028320D03*
X0025412Y0028320D03*
X0027971Y0028320D03*
X0030530Y0028320D03*
X0033089Y0028320D03*
X0035648Y0028320D03*
X0038207Y0028320D03*
X0040766Y0028320D03*
X0043325Y0028320D03*
X0045885Y0028320D03*
X0048444Y0028320D03*
X0051003Y0028320D03*
X0053562Y0028320D03*
X0056121Y0028320D03*
D12*
X0064799Y0040454D03*
X0064799Y0047146D03*
X0020646Y0087237D03*
X0013953Y0087237D03*
X0013237Y0050584D03*
X0013237Y0043891D03*
D13*
X0013237Y0062954D03*
X0013237Y0069646D03*
X0019890Y0094737D03*
X0026583Y0094737D03*
D14*
X0080424Y0045050D03*
X0080424Y0040050D03*
X0080424Y0035050D03*
X0080424Y0030050D03*
X0080424Y0025050D03*
D15*
X0082924Y0099987D03*
X0062924Y0099987D03*
X0042924Y0099987D03*
D16*
X0029799Y0084738D03*
X0029799Y0074738D03*
X0029799Y0064737D03*
X0074799Y0064737D03*
X0074799Y0074738D03*
X0074799Y0084738D03*
D17*
X0056987Y0005050D03*
X0027299Y0005050D03*
D18*
X0021049Y0064987D03*
X0021049Y0070988D03*
X0021049Y0076988D03*
D19*
X0020499Y0077538D02*
X0020499Y0080887D01*
X0019120Y0080887D01*
X0022105Y0083872D01*
X0023111Y0083872D01*
X0023814Y0084575D01*
X0023814Y0089900D01*
X0023111Y0090603D01*
X0018180Y0090603D01*
X0017477Y0089900D01*
X0017477Y0084575D01*
X0017597Y0084456D01*
X0015037Y0081896D01*
X0015037Y0083823D01*
X0015048Y0083872D01*
X0016419Y0083872D01*
X0017121Y0084575D01*
X0017121Y0089900D01*
X0016419Y0090603D01*
X0016335Y0090603D01*
X0017301Y0091569D01*
X0022553Y0091569D01*
X0023237Y0092253D01*
X0023921Y0091569D01*
X0025110Y0091569D01*
X0025812Y0090867D01*
X0025812Y0087447D01*
X0025599Y0087235D01*
X0025599Y0082240D01*
X0026302Y0081538D01*
X0033296Y0081538D01*
X0033999Y0082240D01*
X0033999Y0087235D01*
X0033296Y0087937D01*
X0030082Y0087937D01*
X0029412Y0088608D01*
X0029412Y0091735D01*
X0029949Y0092272D01*
X0029949Y0097203D01*
X0029246Y0097906D01*
X0023921Y0097906D01*
X0023237Y0097222D01*
X0022553Y0097906D01*
X0017228Y0097906D01*
X0016525Y0097203D01*
X0016525Y0095884D01*
X0012491Y0091850D01*
X0011437Y0090796D01*
X0011437Y0090552D01*
X0010784Y0089900D01*
X0010784Y0084575D01*
X0011383Y0083977D01*
X0011318Y0083685D01*
X0011437Y0083498D01*
X0011437Y0072815D01*
X0010574Y0072815D01*
X0009872Y0072112D01*
X0009872Y0067181D01*
X0010149Y0066903D01*
X0010149Y0065697D01*
X0009872Y0065419D01*
X0009872Y0060488D01*
X0010574Y0059785D01*
X0011437Y0059785D01*
X0011437Y0059617D01*
X0012491Y0058562D01*
X0012491Y0058562D01*
X0015304Y0055750D01*
X0044679Y0055750D01*
X0045712Y0054717D01*
X0045176Y0054717D01*
X0045095Y0054797D01*
X0044730Y0055008D01*
X0044324Y0055117D01*
X0043326Y0055117D01*
X0043326Y0051155D01*
X0043325Y0051155D01*
X0043325Y0051155D01*
X0043154Y0051155D01*
X0040767Y0051155D01*
X0040767Y0051155D01*
X0043325Y0051155D01*
X0043325Y0055117D01*
X0042327Y0055117D01*
X0042046Y0055042D01*
X0041764Y0055117D01*
X0040766Y0055117D01*
X0039768Y0055117D01*
X0039487Y0055042D01*
X0039205Y0055117D01*
X0038207Y0055117D01*
X0037209Y0055117D01*
X0036802Y0055008D01*
X0036438Y0054797D01*
X0036357Y0054717D01*
X0029821Y0054717D01*
X0029741Y0054797D01*
X0029376Y0055008D01*
X0028969Y0055117D01*
X0027971Y0055117D01*
X0026973Y0055117D01*
X0026692Y0055042D01*
X0026410Y0055117D01*
X0025412Y0055117D01*
X0024414Y0055117D01*
X0024007Y0055008D01*
X0023642Y0054797D01*
X0023562Y0054717D01*
X0021569Y0054717D01*
X0020866Y0054014D01*
X0020866Y0048296D01*
X0021253Y0047908D01*
X0021253Y0042516D01*
X0020474Y0041737D01*
X0016937Y0041737D01*
X0016405Y0042269D01*
X0016405Y0046553D01*
X0015955Y0047004D01*
X0016188Y0047138D01*
X0016486Y0047436D01*
X0016696Y0047801D01*
X0016805Y0048208D01*
X0016805Y0050200D01*
X0013621Y0050200D01*
X0013621Y0050968D01*
X0016805Y0050968D01*
X0016805Y0052960D01*
X0016696Y0053367D01*
X0016486Y0053732D01*
X0016188Y0054030D01*
X0015823Y0054240D01*
X0015416Y0054349D01*
X0013621Y0054349D01*
X0013621Y0050968D01*
X0012853Y0050968D01*
X0012853Y0054349D01*
X0011058Y0054349D01*
X0010651Y0054240D01*
X0010286Y0054030D01*
X0009988Y0053732D01*
X0009837Y0053470D01*
X0009837Y0124737D01*
X0031123Y0124737D01*
X0031124Y0124420D01*
X0031124Y0090554D01*
X0032179Y0089500D01*
X0063649Y0089500D01*
X0063649Y0086760D01*
X0064015Y0085878D01*
X0067190Y0082703D01*
X0068072Y0082338D01*
X0070599Y0082338D01*
X0070599Y0082240D01*
X0070812Y0082028D01*
X0070812Y0077447D01*
X0070599Y0077235D01*
X0070599Y0072240D01*
X0070812Y0072028D01*
X0070812Y0067447D01*
X0070599Y0067235D01*
X0070599Y0062240D01*
X0071302Y0061537D01*
X0071704Y0061537D01*
X0071866Y0061375D01*
X0083199Y0061375D01*
X0083199Y0047825D01*
X0076778Y0047825D01*
X0076075Y0047122D01*
X0076075Y0046650D01*
X0075150Y0046650D01*
X0075037Y0046763D01*
X0075037Y0053950D01*
X0073587Y0055400D01*
X0073587Y0055400D01*
X0072650Y0056337D01*
X0056637Y0056337D01*
X0055699Y0055400D01*
X0055183Y0054883D01*
X0054967Y0055008D01*
X0054560Y0055117D01*
X0053562Y0055117D01*
X0053562Y0051155D01*
X0053562Y0051155D01*
X0053562Y0055117D01*
X0052849Y0055117D01*
X0052849Y0056108D01*
X0051795Y0057162D01*
X0047107Y0061850D01*
X0033609Y0061850D01*
X0033999Y0062240D01*
X0033999Y0067235D01*
X0033296Y0067937D01*
X0031599Y0067937D01*
X0031599Y0067983D01*
X0030545Y0069037D01*
X0028445Y0071138D01*
X0029399Y0071138D01*
X0029399Y0074337D01*
X0030199Y0074337D01*
X0030199Y0071138D01*
X0033010Y0071138D01*
X0033417Y0071247D01*
X0033782Y0071457D01*
X0034080Y0071755D01*
X0034290Y0072120D01*
X0034399Y0072527D01*
X0034399Y0074337D01*
X0030199Y0074337D01*
X0030199Y0075138D01*
X0029399Y0075138D01*
X0029399Y0078337D01*
X0026589Y0078337D01*
X0026182Y0078228D01*
X0025817Y0078018D01*
X0025799Y0078000D01*
X0025799Y0079498D01*
X0025690Y0079905D01*
X0025480Y0080270D01*
X0025182Y0080568D01*
X0024817Y0080778D01*
X0024410Y0080887D01*
X0021599Y0080887D01*
X0021599Y0077538D01*
X0020499Y0077538D01*
X0020499Y0078090D02*
X0021599Y0078090D01*
X0021599Y0079288D02*
X0020499Y0079288D01*
X0020499Y0080487D02*
X0021599Y0080487D01*
X0019918Y0081685D02*
X0026154Y0081685D01*
X0025599Y0082884D02*
X0021116Y0082884D01*
X0020646Y0084959D02*
X0015737Y0080050D01*
X0015737Y0073800D01*
X0018549Y0070988D01*
X0021049Y0070988D01*
X0022299Y0069738D01*
X0027299Y0069738D01*
X0029799Y0067238D01*
X0029799Y0064737D01*
X0031081Y0068502D02*
X0070812Y0068502D01*
X0070812Y0069700D02*
X0029882Y0069700D01*
X0028684Y0070899D02*
X0070812Y0070899D01*
X0070743Y0072097D02*
X0034277Y0072097D01*
X0034399Y0073296D02*
X0070599Y0073296D01*
X0070599Y0074494D02*
X0030199Y0074494D01*
X0030199Y0075138D02*
X0034399Y0075138D01*
X0034399Y0076948D01*
X0034290Y0077355D01*
X0034080Y0077720D01*
X0033782Y0078018D01*
X0033417Y0078228D01*
X0033010Y0078337D01*
X0030199Y0078337D01*
X0030199Y0075138D01*
X0030199Y0075693D02*
X0029399Y0075693D01*
X0029399Y0076891D02*
X0030199Y0076891D01*
X0030199Y0078090D02*
X0029399Y0078090D01*
X0029399Y0073296D02*
X0030199Y0073296D01*
X0030199Y0072097D02*
X0029399Y0072097D01*
X0025942Y0078090D02*
X0025799Y0078090D01*
X0025799Y0079288D02*
X0070812Y0079288D01*
X0070812Y0078090D02*
X0033657Y0078090D01*
X0034399Y0076891D02*
X0070599Y0076891D01*
X0070599Y0075693D02*
X0034399Y0075693D01*
X0033444Y0081685D02*
X0070812Y0081685D01*
X0070812Y0080487D02*
X0025263Y0080487D01*
X0025599Y0084082D02*
X0023322Y0084082D01*
X0023814Y0085281D02*
X0025599Y0085281D01*
X0025599Y0086479D02*
X0023814Y0086479D01*
X0023814Y0087678D02*
X0025812Y0087678D01*
X0025812Y0088876D02*
X0023814Y0088876D01*
X0023639Y0090075D02*
X0025812Y0090075D01*
X0025405Y0091273D02*
X0017006Y0091273D01*
X0016946Y0090075D02*
X0017652Y0090075D01*
X0017477Y0088876D02*
X0017121Y0088876D01*
X0017121Y0087678D02*
X0017477Y0087678D01*
X0017477Y0086479D02*
X0017121Y0086479D01*
X0017121Y0085281D02*
X0017477Y0085281D01*
X0017224Y0084082D02*
X0016629Y0084082D01*
X0016025Y0082884D02*
X0015037Y0082884D01*
X0013237Y0084021D02*
X0013237Y0090050D01*
X0017924Y0094737D01*
X0019890Y0094737D01*
X0023193Y0097266D02*
X0023281Y0097266D01*
X0025424Y0093800D02*
X0027612Y0091612D01*
X0027612Y0087862D01*
X0029799Y0085675D01*
X0029799Y0084738D01*
X0027612Y0084738D01*
X0027612Y0087862D01*
X0029412Y0088876D02*
X0063649Y0088876D01*
X0063649Y0087678D02*
X0033556Y0087678D01*
X0033999Y0086479D02*
X0063766Y0086479D01*
X0064612Y0085281D02*
X0033999Y0085281D01*
X0033999Y0084082D02*
X0065810Y0084082D01*
X0067009Y0082884D02*
X0033999Y0082884D01*
X0031604Y0090075D02*
X0029412Y0090075D01*
X0029412Y0091273D02*
X0031124Y0091273D01*
X0031124Y0092472D02*
X0029949Y0092472D01*
X0029949Y0093671D02*
X0031124Y0093671D01*
X0031124Y0094869D02*
X0029949Y0094869D01*
X0029949Y0096068D02*
X0031124Y0096068D01*
X0031124Y0097266D02*
X0029886Y0097266D01*
X0031124Y0098465D02*
X0009837Y0098465D01*
X0009837Y0099663D02*
X0031124Y0099663D01*
X0031124Y0100862D02*
X0009837Y0100862D01*
X0009837Y0102060D02*
X0031124Y0102060D01*
X0031124Y0103259D02*
X0009837Y0103259D01*
X0009837Y0104457D02*
X0031124Y0104457D01*
X0031124Y0105656D02*
X0009837Y0105656D01*
X0009837Y0106854D02*
X0031124Y0106854D01*
X0031124Y0108053D02*
X0009837Y0108053D01*
X0009837Y0109251D02*
X0031124Y0109251D01*
X0031124Y0110450D02*
X0009837Y0110450D01*
X0009837Y0111648D02*
X0031124Y0111648D01*
X0031124Y0112847D02*
X0009837Y0112847D01*
X0009837Y0114045D02*
X0031124Y0114045D01*
X0031124Y0115244D02*
X0009837Y0115244D01*
X0009837Y0116442D02*
X0031124Y0116442D01*
X0031124Y0117641D02*
X0009837Y0117641D01*
X0009837Y0118839D02*
X0031124Y0118839D01*
X0031124Y0120038D02*
X0009837Y0120038D01*
X0009837Y0121236D02*
X0031124Y0121236D01*
X0031124Y0122435D02*
X0009837Y0122435D01*
X0009837Y0123633D02*
X0031124Y0123633D01*
X0032924Y0123633D02*
X0039891Y0123633D01*
X0039449Y0124075D02*
X0040387Y0123137D01*
X0040699Y0122825D01*
X0041637Y0121887D01*
X0058930Y0121887D01*
X0060234Y0120583D01*
X0061980Y0119860D01*
X0063869Y0119860D01*
X0065615Y0120583D01*
X0066919Y0121887D01*
X0082887Y0121887D01*
X0083199Y0121575D01*
X0083199Y0100588D01*
X0082324Y0100588D01*
X0082324Y0107587D01*
X0077714Y0107587D01*
X0077307Y0107478D01*
X0076942Y0107268D01*
X0076644Y0106970D01*
X0076433Y0106605D01*
X0076324Y0106198D01*
X0076324Y0100587D01*
X0082324Y0100587D01*
X0082324Y0099388D01*
X0076324Y0099388D01*
X0076324Y0093777D01*
X0076433Y0093370D01*
X0076644Y0093005D01*
X0076942Y0092707D01*
X0077307Y0092497D01*
X0077714Y0092387D01*
X0082324Y0092387D01*
X0082324Y0099387D01*
X0083199Y0099387D01*
X0083199Y0065023D01*
X0080623Y0063955D01*
X0079843Y0063175D01*
X0079399Y0063175D01*
X0079399Y0064337D01*
X0075199Y0064337D01*
X0075199Y0065137D01*
X0079399Y0065137D01*
X0079399Y0066948D01*
X0079290Y0067355D01*
X0079080Y0067720D01*
X0078782Y0068018D01*
X0078417Y0068228D01*
X0078010Y0068337D01*
X0075199Y0068337D01*
X0075199Y0065138D01*
X0074399Y0065138D01*
X0074399Y0068337D01*
X0072612Y0068337D01*
X0072612Y0071538D01*
X0078296Y0071538D01*
X0078999Y0072240D01*
X0078999Y0077235D01*
X0078296Y0077937D01*
X0072612Y0077937D01*
X0072612Y0081538D01*
X0078296Y0081538D01*
X0078999Y0082240D01*
X0078999Y0087235D01*
X0078296Y0087937D01*
X0072612Y0087937D01*
X0072612Y0091300D01*
X0068449Y0091300D01*
X0068449Y0092815D01*
X0069124Y0093490D01*
X0069124Y0106485D01*
X0068421Y0107187D01*
X0057427Y0107187D01*
X0056724Y0106485D01*
X0056724Y0093490D01*
X0057427Y0092787D01*
X0063649Y0092787D01*
X0063649Y0091300D01*
X0032924Y0091300D01*
X0032924Y0124425D01*
X0039449Y0124464D01*
X0039449Y0124075D01*
X0040699Y0122825D02*
X0040699Y0122825D01*
X0041089Y0122435D02*
X0032924Y0122435D01*
X0032924Y0121236D02*
X0059581Y0121236D01*
X0061550Y0120038D02*
X0032924Y0120038D01*
X0032924Y0118839D02*
X0083199Y0118839D01*
X0083199Y0117641D02*
X0032924Y0117641D01*
X0032924Y0116442D02*
X0083199Y0116442D01*
X0083199Y0115244D02*
X0032924Y0115244D01*
X0032924Y0114045D02*
X0083199Y0114045D01*
X0083199Y0112847D02*
X0032924Y0112847D01*
X0032924Y0111648D02*
X0083199Y0111648D01*
X0083199Y0110450D02*
X0032924Y0110450D01*
X0032924Y0109251D02*
X0083199Y0109251D01*
X0083199Y0108053D02*
X0032924Y0108053D01*
X0032924Y0106854D02*
X0036577Y0106854D01*
X0036644Y0106970D02*
X0036433Y0106605D01*
X0036324Y0106198D01*
X0036324Y0100587D01*
X0042324Y0100587D01*
X0042324Y0099388D01*
X0036324Y0099388D01*
X0036324Y0093777D01*
X0036433Y0093370D01*
X0036644Y0093005D01*
X0036942Y0092707D01*
X0037307Y0092497D01*
X0037714Y0092387D01*
X0042324Y0092387D01*
X0042324Y0099387D01*
X0043524Y0099387D01*
X0043524Y0092387D01*
X0048135Y0092387D01*
X0048542Y0092497D01*
X0048907Y0092707D01*
X0049205Y0093005D01*
X0049415Y0093370D01*
X0049524Y0093777D01*
X0049524Y0099388D01*
X0043524Y0099388D01*
X0043524Y0100587D01*
X0049524Y0100587D01*
X0049524Y0106198D01*
X0049415Y0106605D01*
X0049205Y0106970D01*
X0048907Y0107268D01*
X0048542Y0107478D01*
X0048135Y0107587D01*
X0043524Y0107587D01*
X0043524Y0100588D01*
X0042324Y0100588D01*
X0042324Y0107587D01*
X0037714Y0107587D01*
X0037307Y0107478D01*
X0036942Y0107268D01*
X0036644Y0106970D01*
X0036324Y0105656D02*
X0032924Y0105656D01*
X0032924Y0104457D02*
X0036324Y0104457D01*
X0036324Y0103259D02*
X0032924Y0103259D01*
X0032924Y0102060D02*
X0036324Y0102060D01*
X0036324Y0100862D02*
X0032924Y0100862D01*
X0032924Y0099663D02*
X0042324Y0099663D01*
X0042324Y0098465D02*
X0043524Y0098465D01*
X0043524Y0099663D02*
X0056724Y0099663D01*
X0056724Y0098465D02*
X0049524Y0098465D01*
X0049524Y0097266D02*
X0056724Y0097266D01*
X0056724Y0096068D02*
X0049524Y0096068D01*
X0049524Y0094869D02*
X0056724Y0094869D01*
X0056724Y0093671D02*
X0049496Y0093671D01*
X0048450Y0092472D02*
X0063649Y0092472D01*
X0068449Y0092472D02*
X0077398Y0092472D01*
X0076353Y0093671D02*
X0069124Y0093671D01*
X0069124Y0094869D02*
X0076324Y0094869D01*
X0076324Y0096068D02*
X0069124Y0096068D01*
X0069124Y0097266D02*
X0076324Y0097266D01*
X0076324Y0098465D02*
X0069124Y0098465D01*
X0069124Y0099663D02*
X0082324Y0099663D01*
X0082324Y0098465D02*
X0083199Y0098465D01*
X0083199Y0097266D02*
X0082324Y0097266D01*
X0082324Y0096068D02*
X0083199Y0096068D01*
X0083199Y0094869D02*
X0082324Y0094869D01*
X0082324Y0093671D02*
X0083199Y0093671D01*
X0083199Y0092472D02*
X0082324Y0092472D01*
X0083199Y0091273D02*
X0072612Y0091273D01*
X0072612Y0090075D02*
X0083199Y0090075D01*
X0083199Y0088876D02*
X0072612Y0088876D01*
X0078556Y0087678D02*
X0083199Y0087678D01*
X0083199Y0086479D02*
X0078999Y0086479D01*
X0078999Y0085281D02*
X0083199Y0085281D01*
X0083199Y0084082D02*
X0078999Y0084082D01*
X0078999Y0082884D02*
X0083199Y0082884D01*
X0083199Y0081685D02*
X0078444Y0081685D01*
X0078999Y0076891D02*
X0083199Y0076891D01*
X0083199Y0075693D02*
X0078999Y0075693D01*
X0078999Y0074494D02*
X0083199Y0074494D01*
X0083199Y0073296D02*
X0078999Y0073296D01*
X0078856Y0072097D02*
X0083199Y0072097D01*
X0083199Y0070899D02*
X0072612Y0070899D01*
X0072612Y0069700D02*
X0083199Y0069700D01*
X0083199Y0068502D02*
X0072612Y0068502D01*
X0074399Y0067303D02*
X0075199Y0067303D01*
X0075199Y0066105D02*
X0074399Y0066105D01*
X0075199Y0064906D02*
X0082918Y0064906D01*
X0083199Y0066105D02*
X0079399Y0066105D01*
X0079304Y0067303D02*
X0083199Y0067303D01*
X0080375Y0063708D02*
X0079399Y0063708D01*
X0083199Y0061311D02*
X0047647Y0061311D01*
X0048845Y0060112D02*
X0083199Y0060112D01*
X0083199Y0058914D02*
X0050044Y0058914D01*
X0051242Y0057715D02*
X0083199Y0057715D01*
X0083199Y0056517D02*
X0052441Y0056517D01*
X0052849Y0055318D02*
X0055617Y0055318D01*
X0053562Y0054120D02*
X0053562Y0054120D01*
X0053562Y0052921D02*
X0053562Y0052921D01*
X0053562Y0051723D02*
X0053562Y0051723D01*
X0053562Y0051155D02*
X0053562Y0047193D01*
X0054560Y0047193D01*
X0054967Y0047302D01*
X0055332Y0047512D01*
X0055412Y0047593D01*
X0057405Y0047593D01*
X0058108Y0048296D01*
X0058108Y0053137D01*
X0071324Y0053137D01*
X0071837Y0052625D01*
X0071837Y0046763D01*
X0071837Y0045437D01*
X0073824Y0043450D01*
X0076075Y0043450D01*
X0076075Y0042978D01*
X0076503Y0042550D01*
X0076075Y0042122D01*
X0076075Y0041650D01*
X0076012Y0041650D01*
X0075074Y0040713D01*
X0071012Y0036650D01*
X0053512Y0036650D01*
X0052574Y0035713D01*
X0049403Y0032541D01*
X0049403Y0031882D01*
X0047485Y0031882D01*
X0047485Y0037035D01*
X0048187Y0037738D01*
X0061685Y0037738D01*
X0062334Y0037088D01*
X0067265Y0037088D01*
X0067968Y0037791D01*
X0067968Y0043116D01*
X0067517Y0043566D01*
X0067750Y0043701D01*
X0068048Y0043999D01*
X0068259Y0044364D01*
X0068368Y0044770D01*
X0068368Y0046762D01*
X0065184Y0046762D01*
X0065184Y0047531D01*
X0068368Y0047531D01*
X0068368Y0049522D01*
X0068259Y0049929D01*
X0068048Y0050294D01*
X0067750Y0050592D01*
X0067385Y0050803D01*
X0066979Y0050912D01*
X0065184Y0050912D01*
X0065184Y0047531D01*
X0064415Y0047531D01*
X0064415Y0050912D01*
X0062620Y0050912D01*
X0062213Y0050803D01*
X0061848Y0050592D01*
X0061551Y0050294D01*
X0061340Y0049929D01*
X0061231Y0049522D01*
X0061231Y0047531D01*
X0064415Y0047531D01*
X0064415Y0046762D01*
X0061231Y0046762D01*
X0061231Y0044770D01*
X0061340Y0044364D01*
X0061551Y0043999D01*
X0061848Y0043701D01*
X0062081Y0043566D01*
X0061631Y0043116D01*
X0061631Y0041737D01*
X0048187Y0041737D01*
X0047685Y0042240D01*
X0047685Y0047593D01*
X0051712Y0047593D01*
X0051792Y0047512D01*
X0052157Y0047302D01*
X0052564Y0047193D01*
X0053562Y0047193D01*
X0053562Y0051155D01*
X0053562Y0051155D01*
X0053562Y0050524D02*
X0053562Y0050524D01*
X0053562Y0049326D02*
X0053562Y0049326D01*
X0053562Y0048127D02*
X0053562Y0048127D01*
X0051003Y0051155D02*
X0051003Y0055316D01*
X0051049Y0055362D01*
X0046362Y0060050D01*
X0023237Y0060050D01*
X0021049Y0062237D01*
X0021049Y0064987D01*
X0016049Y0057550D02*
X0013237Y0060362D01*
X0013237Y0062954D01*
X0010247Y0060112D02*
X0009837Y0060112D01*
X0009837Y0058914D02*
X0012140Y0058914D01*
X0013339Y0057715D02*
X0009837Y0057715D01*
X0009837Y0056517D02*
X0014537Y0056517D01*
X0016049Y0057550D02*
X0045424Y0057550D01*
X0048444Y0054531D01*
X0048444Y0051155D01*
X0045885Y0051155D02*
X0045885Y0039885D01*
X0045737Y0039738D01*
X0047790Y0042135D02*
X0061631Y0042135D01*
X0061848Y0043333D02*
X0047685Y0043333D01*
X0047685Y0044532D02*
X0061295Y0044532D01*
X0061231Y0045730D02*
X0047685Y0045730D01*
X0047685Y0046929D02*
X0064415Y0046929D01*
X0065184Y0046929D02*
X0071837Y0046929D01*
X0071837Y0048127D02*
X0068368Y0048127D01*
X0068368Y0049326D02*
X0071837Y0049326D01*
X0071837Y0050524D02*
X0067818Y0050524D01*
X0065184Y0050524D02*
X0064415Y0050524D01*
X0064415Y0049326D02*
X0065184Y0049326D01*
X0065184Y0048127D02*
X0064415Y0048127D01*
X0061780Y0050524D02*
X0058108Y0050524D01*
X0058108Y0049326D02*
X0061231Y0049326D01*
X0061231Y0048127D02*
X0057940Y0048127D01*
X0058108Y0051723D02*
X0071837Y0051723D01*
X0071541Y0052921D02*
X0058108Y0052921D01*
X0067751Y0043333D02*
X0076075Y0043333D01*
X0076087Y0042135D02*
X0067968Y0042135D01*
X0067968Y0040936D02*
X0075298Y0040936D01*
X0074099Y0039738D02*
X0067968Y0039738D01*
X0067968Y0038539D02*
X0072901Y0038539D01*
X0071702Y0037340D02*
X0067517Y0037340D01*
X0068304Y0044532D02*
X0072743Y0044532D01*
X0071837Y0045730D02*
X0068368Y0045730D01*
X0075037Y0046929D02*
X0076075Y0046929D01*
X0075037Y0048127D02*
X0083199Y0048127D01*
X0083199Y0049326D02*
X0075037Y0049326D01*
X0075037Y0050524D02*
X0083199Y0050524D01*
X0083199Y0051723D02*
X0075037Y0051723D01*
X0075037Y0052921D02*
X0083199Y0052921D01*
X0083199Y0054120D02*
X0074867Y0054120D01*
X0073669Y0055318D02*
X0083199Y0055318D01*
X0070599Y0062509D02*
X0033999Y0062509D01*
X0033999Y0063708D02*
X0070599Y0063708D01*
X0070599Y0064906D02*
X0033999Y0064906D01*
X0033999Y0066105D02*
X0070599Y0066105D01*
X0070668Y0067303D02*
X0033931Y0067303D01*
X0038207Y0055117D02*
X0038207Y0051155D01*
X0038207Y0051155D01*
X0038207Y0055117D01*
X0038207Y0054120D02*
X0038207Y0054120D01*
X0038207Y0052921D02*
X0038207Y0052921D01*
X0038207Y0051723D02*
X0038207Y0051723D01*
X0038208Y0051155D02*
X0038379Y0051155D01*
X0040766Y0051155D01*
X0040766Y0051155D01*
X0040766Y0055117D01*
X0040766Y0051155D01*
X0040766Y0051155D01*
X0038208Y0051155D01*
X0038208Y0051155D01*
X0038207Y0051155D02*
X0038207Y0047193D01*
X0038207Y0051155D01*
X0038207Y0051155D01*
X0038207Y0050524D02*
X0038207Y0050524D01*
X0038207Y0049326D02*
X0038207Y0049326D01*
X0038207Y0048127D02*
X0038207Y0048127D01*
X0038207Y0047193D02*
X0039205Y0047193D01*
X0039487Y0047268D01*
X0039768Y0047193D01*
X0040766Y0047193D01*
X0040766Y0051155D01*
X0040766Y0051155D01*
X0040766Y0047193D01*
X0041764Y0047193D01*
X0042046Y0047268D01*
X0042327Y0047193D01*
X0043325Y0047193D01*
X0043325Y0051155D01*
X0043326Y0051155D01*
X0043326Y0047193D01*
X0044085Y0047193D01*
X0044085Y0042535D01*
X0043287Y0041737D01*
X0035375Y0041737D01*
X0034689Y0042423D01*
X0034689Y0047593D01*
X0036357Y0047593D01*
X0036438Y0047512D01*
X0036802Y0047302D01*
X0037209Y0047193D01*
X0038207Y0047193D01*
X0040766Y0048127D02*
X0040766Y0048127D01*
X0040766Y0049326D02*
X0040766Y0049326D01*
X0040766Y0050524D02*
X0040766Y0050524D01*
X0040766Y0051723D02*
X0040766Y0051723D01*
X0040766Y0052921D02*
X0040766Y0052921D01*
X0040766Y0054120D02*
X0040766Y0054120D01*
X0043325Y0054120D02*
X0043326Y0054120D01*
X0043325Y0052921D02*
X0043326Y0052921D01*
X0043325Y0051723D02*
X0043326Y0051723D01*
X0043325Y0050524D02*
X0043326Y0050524D01*
X0043325Y0049326D02*
X0043326Y0049326D01*
X0043325Y0048127D02*
X0043326Y0048127D01*
X0044085Y0046929D02*
X0034689Y0046929D01*
X0034689Y0045730D02*
X0044085Y0045730D01*
X0044085Y0044532D02*
X0034689Y0044532D01*
X0034689Y0043333D02*
X0044085Y0043333D01*
X0043684Y0042135D02*
X0034978Y0042135D01*
X0031489Y0042753D02*
X0031489Y0047593D01*
X0029821Y0047593D01*
X0029741Y0047512D01*
X0029376Y0047302D01*
X0028969Y0047193D01*
X0027971Y0047193D01*
X0027971Y0051155D01*
X0027971Y0055117D01*
X0027971Y0051155D01*
X0027971Y0051155D01*
X0027971Y0051155D01*
X0027799Y0051155D01*
X0025412Y0051155D01*
X0025412Y0055117D01*
X0025412Y0051155D01*
X0025412Y0051155D01*
X0025412Y0051155D01*
X0025412Y0051155D01*
X0025412Y0047193D01*
X0024453Y0047193D01*
X0024453Y0042659D01*
X0025375Y0041737D01*
X0030474Y0041737D01*
X0031324Y0042588D01*
X0031489Y0042753D01*
X0031489Y0043333D02*
X0024453Y0043333D01*
X0024453Y0044532D02*
X0031489Y0044532D01*
X0031489Y0045730D02*
X0024453Y0045730D01*
X0024453Y0046929D02*
X0031489Y0046929D01*
X0027971Y0047193D02*
X0027971Y0051155D01*
X0025412Y0051155D01*
X0025412Y0047193D01*
X0026410Y0047193D01*
X0026692Y0047268D01*
X0026973Y0047193D01*
X0027971Y0047193D01*
X0027971Y0048127D02*
X0027971Y0048127D01*
X0027971Y0049326D02*
X0027971Y0049326D01*
X0027971Y0050524D02*
X0027971Y0050524D01*
X0027971Y0051155D02*
X0027971Y0051155D01*
X0027971Y0051723D02*
X0027971Y0051723D01*
X0027971Y0052921D02*
X0027971Y0052921D01*
X0027971Y0054120D02*
X0027971Y0054120D01*
X0025412Y0054120D02*
X0025412Y0054120D01*
X0025412Y0052921D02*
X0025412Y0052921D01*
X0025412Y0051723D02*
X0025412Y0051723D01*
X0025412Y0050524D02*
X0025412Y0050524D01*
X0025412Y0049326D02*
X0025412Y0049326D01*
X0025412Y0048127D02*
X0025412Y0048127D01*
X0021253Y0046929D02*
X0016030Y0046929D01*
X0016405Y0045730D02*
X0021253Y0045730D01*
X0021253Y0044532D02*
X0016405Y0044532D01*
X0016405Y0043333D02*
X0021253Y0043333D01*
X0020871Y0042135D02*
X0016540Y0042135D01*
X0016937Y0037738D02*
X0016262Y0037062D01*
X0016262Y0028544D01*
X0018594Y0026212D01*
X0020466Y0026212D01*
X0020466Y0028320D01*
X0022853Y0028320D01*
X0022853Y0028320D01*
X0020466Y0028320D01*
X0020466Y0030893D01*
X0020575Y0031300D01*
X0020785Y0031665D01*
X0021083Y0031963D01*
X0021448Y0032173D01*
X0021855Y0032282D01*
X0022853Y0032282D01*
X0022853Y0028320D01*
X0022853Y0028320D01*
X0022853Y0032282D01*
X0023812Y0032282D01*
X0023812Y0036900D01*
X0022974Y0037738D01*
X0016937Y0037738D01*
X0016540Y0037340D02*
X0023371Y0037340D01*
X0023812Y0036142D02*
X0016262Y0036142D01*
X0016262Y0034943D02*
X0023812Y0034943D01*
X0023812Y0033745D02*
X0016262Y0033745D01*
X0016262Y0032546D02*
X0023812Y0032546D01*
X0022853Y0031348D02*
X0022853Y0031348D01*
X0022853Y0030149D02*
X0022853Y0030149D01*
X0022853Y0028951D02*
X0022853Y0028951D01*
X0020602Y0031348D02*
X0016262Y0031348D01*
X0016262Y0030149D02*
X0020466Y0030149D01*
X0020466Y0028951D02*
X0016262Y0028951D01*
X0017054Y0027752D02*
X0020466Y0027752D01*
X0020466Y0026554D02*
X0018252Y0026554D01*
X0027012Y0024758D02*
X0027012Y0024030D01*
X0031405Y0019637D01*
X0053402Y0019637D01*
X0054284Y0019272D01*
X0054959Y0018597D01*
X0058346Y0015210D01*
X0058819Y0014737D01*
X0059762Y0014737D01*
X0059762Y0021025D01*
X0060312Y0021575D01*
X0036012Y0021575D01*
X0035074Y0022512D01*
X0034048Y0023538D01*
X0034048Y0024758D01*
X0032380Y0024758D01*
X0032300Y0024678D01*
X0031935Y0024467D01*
X0031528Y0024358D01*
X0030530Y0024358D01*
X0030530Y0028320D01*
X0030530Y0028320D01*
X0030530Y0024358D01*
X0029532Y0024358D01*
X0029125Y0024467D01*
X0028760Y0024678D01*
X0028680Y0024758D01*
X0027012Y0024758D01*
X0027012Y0024157D02*
X0034048Y0024157D01*
X0034628Y0022958D02*
X0028084Y0022958D01*
X0029282Y0021760D02*
X0035827Y0021760D01*
X0038207Y0028320D02*
X0038207Y0039708D01*
X0038237Y0039738D01*
X0040290Y0037340D02*
X0043684Y0037340D01*
X0043287Y0037738D02*
X0044285Y0036740D01*
X0044285Y0031882D01*
X0042617Y0031882D01*
X0042536Y0031963D01*
X0042171Y0032173D01*
X0041764Y0032282D01*
X0040766Y0032282D01*
X0040007Y0032282D01*
X0040007Y0037058D01*
X0040687Y0037738D01*
X0043287Y0037738D01*
X0044285Y0036142D02*
X0040007Y0036142D01*
X0040007Y0034943D02*
X0044285Y0034943D01*
X0044285Y0033745D02*
X0040007Y0033745D01*
X0040007Y0032546D02*
X0044285Y0032546D01*
X0047485Y0032546D02*
X0049408Y0032546D01*
X0050607Y0033745D02*
X0047485Y0033745D01*
X0047485Y0034943D02*
X0051805Y0034943D01*
X0053004Y0036142D02*
X0047485Y0036142D01*
X0047790Y0037340D02*
X0062082Y0037340D01*
X0059762Y0020561D02*
X0030481Y0020561D01*
X0030530Y0025355D02*
X0030530Y0025355D01*
X0030530Y0026554D02*
X0030530Y0026554D01*
X0030530Y0027752D02*
X0030530Y0027752D01*
X0030530Y0028320D02*
X0030530Y0032282D01*
X0029532Y0032282D01*
X0029125Y0032173D01*
X0028760Y0031963D01*
X0028680Y0031882D01*
X0027012Y0031882D01*
X0027012Y0036875D01*
X0027024Y0036887D01*
X0027875Y0037738D01*
X0030474Y0037738D01*
X0031489Y0036722D01*
X0031489Y0032282D01*
X0030530Y0032282D01*
X0030530Y0028320D01*
X0030530Y0028320D01*
X0030530Y0028951D02*
X0030530Y0028951D01*
X0030530Y0030149D02*
X0030530Y0030149D01*
X0030530Y0031348D02*
X0030530Y0031348D01*
X0031489Y0032546D02*
X0027012Y0032546D01*
X0027012Y0033745D02*
X0031489Y0033745D01*
X0031489Y0034943D02*
X0027012Y0034943D01*
X0027012Y0036142D02*
X0031489Y0036142D01*
X0030871Y0037340D02*
X0027478Y0037340D01*
X0027024Y0036887D02*
X0027024Y0036887D01*
X0024978Y0042135D02*
X0030871Y0042135D01*
X0040766Y0032282D02*
X0040766Y0028320D01*
X0040766Y0028320D01*
X0040766Y0032282D01*
X0040766Y0031348D02*
X0040766Y0031348D01*
X0040766Y0030149D02*
X0040766Y0030149D01*
X0040766Y0028951D02*
X0040766Y0028951D01*
X0054065Y0019363D02*
X0059762Y0019363D01*
X0059762Y0018164D02*
X0055392Y0018164D01*
X0056590Y0016966D02*
X0059762Y0016966D01*
X0059762Y0015767D02*
X0057789Y0015767D01*
X0045111Y0055318D02*
X0009837Y0055318D01*
X0009837Y0054120D02*
X0010442Y0054120D01*
X0012853Y0054120D02*
X0013621Y0054120D01*
X0013621Y0052921D02*
X0012853Y0052921D01*
X0012853Y0051723D02*
X0013621Y0051723D01*
X0013621Y0050524D02*
X0020866Y0050524D01*
X0020866Y0049326D02*
X0016805Y0049326D01*
X0016784Y0048127D02*
X0021034Y0048127D01*
X0020866Y0051723D02*
X0016805Y0051723D01*
X0016805Y0052921D02*
X0020866Y0052921D01*
X0020971Y0054120D02*
X0016032Y0054120D01*
X0009872Y0061311D02*
X0009837Y0061311D01*
X0009837Y0062509D02*
X0009872Y0062509D01*
X0009837Y0063708D02*
X0009872Y0063708D01*
X0009837Y0064906D02*
X0009872Y0064906D01*
X0009837Y0066105D02*
X0010149Y0066105D01*
X0009872Y0067303D02*
X0009837Y0067303D01*
X0009837Y0068502D02*
X0009872Y0068502D01*
X0009837Y0069700D02*
X0009872Y0069700D01*
X0009837Y0070899D02*
X0009872Y0070899D01*
X0009837Y0072097D02*
X0009872Y0072097D01*
X0009837Y0073296D02*
X0011437Y0073296D01*
X0011437Y0074494D02*
X0009837Y0074494D01*
X0009837Y0075693D02*
X0011437Y0075693D01*
X0011437Y0076891D02*
X0009837Y0076891D01*
X0009837Y0078090D02*
X0011437Y0078090D01*
X0011437Y0079288D02*
X0009837Y0079288D01*
X0009837Y0080487D02*
X0011437Y0080487D01*
X0011437Y0081685D02*
X0009837Y0081685D01*
X0009837Y0082884D02*
X0011437Y0082884D01*
X0011277Y0084082D02*
X0009837Y0084082D01*
X0009837Y0085281D02*
X0010784Y0085281D01*
X0010784Y0086479D02*
X0009837Y0086479D01*
X0009837Y0087678D02*
X0010784Y0087678D01*
X0010784Y0088876D02*
X0009837Y0088876D01*
X0009837Y0090075D02*
X0010960Y0090075D01*
X0011915Y0091273D02*
X0009837Y0091273D01*
X0009837Y0092472D02*
X0013113Y0092472D01*
X0014312Y0093671D02*
X0009837Y0093671D01*
X0009837Y0094869D02*
X0015510Y0094869D01*
X0016525Y0096068D02*
X0009837Y0096068D01*
X0009837Y0097266D02*
X0016588Y0097266D01*
X0013953Y0087237D02*
X0013237Y0084021D01*
X0013237Y0069646D01*
X0020646Y0084959D02*
X0020646Y0087237D01*
X0027612Y0093709D02*
X0026583Y0094737D01*
X0027612Y0093709D02*
X0027612Y0091612D01*
X0032924Y0092472D02*
X0037398Y0092472D01*
X0036353Y0093671D02*
X0032924Y0093671D01*
X0032924Y0094869D02*
X0036324Y0094869D01*
X0036324Y0096068D02*
X0032924Y0096068D01*
X0032924Y0097266D02*
X0036324Y0097266D01*
X0036324Y0098465D02*
X0032924Y0098465D01*
X0042324Y0097266D02*
X0043524Y0097266D01*
X0043524Y0096068D02*
X0042324Y0096068D01*
X0042324Y0094869D02*
X0043524Y0094869D01*
X0043524Y0093671D02*
X0042324Y0093671D01*
X0042324Y0092472D02*
X0043524Y0092472D01*
X0043524Y0100862D02*
X0042324Y0100862D01*
X0042324Y0102060D02*
X0043524Y0102060D01*
X0043524Y0103259D02*
X0042324Y0103259D01*
X0042324Y0104457D02*
X0043524Y0104457D01*
X0043524Y0105656D02*
X0042324Y0105656D01*
X0042324Y0106854D02*
X0043524Y0106854D01*
X0049272Y0106854D02*
X0057094Y0106854D01*
X0056724Y0105656D02*
X0049524Y0105656D01*
X0049524Y0104457D02*
X0056724Y0104457D01*
X0056724Y0103259D02*
X0049524Y0103259D01*
X0049524Y0102060D02*
X0056724Y0102060D01*
X0056724Y0100862D02*
X0049524Y0100862D01*
X0064298Y0120038D02*
X0083199Y0120038D01*
X0083199Y0121236D02*
X0066268Y0121236D01*
X0068755Y0106854D02*
X0076577Y0106854D01*
X0076324Y0105656D02*
X0069124Y0105656D01*
X0069124Y0104457D02*
X0076324Y0104457D01*
X0076324Y0103259D02*
X0069124Y0103259D01*
X0069124Y0102060D02*
X0076324Y0102060D01*
X0076324Y0100862D02*
X0069124Y0100862D01*
X0082324Y0100862D02*
X0083199Y0100862D01*
X0083199Y0102060D02*
X0082324Y0102060D01*
X0082324Y0103259D02*
X0083199Y0103259D01*
X0083199Y0104457D02*
X0082324Y0104457D01*
X0082324Y0105656D02*
X0083199Y0105656D01*
X0083199Y0106854D02*
X0082324Y0106854D01*
X0083199Y0080487D02*
X0072612Y0080487D01*
X0072612Y0079288D02*
X0083199Y0079288D01*
X0083199Y0078090D02*
X0072612Y0078090D01*
D20*
X0085112Y0057237D03*
X0007924Y0098487D03*
D21*
X0029799Y0079738D03*
X0037299Y0074738D03*
X0053862Y0060987D03*
X0056674Y0044737D03*
X0070112Y0047237D03*
X0041987Y0034738D03*
X0039487Y0044737D03*
X0030424Y0044737D03*
X0029487Y0034738D03*
X0032299Y0022237D03*
X0018237Y0028487D03*
X0019487Y0053487D03*
D22*
X0013237Y0043891D02*
X0013862Y0043266D01*
X0013862Y0039738D01*
X0013862Y0027550D01*
X0017599Y0023812D01*
X0023836Y0023812D01*
X0025261Y0022387D01*
X0030411Y0017238D01*
X0052924Y0017238D01*
X0056987Y0013175D01*
X0056987Y0005050D01*
X0068549Y0084738D02*
X0066049Y0087237D01*
X0066049Y0098175D01*
X0065737Y0098487D01*
X0062924Y0098487D01*
X0068549Y0084738D02*
X0074799Y0084738D01*
D23*
X0064799Y0040454D02*
X0064083Y0039738D01*
X0045737Y0039738D01*
X0038237Y0039738D01*
X0033237Y0039738D01*
X0025737Y0039738D01*
X0023237Y0039738D01*
X0013862Y0039738D01*
D24*
X0016674Y0039738D01*
X0015901Y0040511D01*
X0015746Y0040421D01*
X0015390Y0040326D01*
X0013862Y0040326D01*
X0013862Y0036925D01*
X0016674Y0039738D01*
X0015876Y0038939D02*
X0013862Y0038939D01*
X0013862Y0038140D02*
X0015077Y0038140D01*
X0014279Y0037342D02*
X0013862Y0037342D01*
X0020737Y0039738D02*
X0025112Y0039738D01*
X0020737Y0039738D01*
X0022924Y0041925D01*
X0025112Y0039738D01*
X0025412Y0039413D02*
X0025737Y0039738D01*
X0025412Y0039413D02*
X0025412Y0028320D01*
X0025412Y0025389D01*
X0025412Y0024737D01*
X0025261Y0024587D01*
X0025261Y0022387D01*
X0025412Y0022538D01*
X0025412Y0024737D01*
X0025412Y0025389D02*
X0023836Y0023812D01*
X0025412Y0028320D02*
X0027971Y0028320D01*
X0033089Y0028320D02*
X0033089Y0039590D01*
X0033237Y0039738D01*
X0033089Y0039885D01*
X0033089Y0051155D01*
X0035648Y0051155D01*
X0032924Y0041925D02*
X0035112Y0039738D01*
X0030737Y0039738D01*
X0032924Y0037550D01*
X0035112Y0039738D01*
X0030737Y0039738D01*
X0035112Y0039738D01*
X0036049Y0039738D02*
X0040424Y0039738D01*
X0038237Y0037550D01*
X0036049Y0039738D01*
X0036848Y0038939D02*
X0039626Y0038939D01*
X0038827Y0038140D02*
X0037646Y0038140D01*
X0034313Y0038939D02*
X0031535Y0038939D01*
X0030737Y0039738D02*
X0032924Y0041925D01*
X0032334Y0041335D02*
X0033515Y0041335D01*
X0034313Y0040536D02*
X0031535Y0040536D01*
X0032334Y0038140D02*
X0033515Y0038140D01*
X0027612Y0039738D02*
X0023237Y0039738D01*
X0025424Y0037550D01*
X0027612Y0039738D01*
X0026813Y0038939D02*
X0024035Y0038939D01*
X0023237Y0039738D02*
X0022853Y0040121D01*
X0022853Y0051155D01*
X0022334Y0041335D02*
X0023515Y0041335D01*
X0024313Y0040536D02*
X0021535Y0040536D01*
X0024834Y0038140D02*
X0026015Y0038140D01*
X0035648Y0028320D02*
X0035648Y0024201D01*
X0036674Y0023175D01*
X0075112Y0023175D01*
X0076987Y0025050D01*
X0080424Y0025050D01*
X0080424Y0030050D02*
X0076362Y0030050D01*
X0071049Y0024737D01*
X0049487Y0024737D01*
X0048444Y0025781D01*
X0048444Y0028320D01*
X0051003Y0028320D02*
X0051003Y0031878D01*
X0054174Y0035050D01*
X0071674Y0035050D01*
X0076674Y0040050D01*
X0080424Y0040050D01*
X0080424Y0045050D02*
X0074487Y0045050D01*
X0073437Y0046100D01*
X0073437Y0053288D01*
X0071987Y0054737D01*
X0057299Y0054737D01*
X0056121Y0053559D01*
X0056121Y0051155D01*
X0045737Y0041925D02*
X0047924Y0039738D01*
X0043549Y0039738D01*
X0045737Y0037550D01*
X0047924Y0039738D01*
X0043549Y0039738D01*
X0047924Y0039738D01*
X0047126Y0040536D02*
X0044348Y0040536D01*
X0045146Y0041335D02*
X0046327Y0041335D01*
X0045737Y0041925D02*
X0043549Y0039738D01*
X0044348Y0038939D02*
X0047126Y0038939D01*
X0046327Y0038140D02*
X0045146Y0038140D01*
X0045737Y0039738D02*
X0045885Y0039738D01*
X0045885Y0028320D01*
X0043325Y0028320D01*
X0053562Y0028320D02*
X0053562Y0031000D01*
X0055424Y0032863D01*
X0074174Y0032863D01*
X0076362Y0035050D01*
X0080424Y0035050D01*
D25*
X0062924Y0098487D02*
X0062924Y0099987D01*
M02*
