G75*
%MOIN*%
%OFA0B0*%
%FSLAX25Y25*%
%IPPOS*%
%LPD*%
%AMOC8*
5,1,8,0,0,1.08239X$1,22.5*
%
%ADD10C,0.00000*%
%ADD11C,0.00500*%
%ADD12C,0.00600*%
%ADD13C,0.00800*%
%ADD14C,0.02300*%
D10*
X0009487Y0021562D02*
X0021674Y0021562D01*
X0022924Y0020313D01*
X0022924Y0006250D01*
X0024174Y0005000D01*
X0030424Y0005000D01*
X0031674Y0006250D01*
X0031674Y0007812D01*
X0032924Y0009063D01*
X0051362Y0009063D01*
X0052612Y0007812D01*
X0052612Y0006250D01*
X0053862Y0005000D01*
X0060112Y0005000D01*
X0061362Y0006250D01*
X0061362Y0020313D01*
X0062612Y0021562D01*
X0083549Y0021562D01*
X0084799Y0022812D01*
X0084799Y0122187D01*
X0083549Y0123437D01*
X0042299Y0123437D01*
X0041049Y0124687D01*
X0041049Y0125937D01*
X0039799Y0127187D01*
X0009487Y0127187D01*
X0008237Y0125937D01*
X0008237Y0022812D01*
X0009487Y0021562D01*
X0059774Y0124560D02*
X0059776Y0124672D01*
X0059782Y0124783D01*
X0059792Y0124895D01*
X0059806Y0125006D01*
X0059823Y0125116D01*
X0059845Y0125226D01*
X0059871Y0125335D01*
X0059900Y0125443D01*
X0059933Y0125549D01*
X0059970Y0125655D01*
X0060011Y0125759D01*
X0060056Y0125862D01*
X0060104Y0125963D01*
X0060155Y0126062D01*
X0060210Y0126159D01*
X0060269Y0126254D01*
X0060330Y0126348D01*
X0060395Y0126439D01*
X0060464Y0126527D01*
X0060535Y0126613D01*
X0060609Y0126697D01*
X0060687Y0126777D01*
X0060767Y0126855D01*
X0060850Y0126931D01*
X0060935Y0127003D01*
X0061023Y0127072D01*
X0061113Y0127138D01*
X0061206Y0127200D01*
X0061301Y0127260D01*
X0061398Y0127316D01*
X0061496Y0127368D01*
X0061597Y0127417D01*
X0061699Y0127462D01*
X0061803Y0127504D01*
X0061908Y0127542D01*
X0062015Y0127576D01*
X0062122Y0127606D01*
X0062231Y0127633D01*
X0062340Y0127655D01*
X0062451Y0127674D01*
X0062561Y0127689D01*
X0062673Y0127700D01*
X0062784Y0127707D01*
X0062896Y0127710D01*
X0063008Y0127709D01*
X0063120Y0127704D01*
X0063231Y0127695D01*
X0063342Y0127682D01*
X0063453Y0127665D01*
X0063563Y0127645D01*
X0063672Y0127620D01*
X0063780Y0127592D01*
X0063887Y0127559D01*
X0063993Y0127523D01*
X0064097Y0127483D01*
X0064200Y0127440D01*
X0064302Y0127393D01*
X0064401Y0127342D01*
X0064499Y0127288D01*
X0064595Y0127230D01*
X0064689Y0127169D01*
X0064780Y0127105D01*
X0064869Y0127038D01*
X0064956Y0126967D01*
X0065040Y0126893D01*
X0065122Y0126817D01*
X0065200Y0126737D01*
X0065276Y0126655D01*
X0065349Y0126570D01*
X0065419Y0126483D01*
X0065485Y0126393D01*
X0065549Y0126301D01*
X0065609Y0126207D01*
X0065666Y0126111D01*
X0065719Y0126012D01*
X0065769Y0125912D01*
X0065815Y0125811D01*
X0065858Y0125707D01*
X0065897Y0125602D01*
X0065932Y0125496D01*
X0065963Y0125389D01*
X0065991Y0125280D01*
X0066014Y0125171D01*
X0066034Y0125061D01*
X0066050Y0124950D01*
X0066062Y0124839D01*
X0066070Y0124728D01*
X0066074Y0124616D01*
X0066074Y0124504D01*
X0066070Y0124392D01*
X0066062Y0124281D01*
X0066050Y0124170D01*
X0066034Y0124059D01*
X0066014Y0123949D01*
X0065991Y0123840D01*
X0065963Y0123731D01*
X0065932Y0123624D01*
X0065897Y0123518D01*
X0065858Y0123413D01*
X0065815Y0123309D01*
X0065769Y0123208D01*
X0065719Y0123108D01*
X0065666Y0123009D01*
X0065609Y0122913D01*
X0065549Y0122819D01*
X0065485Y0122727D01*
X0065419Y0122637D01*
X0065349Y0122550D01*
X0065276Y0122465D01*
X0065200Y0122383D01*
X0065122Y0122303D01*
X0065040Y0122227D01*
X0064956Y0122153D01*
X0064869Y0122082D01*
X0064780Y0122015D01*
X0064689Y0121951D01*
X0064595Y0121890D01*
X0064499Y0121832D01*
X0064401Y0121778D01*
X0064302Y0121727D01*
X0064200Y0121680D01*
X0064097Y0121637D01*
X0063993Y0121597D01*
X0063887Y0121561D01*
X0063780Y0121528D01*
X0063672Y0121500D01*
X0063563Y0121475D01*
X0063453Y0121455D01*
X0063342Y0121438D01*
X0063231Y0121425D01*
X0063120Y0121416D01*
X0063008Y0121411D01*
X0062896Y0121410D01*
X0062784Y0121413D01*
X0062673Y0121420D01*
X0062561Y0121431D01*
X0062451Y0121446D01*
X0062340Y0121465D01*
X0062231Y0121487D01*
X0062122Y0121514D01*
X0062015Y0121544D01*
X0061908Y0121578D01*
X0061803Y0121616D01*
X0061699Y0121658D01*
X0061597Y0121703D01*
X0061496Y0121752D01*
X0061398Y0121804D01*
X0061301Y0121860D01*
X0061206Y0121920D01*
X0061113Y0121982D01*
X0061023Y0122048D01*
X0060935Y0122117D01*
X0060850Y0122189D01*
X0060767Y0122265D01*
X0060687Y0122343D01*
X0060609Y0122423D01*
X0060535Y0122507D01*
X0060464Y0122593D01*
X0060395Y0122681D01*
X0060330Y0122772D01*
X0060269Y0122866D01*
X0060210Y0122961D01*
X0060155Y0123058D01*
X0060104Y0123157D01*
X0060056Y0123258D01*
X0060011Y0123361D01*
X0059970Y0123465D01*
X0059933Y0123571D01*
X0059900Y0123677D01*
X0059871Y0123785D01*
X0059845Y0123894D01*
X0059823Y0124004D01*
X0059806Y0124114D01*
X0059792Y0124225D01*
X0059782Y0124337D01*
X0059776Y0124448D01*
X0059774Y0124560D01*
D11*
X0059793Y0118852D02*
X0058893Y0118852D01*
X0058442Y0118402D01*
X0058442Y0116600D01*
X0060244Y0118402D01*
X0060244Y0116600D01*
X0059793Y0116150D01*
X0058893Y0116150D01*
X0058442Y0116600D01*
X0057297Y0117501D02*
X0055496Y0117501D01*
X0054351Y0118852D02*
X0053450Y0118852D01*
X0053900Y0118852D02*
X0053900Y0116600D01*
X0053450Y0116150D01*
X0052999Y0116150D01*
X0052549Y0116600D01*
X0051404Y0116600D02*
X0050954Y0116150D01*
X0050053Y0116150D01*
X0049603Y0116600D01*
X0049603Y0118402D01*
X0050053Y0118852D01*
X0050954Y0118852D01*
X0051404Y0118402D01*
X0048458Y0118402D02*
X0048458Y0117501D01*
X0048007Y0117051D01*
X0046656Y0117051D01*
X0047557Y0117051D02*
X0048458Y0116150D01*
X0046656Y0116150D02*
X0046656Y0118852D01*
X0048007Y0118852D01*
X0048458Y0118402D01*
X0046851Y0110140D02*
X0045049Y0110140D01*
X0045950Y0110140D02*
X0045950Y0107437D01*
X0047996Y0107437D02*
X0049797Y0109239D01*
X0050942Y0108789D02*
X0052744Y0108789D01*
X0049797Y0107437D02*
X0047996Y0109239D01*
X0060049Y0110140D02*
X0061851Y0110140D01*
X0060950Y0110140D02*
X0060950Y0107437D01*
X0062996Y0107437D02*
X0064797Y0109239D01*
X0065942Y0108789D02*
X0067744Y0108789D01*
X0066843Y0109689D02*
X0066843Y0107888D01*
X0064797Y0107437D02*
X0062996Y0109239D01*
X0063190Y0116150D02*
X0061389Y0116150D01*
X0062289Y0116150D02*
X0062289Y0118852D01*
X0061389Y0117952D01*
X0060244Y0118402D02*
X0059793Y0118852D01*
X0064335Y0118852D02*
X0066137Y0116150D01*
X0067282Y0117501D02*
X0069083Y0117501D01*
X0070228Y0117952D02*
X0070228Y0118402D01*
X0070679Y0118852D01*
X0071579Y0118852D01*
X0072030Y0118402D01*
X0071579Y0117501D02*
X0072030Y0117051D01*
X0072030Y0116600D01*
X0071579Y0116150D01*
X0070679Y0116150D01*
X0070228Y0116600D01*
X0070679Y0117501D02*
X0071579Y0117501D01*
X0070679Y0117501D02*
X0070228Y0117952D01*
X0073175Y0118852D02*
X0073175Y0116150D01*
X0074075Y0117952D02*
X0074976Y0118852D01*
X0074976Y0116150D01*
X0074075Y0117952D02*
X0073175Y0118852D01*
X0076121Y0118852D02*
X0077923Y0118852D01*
X0077022Y0118852D02*
X0077022Y0116150D01*
X0066137Y0118852D02*
X0064335Y0116150D01*
X0071049Y0092387D02*
X0033549Y0092387D01*
X0033549Y0056987D01*
X0071049Y0056987D01*
X0071049Y0092387D01*
X0079660Y0087081D02*
X0080560Y0087982D01*
X0081461Y0087982D01*
X0082362Y0087081D01*
X0082812Y0089045D02*
X0082812Y0090847D01*
X0079660Y0085936D02*
X0082362Y0084134D01*
X0082812Y0082989D02*
X0082812Y0081188D01*
X0082812Y0080043D02*
X0082812Y0078241D01*
X0081461Y0077178D02*
X0082362Y0076277D01*
X0081461Y0077178D02*
X0080560Y0077178D01*
X0079660Y0076277D01*
X0079660Y0075132D02*
X0082362Y0073331D01*
X0082812Y0072186D02*
X0082812Y0070384D01*
X0082812Y0069239D02*
X0082812Y0067438D01*
X0076981Y0053265D02*
X0075630Y0053265D01*
X0075630Y0050562D01*
X0076981Y0050562D01*
X0077431Y0051013D01*
X0077431Y0052814D01*
X0076981Y0053265D01*
X0074485Y0053265D02*
X0074485Y0050562D01*
X0072683Y0053265D01*
X0072683Y0050562D01*
X0071538Y0051013D02*
X0071088Y0050562D01*
X0070187Y0050562D01*
X0069737Y0051013D01*
X0069737Y0052814D01*
X0070187Y0053265D01*
X0071088Y0053265D01*
X0071538Y0052814D01*
X0071538Y0051914D02*
X0070638Y0051914D01*
X0071538Y0051914D02*
X0071538Y0051013D01*
X0074700Y0046390D02*
X0073799Y0045489D01*
X0074700Y0046390D02*
X0074700Y0043687D01*
X0073799Y0043687D02*
X0075601Y0043687D01*
X0075151Y0041390D02*
X0074250Y0041390D01*
X0073799Y0040939D01*
X0075151Y0041390D02*
X0075601Y0040939D01*
X0075601Y0040489D01*
X0073799Y0038688D01*
X0075601Y0038688D01*
X0075151Y0036390D02*
X0074250Y0036390D01*
X0073799Y0035939D01*
X0074700Y0035039D02*
X0075151Y0035039D01*
X0075601Y0034588D01*
X0075601Y0034138D01*
X0075151Y0033688D01*
X0074250Y0033688D01*
X0073799Y0034138D01*
X0075151Y0035039D02*
X0075601Y0035489D01*
X0075601Y0035939D01*
X0075151Y0036390D01*
X0075151Y0031390D02*
X0073799Y0030039D01*
X0075601Y0030039D01*
X0075151Y0031390D02*
X0075151Y0028687D01*
X0075288Y0026390D02*
X0073487Y0026390D01*
X0073487Y0025039D01*
X0074388Y0025489D01*
X0074838Y0025489D01*
X0075288Y0025039D01*
X0075288Y0024138D01*
X0074838Y0023687D01*
X0073937Y0023687D01*
X0073487Y0024138D01*
X0059931Y0011739D02*
X0058580Y0011739D01*
X0058130Y0011289D01*
X0058130Y0010388D01*
X0058580Y0009938D01*
X0059931Y0009938D01*
X0056985Y0009938D02*
X0055634Y0009938D01*
X0055183Y0010388D01*
X0055183Y0011289D01*
X0055634Y0011739D01*
X0056985Y0011739D01*
X0054038Y0010838D02*
X0054038Y0012640D01*
X0052237Y0012640D02*
X0052237Y0010838D01*
X0053138Y0009938D01*
X0054038Y0010838D01*
X0032119Y0010388D02*
X0032119Y0012189D01*
X0031669Y0012640D01*
X0030317Y0012640D01*
X0030317Y0009938D01*
X0031669Y0009938D01*
X0032119Y0010388D01*
X0029172Y0009938D02*
X0029172Y0012640D01*
X0027371Y0012640D02*
X0027371Y0009938D01*
X0026226Y0010388D02*
X0026226Y0011289D01*
X0025325Y0011289D01*
X0024424Y0012189D02*
X0024424Y0010388D01*
X0024875Y0009938D01*
X0025776Y0009938D01*
X0026226Y0010388D01*
X0026226Y0012189D02*
X0025776Y0012640D01*
X0024875Y0012640D01*
X0024424Y0012189D01*
X0027371Y0012640D02*
X0029172Y0009938D01*
X0016599Y0032437D02*
X0014347Y0032437D01*
X0014347Y0034239D02*
X0016599Y0034239D01*
X0017049Y0033789D01*
X0017049Y0032888D01*
X0016599Y0032437D01*
X0017049Y0035384D02*
X0017049Y0037186D01*
X0017049Y0036285D02*
X0014347Y0036285D01*
X0015248Y0035384D01*
X0015147Y0054000D02*
X0015147Y0056702D01*
X0014246Y0055802D01*
X0013101Y0056252D02*
X0012651Y0056702D01*
X0011750Y0056702D01*
X0011299Y0056252D01*
X0011299Y0054450D01*
X0011750Y0054000D01*
X0012651Y0054000D01*
X0013101Y0054450D01*
X0014246Y0054000D02*
X0016047Y0054000D01*
X0014237Y0072750D02*
X0011535Y0072750D01*
X0011535Y0074101D01*
X0011985Y0074552D01*
X0012886Y0074552D01*
X0013336Y0074101D01*
X0013336Y0072750D01*
X0013336Y0073651D02*
X0014237Y0074552D01*
X0014237Y0075697D02*
X0014237Y0077498D01*
X0014237Y0076597D02*
X0011535Y0076597D01*
X0012435Y0075697D01*
X0012476Y0079938D02*
X0011575Y0080838D01*
X0012026Y0080838D02*
X0010674Y0080838D01*
X0010674Y0079938D02*
X0010674Y0082640D01*
X0012026Y0082640D01*
X0012476Y0082189D01*
X0012476Y0081289D01*
X0012026Y0080838D01*
X0013621Y0079938D02*
X0015422Y0081739D01*
X0015422Y0082189D01*
X0014972Y0082640D01*
X0014071Y0082640D01*
X0013621Y0082189D01*
X0013621Y0079938D02*
X0015422Y0079938D01*
X0020674Y0081950D02*
X0021125Y0081500D01*
X0021575Y0081500D01*
X0022026Y0081950D01*
X0022026Y0084202D01*
X0022476Y0084202D02*
X0021575Y0084202D01*
X0023621Y0083302D02*
X0024522Y0084202D01*
X0024522Y0081500D01*
X0025422Y0081500D02*
X0023621Y0081500D01*
X0030812Y0093687D02*
X0030362Y0094138D01*
X0030362Y0095939D01*
X0030812Y0096390D01*
X0031713Y0096390D01*
X0032163Y0095939D01*
X0033308Y0095939D02*
X0033759Y0096390D01*
X0034660Y0096390D01*
X0035110Y0095939D01*
X0035110Y0095489D01*
X0034660Y0095039D01*
X0035110Y0094588D01*
X0035110Y0094138D01*
X0034660Y0093687D01*
X0033759Y0093687D01*
X0033308Y0094138D01*
X0032163Y0094138D02*
X0031713Y0093687D01*
X0030812Y0093687D01*
X0034209Y0095039D02*
X0034660Y0095039D01*
X0030334Y0106187D02*
X0028532Y0108890D01*
X0027387Y0108439D02*
X0027387Y0107989D01*
X0026937Y0107539D01*
X0025585Y0107539D01*
X0025585Y0108890D02*
X0025585Y0106187D01*
X0026937Y0106187D01*
X0027387Y0106638D01*
X0027387Y0107088D01*
X0026937Y0107539D01*
X0027387Y0108439D02*
X0026937Y0108890D01*
X0025585Y0108890D01*
X0024441Y0108890D02*
X0022639Y0108890D01*
X0022639Y0106187D01*
X0022639Y0107539D02*
X0023540Y0107539D01*
X0021657Y0110087D02*
X0021657Y0112789D01*
X0023008Y0112789D01*
X0023458Y0112339D01*
X0023458Y0111438D01*
X0023008Y0110987D01*
X0021657Y0110987D01*
X0020512Y0111438D02*
X0020061Y0111888D01*
X0019161Y0111888D01*
X0018710Y0112339D01*
X0019161Y0112789D01*
X0020512Y0112789D01*
X0020512Y0111438D02*
X0020061Y0110987D01*
X0018710Y0110987D01*
X0017565Y0110987D02*
X0017565Y0112339D01*
X0017115Y0112789D01*
X0015764Y0112789D01*
X0015764Y0110987D01*
X0014700Y0110987D02*
X0013799Y0110987D01*
X0014250Y0110987D02*
X0014250Y0112789D01*
X0013799Y0112789D01*
X0014250Y0113690D02*
X0014250Y0114140D01*
X0013799Y0108890D02*
X0013799Y0106187D01*
X0015151Y0106187D01*
X0015601Y0106638D01*
X0015601Y0107539D01*
X0015151Y0107989D01*
X0013799Y0107989D01*
X0016746Y0107989D02*
X0016746Y0106638D01*
X0017196Y0106187D01*
X0018547Y0106187D01*
X0018547Y0105737D02*
X0018097Y0105287D01*
X0017647Y0105287D01*
X0018547Y0105737D02*
X0018547Y0107989D01*
X0017963Y0102640D02*
X0017062Y0102640D01*
X0016612Y0102189D01*
X0016612Y0100388D01*
X0017062Y0099937D01*
X0017963Y0099937D01*
X0018413Y0100388D01*
X0018413Y0101289D01*
X0017513Y0101289D01*
X0018413Y0102189D02*
X0017963Y0102640D01*
X0019558Y0102640D02*
X0019558Y0099937D01*
X0021360Y0099937D02*
X0021360Y0102640D01*
X0019558Y0102640D02*
X0021360Y0099937D01*
X0022505Y0099937D02*
X0022505Y0102640D01*
X0023856Y0102640D01*
X0024306Y0102189D01*
X0024306Y0100388D01*
X0023856Y0099937D01*
X0022505Y0099937D01*
X0028532Y0106187D02*
X0030334Y0108890D01*
X0030374Y0110987D02*
X0029473Y0110987D01*
X0029023Y0111438D01*
X0029023Y0112339D01*
X0029473Y0112789D01*
X0030374Y0112789D01*
X0030825Y0112339D01*
X0030825Y0111888D01*
X0029023Y0111888D01*
X0027919Y0112789D02*
X0027468Y0112789D01*
X0026568Y0111888D01*
X0026568Y0110987D02*
X0026568Y0112789D01*
X0025054Y0112789D02*
X0025054Y0110987D01*
X0025504Y0110987D02*
X0024603Y0110987D01*
X0024603Y0112789D02*
X0025054Y0112789D01*
X0025054Y0113690D02*
X0025054Y0114140D01*
X0031970Y0112339D02*
X0032420Y0112789D01*
X0033771Y0112789D01*
X0033771Y0113690D02*
X0033771Y0110987D01*
X0032420Y0110987D01*
X0031970Y0111438D01*
X0031970Y0112339D01*
X0043174Y0072602D02*
X0044525Y0072602D01*
X0044976Y0072152D01*
X0044976Y0070350D01*
X0044525Y0069900D01*
X0043174Y0069900D01*
X0043174Y0072602D01*
X0046121Y0071702D02*
X0046121Y0069900D01*
X0046121Y0071251D02*
X0047922Y0071251D01*
X0047922Y0071702D02*
X0047021Y0072602D01*
X0046121Y0071702D01*
X0047922Y0071702D02*
X0047922Y0069900D01*
X0049067Y0069900D02*
X0050869Y0069900D01*
X0049968Y0069900D02*
X0049968Y0072602D01*
X0049067Y0071702D01*
X0052014Y0072152D02*
X0052014Y0070350D01*
X0053815Y0072152D01*
X0053815Y0070350D01*
X0053365Y0069900D01*
X0052464Y0069900D01*
X0052014Y0070350D01*
X0052014Y0072152D02*
X0052464Y0072602D01*
X0053365Y0072602D01*
X0053815Y0072152D01*
X0054960Y0071702D02*
X0055861Y0072602D01*
X0055861Y0069900D01*
X0054960Y0069900D02*
X0056762Y0069900D01*
X0057907Y0070350D02*
X0058357Y0069900D01*
X0058807Y0069900D01*
X0059258Y0070350D01*
X0059258Y0072602D01*
X0059708Y0072602D02*
X0058807Y0072602D01*
X0060853Y0072152D02*
X0060853Y0070350D01*
X0061304Y0069900D01*
X0062204Y0069900D01*
X0062655Y0070350D01*
X0062655Y0072152D02*
X0062204Y0072602D01*
X0061304Y0072602D01*
X0060853Y0072152D01*
X0061437Y0053265D02*
X0060987Y0052814D01*
X0060987Y0051013D01*
X0061437Y0050562D01*
X0062338Y0050562D01*
X0062788Y0051013D01*
X0063933Y0050562D02*
X0065735Y0052364D01*
X0065735Y0052814D01*
X0065285Y0053265D01*
X0064384Y0053265D01*
X0063933Y0052814D01*
X0062788Y0052814D02*
X0062338Y0053265D01*
X0061437Y0053265D01*
X0063933Y0050562D02*
X0065735Y0050562D01*
D12*
X0066362Y0045000D02*
X0066362Y0042500D01*
X0063237Y0042500D02*
X0063237Y0045000D01*
X0053509Y0018890D02*
X0052374Y0018890D01*
X0051807Y0018323D01*
X0051807Y0017756D01*
X0052374Y0017189D01*
X0053509Y0017189D01*
X0054076Y0016622D01*
X0054076Y0016055D01*
X0053509Y0015487D01*
X0052374Y0015487D01*
X0051807Y0016055D01*
X0050393Y0015487D02*
X0048124Y0015487D01*
X0048124Y0018890D01*
X0050393Y0018890D01*
X0049258Y0017189D02*
X0048124Y0017189D01*
X0046710Y0018890D02*
X0046710Y0015487D01*
X0044441Y0018890D01*
X0044441Y0015487D01*
X0043026Y0016055D02*
X0043026Y0016622D01*
X0042459Y0017189D01*
X0041325Y0017189D01*
X0040758Y0017756D01*
X0040758Y0018323D01*
X0041325Y0018890D01*
X0042459Y0018890D01*
X0043026Y0018323D01*
X0043026Y0016055D02*
X0042459Y0015487D01*
X0041325Y0015487D01*
X0040758Y0016055D01*
X0039343Y0017189D02*
X0037075Y0017189D01*
X0038776Y0018890D01*
X0038776Y0015487D01*
X0035660Y0015487D02*
X0035660Y0017756D01*
X0034526Y0018890D01*
X0033392Y0017756D01*
X0033392Y0015487D01*
X0031977Y0016055D02*
X0031977Y0018323D01*
X0031410Y0018890D01*
X0029708Y0018890D01*
X0029708Y0015487D01*
X0031410Y0015487D01*
X0031977Y0016055D01*
X0033392Y0017189D02*
X0035660Y0017189D01*
X0030299Y0008000D02*
X0029299Y0008000D01*
X0030299Y0008000D02*
X0030299Y0007000D01*
X0030299Y0003000D02*
X0030299Y0002000D01*
X0029299Y0002000D01*
X0025299Y0002000D02*
X0024299Y0002000D01*
X0024299Y0003000D01*
X0024299Y0007000D02*
X0024299Y0008000D01*
X0025299Y0008000D01*
X0014799Y0045937D02*
X0014799Y0048437D01*
X0011674Y0048437D02*
X0011674Y0045937D01*
X0018049Y0061437D02*
X0024049Y0061437D01*
X0024109Y0061439D01*
X0024170Y0061444D01*
X0024229Y0061453D01*
X0024288Y0061466D01*
X0024347Y0061482D01*
X0024404Y0061502D01*
X0024459Y0061525D01*
X0024514Y0061552D01*
X0024566Y0061581D01*
X0024617Y0061614D01*
X0024666Y0061650D01*
X0024712Y0061688D01*
X0024756Y0061730D01*
X0024798Y0061774D01*
X0024836Y0061820D01*
X0024872Y0061869D01*
X0024905Y0061920D01*
X0024934Y0061972D01*
X0024961Y0062027D01*
X0024984Y0062082D01*
X0025004Y0062139D01*
X0025020Y0062198D01*
X0025033Y0062257D01*
X0025042Y0062316D01*
X0025047Y0062377D01*
X0025049Y0062437D01*
X0025049Y0079438D01*
X0025047Y0079498D01*
X0025042Y0079559D01*
X0025033Y0079618D01*
X0025020Y0079677D01*
X0025004Y0079736D01*
X0024984Y0079793D01*
X0024961Y0079848D01*
X0024934Y0079903D01*
X0024905Y0079955D01*
X0024872Y0080006D01*
X0024836Y0080055D01*
X0024798Y0080101D01*
X0024756Y0080145D01*
X0024712Y0080187D01*
X0024666Y0080225D01*
X0024617Y0080261D01*
X0024566Y0080294D01*
X0024514Y0080323D01*
X0024459Y0080350D01*
X0024404Y0080373D01*
X0024347Y0080393D01*
X0024288Y0080409D01*
X0024229Y0080422D01*
X0024170Y0080431D01*
X0024109Y0080436D01*
X0024049Y0080438D01*
X0018049Y0080438D01*
X0017989Y0080436D01*
X0017928Y0080431D01*
X0017869Y0080422D01*
X0017810Y0080409D01*
X0017751Y0080393D01*
X0017694Y0080373D01*
X0017639Y0080350D01*
X0017584Y0080323D01*
X0017532Y0080294D01*
X0017481Y0080261D01*
X0017432Y0080225D01*
X0017386Y0080187D01*
X0017342Y0080145D01*
X0017300Y0080101D01*
X0017262Y0080055D01*
X0017226Y0080006D01*
X0017193Y0079955D01*
X0017164Y0079903D01*
X0017137Y0079848D01*
X0017114Y0079793D01*
X0017094Y0079736D01*
X0017078Y0079677D01*
X0017065Y0079618D01*
X0017056Y0079559D01*
X0017051Y0079498D01*
X0017049Y0079438D01*
X0017049Y0062437D01*
X0017051Y0062377D01*
X0017056Y0062316D01*
X0017065Y0062257D01*
X0017078Y0062198D01*
X0017094Y0062139D01*
X0017114Y0062082D01*
X0017137Y0062027D01*
X0017164Y0061972D01*
X0017193Y0061920D01*
X0017226Y0061869D01*
X0017262Y0061820D01*
X0017300Y0061774D01*
X0017342Y0061730D01*
X0017386Y0061688D01*
X0017432Y0061650D01*
X0017481Y0061614D01*
X0017532Y0061581D01*
X0017584Y0061552D01*
X0017639Y0061525D01*
X0017694Y0061502D01*
X0017751Y0061482D01*
X0017810Y0061466D01*
X0017869Y0061453D01*
X0017928Y0061444D01*
X0017989Y0061439D01*
X0018049Y0061437D01*
X0014799Y0065000D02*
X0014799Y0067500D01*
X0016049Y0070938D02*
X0016049Y0078438D01*
X0016049Y0085625D02*
X0018549Y0085625D01*
X0018549Y0088750D02*
X0016049Y0088750D01*
X0021987Y0093125D02*
X0024487Y0093125D01*
X0024487Y0096250D02*
X0021987Y0096250D01*
X0026049Y0078438D02*
X0026049Y0070938D01*
X0011674Y0067500D02*
X0011674Y0065000D01*
X0042924Y0100937D02*
X0042924Y0106449D01*
X0042924Y0110386D02*
X0042924Y0115898D01*
X0042924Y0119835D02*
X0042924Y0125347D01*
X0046586Y0125347D01*
X0046586Y0128674D01*
X0046586Y0132611D02*
X0046586Y0135938D01*
X0039407Y0120140D02*
X0038273Y0120140D01*
X0037706Y0119573D01*
X0037706Y0119006D01*
X0038273Y0118439D01*
X0039407Y0118439D01*
X0039974Y0117872D01*
X0039974Y0117305D01*
X0039407Y0116737D01*
X0038273Y0116737D01*
X0037706Y0117305D01*
X0037706Y0117872D01*
X0038273Y0118439D01*
X0039407Y0118439D02*
X0039974Y0119006D01*
X0039974Y0119573D01*
X0039407Y0120140D01*
X0036291Y0119573D02*
X0036291Y0119006D01*
X0035724Y0118439D01*
X0036291Y0117872D01*
X0036291Y0117305D01*
X0035724Y0116737D01*
X0034590Y0116737D01*
X0034023Y0117305D01*
X0032608Y0117305D02*
X0032608Y0119573D01*
X0032041Y0120140D01*
X0030907Y0120140D01*
X0030339Y0119573D01*
X0030339Y0119006D01*
X0030907Y0118439D01*
X0032608Y0118439D01*
X0032608Y0117305D02*
X0032041Y0116737D01*
X0030907Y0116737D01*
X0030339Y0117305D01*
X0028925Y0118439D02*
X0026656Y0118439D01*
X0028358Y0120140D01*
X0028358Y0116737D01*
X0025335Y0116737D02*
X0024201Y0116737D01*
X0024768Y0116737D02*
X0024768Y0119006D01*
X0024201Y0119006D01*
X0024768Y0120140D02*
X0024768Y0120708D01*
X0022880Y0119006D02*
X0021745Y0119006D01*
X0022313Y0119573D02*
X0022313Y0117305D01*
X0022880Y0116737D01*
X0020378Y0119006D02*
X0019810Y0119006D01*
X0018676Y0117872D01*
X0018676Y0119006D02*
X0018676Y0116737D01*
X0017262Y0117305D02*
X0017262Y0118439D01*
X0016694Y0119006D01*
X0015560Y0119006D01*
X0014993Y0118439D01*
X0014993Y0117305D01*
X0015560Y0116737D01*
X0016694Y0116737D01*
X0017262Y0117305D01*
X0013578Y0117305D02*
X0013578Y0118439D01*
X0013011Y0119006D01*
X0011310Y0119006D01*
X0011310Y0120140D02*
X0011310Y0116737D01*
X0013011Y0116737D01*
X0013578Y0117305D01*
X0034023Y0119573D02*
X0034590Y0120140D01*
X0035724Y0120140D01*
X0036291Y0119573D01*
X0035724Y0118439D02*
X0035157Y0118439D01*
X0079263Y0125347D02*
X0079263Y0128674D01*
X0079263Y0125347D02*
X0082924Y0125347D01*
X0082924Y0119835D01*
X0082924Y0115898D02*
X0082924Y0110386D01*
X0082924Y0106449D02*
X0082924Y0100937D01*
X0079263Y0132611D02*
X0079263Y0135938D01*
X0053509Y0018890D02*
X0054076Y0018323D01*
X0053987Y0008000D02*
X0053987Y0007000D01*
X0053987Y0008000D02*
X0054987Y0008000D01*
X0053987Y0003000D02*
X0053987Y0002000D01*
X0054987Y0002000D01*
X0058987Y0002000D02*
X0059987Y0002000D01*
X0059987Y0003000D01*
X0059987Y0007000D02*
X0059987Y0008000D01*
X0058987Y0008000D01*
D13*
X0058385Y0031223D02*
X0020589Y0031223D01*
X0020589Y0048152D01*
X0058385Y0048152D01*
X0058385Y0031223D01*
X0023148Y0034569D02*
X0023150Y0034640D01*
X0023156Y0034711D01*
X0023166Y0034782D01*
X0023180Y0034851D01*
X0023197Y0034920D01*
X0023219Y0034988D01*
X0023244Y0035055D01*
X0023273Y0035120D01*
X0023305Y0035183D01*
X0023341Y0035245D01*
X0023380Y0035304D01*
X0023423Y0035361D01*
X0023468Y0035416D01*
X0023517Y0035468D01*
X0023568Y0035517D01*
X0023622Y0035563D01*
X0023679Y0035607D01*
X0023737Y0035647D01*
X0023798Y0035683D01*
X0023861Y0035717D01*
X0023926Y0035746D01*
X0023992Y0035772D01*
X0024060Y0035795D01*
X0024128Y0035813D01*
X0024198Y0035828D01*
X0024268Y0035839D01*
X0024339Y0035846D01*
X0024410Y0035849D01*
X0024481Y0035848D01*
X0024552Y0035843D01*
X0024623Y0035834D01*
X0024693Y0035821D01*
X0024762Y0035805D01*
X0024830Y0035784D01*
X0024897Y0035760D01*
X0024963Y0035732D01*
X0025026Y0035700D01*
X0025088Y0035665D01*
X0025148Y0035627D01*
X0025206Y0035585D01*
X0025261Y0035541D01*
X0025314Y0035493D01*
X0025364Y0035442D01*
X0025411Y0035389D01*
X0025455Y0035333D01*
X0025496Y0035275D01*
X0025534Y0035214D01*
X0025568Y0035152D01*
X0025598Y0035087D01*
X0025625Y0035022D01*
X0025649Y0034954D01*
X0025668Y0034886D01*
X0025684Y0034817D01*
X0025696Y0034746D01*
X0025704Y0034676D01*
X0025708Y0034605D01*
X0025708Y0034533D01*
X0025704Y0034462D01*
X0025696Y0034392D01*
X0025684Y0034321D01*
X0025668Y0034252D01*
X0025649Y0034184D01*
X0025625Y0034116D01*
X0025598Y0034051D01*
X0025568Y0033986D01*
X0025534Y0033924D01*
X0025496Y0033863D01*
X0025455Y0033805D01*
X0025411Y0033749D01*
X0025364Y0033696D01*
X0025314Y0033645D01*
X0025261Y0033597D01*
X0025206Y0033553D01*
X0025148Y0033511D01*
X0025088Y0033473D01*
X0025026Y0033438D01*
X0024963Y0033406D01*
X0024897Y0033378D01*
X0024830Y0033354D01*
X0024762Y0033333D01*
X0024693Y0033317D01*
X0024623Y0033304D01*
X0024552Y0033295D01*
X0024481Y0033290D01*
X0024410Y0033289D01*
X0024339Y0033292D01*
X0024268Y0033299D01*
X0024198Y0033310D01*
X0024128Y0033325D01*
X0024060Y0033343D01*
X0023992Y0033366D01*
X0023926Y0033392D01*
X0023861Y0033421D01*
X0023798Y0033455D01*
X0023737Y0033491D01*
X0023679Y0033531D01*
X0023622Y0033575D01*
X0023568Y0033621D01*
X0023517Y0033670D01*
X0023468Y0033722D01*
X0023423Y0033777D01*
X0023380Y0033834D01*
X0023341Y0033893D01*
X0023305Y0033955D01*
X0023273Y0034018D01*
X0023244Y0034083D01*
X0023219Y0034150D01*
X0023197Y0034218D01*
X0023180Y0034287D01*
X0023166Y0034356D01*
X0023156Y0034427D01*
X0023150Y0034498D01*
X0023148Y0034569D01*
D14*
X0038199Y0086188D02*
X0038201Y0086254D01*
X0038207Y0086319D01*
X0038217Y0086384D01*
X0038230Y0086449D01*
X0038248Y0086512D01*
X0038269Y0086575D01*
X0038294Y0086635D01*
X0038323Y0086695D01*
X0038355Y0086752D01*
X0038390Y0086808D01*
X0038429Y0086861D01*
X0038471Y0086912D01*
X0038515Y0086960D01*
X0038563Y0087005D01*
X0038613Y0087048D01*
X0038666Y0087087D01*
X0038721Y0087124D01*
X0038778Y0087157D01*
X0038837Y0087186D01*
X0038897Y0087212D01*
X0038959Y0087234D01*
X0039022Y0087253D01*
X0039086Y0087267D01*
X0039151Y0087278D01*
X0039217Y0087285D01*
X0039283Y0087288D01*
X0039348Y0087287D01*
X0039414Y0087282D01*
X0039479Y0087273D01*
X0039544Y0087260D01*
X0039607Y0087244D01*
X0039670Y0087224D01*
X0039731Y0087199D01*
X0039791Y0087172D01*
X0039849Y0087141D01*
X0039905Y0087106D01*
X0039959Y0087068D01*
X0040010Y0087027D01*
X0040059Y0086983D01*
X0040105Y0086936D01*
X0040149Y0086887D01*
X0040189Y0086835D01*
X0040226Y0086780D01*
X0040260Y0086724D01*
X0040290Y0086665D01*
X0040317Y0086605D01*
X0040340Y0086544D01*
X0040359Y0086481D01*
X0040375Y0086417D01*
X0040387Y0086352D01*
X0040395Y0086287D01*
X0040399Y0086221D01*
X0040399Y0086155D01*
X0040395Y0086089D01*
X0040387Y0086024D01*
X0040375Y0085959D01*
X0040359Y0085895D01*
X0040340Y0085832D01*
X0040317Y0085771D01*
X0040290Y0085711D01*
X0040260Y0085652D01*
X0040226Y0085596D01*
X0040189Y0085541D01*
X0040149Y0085489D01*
X0040105Y0085440D01*
X0040059Y0085393D01*
X0040010Y0085349D01*
X0039959Y0085308D01*
X0039905Y0085270D01*
X0039849Y0085235D01*
X0039791Y0085204D01*
X0039731Y0085177D01*
X0039670Y0085152D01*
X0039607Y0085132D01*
X0039544Y0085116D01*
X0039479Y0085103D01*
X0039414Y0085094D01*
X0039348Y0085089D01*
X0039283Y0085088D01*
X0039217Y0085091D01*
X0039151Y0085098D01*
X0039086Y0085109D01*
X0039022Y0085123D01*
X0038959Y0085142D01*
X0038897Y0085164D01*
X0038837Y0085190D01*
X0038778Y0085219D01*
X0038721Y0085252D01*
X0038666Y0085289D01*
X0038613Y0085328D01*
X0038563Y0085371D01*
X0038515Y0085416D01*
X0038471Y0085464D01*
X0038429Y0085515D01*
X0038390Y0085568D01*
X0038355Y0085624D01*
X0038323Y0085681D01*
X0038294Y0085741D01*
X0038269Y0085801D01*
X0038248Y0085864D01*
X0038230Y0085927D01*
X0038217Y0085992D01*
X0038207Y0086057D01*
X0038201Y0086122D01*
X0038199Y0086188D01*
M02*
