G75*
%MOIN*%
%OFA0B0*%
%FSLAX25Y25*%
%IPPOS*%
%LPD*%
%AMOC8*
5,1,8,0,0,1.08239X$1,22.5*
%
%ADD10C,0.00000*%
%ADD11OC8,0.06300*%
%ADD12C,0.13449*%
%ADD13C,0.02775*%
%ADD14C,0.01600*%
%ADD15C,0.01200*%
D10*
X0009487Y0021562D02*
X0021674Y0021562D01*
X0022924Y0020313D01*
X0022924Y0006250D01*
X0024174Y0005000D01*
X0030424Y0005000D01*
X0031674Y0006250D01*
X0031674Y0007812D01*
X0032924Y0009063D01*
X0051362Y0009063D01*
X0052612Y0007812D01*
X0052612Y0006250D01*
X0053862Y0005000D01*
X0060112Y0005000D01*
X0061362Y0006250D01*
X0061362Y0020313D01*
X0062612Y0021562D01*
X0083549Y0021562D01*
X0084799Y0022812D01*
X0084799Y0122187D01*
X0083549Y0123437D01*
X0042299Y0123437D01*
X0041049Y0124687D01*
X0041049Y0125937D01*
X0039799Y0127187D01*
X0009487Y0127187D01*
X0008237Y0125937D01*
X0008237Y0022812D01*
X0009487Y0021562D01*
X0059774Y0124560D02*
X0059776Y0124672D01*
X0059782Y0124783D01*
X0059792Y0124895D01*
X0059806Y0125006D01*
X0059823Y0125116D01*
X0059845Y0125226D01*
X0059871Y0125335D01*
X0059900Y0125443D01*
X0059933Y0125549D01*
X0059970Y0125655D01*
X0060011Y0125759D01*
X0060056Y0125862D01*
X0060104Y0125963D01*
X0060155Y0126062D01*
X0060210Y0126159D01*
X0060269Y0126254D01*
X0060330Y0126348D01*
X0060395Y0126439D01*
X0060464Y0126527D01*
X0060535Y0126613D01*
X0060609Y0126697D01*
X0060687Y0126777D01*
X0060767Y0126855D01*
X0060850Y0126931D01*
X0060935Y0127003D01*
X0061023Y0127072D01*
X0061113Y0127138D01*
X0061206Y0127200D01*
X0061301Y0127260D01*
X0061398Y0127316D01*
X0061496Y0127368D01*
X0061597Y0127417D01*
X0061699Y0127462D01*
X0061803Y0127504D01*
X0061908Y0127542D01*
X0062015Y0127576D01*
X0062122Y0127606D01*
X0062231Y0127633D01*
X0062340Y0127655D01*
X0062451Y0127674D01*
X0062561Y0127689D01*
X0062673Y0127700D01*
X0062784Y0127707D01*
X0062896Y0127710D01*
X0063008Y0127709D01*
X0063120Y0127704D01*
X0063231Y0127695D01*
X0063342Y0127682D01*
X0063453Y0127665D01*
X0063563Y0127645D01*
X0063672Y0127620D01*
X0063780Y0127592D01*
X0063887Y0127559D01*
X0063993Y0127523D01*
X0064097Y0127483D01*
X0064200Y0127440D01*
X0064302Y0127393D01*
X0064401Y0127342D01*
X0064499Y0127288D01*
X0064595Y0127230D01*
X0064689Y0127169D01*
X0064780Y0127105D01*
X0064869Y0127038D01*
X0064956Y0126967D01*
X0065040Y0126893D01*
X0065122Y0126817D01*
X0065200Y0126737D01*
X0065276Y0126655D01*
X0065349Y0126570D01*
X0065419Y0126483D01*
X0065485Y0126393D01*
X0065549Y0126301D01*
X0065609Y0126207D01*
X0065666Y0126111D01*
X0065719Y0126012D01*
X0065769Y0125912D01*
X0065815Y0125811D01*
X0065858Y0125707D01*
X0065897Y0125602D01*
X0065932Y0125496D01*
X0065963Y0125389D01*
X0065991Y0125280D01*
X0066014Y0125171D01*
X0066034Y0125061D01*
X0066050Y0124950D01*
X0066062Y0124839D01*
X0066070Y0124728D01*
X0066074Y0124616D01*
X0066074Y0124504D01*
X0066070Y0124392D01*
X0066062Y0124281D01*
X0066050Y0124170D01*
X0066034Y0124059D01*
X0066014Y0123949D01*
X0065991Y0123840D01*
X0065963Y0123731D01*
X0065932Y0123624D01*
X0065897Y0123518D01*
X0065858Y0123413D01*
X0065815Y0123309D01*
X0065769Y0123208D01*
X0065719Y0123108D01*
X0065666Y0123009D01*
X0065609Y0122913D01*
X0065549Y0122819D01*
X0065485Y0122727D01*
X0065419Y0122637D01*
X0065349Y0122550D01*
X0065276Y0122465D01*
X0065200Y0122383D01*
X0065122Y0122303D01*
X0065040Y0122227D01*
X0064956Y0122153D01*
X0064869Y0122082D01*
X0064780Y0122015D01*
X0064689Y0121951D01*
X0064595Y0121890D01*
X0064499Y0121832D01*
X0064401Y0121778D01*
X0064302Y0121727D01*
X0064200Y0121680D01*
X0064097Y0121637D01*
X0063993Y0121597D01*
X0063887Y0121561D01*
X0063780Y0121528D01*
X0063672Y0121500D01*
X0063563Y0121475D01*
X0063453Y0121455D01*
X0063342Y0121438D01*
X0063231Y0121425D01*
X0063120Y0121416D01*
X0063008Y0121411D01*
X0062896Y0121410D01*
X0062784Y0121413D01*
X0062673Y0121420D01*
X0062561Y0121431D01*
X0062451Y0121446D01*
X0062340Y0121465D01*
X0062231Y0121487D01*
X0062122Y0121514D01*
X0062015Y0121544D01*
X0061908Y0121578D01*
X0061803Y0121616D01*
X0061699Y0121658D01*
X0061597Y0121703D01*
X0061496Y0121752D01*
X0061398Y0121804D01*
X0061301Y0121860D01*
X0061206Y0121920D01*
X0061113Y0121982D01*
X0061023Y0122048D01*
X0060935Y0122117D01*
X0060850Y0122189D01*
X0060767Y0122265D01*
X0060687Y0122343D01*
X0060609Y0122423D01*
X0060535Y0122507D01*
X0060464Y0122593D01*
X0060395Y0122681D01*
X0060330Y0122772D01*
X0060269Y0122866D01*
X0060210Y0122961D01*
X0060155Y0123058D01*
X0060104Y0123157D01*
X0060056Y0123258D01*
X0060011Y0123361D01*
X0059970Y0123465D01*
X0059933Y0123571D01*
X0059900Y0123677D01*
X0059871Y0123785D01*
X0059845Y0123894D01*
X0059823Y0124004D01*
X0059806Y0124114D01*
X0059792Y0124225D01*
X0059782Y0124337D01*
X0059776Y0124448D01*
X0059774Y0124560D01*
D11*
X0056987Y0005000D03*
X0027299Y0005000D03*
D12*
X0085112Y0057187D03*
X0007924Y0098437D03*
D13*
X0029799Y0079688D03*
X0037299Y0074688D03*
X0053862Y0060937D03*
X0056674Y0044687D03*
X0060737Y0028437D03*
X0070112Y0047187D03*
X0041987Y0034688D03*
X0039487Y0044687D03*
X0030424Y0044687D03*
X0029487Y0034688D03*
X0032299Y0022187D03*
X0018237Y0028437D03*
X0019487Y0053437D03*
D14*
X0027299Y0007187D02*
X0027299Y0005000D01*
D15*
X0024837Y0006600D02*
X0029762Y0006600D01*
X0030074Y0006913D01*
X0030074Y0008475D01*
X0031012Y0009412D01*
X0031324Y0009725D01*
X0024524Y0009725D01*
X0024524Y0010923D02*
X0032598Y0010923D01*
X0032337Y0010662D02*
X0032262Y0010662D01*
X0031324Y0009725D01*
X0032337Y0010662D02*
X0036362Y0014687D01*
X0059762Y0014687D01*
X0059762Y0020975D01*
X0060699Y0021912D01*
X0061949Y0023162D01*
X0082887Y0023162D01*
X0083199Y0023475D01*
X0083199Y0121525D01*
X0082887Y0121837D01*
X0066919Y0121837D01*
X0065615Y0120533D01*
X0063869Y0119810D01*
X0061980Y0119810D01*
X0060234Y0120533D01*
X0058929Y0121837D01*
X0041637Y0121837D01*
X0040699Y0122775D01*
X0040699Y0122775D01*
X0040387Y0123087D01*
X0039449Y0124025D01*
X0039449Y0124687D01*
X0009837Y0124687D01*
X0009837Y0023475D01*
X0010150Y0023162D01*
X0022337Y0023162D01*
X0023587Y0021912D01*
X0024524Y0020975D01*
X0024524Y0006913D01*
X0024837Y0006600D01*
X0024524Y0007328D02*
X0030074Y0007328D01*
X0030125Y0008526D02*
X0024524Y0008526D01*
X0024524Y0012122D02*
X0033796Y0012122D01*
X0034995Y0013320D02*
X0024524Y0013320D01*
X0024524Y0014519D02*
X0036193Y0014519D01*
X0024524Y0015717D02*
X0059762Y0015717D01*
X0059762Y0016916D02*
X0024524Y0016916D01*
X0024524Y0018114D02*
X0059762Y0018114D01*
X0059762Y0019313D02*
X0024524Y0019313D01*
X0024524Y0020511D02*
X0059762Y0020511D01*
X0060497Y0021710D02*
X0023790Y0021710D01*
X0022591Y0022908D02*
X0061695Y0022908D01*
X0083199Y0024107D02*
X0009837Y0024107D01*
X0009837Y0025305D02*
X0083199Y0025305D01*
X0083199Y0026504D02*
X0009837Y0026504D01*
X0009837Y0027702D02*
X0083199Y0027702D01*
X0083199Y0028901D02*
X0009837Y0028901D01*
X0009837Y0030099D02*
X0083199Y0030099D01*
X0083199Y0031298D02*
X0009837Y0031298D01*
X0009837Y0032496D02*
X0083199Y0032496D01*
X0083199Y0033695D02*
X0009837Y0033695D01*
X0009837Y0034893D02*
X0083199Y0034893D01*
X0083199Y0036092D02*
X0009837Y0036092D01*
X0009837Y0037290D02*
X0083199Y0037290D01*
X0083199Y0038489D02*
X0009837Y0038489D01*
X0009837Y0039688D02*
X0083199Y0039688D01*
X0083199Y0040886D02*
X0009837Y0040886D01*
X0009837Y0042085D02*
X0083199Y0042085D01*
X0083199Y0043283D02*
X0009837Y0043283D01*
X0009837Y0044482D02*
X0083199Y0044482D01*
X0083199Y0045680D02*
X0009837Y0045680D01*
X0009837Y0046879D02*
X0083199Y0046879D01*
X0083199Y0048077D02*
X0009837Y0048077D01*
X0009837Y0049276D02*
X0083199Y0049276D01*
X0083199Y0050474D02*
X0009837Y0050474D01*
X0009837Y0051673D02*
X0083199Y0051673D01*
X0083199Y0052871D02*
X0009837Y0052871D01*
X0009837Y0054070D02*
X0083199Y0054070D01*
X0083199Y0055268D02*
X0009837Y0055268D01*
X0009837Y0056467D02*
X0083199Y0056467D01*
X0083199Y0057665D02*
X0009837Y0057665D01*
X0009837Y0058864D02*
X0083199Y0058864D01*
X0083199Y0060062D02*
X0009837Y0060062D01*
X0009837Y0061261D02*
X0083199Y0061261D01*
X0083199Y0062459D02*
X0009837Y0062459D01*
X0009837Y0063658D02*
X0083199Y0063658D01*
X0083199Y0064856D02*
X0009837Y0064856D01*
X0009837Y0066055D02*
X0083199Y0066055D01*
X0083199Y0067253D02*
X0009837Y0067253D01*
X0009837Y0068452D02*
X0083199Y0068452D01*
X0083199Y0069650D02*
X0009837Y0069650D01*
X0009837Y0070849D02*
X0083199Y0070849D01*
X0083199Y0072047D02*
X0009837Y0072047D01*
X0009837Y0073246D02*
X0083199Y0073246D01*
X0083199Y0074444D02*
X0009837Y0074444D01*
X0009837Y0075643D02*
X0083199Y0075643D01*
X0083199Y0076841D02*
X0009837Y0076841D01*
X0009837Y0078040D02*
X0083199Y0078040D01*
X0083199Y0079238D02*
X0009837Y0079238D01*
X0009837Y0080437D02*
X0083199Y0080437D01*
X0083199Y0081635D02*
X0009837Y0081635D01*
X0009837Y0082834D02*
X0083199Y0082834D01*
X0083199Y0084032D02*
X0009837Y0084032D01*
X0009837Y0085231D02*
X0083199Y0085231D01*
X0083199Y0086429D02*
X0009837Y0086429D01*
X0009837Y0087628D02*
X0083199Y0087628D01*
X0083199Y0088826D02*
X0009837Y0088826D01*
X0009837Y0090025D02*
X0083199Y0090025D01*
X0083199Y0091223D02*
X0009837Y0091223D01*
X0009837Y0092422D02*
X0083199Y0092422D01*
X0083199Y0093621D02*
X0009837Y0093621D01*
X0009837Y0094819D02*
X0083199Y0094819D01*
X0083199Y0096018D02*
X0009837Y0096018D01*
X0009837Y0097216D02*
X0083199Y0097216D01*
X0083199Y0098415D02*
X0009837Y0098415D01*
X0009837Y0099613D02*
X0083199Y0099613D01*
X0083199Y0100812D02*
X0009837Y0100812D01*
X0009837Y0102010D02*
X0083199Y0102010D01*
X0083199Y0103209D02*
X0009837Y0103209D01*
X0009837Y0104407D02*
X0083199Y0104407D01*
X0083199Y0105606D02*
X0009837Y0105606D01*
X0009837Y0106804D02*
X0083199Y0106804D01*
X0083199Y0108003D02*
X0009837Y0108003D01*
X0009837Y0109201D02*
X0083199Y0109201D01*
X0083199Y0110400D02*
X0009837Y0110400D01*
X0009837Y0111598D02*
X0083199Y0111598D01*
X0083199Y0112797D02*
X0009837Y0112797D01*
X0009837Y0113995D02*
X0083199Y0113995D01*
X0083199Y0115194D02*
X0009837Y0115194D01*
X0009837Y0116392D02*
X0083199Y0116392D01*
X0083199Y0117591D02*
X0009837Y0117591D01*
X0009837Y0118789D02*
X0083199Y0118789D01*
X0083199Y0119988D02*
X0064298Y0119988D01*
X0066268Y0121186D02*
X0083199Y0121186D01*
X0061550Y0119988D02*
X0009837Y0119988D01*
X0009837Y0121186D02*
X0059581Y0121186D01*
X0041089Y0122385D02*
X0009837Y0122385D01*
X0009837Y0123583D02*
X0039891Y0123583D01*
M02*
