G75*
%MOIN*%
%OFA0B0*%
%FSLAX25Y25*%
%IPPOS*%
%LPD*%
%AMOC8*
5,1,8,0,0,1.08239X$1,22.5*
%
%ADD10C,0.00500*%
%ADD11C,0.00600*%
%ADD12C,0.00000*%
D10*
X0017648Y0029625D02*
X0019983Y0029625D01*
X0017648Y0031960D01*
X0017648Y0032544D01*
X0018231Y0033128D01*
X0019399Y0033128D01*
X0019983Y0032544D01*
X0021331Y0033128D02*
X0023666Y0033128D01*
X0023666Y0031376D01*
X0022498Y0031960D01*
X0021915Y0031960D01*
X0021331Y0031376D01*
X0021331Y0030209D01*
X0021915Y0029625D01*
X0023082Y0029625D01*
X0023666Y0030209D01*
X0024894Y0029625D02*
X0024894Y0033128D01*
X0024894Y0035625D02*
X0024894Y0039128D01*
X0023666Y0039128D02*
X0021331Y0039128D01*
X0021331Y0038544D01*
X0023666Y0036209D01*
X0023666Y0035625D01*
X0026242Y0035625D02*
X0028577Y0035625D01*
X0026242Y0037960D01*
X0026242Y0038544D01*
X0026825Y0039128D01*
X0027993Y0039128D01*
X0028577Y0038544D01*
X0029925Y0037376D02*
X0032260Y0037376D01*
X0030509Y0039128D01*
X0030509Y0035625D01*
X0030509Y0033128D02*
X0031676Y0033128D01*
X0032260Y0032544D01*
X0032260Y0031960D01*
X0031676Y0031376D01*
X0029925Y0031376D01*
X0029925Y0030209D02*
X0029925Y0032544D01*
X0030509Y0033128D01*
X0028577Y0032544D02*
X0027993Y0033128D01*
X0026825Y0033128D01*
X0026242Y0032544D01*
X0026242Y0031960D01*
X0028577Y0029625D01*
X0026242Y0029625D01*
X0029925Y0030209D02*
X0030509Y0029625D01*
X0031676Y0029625D01*
X0032260Y0030209D01*
X0033488Y0029625D02*
X0033488Y0033128D01*
X0033488Y0035625D02*
X0033488Y0039128D01*
X0034836Y0037376D02*
X0037171Y0037376D01*
X0035419Y0039128D01*
X0035419Y0035625D01*
X0035419Y0033128D02*
X0034836Y0032544D01*
X0034836Y0031960D01*
X0035419Y0031376D01*
X0034836Y0030793D01*
X0034836Y0030209D01*
X0035419Y0029625D01*
X0036587Y0029625D01*
X0037171Y0030209D01*
X0036003Y0031376D02*
X0035419Y0031376D01*
X0037171Y0032544D02*
X0036587Y0033128D01*
X0035419Y0033128D01*
X0038519Y0032544D02*
X0038519Y0030209D01*
X0039103Y0029625D01*
X0040270Y0029625D01*
X0040854Y0030209D01*
X0040270Y0031376D02*
X0038519Y0031376D01*
X0038519Y0032544D02*
X0039103Y0033128D01*
X0040270Y0033128D01*
X0040854Y0032544D01*
X0040854Y0031960D01*
X0040270Y0031376D01*
X0042082Y0029625D02*
X0042082Y0033128D01*
X0042082Y0035625D02*
X0042082Y0039128D01*
X0043430Y0038544D02*
X0043430Y0037960D01*
X0044013Y0037376D01*
X0043430Y0036793D01*
X0043430Y0036209D01*
X0044013Y0035625D01*
X0045181Y0035625D01*
X0045765Y0036209D01*
X0047113Y0037376D02*
X0049448Y0037376D01*
X0047697Y0039128D01*
X0047697Y0035625D01*
X0047697Y0033128D02*
X0048864Y0033128D01*
X0049448Y0032544D01*
X0049448Y0031960D01*
X0048864Y0031376D01*
X0047113Y0031376D01*
X0047113Y0030209D02*
X0047113Y0032544D01*
X0047697Y0033128D01*
X0045765Y0031376D02*
X0043430Y0031376D01*
X0044013Y0029625D02*
X0044013Y0033128D01*
X0045765Y0031376D01*
X0047113Y0030209D02*
X0047697Y0029625D01*
X0048864Y0029625D01*
X0049448Y0030209D01*
X0050676Y0029625D02*
X0050676Y0033128D01*
X0052024Y0033128D02*
X0053191Y0032544D01*
X0054359Y0031376D01*
X0052607Y0031376D01*
X0052024Y0030793D01*
X0052024Y0030209D01*
X0052607Y0029625D01*
X0053775Y0029625D01*
X0054359Y0030209D01*
X0054359Y0031376D01*
X0055707Y0029625D02*
X0058042Y0029625D01*
X0056874Y0029625D02*
X0056874Y0033128D01*
X0058042Y0031960D01*
X0059300Y0031960D02*
X0059300Y0031376D01*
X0059884Y0031376D01*
X0059884Y0031960D01*
X0059300Y0031960D01*
X0059300Y0030209D02*
X0059300Y0029625D01*
X0059884Y0029625D01*
X0059884Y0030209D01*
X0059300Y0030209D01*
X0061232Y0030209D02*
X0061232Y0033128D01*
X0059884Y0035625D02*
X0059884Y0036209D01*
X0059300Y0036209D01*
X0059300Y0035625D01*
X0059884Y0035625D01*
X0059884Y0037376D02*
X0059300Y0037376D01*
X0059300Y0037960D01*
X0059884Y0037960D01*
X0059884Y0037376D01*
X0061232Y0037376D02*
X0061232Y0038544D01*
X0061815Y0039128D01*
X0063567Y0039128D01*
X0063567Y0035625D01*
X0063567Y0036793D02*
X0061815Y0036793D01*
X0061232Y0037376D01*
X0058042Y0037376D02*
X0055707Y0037376D01*
X0054359Y0036209D02*
X0054359Y0035625D01*
X0054359Y0036209D02*
X0052024Y0038544D01*
X0052024Y0039128D01*
X0054359Y0039128D01*
X0056291Y0039128D02*
X0058042Y0037376D01*
X0056291Y0035625D02*
X0056291Y0039128D01*
X0054359Y0041625D02*
X0052024Y0041625D01*
X0050676Y0041625D02*
X0050676Y0045128D01*
X0053191Y0045128D02*
X0053191Y0041625D01*
X0054359Y0043960D02*
X0053191Y0045128D01*
X0055677Y0049082D02*
X0055093Y0049666D01*
X0055093Y0052585D01*
X0056844Y0052585D01*
X0057428Y0052001D01*
X0057428Y0050834D01*
X0056844Y0050250D01*
X0055093Y0050250D01*
X0055677Y0049082D02*
X0056261Y0049082D01*
X0058776Y0050250D02*
X0058776Y0052001D01*
X0059360Y0052585D01*
X0061111Y0052585D01*
X0061111Y0050250D01*
X0062399Y0050250D02*
X0063567Y0050250D01*
X0062983Y0050250D02*
X0062983Y0052585D01*
X0063567Y0052585D01*
X0062983Y0053753D02*
X0062983Y0054337D01*
X0064915Y0052001D02*
X0064915Y0050834D01*
X0065498Y0050250D01*
X0067250Y0050250D01*
X0067250Y0049082D02*
X0067250Y0052585D01*
X0065498Y0052585D01*
X0064915Y0052001D01*
X0068598Y0052001D02*
X0068598Y0050834D01*
X0069182Y0050250D01*
X0070933Y0050250D01*
X0070933Y0049082D02*
X0070933Y0052585D01*
X0069182Y0052585D01*
X0068598Y0052001D01*
X0072281Y0052001D02*
X0072281Y0050250D01*
X0074032Y0050250D01*
X0074616Y0050834D01*
X0074032Y0051418D01*
X0072281Y0051418D01*
X0072281Y0052001D02*
X0072865Y0052585D01*
X0074032Y0052585D01*
X0075964Y0053753D02*
X0075964Y0050250D01*
X0077132Y0052585D02*
X0075964Y0053753D01*
X0077132Y0052585D02*
X0078299Y0053753D01*
X0078299Y0050250D01*
X0070933Y0045128D02*
X0070933Y0041625D01*
X0070933Y0042793D02*
X0069182Y0042793D01*
X0068598Y0043376D01*
X0068598Y0044544D01*
X0069182Y0045128D01*
X0070933Y0045128D01*
X0067250Y0042209D02*
X0066666Y0042793D01*
X0064915Y0042793D01*
X0064915Y0043376D02*
X0064915Y0041625D01*
X0066666Y0041625D01*
X0067250Y0042209D01*
X0066666Y0043960D02*
X0065498Y0043960D01*
X0064915Y0043376D01*
X0063567Y0043376D02*
X0063567Y0042209D01*
X0062983Y0041625D01*
X0061232Y0041625D01*
X0061232Y0045128D01*
X0061232Y0043960D02*
X0062983Y0043960D01*
X0063567Y0043376D01*
X0065498Y0039128D02*
X0064915Y0038544D01*
X0065498Y0039128D02*
X0066666Y0039128D01*
X0067250Y0038544D01*
X0067250Y0037960D01*
X0066666Y0037376D01*
X0065498Y0037376D01*
X0064915Y0036793D01*
X0064915Y0036209D01*
X0065498Y0035625D01*
X0066666Y0035625D01*
X0067250Y0036209D01*
X0068598Y0036209D02*
X0068598Y0038544D01*
X0069182Y0039128D01*
X0070933Y0039128D01*
X0070933Y0035625D01*
X0069182Y0035625D01*
X0068598Y0036209D01*
X0069765Y0033128D02*
X0068598Y0031960D01*
X0068598Y0029625D01*
X0067250Y0029625D02*
X0067250Y0033128D01*
X0065498Y0033128D01*
X0064915Y0032544D01*
X0064915Y0031376D01*
X0065498Y0030793D01*
X0067250Y0030793D01*
X0068598Y0031376D02*
X0070933Y0031376D01*
X0070933Y0031960D02*
X0070933Y0029625D01*
X0072281Y0031376D02*
X0074616Y0031376D01*
X0075964Y0030793D02*
X0075964Y0030209D01*
X0076548Y0029625D01*
X0077716Y0029625D01*
X0078299Y0030209D01*
X0077716Y0031376D02*
X0078299Y0031960D01*
X0078299Y0032544D01*
X0077716Y0033128D01*
X0076548Y0033128D01*
X0075964Y0032544D01*
X0076548Y0031376D02*
X0075964Y0030793D01*
X0076548Y0031376D02*
X0077716Y0031376D01*
X0077716Y0035625D02*
X0076548Y0035625D01*
X0075964Y0036209D01*
X0075964Y0036793D01*
X0076548Y0037376D01*
X0077716Y0037376D01*
X0078299Y0037960D01*
X0078299Y0038544D01*
X0077716Y0039128D01*
X0076548Y0039128D01*
X0075964Y0038544D01*
X0074616Y0037376D02*
X0072281Y0037376D01*
X0069765Y0033128D02*
X0070933Y0031960D01*
X0077716Y0035625D02*
X0078299Y0036209D01*
X0063567Y0033128D02*
X0063567Y0030209D01*
X0062983Y0029625D01*
X0061815Y0029625D01*
X0061232Y0030209D01*
X0059884Y0041625D02*
X0059300Y0041625D01*
X0059300Y0042209D01*
X0059884Y0042209D01*
X0059884Y0041625D01*
X0059884Y0043376D02*
X0059300Y0043376D01*
X0059300Y0043960D01*
X0059884Y0043960D01*
X0059884Y0043376D01*
X0053745Y0050250D02*
X0053745Y0050834D01*
X0053161Y0050834D01*
X0053161Y0050250D01*
X0053745Y0050250D01*
X0053745Y0052001D02*
X0053745Y0052585D01*
X0053161Y0052585D01*
X0053161Y0052001D01*
X0053745Y0052001D01*
X0045765Y0044544D02*
X0045181Y0045128D01*
X0044013Y0045128D01*
X0043430Y0044544D01*
X0043430Y0043960D01*
X0045765Y0041625D01*
X0043430Y0041625D01*
X0042082Y0041625D02*
X0042082Y0045128D01*
X0044013Y0039128D02*
X0043430Y0038544D01*
X0044013Y0039128D02*
X0045181Y0039128D01*
X0045765Y0038544D01*
X0044597Y0037376D02*
X0044013Y0037376D01*
X0040854Y0037376D02*
X0038519Y0037376D01*
X0039103Y0035625D02*
X0039103Y0039128D01*
X0040854Y0037376D01*
X0036587Y0041625D02*
X0037171Y0042209D01*
X0036587Y0041625D02*
X0035419Y0041625D01*
X0034836Y0042209D01*
X0034836Y0042793D01*
X0035419Y0043376D01*
X0036003Y0043376D01*
X0035419Y0043376D02*
X0034836Y0043960D01*
X0034836Y0044544D01*
X0035419Y0045128D01*
X0036587Y0045128D01*
X0037171Y0044544D01*
X0033488Y0045128D02*
X0033488Y0041625D01*
X0028577Y0043376D02*
X0026242Y0043376D01*
X0026825Y0041625D02*
X0026825Y0045128D01*
X0028577Y0043376D01*
X0024894Y0045128D02*
X0024894Y0041625D01*
X0019983Y0042209D02*
X0019399Y0041625D01*
X0018231Y0041625D01*
X0017648Y0042209D01*
X0017648Y0043376D01*
X0018231Y0043960D01*
X0018815Y0043960D01*
X0019983Y0043376D01*
X0019983Y0045128D01*
X0017648Y0045128D01*
X0018231Y0039128D02*
X0017648Y0038544D01*
X0017648Y0037960D01*
X0018231Y0037376D01*
X0019399Y0037376D01*
X0019983Y0037960D01*
X0019983Y0038544D01*
X0019399Y0039128D01*
X0018231Y0039128D01*
X0018231Y0037376D02*
X0017648Y0036793D01*
X0017648Y0036209D01*
X0018231Y0035625D01*
X0019399Y0035625D01*
X0019983Y0036209D01*
X0019983Y0036793D01*
X0019399Y0037376D01*
X0019983Y0066188D02*
X0019983Y0068523D01*
X0018231Y0068523D01*
X0017648Y0067939D01*
X0017648Y0066188D01*
X0021331Y0066771D02*
X0021331Y0067939D01*
X0021915Y0068523D01*
X0023082Y0068523D01*
X0023666Y0067939D01*
X0023666Y0066771D01*
X0023082Y0066188D01*
X0021915Y0066188D01*
X0021331Y0066771D01*
X0024954Y0066188D02*
X0026122Y0066188D01*
X0025538Y0066188D02*
X0025538Y0068523D01*
X0026122Y0068523D01*
X0025538Y0069690D02*
X0025538Y0070274D01*
X0027469Y0068523D02*
X0029221Y0068523D01*
X0029805Y0067939D01*
X0029221Y0067355D01*
X0028053Y0067355D01*
X0027469Y0066771D01*
X0028053Y0066188D01*
X0029805Y0066188D01*
X0031122Y0068523D02*
X0031706Y0068523D01*
X0032874Y0067355D01*
X0032874Y0066188D02*
X0032874Y0068523D01*
X0034222Y0067939D02*
X0034222Y0067355D01*
X0036557Y0067355D01*
X0036557Y0066771D02*
X0036557Y0067939D01*
X0035973Y0068523D01*
X0034806Y0068523D01*
X0034222Y0067939D01*
X0034806Y0066188D02*
X0035973Y0066188D01*
X0036557Y0066771D01*
X0037905Y0068523D02*
X0039073Y0066188D01*
X0040240Y0068523D01*
X0045211Y0068523D02*
X0046379Y0068523D01*
X0045795Y0069107D02*
X0045795Y0066771D01*
X0045211Y0066188D01*
X0047727Y0066188D02*
X0047727Y0068523D01*
X0047727Y0066188D02*
X0049478Y0066188D01*
X0050062Y0066771D01*
X0050062Y0068523D01*
X0051410Y0067939D02*
X0051410Y0066771D01*
X0051994Y0066188D01*
X0053745Y0066188D01*
X0053745Y0065020D02*
X0053745Y0068523D01*
X0051994Y0068523D01*
X0051410Y0067939D01*
X0052607Y0072188D02*
X0053775Y0072188D01*
X0054359Y0072771D01*
X0053775Y0073939D02*
X0054359Y0074523D01*
X0054359Y0075107D01*
X0053775Y0075690D01*
X0052607Y0075690D01*
X0052024Y0075107D01*
X0052607Y0073939D02*
X0052024Y0073355D01*
X0052024Y0072771D01*
X0052607Y0072188D01*
X0052607Y0073939D02*
X0053775Y0073939D01*
X0055707Y0075690D02*
X0058042Y0075690D01*
X0058042Y0072188D01*
X0055707Y0072188D01*
X0056874Y0073939D02*
X0058042Y0073939D01*
X0059390Y0072188D02*
X0059390Y0075690D01*
X0059300Y0078188D02*
X0059300Y0081690D01*
X0059884Y0081690D01*
X0061232Y0079939D02*
X0061232Y0078188D01*
X0062983Y0078188D01*
X0063567Y0078771D01*
X0062983Y0079355D01*
X0061232Y0079355D01*
X0061232Y0079939D02*
X0061815Y0080523D01*
X0062983Y0080523D01*
X0064855Y0080523D02*
X0066022Y0080523D01*
X0065438Y0081107D02*
X0065438Y0078771D01*
X0064855Y0078188D01*
X0064825Y0075690D02*
X0063657Y0075690D01*
X0063073Y0075107D01*
X0063657Y0073939D02*
X0063073Y0073355D01*
X0063073Y0072771D01*
X0063657Y0072188D01*
X0064825Y0072188D01*
X0065408Y0072771D01*
X0064825Y0073939D02*
X0065408Y0074523D01*
X0065408Y0075107D01*
X0064825Y0075690D01*
X0064825Y0073939D02*
X0063657Y0073939D01*
X0061725Y0075690D02*
X0059390Y0072188D01*
X0061725Y0072188D02*
X0061725Y0075690D01*
X0059884Y0078188D02*
X0058716Y0078188D01*
X0053745Y0078188D02*
X0053745Y0080523D01*
X0052577Y0081690D01*
X0051410Y0080523D01*
X0051410Y0078188D01*
X0050062Y0078771D02*
X0050062Y0080523D01*
X0050062Y0078771D02*
X0049478Y0078188D01*
X0047727Y0078188D01*
X0047727Y0080523D01*
X0046379Y0079939D02*
X0046379Y0078771D01*
X0045795Y0078188D01*
X0044044Y0078188D01*
X0044044Y0081690D01*
X0044044Y0080523D02*
X0045795Y0080523D01*
X0046379Y0079939D01*
X0042696Y0080523D02*
X0042112Y0080523D01*
X0042112Y0078188D01*
X0042696Y0078188D02*
X0041528Y0078188D01*
X0040240Y0078771D02*
X0039656Y0078188D01*
X0038489Y0078188D01*
X0037905Y0078771D01*
X0037905Y0079939D01*
X0038489Y0080523D01*
X0039656Y0080523D01*
X0040240Y0079939D01*
X0040240Y0078771D01*
X0042112Y0081690D02*
X0042112Y0082274D01*
X0051410Y0079939D02*
X0053745Y0079939D01*
X0055617Y0069107D02*
X0055617Y0066771D01*
X0055033Y0066188D01*
X0055033Y0068523D02*
X0056201Y0068523D01*
X0057548Y0068523D02*
X0057548Y0066188D01*
X0059300Y0066188D01*
X0059884Y0066771D01*
X0059884Y0068523D01*
X0061232Y0067939D02*
X0061232Y0066771D01*
X0061815Y0066188D01*
X0062983Y0066188D01*
X0063567Y0066771D01*
X0063567Y0067939D01*
X0062983Y0068523D01*
X0061815Y0068523D01*
X0061232Y0067939D01*
X0064915Y0067939D02*
X0067250Y0067939D01*
X0068598Y0067939D02*
X0070933Y0067939D01*
X0070933Y0068523D02*
X0069765Y0069690D01*
X0068598Y0068523D01*
X0068598Y0066188D01*
X0070933Y0066188D02*
X0070933Y0068523D01*
X0072281Y0069107D02*
X0072865Y0069690D01*
X0074032Y0069690D01*
X0074616Y0069107D01*
X0074616Y0066771D01*
X0074032Y0066188D01*
X0072865Y0066188D01*
X0072281Y0066771D01*
X0075964Y0066188D02*
X0077132Y0067355D01*
X0076548Y0067355D02*
X0078299Y0067355D01*
X0078299Y0066188D02*
X0078299Y0069690D01*
X0076548Y0069690D01*
X0075964Y0069107D01*
X0075964Y0067939D01*
X0076548Y0067355D01*
X0077716Y0072188D02*
X0077716Y0075107D01*
X0077132Y0075690D01*
X0076548Y0078188D02*
X0075964Y0078771D01*
X0075964Y0081107D01*
X0076548Y0081690D01*
X0078299Y0081690D01*
X0078299Y0078188D01*
X0076548Y0078188D01*
X0074616Y0078188D02*
X0073449Y0078188D01*
X0074032Y0078188D02*
X0074032Y0080523D01*
X0074616Y0080523D01*
X0074032Y0081690D02*
X0074032Y0082274D01*
X0072161Y0079939D02*
X0072161Y0078771D01*
X0071577Y0078188D01*
X0069826Y0078188D01*
X0069826Y0077604D02*
X0069826Y0080523D01*
X0071577Y0080523D01*
X0072161Y0079939D01*
X0070993Y0077020D02*
X0070409Y0077020D01*
X0069826Y0077604D01*
X0068478Y0078188D02*
X0067310Y0078188D01*
X0067894Y0078188D02*
X0067894Y0080523D01*
X0068478Y0080523D01*
X0067894Y0081690D02*
X0067894Y0082274D01*
X0070409Y0074523D02*
X0070993Y0074523D01*
X0072161Y0073355D01*
X0072161Y0072188D02*
X0072161Y0074523D01*
X0073509Y0073939D02*
X0074092Y0074523D01*
X0075260Y0074523D01*
X0075844Y0073939D01*
X0075844Y0072771D01*
X0075260Y0072188D01*
X0074092Y0072188D01*
X0073509Y0072771D01*
X0073509Y0073939D01*
X0077132Y0073939D02*
X0078299Y0073939D01*
X0050676Y0039128D02*
X0050676Y0035625D01*
D11*
X0051674Y0049062D02*
X0078549Y0049062D01*
X0078549Y0040625D02*
X0016049Y0040625D01*
D12*
X0021674Y0021562D02*
X0009487Y0021562D01*
X0008237Y0022812D01*
X0008237Y0125937D01*
X0009487Y0127187D01*
X0039799Y0127187D01*
X0041049Y0125937D01*
X0041049Y0124687D01*
X0042299Y0123437D01*
X0083549Y0123437D01*
X0084799Y0122187D01*
X0084799Y0022812D01*
X0083549Y0021562D01*
X0062612Y0021562D01*
X0061362Y0020313D01*
X0061362Y0006250D01*
X0060112Y0005000D01*
X0053862Y0005000D01*
X0052612Y0006250D01*
X0052612Y0007812D01*
X0051362Y0009063D01*
X0032924Y0009063D01*
X0031674Y0007812D01*
X0031674Y0006250D01*
X0030424Y0005000D01*
X0024174Y0005000D01*
X0022924Y0006250D01*
X0022924Y0020313D01*
X0021674Y0021562D01*
X0059774Y0124560D02*
X0059776Y0124672D01*
X0059782Y0124783D01*
X0059792Y0124895D01*
X0059806Y0125006D01*
X0059823Y0125116D01*
X0059845Y0125226D01*
X0059871Y0125335D01*
X0059900Y0125443D01*
X0059933Y0125549D01*
X0059970Y0125655D01*
X0060011Y0125759D01*
X0060056Y0125862D01*
X0060104Y0125963D01*
X0060155Y0126062D01*
X0060210Y0126159D01*
X0060269Y0126254D01*
X0060330Y0126348D01*
X0060395Y0126439D01*
X0060464Y0126527D01*
X0060535Y0126613D01*
X0060609Y0126697D01*
X0060687Y0126777D01*
X0060767Y0126855D01*
X0060850Y0126931D01*
X0060935Y0127003D01*
X0061023Y0127072D01*
X0061113Y0127138D01*
X0061206Y0127200D01*
X0061301Y0127260D01*
X0061398Y0127316D01*
X0061496Y0127368D01*
X0061597Y0127417D01*
X0061699Y0127462D01*
X0061803Y0127504D01*
X0061908Y0127542D01*
X0062015Y0127576D01*
X0062122Y0127606D01*
X0062231Y0127633D01*
X0062340Y0127655D01*
X0062451Y0127674D01*
X0062561Y0127689D01*
X0062673Y0127700D01*
X0062784Y0127707D01*
X0062896Y0127710D01*
X0063008Y0127709D01*
X0063120Y0127704D01*
X0063231Y0127695D01*
X0063342Y0127682D01*
X0063453Y0127665D01*
X0063563Y0127645D01*
X0063672Y0127620D01*
X0063780Y0127592D01*
X0063887Y0127559D01*
X0063993Y0127523D01*
X0064097Y0127483D01*
X0064200Y0127440D01*
X0064302Y0127393D01*
X0064401Y0127342D01*
X0064499Y0127288D01*
X0064595Y0127230D01*
X0064689Y0127169D01*
X0064780Y0127105D01*
X0064869Y0127038D01*
X0064956Y0126967D01*
X0065040Y0126893D01*
X0065122Y0126817D01*
X0065200Y0126737D01*
X0065276Y0126655D01*
X0065349Y0126570D01*
X0065419Y0126483D01*
X0065485Y0126393D01*
X0065549Y0126301D01*
X0065609Y0126207D01*
X0065666Y0126111D01*
X0065719Y0126012D01*
X0065769Y0125912D01*
X0065815Y0125811D01*
X0065858Y0125707D01*
X0065897Y0125602D01*
X0065932Y0125496D01*
X0065963Y0125389D01*
X0065991Y0125280D01*
X0066014Y0125171D01*
X0066034Y0125061D01*
X0066050Y0124950D01*
X0066062Y0124839D01*
X0066070Y0124728D01*
X0066074Y0124616D01*
X0066074Y0124504D01*
X0066070Y0124392D01*
X0066062Y0124281D01*
X0066050Y0124170D01*
X0066034Y0124059D01*
X0066014Y0123949D01*
X0065991Y0123840D01*
X0065963Y0123731D01*
X0065932Y0123624D01*
X0065897Y0123518D01*
X0065858Y0123413D01*
X0065815Y0123309D01*
X0065769Y0123208D01*
X0065719Y0123108D01*
X0065666Y0123009D01*
X0065609Y0122913D01*
X0065549Y0122819D01*
X0065485Y0122727D01*
X0065419Y0122637D01*
X0065349Y0122550D01*
X0065276Y0122465D01*
X0065200Y0122383D01*
X0065122Y0122303D01*
X0065040Y0122227D01*
X0064956Y0122153D01*
X0064869Y0122082D01*
X0064780Y0122015D01*
X0064689Y0121951D01*
X0064595Y0121890D01*
X0064499Y0121832D01*
X0064401Y0121778D01*
X0064302Y0121727D01*
X0064200Y0121680D01*
X0064097Y0121637D01*
X0063993Y0121597D01*
X0063887Y0121561D01*
X0063780Y0121528D01*
X0063672Y0121500D01*
X0063563Y0121475D01*
X0063453Y0121455D01*
X0063342Y0121438D01*
X0063231Y0121425D01*
X0063120Y0121416D01*
X0063008Y0121411D01*
X0062896Y0121410D01*
X0062784Y0121413D01*
X0062673Y0121420D01*
X0062561Y0121431D01*
X0062451Y0121446D01*
X0062340Y0121465D01*
X0062231Y0121487D01*
X0062122Y0121514D01*
X0062015Y0121544D01*
X0061908Y0121578D01*
X0061803Y0121616D01*
X0061699Y0121658D01*
X0061597Y0121703D01*
X0061496Y0121752D01*
X0061398Y0121804D01*
X0061301Y0121860D01*
X0061206Y0121920D01*
X0061113Y0121982D01*
X0061023Y0122048D01*
X0060935Y0122117D01*
X0060850Y0122189D01*
X0060767Y0122265D01*
X0060687Y0122343D01*
X0060609Y0122423D01*
X0060535Y0122507D01*
X0060464Y0122593D01*
X0060395Y0122681D01*
X0060330Y0122772D01*
X0060269Y0122866D01*
X0060210Y0122961D01*
X0060155Y0123058D01*
X0060104Y0123157D01*
X0060056Y0123258D01*
X0060011Y0123361D01*
X0059970Y0123465D01*
X0059933Y0123571D01*
X0059900Y0123677D01*
X0059871Y0123785D01*
X0059845Y0123894D01*
X0059823Y0124004D01*
X0059806Y0124114D01*
X0059792Y0124225D01*
X0059782Y0124337D01*
X0059776Y0124448D01*
X0059774Y0124560D01*
M02*
